<?xml version="1.0" standalone="no"?>
<!DOCTYPE svg PUBLIC "-//W3C//DTD SVG 1.1//EN" "http://www.w3.org/Graphics/SVG/1.1/DTD/svg11.dtd" >
<svg xmlns="http://www.w3.org/2000/svg" xmlns:xlink="http://www.w3.org/1999/xlink" version="1.1">
<metadata>
Created by FontForge 20201107 at Wed Nov 20 02:26:25 2024
 By 
Copyright (c) 2010 by Jos Buivenga. All rights reserved.
</metadata>
<defs>
<font id="CallunaSans-Bold" horiz-adv-x="1064" >
  <font-face 
    font-family="Calluna Sans"
    font-weight="700"
    font-stretch="normal"
    units-per-em="2048"
    panose-1="2 0 0 0 0 0 0 0 0 0"
    ascent="1536"
    descent="-512"
    x-height="932"
    cap-height="1366"
    bbox="-326 -510 2367 1954"
    underline-thickness="102"
    underline-position="-204"
    unicode-range="U+0020-FB06"
  />
<missing-glyph horiz-adv-x="1613" 
d="M190 -109v1584h1229v-1584h-1229zM344 301l82 -84l379 381l379 -381l82 84l-379 379l379 381l-80 84l-381 -383l-381 383l-80 -84l379 -381z" />
    <glyph glyph-name="f_b" unicode="fb" horiz-adv-x="1771" 
d="M801 27v1251q-80 33 -144 33q-96 0 -153.5 -71t-57.5 -226v-82h250v-182h-250v-750h-256v750h-145v137l145 51v57q0 239 130.5 375.5t338.5 136.5q146 0 261 -61l137 22v-600q88 88 231 88q99 0 178.5 -36t130 -98.5t77 -144t26.5 -175.5q0 -105 -33 -199t-96.5 -168
t-166 -117t-230.5 -43q-71 0 -163.5 13t-148.5 25t-61 14zM1241 762q-90 0 -184 -72v-516q58 -18 119 -18q119 0 190.5 85.5t71.5 241.5q0 132 -53.5 205.5t-143.5 73.5z" />
    <glyph glyph-name="f_f_b" unicode="ffb" horiz-adv-x="2404" 
d="M1432 27v1241q-84 43 -158 43q-89 0 -143 -65.5t-54 -211.5v-102h250v-182h-250v-750h-254v760h-377v-760h-256v750h-145v137l145 51v29q0 230 128 360.5t329 130.5q71 0 138.5 -19t99.5 -36.5t55 -34.5q124 139 330 139q151 0 258 -65l160 26v-600q88 88 231 88
q99 0 178.5 -36t130 -98.5t77 -144t26.5 -175.5q0 -105 -33.5 -199t-97 -168t-165.5 -117t-231 -43q-71 0 -163.5 13t-148 25t-60.5 14zM1872 762q-90 0 -184 -72v-516q57 -18 118 -18q119 0 190.5 85.5t71.5 241.5q0 132 -53 205.5t-143 73.5zM823 1016q0 89 23 176
q-95 70 -195 70q-93 0 -149 -65.5t-56 -211.5v-53h377v84z" />
    <glyph glyph-name="f_f_h" unicode="ffh" horiz-adv-x="2406" 
d="M1432 0v1268q-84 43 -158 43q-89 0 -143 -65.5t-54 -211.5v-102h250v-182h-250v-750h-254v760h-377v-760h-256v750h-145v137l145 51v29q0 230 128 360.5t329 130.5q71 0 138.5 -19t99.5 -36.5t55 -34.5q124 139 330 139q151 0 258 -65l160 26v-684q155 172 340 172
q253 0 253 -292v-664h-253v555q0 95 -21.5 137.5t-73.5 42.5q-55 0 -121.5 -47t-123.5 -108v-580h-256zM823 1016q0 89 23 176q-95 70 -195 70q-93 0 -149 -65.5t-56 -211.5v-53h377v84z" />
    <glyph glyph-name="f_f_j" unicode="ffj" horiz-adv-x="1802" 
d="M1169 -287q55 8 96.5 27t77.5 54.5t55 96t19 144.5v725h-340v-760h-254v760h-377v-760h-256v750h-145v137l145 51v29q0 230 128 360.5t329 130.5q71 0 138.5 -19t99.5 -36.5t55 -34.5q124 139 330 139q76 0 146.5 -20t103.5 -40l32 -20l-90 -180q-10 7 -27.5 17.5
t-67.5 28.5t-95 18q-87 0 -141 -65.5t-54 -211.5v-102h596v-885q0 -125 -32.5 -222.5t-92 -160t-135 -99t-168.5 -50.5zM823 1016q0 92 23 176q-95 70 -195 70q-93 0 -149 -65.5t-56 -211.5v-53h377v84z" />
    <glyph glyph-name="f_f_k" unicode="ffk" horiz-adv-x="2371" 
d="M1432 0v1268q-84 43 -158 43q-89 0 -143 -65.5t-54 -211.5v-102h250v-182h-250v-750h-254v760h-377v-760h-256v750h-145v137l145 51v29q0 230 128 360.5t329 130.5q71 0 138.5 -19t99.5 -36.5t55 -34.5q124 139 330 139q151 0 258 -65l160 26v-858h32l305 322h324
l-410 -408l428 -524h-317l-330 424h-32v-424h-256zM823 1016q0 89 23 176q-95 70 -195 70q-93 0 -149 -65.5t-56 -211.5v-53h377v84z" />
    <glyph glyph-name="f_h" unicode="fh" horiz-adv-x="1771" 
d="M801 0v1278q-80 33 -144 33q-96 0 -153.5 -71t-57.5 -226v-82h250v-182h-250v-750h-256v750h-145v137l145 51v57q0 239 130.5 375.5t338.5 136.5q146 0 261 -61l137 22v-684q155 172 340 172q123 0 188.5 -72t65.5 -220v-664h-254v555q0 96 -21 138t-73 42
q-55 0 -122 -47t-124 -108v-580h-256z" />
    <glyph glyph-name="f_k" unicode="fk" horiz-adv-x="1738" 
d="M801 0v1278q-80 33 -144 33q-96 0 -153.5 -71t-57.5 -226v-82h250v-182h-250v-750h-256v750h-145v137l145 51v57q0 239 130.5 375.5t338.5 136.5q146 0 261 -61l137 22v-858h33l305 322h323l-409 -408l428 -524h-318l-329 424h-33v-424h-256z" />
    <glyph glyph-name="ff" unicode="ff" horiz-adv-x="1363" 
d="M45 750v137l145 51v29q0 230 128 360.5t329 130.5q71 0 138.5 -19t99.5 -36.5t55 -34.5q124 139 330 139q76 0 146.5 -20t103.5 -40l32 -20l-90 -180q-10 7 -27.5 17.5t-67.5 28.5t-95 18q-87 0 -141 -65.5t-54 -211.5v-102h250v-182h-250v-750h-254v760h-377v-760h-256
v750h-145zM823 1016q0 92 23 176q-95 70 -195 70q-93 0 -149 -65.5t-56 -211.5v-53h377v84z" />
    <glyph glyph-name="fi" unicode="fi" horiz-adv-x="1150" 
d="M766 0v760h-320v-760h-256v750h-145v137l145 51v57q0 239 130.5 375.5t338.5 136.5q79 0 152.5 -20t106.5 -40l34 -20l-90 -180q-11 7 -30 17.5t-73 28.5t-102 18q-96 0 -153.5 -71t-57.5 -226v-82h574v-932h-254z" />
    <glyph glyph-name="fl" unicode="fl" horiz-adv-x="1187" 
d="M803 0v1276q-85 35 -146 35q-96 0 -153.5 -71t-57.5 -226v-82h250v-182h-250v-750h-256v750h-145v137l145 51v57q0 239 130.5 375.5t338.5 136.5q136 0 261 -61l137 22v-1468h-254z" />
    <glyph glyph-name="f_f_i" unicode="ffi" horiz-adv-x="1781" 
d="M1397 0v760h-320v-760h-254v760h-377v-760h-256v750h-145v137l145 51v29q0 230 128 360.5t329 130.5q71 0 138.5 -19t99.5 -36.5t55 -34.5q124 139 330 139q76 0 146.5 -20t103.5 -40l32 -20l-90 -180q-10 7 -27.5 17.5t-67.5 28.5t-95 18q-87 0 -141 -65.5t-54 -211.5
v-102h576v-932h-256zM823 1016q0 92 23 176q-95 70 -195 70q-93 0 -149 -65.5t-56 -211.5v-53h377v84z" />
    <glyph glyph-name="f_f_l" unicode="ffl" horiz-adv-x="1818" 
d="M1434 0v1266q-88 45 -160 45q-89 0 -143 -65.5t-54 -211.5v-102h250v-182h-250v-750h-254v760h-377v-760h-256v750h-145v137l145 51v29q0 230 128 360.5t329 130.5q71 0 138.5 -19t99.5 -36.5t55 -34.5q124 139 330 139q146 0 258 -65l162 26v-1468h-256zM823 1016
q0 89 23 176q-95 70 -195 70q-93 0 -149 -65.5t-56 -211.5v-53h377v84z" />
    <glyph glyph-name="f_j" unicode="fj" horiz-adv-x="1171" 
d="M537 -287q43 6 78 18.5t67.5 37t55 59t35.5 87.5t13 120v725h-340v-760h-256v750h-145v137l145 51v57q0 239 130.5 375.5t338.5 136.5q79 0 152.5 -20t106.5 -40l34 -20l-90 -180q-11 7 -30 17.5t-73 28.5t-102 18q-96 0 -153.5 -71t-57.5 -226v-82h594v-885
q0 -125 -32.5 -222.5t-91.5 -160t-134 -99t-168 -50.5z" />
    <glyph glyph-name=".notdef" horiz-adv-x="1613" 
d="M190 -109v1584h1229v-1584h-1229zM344 301l82 -84l379 381l379 -381l82 84l-379 379l379 381l-80 84l-381 -383l-381 383l-80 -84l379 -381z" />
    <glyph glyph-name=".null" horiz-adv-x="0" 
 />
    <glyph glyph-name="nonmarkingreturn" horiz-adv-x="682" 
 />
    <glyph glyph-name="space" unicode=" " horiz-adv-x="491" 
 />
    <glyph glyph-name="exclam" unicode="!" horiz-adv-x="583" 
d="M193 461l-43 930h292l-47 -930h-202zM131 131q0 66 46.5 113t111.5 47q66 0 111.5 -47t45.5 -113q0 -64 -46 -110t-111 -46q-64 0 -111 46.5t-47 109.5z" />
    <glyph glyph-name="quotedbl" unicode="&#x22;" horiz-adv-x="792" 
d="M483 823v543h222v-76l-70 -467h-152zM115 823v543h221v-76l-70 -467h-151z" />
    <glyph glyph-name="numbersign" unicode="#" horiz-adv-x="1400" 
d="M152 651l22 144h277l79 389h148l-80 -389h291l80 389h149l-80 -389h293l-22 -144h-299l-58 -278h297l-22 -144h-303l-84 -411h-152l86 411h-291l-84 -411h-149l84 411h-264l22 144h273l57 278h-270zM569 651l-57 -278h291l57 278h-291z" />
    <glyph glyph-name="dollar" unicode="$" horiz-adv-x="976" 
d="M74 84l53 211q4 -4 12 -10t37 -22t61.5 -29t86 -25.5t110.5 -15.5l8 288q-169 57 -260.5 139t-91.5 205q0 125 91 217t278 111l6 180h98l-6 -176q86 -2 162.5 -17t110.5 -30l34 -14l-65 -203q-11 5 -31.5 13.5t-85 24t-129.5 19.5l-8 -280q83 -28 142 -56.5t110 -68.5
t76.5 -93.5t25.5 -121.5q0 -138 -99 -229.5t-274 -110.5l-4 -172h-98l4 168q-99 3 -187.5 27.5t-127.5 47.5zM666 309q0 50 -29.5 79.5t-97.5 57.5l-7 -253q134 13 134 116zM317 842q0 -51 32.5 -81.5t99.5 -58.5l6 248q-138 -13 -138 -108z" />
    <glyph glyph-name="percent" unicode="%" horiz-adv-x="1564" 
d="M236 0l968 1397l103 -70l-922 -1327h-149zM406 721q-146 0 -241 93.5t-95 229.5q0 135 95 228.5t241 93.5q144 0 238.5 -93.5t94.5 -228.5t-94.5 -229t-238.5 -94zM406 870q76 0 124 53t48 121t-48 120.5t-124 52.5t-125.5 -52.5t-49.5 -120.5t49.5 -121t125.5 -53z
M827 299q0 135 95 228.5t239 93.5q146 0 241 -93.5t95 -228.5q0 -136 -95 -230t-241 -94q-144 0 -239 94.5t-95 229.5zM989 299q0 -69 48 -121.5t124 -52.5t125 52.5t49 121.5q0 68 -49 120t-125 52t-124 -52t-48 -120z" />
    <glyph glyph-name="ampersand" unicode="&#x26;" horiz-adv-x="1441" 
d="M70 340q0 67 21.5 124.5t62 103.5t85.5 80t105 69q-104 181 -104 327q0 66 22.5 125.5t66.5 110.5t120.5 81t175.5 30q170 0 266 -87t96 -231q0 -59 -17.5 -112t-44.5 -91.5t-70 -76t-83 -63.5t-94 -56q38 -52 74 -90q78 -94 186 -199q160 207 186 547h228
q-15 -176 -77.5 -361t-174.5 -327q161 -124 282 -164l-86 -166q-151 20 -366 170q-160 -109 -371 -109q-71 0 -138.5 12t-131.5 39.5t-112 68.5t-77.5 104t-29.5 141zM555 176q109 0 203 49q-128 110 -234 238l-71 88q-144 -91 -144 -199q0 -84 69 -130t177 -46zM502 1047
q0 -91 65 -211q94 50 144.5 102.5t50.5 122.5q0 56 -34.5 92.5t-96.5 36.5q-64 0 -96.5 -40.5t-32.5 -102.5z" />
    <glyph glyph-name="quotesingle" unicode="'" horiz-adv-x="423" 
d="M115 823v543h235v-76l-106 -467h-129z" />
    <glyph glyph-name="parenleft" unicode="(" horiz-adv-x="618" 
d="M90 553q0 110 17.5 218t45.5 193t61.5 162.5t67 132.5t61.5 96t45 61l18 20l178 -60q-6 -7 -17 -20t-41.5 -57.5t-58.5 -92.5t-62.5 -123.5t-59 -152.5t-41.5 -177t-17 -200q0 -110 17 -217.5t43.5 -192t59 -161t65.5 -131t59.5 -95t43.5 -60.5l17 -20l-176 -67
q-7 8 -18.5 22t-45.5 63.5t-65 103.5t-68.5 139.5t-64.5 174.5t-45.5 206t-18.5 235z" />
    <glyph glyph-name="parenright" unicode=")" horiz-adv-x="618" 
d="M27 -324q12 14 33 40t73.5 113.5t92.5 183t73 243t33 297.5q0 137 -30.5 272t-74 230t-87.5 170.5t-74 112.5l-31 38l178 60q13 -14 34 -40.5t75.5 -115t96 -184.5t75.5 -244t34 -299q0 -118 -18 -234t-46.5 -207t-63 -173.5t-69.5 -141t-63.5 -102t-46.5 -65.5l-18 -21z
" />
    <glyph glyph-name="asterisk" unicode="*" horiz-adv-x="1026" 
d="M473 1092l-78 317h236l-76 -317h-82zM637 995l-39 72l236 225l116 -202zM389 995l-313 95l119 202l235 -225zM598 877l39 69l313 -92l-116 -203zM195 651l-119 203l313 92l41 -69zM395 535l78 315h82l76 -315h-236z" />
    <glyph glyph-name="plus" unicode="+" 
d="M51 440v166h395v414h175v-414h389v-166h-389v-440h-175v440h-395z" />
    <glyph glyph-name="comma" unicode="," horiz-adv-x="507" 
d="M84 219l231 76q95 -130 95 -260q0 -212 -263 -428l-92 92q2 2 23.5 22t24.5 23t20 20.5t20.5 23t16.5 21.5t16 24.5t11.5 24.5t10.5 29t4.5 29.5t2.5 34.5q0 55 -26 111t-95 157z" />
    <glyph glyph-name="hyphen" unicode="-" horiz-adv-x="755" 
d="M106 440v164h543v-164h-543z" />
    <glyph glyph-name="period" unicode="." horiz-adv-x="518" 
d="M100 131q0 66 46.5 113t111.5 47t111.5 -47t46.5 -113q0 -63 -47 -109.5t-111 -46.5t-111 46.5t-47 109.5z" />
    <glyph glyph-name="slash" unicode="/" horiz-adv-x="956" 
d="M41 -401l682 1767h172l-680 -1767h-174z" />
    <glyph glyph-name="zero" unicode="0" horiz-adv-x="1146" 
d="M84 475q0 98 31.5 189.5t91.5 166.5t157.5 120.5t217.5 45.5q115 0 208.5 -41t152 -110t89.5 -155t31 -181q0 -78 -19 -154t-59.5 -145t-98 -121.5t-140 -83.5t-179.5 -31q-115 0 -208.5 42.5t-152.5 114t-90.5 160t-31.5 183.5zM324 481q0 -60 13.5 -112.5t41.5 -96.5
t78 -70t116 -26q68 0 118.5 26t78.5 70.5t41.5 97t13.5 113.5t-13.5 115t-42 100t-78.5 72.5t-116 26.5q-68 0 -118 -27t-78 -73t-41.5 -100t-13.5 -116z" />
    <glyph glyph-name="one" unicode="1" horiz-adv-x="874" 
d="M100 0v199h246v567h-237v207h487v-774h225v-199h-721z" />
    <glyph glyph-name="two" unicode="2" horiz-adv-x="950" 
d="M86 0v143q18 13 48.5 35t108 86.5t136.5 124t107.5 133t48.5 127.5q0 60 -40 98.5t-106 38.5q-47 0 -99.5 -19t-81.5 -37l-28 -19l-100 157q6 5 17.5 14t48.5 31t76.5 39t99 31t118.5 14q158 0 257.5 -88.5t99.5 -224.5q0 -68 -29.5 -135.5t-86 -132.5t-106.5 -112
t-124 -107h432v-197h-797z" />
    <glyph glyph-name="three" unicode="3" horiz-adv-x="841" 
d="M37 -209q50 -4 72 -4q172 0 283.5 67.5t111.5 192.5q0 50 -27 87.5t-72 57t-94 28.5t-102 9h-43v189q70 4 140.5 38.5t118.5 92.5t48 123q0 54 -36.5 84t-94.5 30q-47 0 -99.5 -21t-80.5 -42l-29 -21l-113 164q6 5 18 14t51 31.5t79.5 40t101 31.5t119.5 14
q148 0 247 -81t99 -201q0 -112 -71.5 -197t-180.5 -143q134 -36 208.5 -126t74.5 -202q0 -137 -88 -241t-233 -156.5t-324 -52.5q-42 0 -62 2z" />
    <glyph glyph-name="four" unicode="4" horiz-adv-x="1101" 
d="M49 27v168l547 784h266v-764h182v-188h-182v-422h-248v422h-565zM295 215h319v483z" />
    <glyph glyph-name="five" unicode="5" horiz-adv-x="841" 
d="M66 -207q58 -4 84 -4q77 0 141 14t115.5 43.5t80.5 79.5t29 117q0 44 -12 80t-33 62t-51.5 47t-63.5 35t-73 25t-77.5 19t-79.5 16q-25 5 -38 7v639h631v-197h-385v-280q51 -13 94.5 -27.5t90 -35.5t83.5 -45.5t70.5 -58.5t56 -73t36 -90t13.5 -109q0 -146 -82 -251
t-221.5 -157t-320.5 -52q-43 0 -66 2z" />
    <glyph glyph-name="six" unicode="6" horiz-adv-x="1069" 
d="M549 -25q-93 0 -171.5 31.5t-133.5 86.5t-93 130t-56.5 161.5t-18.5 180.5q0 124 31 240.5t96.5 220.5t157.5 183t223 127.5t286 54.5l17 -199q-123 -9 -218.5 -45t-157.5 -93.5t-100 -124.5t-57 -149q92 115 260 115q116 0 206.5 -60.5t137 -159.5t46.5 -216
q0 -92 -30 -178t-86 -154.5t-144 -110t-195 -41.5zM555 688q-121 0 -221 -100q0 -181 60 -296.5t171 -115.5q85 0 134 71.5t49 184.5q0 44 -8 84t-27.5 81t-60 66t-97.5 25z" />
    <glyph glyph-name="seven" unicode="7" horiz-adv-x="958" 
d="M98 -367q310 580 527 1119h-574v221h862v-150q-233 -588 -569 -1241z" />
    <glyph glyph-name="eight" unicode="8" horiz-adv-x="1056" 
d="M86 336q0 63 20.5 117.5t59 99.5t80 79t98.5 70q-91 74 -142.5 153t-51.5 179q0 152 111.5 254.5t287.5 102.5q162 0 274.5 -88.5t112.5 -241.5q0 -106 -55.5 -186t-153.5 -150q55 -36 93.5 -68t76 -75.5t57 -96t19.5 -112.5q0 -102 -55 -192.5t-159.5 -148t-234.5 -57.5
q-64 0 -126.5 14t-119 44t-99 72t-68 101.5t-25.5 129.5zM719 354q0 27 -12 53.5t-28.5 47t-48.5 47t-55.5 43t-66.5 45.5q-96 -62 -147.5 -117.5t-51.5 -124.5q0 -75 58.5 -126.5t138.5 -51.5q86 0 149.5 56t63.5 128zM403 1055q0 -64 40.5 -116t115.5 -103q72 50 112 101
t40 114q0 65 -43 105t-115 40t-111 -40.5t-39 -100.5z" />
    <glyph glyph-name="nine" unicode="9" horiz-adv-x="1083" 
d="M205 -209q125 9 221 45.5t157.5 95t98 126t55.5 149.5q-89 -119 -260 -119q-174 0 -281.5 124.5t-107.5 301.5q0 91 30.5 177t86 154.5t143.5 110t195 41.5q116 0 208 -48t149 -130.5t86.5 -187t29.5 -223.5q0 -122 -31 -237.5t-96.5 -218t-158 -180.5t-223.5 -126
t-286 -54zM539 295q121 0 219 98q-2 177 -62 290.5t-168 113.5q-86 0 -134 -71.5t-48 -184.5q0 -42 8 -80.5t27.5 -78.5t60 -63.5t97.5 -23.5z" />
    <glyph glyph-name="colon" unicode=":" horiz-adv-x="569" 
d="M285 641q-65 0 -111.5 46t-46.5 110q0 66 46.5 111.5t111.5 45.5q66 0 111.5 -45.5t45.5 -111.5q0 -65 -45.5 -110.5t-111.5 -45.5zM127 131q0 66 46.5 113t111.5 47q66 0 111.5 -47t45.5 -113q0 -64 -46 -110t-111 -46q-64 0 -111 46.5t-47 109.5z" />
    <glyph glyph-name="semicolon" unicode=";" horiz-adv-x="563" 
d="M113 219l231 76q51 -70 72.5 -131t21.5 -129q0 -212 -262 -428l-92 92q76 73 97 100q52 67 52 152q0 55 -26 111.5t-94 156.5zM123 795q0 66 46.5 112.5t111.5 46.5t111 -46.5t46 -112.5q0 -63 -46.5 -109.5t-110.5 -46.5t-111 46.5t-47 109.5z" />
    <glyph glyph-name="less" unicode="&#x3c;" 
d="M53 473v94l873 469l41 -170l-676 -346l676 -368l-41 -166z" />
    <glyph glyph-name="equal" unicode="=" 
d="M84 610v164h897v-164h-897zM84 252v164h897v-164h-897z" />
    <glyph glyph-name="greater" unicode="&#x3e;" 
d="M139 -14l-41 166l674 368l-674 346l41 170l873 -469v-94z" />
    <glyph glyph-name="question" unicode="?" horiz-adv-x="790" 
d="M211 461q-4 24 -4 47q0 67 24 131t57.5 112t67.5 89.5t58 79t24 65.5q0 33 -36.5 71t-88 68.5t-103 56.5t-88.5 40l-36 14l57 227q12 -3 33 -9.5t81 -29t114.5 -47.5t121 -64.5t114.5 -81.5t81 -98t33 -114q0 -46 -22.5 -92.5t-56 -84t-73 -82.5t-73 -86.5t-56 -97.5
t-22.5 -114h-207zM162 131q0 66 46 113t109 47q66 0 113 -47t47 -113q0 -63 -47 -109.5t-113 -46.5q-63 0 -109 46.5t-46 109.5z" />
    <glyph glyph-name="at" unicode="@" horiz-adv-x="1779" 
d="M76 395q0 164 63 315t173.5 266t273 184t350.5 69q164 0 305.5 -52.5t239.5 -143t153.5 -216t55.5 -268.5q0 -138 -52.5 -257.5t-164.5 -191.5q-48 -32 -104.5 -50.5t-152.5 -39.5t-147 -35q-37 144 -39 146q-30 -59 -102.5 -102.5t-151.5 -43.5q-131 0 -220 107.5
t-89 284.5q0 122 47.5 224.5t127.5 170.5t184 105.5t218 37.5q36 0 80 -4t70 -8l25 -4v-535q0 -40 4 -83t8 -66l4 -23q87 5 148 55t87.5 125t26.5 168q0 111 -38 209t-108 172t-177 117t-236 43q-148 0 -275 -56t-212 -149.5t-133 -215t-48 -251.5t48 -243t126 -189
t176 -121.5t199 -50.5l-31 -166q-149 9 -280.5 71t-226.5 162.5t-150 239t-55 293.5zM821 164q89 0 158 108v459q-117 0 -193.5 -104.5t-76.5 -249.5q0 -88 28.5 -150.5t83.5 -62.5z" />
    <glyph glyph-name="A" unicode="A" horiz-adv-x="1300" 
d="M10 0l514 1376h252l514 -1376h-268l-111 307h-528l-111 -307h-262zM647 1042l-186 -516h370z" />
    <glyph glyph-name="B" unicode="B" horiz-adv-x="1234" 
d="M170 0v1366h455q126 0 219.5 -28.5t144.5 -77t74.5 -104t23.5 -118.5q0 -172 -159 -297q29 -14 55.5 -31t59 -47.5t55.5 -66t39 -88t16 -111.5q0 -180 -130 -288.5t-337 -108.5h-516zM434 221h221q113 0 168.5 49t55.5 136q0 81 -56 131.5t-168 50.5h-221v-367zM434 1145
v-344h277q3 1 12.5 7.5t25 22t29 35t23.5 50.5t10 65q0 76 -48.5 120t-168.5 44h-160z" />
    <glyph glyph-name="C" unicode="C" horiz-adv-x="1382" 
d="M80 662q0 153 54 286t151 231.5t241.5 155t317.5 56.5q85 0 165 -11.5t133.5 -28.5t94.5 -33.5t61 -27.5l19 -12l-100 -223q-6 4 -16.5 11.5t-47.5 25.5t-78 32t-106.5 25.5t-134.5 11.5q-221 0 -352.5 -134.5t-131.5 -342.5q0 -145 66 -255.5t174 -167t239 -56.5
q68 0 134.5 13t112.5 31.5t82 36.5t54 31l17 13l106 -193q-7 -7 -21 -17.5t-62.5 -38.5t-104.5 -49.5t-146.5 -39t-187.5 -17.5q-151 0 -284 47.5t-233 133.5t-158 217t-58 289z" />
    <glyph glyph-name="D" unicode="D" horiz-adv-x="1490" 
d="M170 0v1366h485q115 0 220 -21.5t203 -72t169.5 -125t114.5 -188t43 -254.5q0 -225 -106 -385.5t-290.5 -240t-430.5 -79.5h-408zM434 221h123q152 0 264.5 36t178.5 101t98 148.5t32 185.5q0 209 -128.5 331t-374.5 122h-193v-924z" />
    <glyph glyph-name="E" unicode="E" horiz-adv-x="1126" 
d="M170 0v1366h862v-221h-598v-342h471v-219h-471v-363h613v-221h-877z" />
    <glyph glyph-name="F" unicode="F" horiz-adv-x="1083" 
d="M170 0v1366h858v-221h-594v-352h471v-220h-471v-573h-264z" />
    <glyph glyph-name="G" unicode="G" horiz-adv-x="1447" 
d="M78 659q0 146 53 278t150 233t246.5 161t330.5 60q125 0 241 -25.5t170 -50.5l54 -25l-100 -223q-7 4 -19 10t-51 22.5t-80.5 29t-103 22.5t-121.5 10q-119 0 -215 -39t-157.5 -105.5t-94.5 -154t-33 -186.5q0 -216 144.5 -343.5t365.5 -127.5q46 0 100.5 5t85.5 10l31 5
v301h-274v219h532v-708q-292 -62 -497 -62q-213 0 -384.5 82.5t-272.5 239.5t-101 362z" />
    <glyph glyph-name="H" unicode="H" horiz-adv-x="1562" 
d="M170 0v1366h264v-559h694v559h263v-1366h-263v588h-694v-588h-264z" />
    <glyph glyph-name="I" unicode="I" horiz-adv-x="604" 
d="M170 0v1366h264v-1366h-264z" />
    <glyph glyph-name="J" unicode="J" horiz-adv-x="604" 
d="M-86 -164q258 23 258 389v1141h264v-1133q0 -92 -11 -170t-40.5 -156t-77.5 -135t-127 -99.5t-184 -57.5z" />
    <glyph glyph-name="K" unicode="K" horiz-adv-x="1277" 
d="M170 0v1366h264v-541h37l461 541h325l-563 -639l592 -727h-334l-481 606h-37v-606h-264z" />
    <glyph glyph-name="L" unicode="L" horiz-adv-x="1083" 
d="M170 0v1366h264v-1145h619v-221h-883z" />
    <glyph glyph-name="M" unicode="M" horiz-adv-x="1802" 
d="M147 0l50 1366h378l330 -948l330 948h373l49 -1366h-256l-39 1069l-379 -1069h-172l-375 1067l-35 -1067h-254z" />
    <glyph glyph-name="N" unicode="N" horiz-adv-x="1529" 
d="M170 0v1366h266l666 -963v963h258v-1366h-268l-664 956v-956h-258z" />
    <glyph glyph-name="O" unicode="O" horiz-adv-x="1640" 
d="M78 680q0 108 31 211t93.5 193.5t150 159t209.5 108t263 39.5q166 0 306 -54t233.5 -147t145 -217t51.5 -264q0 -142 -54 -274.5t-149.5 -234.5t-239 -163.5t-311.5 -61.5q-164 0 -303 57.5t-231 155t-143.5 225t-51.5 267.5zM354 688q0 -89 29.5 -175t85 -156.5
t145 -114t199.5 -43.5q109 0 200 41.5t150 111t91 157.5t32 183q0 74 -19 143t-58 129.5t-93.5 105.5t-130.5 71t-164 26q-110 0 -200 -40t-147.5 -107.5t-88.5 -153t-31 -178.5z" />
    <glyph glyph-name="P" unicode="P" horiz-adv-x="1200" 
d="M170 0v1366h477q128 0 226.5 -34.5t158 -94.5t89.5 -137t30 -168q0 -215 -142 -342t-362 -127h-213v-463h-264zM434 684h170q136 0 203 61.5t67 172.5q0 227 -270 227h-170v-461z" />
    <glyph glyph-name="Q" unicode="Q" horiz-adv-x="1640" 
d="M78 680q0 108 31 211t93.5 193.5t150 159t209.5 108t263 39.5q166 0 306 -54t233.5 -147t145 -217t51.5 -264q0 -235 -139.5 -430t-374.5 -269q33 -43 59.5 -73.5t73.5 -70t95.5 -63t120.5 -39.5t154 -14l-37 -235q-57 -1 -110.5 5.5t-96.5 16t-86 28t-73.5 33
t-65.5 40.5t-54.5 42t-48 45t-39.5 41.5t-34.5 40.5t-27.5 33l-62 72q-20 25 -57 45.5t-72 26.5q-185 31 -324 131.5t-211.5 247t-72.5 317.5zM354 688q0 -91 29.5 -178t85 -158.5t145 -115t199.5 -43.5q109 0 200 42.5t150 113.5t91 159.5t32 183.5q0 93 -30.5 177.5
t-87 151.5t-146.5 106.5t-201 39.5q-110 0 -200 -40t-147.5 -107.5t-88.5 -153t-31 -178.5z" />
    <glyph glyph-name="R" unicode="R" horiz-adv-x="1290" 
d="M170 0v1366h455q128 0 226.5 -32t158 -88.5t89 -129t29.5 -158.5q0 -127 -64.5 -224t-172.5 -152l385 -582h-311l-336 516h-195v-516h-264zM434 735h150q133 0 200.5 56t67.5 155q0 199 -270 199h-148v-410z" />
    <glyph glyph-name="S" unicode="S" horiz-adv-x="1054" 
d="M80 90l76 234q6 -5 17 -13.5t47 -29.5t73.5 -36.5t92.5 -28t108 -11.5q91 0 153 38.5t62 106.5q0 50 -33.5 91.5t-87.5 73.5t-118.5 63.5t-129.5 70t-119 84t-87.5 114t-33.5 152.5q0 164 127.5 278t343.5 114q84 0 177 -15.5t144 -31.5l50 -15l-43 -237q-18 8 -49 19.5
t-116.5 30.5t-158.5 19q-91 0 -149.5 -35.5t-58.5 -99.5q0 -50 33.5 -91.5t87 -72.5t118 -62t129 -69.5t118 -84.5t87 -117t33.5 -158q0 -121 -64.5 -212t-171.5 -137.5t-239 -46.5q-110 0 -214.5 29t-153.5 58z" />
    <glyph glyph-name="T" unicode="T" horiz-adv-x="1230" 
d="M485 0v1145h-450v221h1161v-221h-448v-1145h-263z" />
    <glyph glyph-name="U" unicode="U" horiz-adv-x="1458" 
d="M154 512v854h264v-827q0 -177 84 -258.5t229 -81.5q144 0 227.5 85t83.5 246v836h265v-825q0 -135 -45.5 -243.5t-124.5 -178.5t-183.5 -107t-224.5 -37q-98 0 -182 18t-157 59t-125 102.5t-81.5 152.5t-29.5 205z" />
    <glyph glyph-name="V" unicode="V" horiz-adv-x="1239" 
d="M494 -10l-484 1376h281l334 -981l333 981h271l-484 -1376h-251z" />
    <glyph glyph-name="W" unicode="W" horiz-adv-x="1984" 
d="M446 -10l-409 1376h272l285 -1001l297 1001h209l297 -1001l286 1001h265l-412 -1376h-268l-277 907l-274 -907h-271z" />
    <glyph glyph-name="X" unicode="X" horiz-adv-x="1271" 
d="M31 0l448 678l-448 688h311l297 -473l299 473h303l-448 -682l448 -684h-311l-297 471l-297 -471h-305z" />
    <glyph glyph-name="Y" unicode="Y" horiz-adv-x="1245" 
d="M492 0v569l-494 797h309l316 -535l325 535h299l-491 -795v-571h-264z" />
    <glyph glyph-name="Z" unicode="Z" horiz-adv-x="1191" 
d="M74 0v160l676 985h-646v221h986v-160l-666 -985h690v-221h-1040z" />
    <glyph glyph-name="bracketleft" unicode="[" horiz-adv-x="593" 
d="M152 -332v1698h413v-143h-231v-1409h231v-146h-413z" />
    <glyph glyph-name="backslash" unicode="\" horiz-adv-x="964" 
d="M741 -401l-680 1767h179l682 -1767h-181z" />
    <glyph glyph-name="bracketright" unicode="]" horiz-adv-x="589" 
d="M25 -207h231v1448h-231v125h413v-1698h-413v125z" />
    <glyph glyph-name="asciicircum" unicode="^" horiz-adv-x="964" 
d="M-27 512l439 879h141l438 -879h-184l-328 655l-325 -655h-181z" />
    <glyph glyph-name="underscore" unicode="_" horiz-adv-x="1062" 
d="M18 -76h1024v-141h-1024v141z" />
    <glyph glyph-name="grave" unicode="`" horiz-adv-x="1044" 
d="M608 1040l-317 408h241l211 -334z" />
    <glyph glyph-name="a" unicode="a" horiz-adv-x="1007" 
d="M53 219q0 289 545 361v32q0 77 -25 115.5t-104 38.5q-67 0 -140.5 -28t-114.5 -56l-40 -27l-61 181q7 5 19.5 13t55 28.5t89 36.5t118.5 29t146 13q175 0 244 -72t69 -231v-360q0 -31 10.5 -53t26 -32.5t31 -16.5t26.5 -7h10l-73 -198q-196 5 -260 137
q-11 -16 -23.5 -31.5t-39 -38t-56.5 -38.5t-75.5 -28t-96.5 -12q-126 0 -203.5 69t-77.5 175zM403 162q94 0 195 121v149q-149 -21 -217 -69t-68 -123q0 -40 25 -59t65 -19z" />
    <glyph glyph-name="b" unicode="b" horiz-adv-x="1093" 
d="M123 27v1400l256 41v-600q88 88 231 88q99 0 178.5 -36t130 -98.5t77 -144t26.5 -175.5q0 -105 -33 -199t-96.5 -168t-166 -117t-230.5 -43q-71 0 -163.5 13t-148.5 25t-61 14zM563 762q-90 0 -184 -72v-516q58 -18 119 -18q119 0 190.5 85.5t71.5 241.5
q0 132 -53.5 205.5t-143.5 73.5z" />
    <glyph glyph-name="c" unicode="c" horiz-adv-x="956" 
d="M66 449q0 99 36.5 190.5t101.5 162t161.5 112.5t209.5 42q59 0 114.5 -9.5t93 -23.5t67 -28t43.5 -23l14 -10l-90 -186q-4 3 -11 9t-30.5 20.5t-48 25.5t-61 20t-72.5 9q-114 0 -189 -80t-75 -217q0 -132 70 -211.5t186 -79.5q64 0 124.5 23.5t89.5 46.5l29 24l78 -172
q-4 -5 -12.5 -13t-39 -28.5t-66.5 -36t-96 -28.5t-126 -13q-225 0 -363 135.5t-138 338.5z" />
    <glyph glyph-name="d" unicode="d" horiz-adv-x="1110" 
d="M70 438q0 100 31.5 191.5t90.5 165t154 117.5t213 44q90 0 162 -28v499l254 41v-1183q0 -50 10.5 -121.5t21.5 -117.5l11 -46l-238 -14q-18 69 -28 135q-84 -146 -285 -146q-178 0 -287.5 133.5t-109.5 329.5zM522 166q66 0 117 38.5t82 84.5v360q0 60 -38.5 88.5
t-104.5 28.5q-115 0 -178.5 -80.5t-63.5 -230.5q0 -136 47.5 -212.5t138.5 -76.5z" />
    <glyph glyph-name="e" unicode="e" horiz-adv-x="1009" 
d="M70 461q0 136 56.5 248.5t163 179.5t242.5 67q182 0 290.5 -118.5t109.5 -337.5l-139 -41l-461 -60q22 -105 90 -166t172 -61q68 0 139 29t107 57l37 29l65 -181q-6 -5 -17.5 -14t-50 -31.5t-80.5 -40t-108.5 -31.5t-134.5 -14q-153 0 -264 68.5t-164 177t-53 240.5z
M514 766q-80 0 -128.5 -60.5t-59.5 -158.5l329 43q0 7 -1 19t-9.5 42.5t-21.5 53.5t-42 42t-67 19z" />
    <glyph glyph-name="f" unicode="f" horiz-adv-x="733" 
d="M45 750v137l145 51v78q0 230 125 360.5t322 130.5q77 0 148.5 -20t104.5 -40l32 -20l-91 -190q-10 7 -27.5 18t-67.5 29.5t-95 18.5q-87 0 -141 -64t-54 -205v-102h250v-182h-250v-750h-256v750h-145z" />
    <glyph glyph-name="g" unicode="g" horiz-adv-x="1050" 
d="M125 162q0 95 147 182q-90 42 -139 118t-49 169q0 77 34 139.5t91.5 102.5t130.5 61.5t154 21.5q64 0 143 -19t129 -19h117q29 0 60.5 5t48.5 10l16 5l14 -184h-100q-36 0 -76 6q61 -61 61 -156q0 -90 -62.5 -160.5t-159 -105.5t-206.5 -35q-41 0 -59 2q-70 -41 -70 -65
q0 -22 66 -44q23 -7 229 -63q42 -11 67 -18.5t65.5 -22t66 -28t55.5 -35t47 -44.5t29 -54.5t12 -67.5q0 -68 -39.5 -131.5t-107.5 -111.5t-165 -76.5t-206 -28.5q-110 0 -204 26.5t-156 82t-62 130.5q0 144 225 269q-75 28 -111 60t-36 79zM272 -199q0 -51 56 -79.5
t153 -28.5q114 0 191.5 36.5t77.5 94.5q0 39 -45.5 64t-167.5 59l-101 28q-4 -2 -25.5 -16t-28.5 -19t-26 -18.5t-27 -21.5l-21.5 -21.5t-19.5 -24.5t-11 -25t-5 -28zM494 473q76 0 124 43t48 107q0 61 -45 112t-125 51q-79 0 -124.5 -49t-45.5 -110q0 -60 44 -107t124 -47z
" />
    <glyph glyph-name="h" unicode="h" horiz-adv-x="1099" 
d="M129 0v1427l256 41v-684q155 172 340 172q123 0 188.5 -72t65.5 -220v-664h-254v555q0 96 -21 138t-73 42q-55 0 -122 -47t-124 -108v-580h-256z" />
    <glyph glyph-name="i" unicode="i" horiz-adv-x="514" 
d="M258 1135q-66 0 -109 40t-43 103t43 103t109 40q65 0 107.5 -40t42.5 -103t-42.5 -103t-107.5 -40zM129 0v932h256v-932h-256z" />
    <glyph glyph-name="j" unicode="j" horiz-adv-x="514" 
d="M256 1135q-66 0 -109 40t-43 103t43 103t109 40q65 0 107.5 -40t42.5 -103t-42.5 -103t-107.5 -40zM129 35v897h256v-885q0 -125 -32.5 -222.5t-92 -160t-135 -99t-168.5 -50.5l-76 198q55 8 96.5 27t77.5 54.5t55 96t19 144.5z" />
    <glyph glyph-name="k" unicode="k" 
d="M129 0v1427l256 41v-858h33l305 322h324l-410 -408l428 -524h-317l-330 424h-33v-424h-256z" />
    <glyph glyph-name="l" unicode="l" horiz-adv-x="514" 
d="M129 0v1427l256 41v-1468h-256z" />
    <glyph glyph-name="m" unicode="m" horiz-adv-x="1669" 
d="M125 0v911l246 41v-170q161 174 342 174q191 0 237 -176q167 176 346 176q121 0 186.5 -72.5t65.5 -219.5v-664h-254v555q0 96 -21 138t-73 42q-92 0 -235 -143v-592h-254v555q0 95 -21.5 137.5t-73.5 42.5q-94 0 -235 -145v-590h-256z" />
    <glyph glyph-name="n" unicode="n" horiz-adv-x="1095" 
d="M125 0v911l246 41v-172q163 176 352 176q121 0 186.5 -72.5t65.5 -219.5v-664h-254v555q0 96 -21 138t-73 42q-99 0 -246 -147v-588h-256z" />
    <glyph glyph-name="o" unicode="o" horiz-adv-x="1142" 
d="M68 463q0 72 17.5 141t57 133t97 112.5t144 77.5t191.5 29q121 0 218.5 -40t157.5 -106.5t92 -150t32 -174.5q0 -70 -17 -139.5t-56.5 -137t-96.5 -119t-144.5 -83t-193.5 -31.5q-121 0 -218 41t-157.5 110t-92 155t-31.5 182zM332 481q0 -131 62.5 -223t178.5 -92
q102 0 170 82t68 211q0 78 -24.5 145.5t-80.5 114.5t-135 47q-103 0 -171 -80.5t-68 -204.5z" />
    <glyph glyph-name="p" unicode="p" horiz-adv-x="1101" 
d="M125 -481v1392l246 41v-151q36 69 102.5 112t165.5 43q119 0 209.5 -63t136 -166.5t45.5 -230.5q0 -81 -19 -156.5t-58 -142t-94 -116t-132.5 -78t-167.5 -28.5q-116 0 -178 39v-454zM590 756q-112 0 -209 -140v-366q0 -38 36 -61t99 -23q113 0 181.5 80.5t68.5 232.5
q0 129 -48.5 203t-127.5 74z" />
    <glyph glyph-name="q" unicode="q" horiz-adv-x="1095" 
d="M70 430q0 105 33 198.5t96.5 167.5t165.5 117t231 43q72 0 165 -13t151 -25l57 -13v-1345l-254 -41v544q-84 -88 -234 -88q-131 0 -225.5 62.5t-140 164t-45.5 228.5zM530 176q91 0 185 68v512q-60 20 -119 20q-119 0 -190.5 -86t-71.5 -241q0 -130 52.5 -201.5
t143.5 -71.5z" />
    <glyph glyph-name="r" unicode="r" horiz-adv-x="747" 
d="M125 0v911l246 41v-192q18 31 40.5 59.5t57.5 62t82 54t98 20.5q23 0 43 -4t28 -8l9 -4l-41 -246q-43 19 -88 19q-114 0 -219 -154v-559h-256z" />
    <glyph glyph-name="s" unicode="s" horiz-adv-x="843" 
d="M66 57l53 209q4 -4 12.5 -10.5t35.5 -23t56 -29t72 -23t86 -10.5q71 0 108 21.5t37 58.5q0 25 -24 47.5t-63 41.5t-85.5 39t-93 46t-85.5 58t-63 80t-24 106t22 108.5t66.5 91.5t121 64.5t177.5 23.5q76 0 145.5 -13t100.5 -25l31 -13l-54 -207q-11 7 -31.5 17.5
t-79 28.5t-112.5 18q-133 0 -133 -74q0 -25 24 -47.5t62.5 -41t85 -38.5t93 -46t85 -57.5t62.5 -79.5t24 -106q0 -132 -102.5 -214.5t-284.5 -82.5q-90 0 -171.5 20.5t-117.5 40.5z" />
    <glyph glyph-name="t" unicode="t" horiz-adv-x="813" 
d="M188 262v488h-145v137l154 51v217l247 49v-272h285v-182h-285v-426q0 -140 97 -140q63 0 180 80l70 -186q-5 -4 -15.5 -11t-43 -25t-67 -31.5t-85.5 -24.5t-101 -11q-133 0 -212 74t-79 213z" />
    <glyph glyph-name="u" unicode="u" horiz-adv-x="1095" 
d="M119 256v676h256v-555q0 -95 19.5 -137.5t76.5 -42.5q92 0 236 127v608h254v-647q0 -50 10 -120.5t20 -115.5l10 -45l-245 -22q-21 89 -29 157q-62 -65 -152 -114.5t-200 -49.5q-117 0 -186.5 69t-69.5 212z" />
    <glyph glyph-name="v" unicode="v" horiz-adv-x="972" 
d="M360 -6l-348 938h269l200 -604l226 604h258l-373 -938h-232z" />
    <glyph glyph-name="w" unicode="w" horiz-adv-x="1570" 
d="M328 -6l-301 938h262l178 -647l213 647h217l209 -647l182 647h256l-303 -938h-248l-209 608l-206 -608h-250z" />
    <glyph glyph-name="x" unicode="x" horiz-adv-x="987" 
d="M29 0l319 465l-319 467h290l179 -273l178 273h282l-321 -461l321 -471h-284l-182 279l-187 -279h-276z" />
    <glyph glyph-name="y" unicode="y" horiz-adv-x="972" 
d="M20 -289q100 12 189 80.5t125 155.5l33 78l-359 907h266l218 -610l213 610h258l-388 -1000q-30 -76 -74.5 -144.5t-103.5 -128t-136.5 -98t-162.5 -46.5z" />
    <glyph glyph-name="z" unicode="z" horiz-adv-x="921" 
d="M74 0v156l426 579h-410v197h741v-156l-434 -579h451v-197h-774z" />
    <glyph glyph-name="braceleft" unicode="{" horiz-adv-x="688" 
d="M254 -135q0 205 -9 287q-36 310 -222 315v141q34 1 63 11.5t50.5 28.5t39.5 42.5t29.5 54t21 63.5t14 69.5t8 72t4 72.5t1.5 70.5t0 64.5v33q0 112 58 187t153.5 108t224.5 33v-136q-60 -5 -101 -13.5t-69.5 -26t-45 -37t-25 -56t-11 -72.5t-2.5 -96q0 -458 -213 -540v-4
q43 -17 78.5 -54t67 -101t49.5 -168.5t18 -240.5q0 -51 2 -83t7 -65.5t16.5 -53.5t29.5 -39t45.5 -29.5t65 -18.5t88.5 -12v-135q-436 0 -436 328z" />
    <glyph glyph-name="bar" unicode="|" horiz-adv-x="483" 
d="M150 -461v1995h184v-1995h-184z" />
    <glyph glyph-name="braceright" unicode="}" horiz-adv-x="688" 
d="M252 -27q0 136 18 240.5t49.5 168.5t67 101t78.5 54v4q-213 82 -213 540q0 60 -2.5 96t-11 72.5t-25 56t-45 37t-69.5 26t-101 13.5v136q130 0 225.5 -33t153 -108t57.5 -187v-30v-73t2 -76.5t6 -82.5t11.5 -78.5t19 -76t29.5 -63.5t40.5 -54t54 -33.5t69.5 -14.5v-141
q-34 -1 -63 -12t-51 -30t-39.5 -45.5t-29.5 -58t-21 -66.5t-14 -72.5t-8.5 -75.5t-4 -75t-1.5 -71.5t0 -65.5v-30q0 -328 -436 -328v135q51 4 88.5 12t65 18.5t45.5 29.5t29.5 39t16.5 53.5t7 65.5t2 83z" />
    <glyph glyph-name="asciitilde" unicode="~" horiz-adv-x="1189" 
d="M111 344q0 176 75 261t211 85q66 0 117.5 -20t83.5 -48t59.5 -56t60 -48t70.5 -20t65.5 18.5t40.5 48.5t18.5 58.5t5.5 58.5h167q0 -176 -75 -261t-211 -85q-66 0 -117.5 20t-83.5 48t-59.5 56t-60 48t-70.5 20t-65.5 -18.5t-40.5 -49t-18 -58.5t-5 -58h-168z" />
    <glyph glyph-name="uni00A0" unicode="&#xa0;" horiz-adv-x="491" 
 />
    <glyph glyph-name="exclamdown" unicode="&#xa1;" horiz-adv-x="579" 
d="M393 469l43 -930h-293l47 930h203zM455 799q0 -66 -46.5 -113t-111.5 -47q-66 0 -112 47t-46 113q0 63 46 109t112 46q64 0 111 -46t47 -109z" />
    <glyph glyph-name="cent" unicode="&#xa2;" horiz-adv-x="970" 
d="M461 -45l6 182q-181 20 -287 141.5t-106 290.5q0 83 28 159t80 137t135 100.5t185 46.5l8 180h98l-8 -180q55 -4 105.5 -18t82.5 -30.5t56.5 -32t35.5 -25.5l11 -11l-125 -158q-8 7 -23 17t-60.5 30.5t-90.5 26.5l-19 -475q56 4 113 26.5t86 43.5l29 20l78 -172
q-4 -4 -12.5 -11.5t-38 -26.5t-63 -34.5t-87.5 -29.5t-113 -17l-6 -180h-98zM324 578q0 -85 39.5 -148t111.5 -84l19 461q-78 -18 -124 -77.5t-46 -151.5z" />
    <glyph glyph-name="sterling" unicode="&#xa3;" horiz-adv-x="1132" 
d="M117 489v119h137l20 164q21 182 121.5 288.5t280.5 106.5q59 0 113 -12t89.5 -29.5t62.5 -35t39 -29.5l13 -12l-125 -158q-9 9 -25 22.5t-66.5 35.5t-102.5 22q-70 0 -106 -44.5t-48 -160.5l-16 -158h344l-14 -119h-340q-8 -76 -24.5 -146.5t-29.5 -102.5l-12 -33
q12 -6 33.5 -15.5t83 -25.5t117.5 -16q104 0 153.5 41t58.5 149h181q-7 -65 -19 -118t-36.5 -105.5t-60 -88t-91.5 -57.5t-127 -22q-90 0 -223.5 44t-194.5 44q-62 0 -188 -37l-41 127q5 2 14 6t32 19t41.5 33.5t36 50.5t21.5 69l21 184h-123z" />
    <glyph glyph-name="yen" unicode="&#xa5;" horiz-adv-x="1161" 
d="M156 557v119h188l-270 467h270l236 -436l241 436h258l-270 -467h211v-119h-281l-34 -61v-86h315v-119h-315v-291h-254v291h-295v119h295v84l-37 63h-258z" />
    <glyph glyph-name="brokenbar" unicode="&#xa6;" horiz-adv-x="483" 
d="M150 682v733h186v-733h-186zM150 365h186v-734h-186v734z" />
    <glyph glyph-name="section" unicode="&#xa7;" horiz-adv-x="1009" 
d="M285 -158q34 78 34 189q0 52 -10 114l-119 666q-12 68 -12 135q0 92 23.5 171t70 141t123 97.5t176.5 35.5q57 0 115 -11t99.5 -26.5t75 -31.5t50.5 -27l17 -11l-62 -135q-6 4 -16 10.5t-42 23t-64.5 29t-79 23t-89.5 10.5q-115 0 -175 -85.5t-60 -219.5q0 -64 10 -113
l109 -589q20 -122 20 -207q0 -136 -51 -211zM119 -244q6 -4 16 -10.5t42 -23t64.5 -29t79 -23t89.5 -10.5q115 0 175 85t60 220q0 48 -10 113l-107 590q-22 130 -22 206q0 137 53 211l141 -22q-34 -72 -34 -189q0 -52 10 -114l119 -666q12 -68 12 -137q0 -92 -23.5 -170
t-70 -140t-123 -97t-176.5 -35q-57 0 -115 11t-99.5 26.5t-75 31t-50.5 26.5l-17 11z" />
    <glyph glyph-name="dieresis" unicode="&#xa8;" horiz-adv-x="1044" 
d="M739 1145q-60 0 -97.5 35.5t-37.5 95.5t37.5 95.5t97.5 35.5q62 0 100 -35.5t38 -95.5t-38 -95.5t-100 -35.5zM303 1145q-60 0 -97.5 35.5t-37.5 95.5t37.5 95.5t97.5 35.5q62 0 99.5 -35.5t37.5 -95.5t-37.5 -95.5t-99.5 -35.5z" />
    <glyph glyph-name="copyright" unicode="&#xa9;" horiz-adv-x="1568" 
d="M78 682q0 143 56 274t150.5 226t225.5 151t274 56q191 0 354 -95t258 -258t95 -354t-95 -354t-258 -258t-354 -95q-143 0 -274 56t-225.5 151t-150.5 226t-56 274zM193 682q0 -164 78 -302t214 -219t299 -81t299.5 81t214.5 219t78 302t-78 302t-214.5 219t-299.5 81
t-299 -81t-214 -219t-78 -302zM389 680q0 79 27.5 153.5t78 135t131.5 97t179 36.5q57 0 109 -12.5t84.5 -31t57.5 -36.5t36 -30l10 -13l-92 -133q-3 4 -9 10.5t-26 23t-42 29t-57 23t-71 10.5q-109 0 -168 -72t-59 -176q0 -109 64.5 -184.5t174.5 -75.5q61 0 117 24.5
t82 49.5l26 24l56 -139q-4 -5 -11.5 -13t-34.5 -28.5t-58.5 -36t-83 -28.5t-107.5 -13q-181 0 -297.5 117t-116.5 289z" />
    <glyph glyph-name="ordfeminine" unicode="&#xaa;" horiz-adv-x="804" 
d="M281 702q-92 0 -148.5 49t-56.5 126q0 201 383 253v21q0 47 -15.5 71.5t-66.5 24.5q-48 0 -102.5 -21t-84.5 -42l-30 -21l-43 142q5 3 14 9t40 20.5t65 25.5t86.5 20t107.5 9q126 0 176.5 -51t50.5 -160v-252q0 -22 7.5 -38t18.5 -23.5t22 -11.5t19 -5h7l-51 -139
q-153 3 -199 86q-70 -93 -200 -93zM336 840q57 0 123 73v107q-180 -28 -180 -121q0 -59 57 -59z" />
    <glyph glyph-name="guillemotleft" unicode="&#xab;" horiz-adv-x="1044" 
d="M434 510v8q30 24 203 218q108 122 186 210l142 -41l-293 -391q13 -19 293 -391l-142 -41q-89 98 -164.5 182t-107.5 120.5t-58.5 66t-36.5 39.5t-22 20zM422 82q-89 98 -164.5 182t-107.5 120.5t-58.5 66t-36.5 39.5t-22 20v8q30 24 203 218q108 122 186 210l141 -41
l-293 -391q13 -19 293 -391z" />
    <glyph glyph-name="logicalnot" unicode="&#xac;" horiz-adv-x="1163" 
d="M96 643v164h948v-580h-170v416h-778z" />
    <glyph glyph-name="registered" unicode="&#xae;" horiz-adv-x="864" 
d="M432 733q-146 0 -250 104t-104 250t104 250.5t250 104.5t250 -104.5t104 -250.5t-104 -250t-250 -104zM432 799q111 0 195 86.5t84 201.5t-84 201t-195 86q-114 0 -196 -85.5t-82 -201.5t82.5 -202t195.5 -86zM510 918l-88 126h-27v-126h-94v348h123q143 0 143 -105
q0 -65 -61 -96l108 -147h-104zM395 1106h35q16 0 28.5 11t12.5 36q0 49 -55 49h-21v-96z" />
    <glyph glyph-name="macron" unicode="&#xaf;" horiz-adv-x="964" 
d="M219 1182v159h526v-159h-526z" />
    <glyph glyph-name="degree" unicode="&#xb0;" horiz-adv-x="649" 
d="M324 899q-104 0 -177 72t-73 174t73 174t177 72t176.5 -72t72.5 -174t-72.5 -174t-176.5 -72zM324 1008q56 0 94.5 39.5t38.5 97.5t-38.5 96.5t-94.5 38.5t-95 -38.5t-39 -96.5t39 -97.5t95 -39.5z" />
    <glyph glyph-name="plusminus" unicode="&#xb1;" 
d="M92 625v166h354v352h175v-352h348v-166h-348v-349h-175v349h-354zM106 0v164h857v-164h-857z" />
    <glyph glyph-name="twosuperior" unicode="&#xb2;" horiz-adv-x="716" 
d="M70 770l-15 113q23 22 82 77t86.5 81.5t72.5 74t66 79t38.5 70.5t17.5 72q0 52 -31 77.5t-84 25.5q-37 0 -74 -15.5t-55 -30.5l-18 -16l-99 121q4 5 12 12.5t34.5 27t57 34.5t78.5 27t99 12q124 0 200 -67.5t76 -180.5q0 -94 -63.5 -199t-214.5 -245h323v-150h-589z" />
    <glyph glyph-name="threesuperior" unicode="&#xb3;" horiz-adv-x="681" 
d="M295 754q-68 0 -132 19t-94 37l-30 19l82 136q9 -6 24 -15t57.5 -24t80.5 -15q60 0 92.5 30t32.5 71q0 47 -45.5 69.5t-106.5 22.5h-70v149q70 2 127.5 38t57.5 91q0 68 -82 68q-35 0 -71 -12t-54 -24l-19 -11l-79 123q4 3 12.5 9t36 21t56.5 26t73 20.5t88 9.5
q113 0 179.5 -56t66.5 -139q0 -73 -49 -131t-115 -80q200 -43 200 -192q0 -106 -90 -183t-229 -77z" />
    <glyph glyph-name="acute" unicode="&#xb4;" horiz-adv-x="1071" 
d="M438 1040l-137 74l211 334h244z" />
    <glyph glyph-name="mu" unicode="&#xb5;" horiz-adv-x="1204" 
d="M150 -80v1012h256v-555q0 -95 19.5 -137.5t76.5 -42.5q93 0 235 127v608h254v-645q0 -83 22.5 -103t110.5 -20v-178q-90 -11 -129 -11q-121 0 -176.5 41t-70.5 115q-156 -156 -342 -156q-26 0 -66 7q5 -86 28 -237t23 -187h-262q21 198 21 362z" />
    <glyph glyph-name="mu" unicode="&#x3bc;" horiz-adv-x="1204" 
d="M150 -80v1012h256v-555q0 -95 19.5 -137.5t76.5 -42.5q93 0 235 127v608h254v-645q0 -83 22.5 -103t110.5 -20v-178q-90 -11 -129 -11q-121 0 -176.5 41t-70.5 115q-156 -156 -342 -156q-26 0 -66 7q5 -86 28 -237t23 -187h-262q21 198 21 362z" />
    <glyph glyph-name="paragraph" unicode="&#xb6;" horiz-adv-x="1380" 
d="M424 -336q133 0 193.5 74t60.5 242v387h-19q-149 0 -266 42t-187.5 112.5t-106.5 158t-36 184.5q0 96 37.5 184.5t108 160t185 114.5t255.5 43h635v-137h-151v-1229h-146v1229h-153v-1270q0 -444 -379 -444z" />
    <glyph glyph-name="periodcentered" unicode="&#xb7;" horiz-adv-x="530" 
d="M264 367q-65 0 -111.5 45.5t-46.5 109.5q0 66 46.5 112t111.5 46q66 0 112 -46t46 -112q0 -65 -46 -110t-112 -45z" />
    <glyph glyph-name="cedilla" unicode="&#xb8;" horiz-adv-x="1044" 
d="M457 -145q0 32 32 98l25 47h125l-18 -39q-19 -43 -19 -55q0 -18 18.5 -31t45 -24.5t53 -26t45 -43.5t18.5 -70q0 -84 -68.5 -140t-178.5 -56q-56 0 -108 15.5t-75 31.5l-24 16l49 115q8 -7 21.5 -17t54.5 -26.5t79 -16.5q42 0 69.5 16t27.5 40q0 22 -27 40.5t-59 30.5
t-59 37t-27 58z" />
    <glyph glyph-name="onesuperior" unicode="&#xb9;" horiz-adv-x="643" 
d="M63 770v141h189v545h-172v141h364v-686h172v-141h-553z" />
    <glyph glyph-name="ordmasculine" unicode="&#xba;" horiz-adv-x="876" 
d="M436 702q-88 0 -158.5 28.5t-114 77t-66.5 108.5t-23 126q0 51 12.5 99t41 93.5t70.5 79.5t105 54.5t139 20.5q170 0 265.5 -98t95.5 -232q0 -49 -12.5 -98t-41 -96t-70 -83t-104.5 -58t-139 -22zM440 842q67 0 111.5 55.5t44.5 142.5q0 85 -40 146t-118 61
q-68 0 -112.5 -54t-44.5 -136q0 -91 40.5 -153t118.5 -62z" />
    <glyph glyph-name="guillemotright" unicode="&#xbb;" horiz-adv-x="1044" 
d="M481 123l293 391q-13 15 -293 391l142 41q341 -383 357 -399q15 -15 32 -29v-8q-12 -10 -22 -20t-36.5 -39.5t-58.5 -66t-107.5 -120.5t-164.5 -182zM80 123l295 391q-13 15 -295 391l141 41q341 -383 357 -399q15 -15 32 -29v-8q-12 -10 -22 -20t-36.5 -39.5t-58.5 -66
t-107.5 -120.5t-164.5 -182z" />
    <glyph glyph-name="onequarter" unicode="&#xbc;" horiz-adv-x="1738" 
d="M1372 0v184h-358l-17 127l340 520h219v-503h115v-144h-115v-184h-184zM1163 328h209v317zM90 541v141h189v545h-173v141h365v-686h172v-141h-553zM600 0h-168l815 1417l135 -57z" />
    <glyph glyph-name="onehalf" unicode="&#xbd;" horiz-adv-x="1822" 
d="M1163 0l-14 113q23 22 70.5 66t74 69.5t66 64.5t62 67.5t45.5 62.5t33.5 65t10.5 59q0 52 -30.5 77.5t-83.5 25.5q-37 0 -74 -15.5t-55 -30.5l-19 -16l-98 121q4 5 12 12.5t34.5 27t57 34.5t78.5 27t99 12q124 0 200 -67.5t76 -180.5q0 -94 -63.5 -199t-214.5 -245h323
v-150h-590zM88 541v141h188v545h-172v141h365v-686h172v-141h-553zM637 0h-168l815 1417l135 -57z" />
    <glyph glyph-name="threequarters" unicode="&#xbe;" horiz-adv-x="1751" 
d="M1384 0v184h-358l-16 127l340 520h219v-503h114v-144h-114v-184h-185zM1176 328h208v317zM328 524q-68 0 -132 19t-94 38l-30 19l82 135q8 -6 23 -15t57.5 -23.5t80.5 -14.5q60 0 92.5 29.5t32.5 70.5q0 47 -45 69.5t-106 22.5h-70v150q70 2 127 38t57 91q0 68 -81 68
q-35 0 -71 -11.5t-55 -23.5l-18 -12l-80 122q5 3 13 9t35.5 21t57 26t73.5 20.5t88 9.5q113 0 179 -55.5t66 -138.5q0 -73 -49 -131t-115 -80q201 -43 201 -193q0 -106 -90 -183t-229 -77zM612 0h-168l816 1417l135 -57z" />
    <glyph glyph-name="questiondown" unicode="&#xbf;" horiz-adv-x="778" 
d="M578 471q4 -24 4 -49q0 -63 -24 -124t-58 -106.5t-68 -85.5t-58 -76t-24 -63q0 -33 36.5 -71t88 -68.5t103 -56.5t88.5 -40l36 -14l-57 -227q-12 3 -33 9.5t-80.5 29t-114 47.5t-121.5 64.5t-114.5 81.5t-80.5 98t-33 114q0 43 22.5 87.5t56 80t73 79t73 84t56 95
t22.5 111.5h207zM627 799q0 -64 -46.5 -111t-109.5 -47q-66 0 -113 46.5t-47 111.5t47 111t113 46q63 0 109.5 -46.5t46.5 -110.5z" />
    <glyph glyph-name="Agrave" unicode="&#xc0;" horiz-adv-x="1300" 
d="M10 0l514 1376h252l514 -1376h-268l-111 307h-528l-111 -307h-262zM647 1042l-186 -516h370zM362 1593l72 189l443 -195l-52 -137z" />
    <glyph glyph-name="Aacute" unicode="&#xc1;" horiz-adv-x="1300" 
d="M10 0l514 1376h252l514 -1376h-268l-111 307h-528l-111 -307h-262zM647 1042l-186 -516h370zM467 1450l-49 137l442 195l72 -189z" />
    <glyph glyph-name="Acircumflex" unicode="&#xc2;" horiz-adv-x="1300" 
d="M10 0l514 1376h252l514 -1376h-268l-111 307h-528l-111 -307h-262zM647 1042l-186 -516h370zM420 1470l-133 89l258 225h200l256 -225l-131 -89l-225 181z" />
    <glyph glyph-name="Atilde" unicode="&#xc3;" horiz-adv-x="1300" 
d="M10 0l514 1376h252l514 -1376h-268l-111 307h-528l-111 -307h-262zM647 1042l-186 -516h370zM262 1489q-2 13 -2 33q0 28 3.5 54.5t17.5 63t36.5 63t65.5 45.5t100 19q60 0 112.5 -20.5t82.5 -45t65 -45t64 -20.5q67 0 67 107v20h158v-30q0 -27 -3.5 -54t-17 -65
t-36.5 -65.5t-67 -47.5t-103 -20q-61 0 -111.5 20.5t-77.5 45t-60.5 45t-63.5 20.5q-74 0 -74 -105l2 -18h-158z" />
    <glyph glyph-name="Adieresis" unicode="&#xc4;" horiz-adv-x="1300" 
d="M10 0l514 1376h252l514 -1376h-268l-111 307h-528l-111 -307h-262zM647 1042l-186 -516h370zM903 1491q-62 0 -101.5 37.5t-39.5 97.5q0 61 39.5 98t101.5 37q61 0 100 -37t39 -98q0 -60 -39.5 -97.5t-99.5 -37.5zM389 1491q-60 0 -99.5 37.5t-39.5 97.5q0 61 39 98
t100 37q62 0 101.5 -37t39.5 -98q0 -60 -39.5 -97.5t-101.5 -37.5z" />
    <glyph glyph-name="Aring" unicode="&#xc5;" horiz-adv-x="1300" 
d="M10 0l514 1376h252l514 -1376h-268l-111 307h-528l-111 -307h-262zM647 1042l-186 -516h370zM645 1450q-103 0 -155 49t-52 123q0 66 52.5 114t154.5 48t154.5 -48t52.5 -114q0 -74 -52 -123t-155 -49zM645 1532q43 0 68.5 25t25.5 63q0 32 -25 57t-69 25
q-46 0 -69 -24.5t-23 -57.5q0 -38 24 -63t68 -25z" />
    <glyph glyph-name="AE" unicode="&#xc6;" horiz-adv-x="1843" 
d="M-23 0l771 1366h1001v-221h-598v-342h471v-219h-471v-363h612v-221h-874v379h-420l-209 -379h-283zM889 1137l-297 -537h297v537z" />
    <glyph glyph-name="Ccedilla" unicode="&#xc7;" horiz-adv-x="1384" 
d="M659 -145q0 30 33 98l15 29q-132 15 -245.5 68.5t-198 139t-133 207t-48.5 265.5q0 153 54 286t151 231.5t241.5 155t317.5 56.5q85 0 165 -11.5t133.5 -28.5t94.5 -33.5t61 -27.5l19 -12l-100 -223q-6 4 -16.5 11.5t-47.5 25.5t-78 32t-106.5 25.5t-134.5 11.5
q-221 0 -352.5 -134.5t-131.5 -342.5q0 -145 66 -255.5t174 -167t239 -56.5q68 0 134.5 13t112.5 31.5t82 36.5t54 31l17 13l106 -193q-7 -6 -20.5 -16.5t-61 -38t-101.5 -48.5t-142 -39t-183 -20l-6 -14q-18 -41 -18 -55q0 -18 18.5 -31t45 -24.5t53 -26t45 -43.5t18.5 -70
q0 -83 -69 -139.5t-179 -56.5q-56 0 -108 15.5t-75 31.5l-24 16l50 115q8 -7 21.5 -17t54.5 -26.5t79 -16.5q42 0 69 16t27 40q0 22 -27 40.5t-59 30.5t-59 37t-27 58z" />
    <glyph glyph-name="Egrave" unicode="&#xc8;" horiz-adv-x="1126" 
d="M326 1593l71 189l443 -195l-52 -137zM170 0v1366h862v-221h-598v-342h471v-219h-471v-363h613v-221h-877z" />
    <glyph glyph-name="Eacute" unicode="&#xc9;" horiz-adv-x="1126" 
d="M170 0v1366h862v-221h-598v-342h471v-219h-471v-363h613v-221h-877zM432 1450l-49 137l442 195l72 -189z" />
    <glyph glyph-name="Ecircumflex" unicode="&#xca;" horiz-adv-x="1126" 
d="M385 1470l-133 89l258 225h201l256 -225l-131 -89l-226 181zM170 0v1366h862v-221h-598v-342h471v-219h-471v-363h613v-221h-877z" />
    <glyph glyph-name="Edieresis" unicode="&#xcb;" horiz-adv-x="1126" 
d="M170 0v1366h862v-221h-598v-342h471v-219h-471v-363h613v-221h-877zM868 1491q-62 0 -101.5 37.5t-39.5 97.5q0 61 39.5 98t101.5 37q61 0 100.5 -37t39.5 -98q0 -60 -39.5 -97.5t-100.5 -37.5zM354 1491q-60 0 -99.5 37.5t-39.5 97.5q0 61 39 98t100 37q62 0 102 -37
t40 -98q0 -60 -40 -97.5t-102 -37.5z" />
    <glyph glyph-name="Igrave" unicode="&#xcc;" horiz-adv-x="604" 
d="M170 0v1366h264v-1366h-264zM23 1593l71 189l443 -195l-52 -137z" />
    <glyph glyph-name="Iacute" unicode="&#xcd;" horiz-adv-x="604" 
d="M170 0v1366h264v-1366h-264zM127 1450l-49 137l442 195l72 -189z" />
    <glyph glyph-name="Icircumflex" unicode="&#xce;" horiz-adv-x="604" 
d="M170 0v1366h264v-1366h-264zM80 1470l-133 89l258 225h201l256 -225l-132 -89l-225 181z" />
    <glyph glyph-name="Idieresis" unicode="&#xcf;" horiz-adv-x="604" 
d="M170 0v1366h264v-1366h-264zM524 1499q-60 0 -97.5 35.5t-37.5 95.5t37.5 95.5t97.5 35.5q62 0 100 -35.5t38 -95.5t-38 -95.5t-100 -35.5zM88 1499q-60 0 -97.5 35.5t-37.5 95.5t37.5 95.5t97.5 35.5q62 0 99.5 -35.5t37.5 -95.5t-37.5 -95.5t-99.5 -35.5z" />
    <glyph glyph-name="Eth" unicode="&#xd0;" horiz-adv-x="1521" 
d="M53 592v203h148v571h485q115 0 220 -21.5t203 -72t169.5 -125t114.5 -188t43 -254.5q0 -225 -106 -385.5t-291 -240t-431 -79.5h-407v592h-148zM465 221h123q151 0 263.5 36t179 101t98.5 148.5t32 185.5q0 208 -129 330.5t-375 122.5h-192v-350h315v-203h-315v-371z" />
    <glyph glyph-name="Ntilde" unicode="&#xd1;" horiz-adv-x="1529" 
d="M381 1489q-2 13 -2 33q0 28 3.5 54.5t17.5 63t36.5 63t65.5 45.5t100 19q60 0 112.5 -20.5t82.5 -45t65 -45t64 -20.5q67 0 67 107v20h158v-30q0 -27 -3.5 -54t-17 -65t-36.5 -65.5t-67 -47.5t-103 -20q-61 0 -111.5 20.5t-78 45t-61 45t-63.5 20.5q-73 0 -73 -105l2 -18
h-158zM170 0v1366h266l666 -963v963h258v-1366h-268l-664 956v-956h-258z" />
    <glyph glyph-name="Ograve" unicode="&#xd2;" horiz-adv-x="1640" 
d="M535 1593l71 189l443 -195l-52 -137zM78 680q0 108 31 211t93.5 193.5t150 159t209.5 108t263 39.5q166 0 306 -54t233.5 -147t145 -217t51.5 -264q0 -142 -54 -274.5t-149.5 -234.5t-239 -163.5t-311.5 -61.5q-164 0 -303 57.5t-231 155t-143.5 225t-51.5 267.5z
M354 688q0 -89 29.5 -175t85 -156.5t145 -114t199.5 -43.5q109 0 200 41.5t150 111t91 157.5t32 183q0 74 -19 143t-58 129.5t-93.5 105.5t-130.5 71t-164 26q-110 0 -200 -40t-147.5 -107.5t-88.5 -153t-31 -178.5z" />
    <glyph glyph-name="Oacute" unicode="&#xd3;" horiz-adv-x="1640" 
d="M641 1450l-49 137l442 195l72 -189zM78 680q0 108 31 211t93.5 193.5t150 159t209.5 108t263 39.5q166 0 306 -54t233.5 -147t145 -217t51.5 -264q0 -142 -54 -274.5t-149.5 -234.5t-239 -163.5t-311.5 -61.5q-164 0 -303 57.5t-231 155t-143.5 225t-51.5 267.5zM354 688
q0 -89 29.5 -175t85 -156.5t145 -114t199.5 -43.5q109 0 200 41.5t150 111t91 157.5t32 183q0 74 -19 143t-58 129.5t-93.5 105.5t-130.5 71t-164 26q-110 0 -200 -40t-147.5 -107.5t-88.5 -153t-31 -178.5z" />
    <glyph glyph-name="Ocircumflex" unicode="&#xd4;" horiz-adv-x="1640" 
d="M594 1470l-133 89l258 225h201l256 -225l-132 -89l-225 181zM78 680q0 108 31 211t93.5 193.5t150 159t209.5 108t263 39.5q166 0 306 -54t233.5 -147t145 -217t51.5 -264q0 -142 -54 -274.5t-149.5 -234.5t-239 -163.5t-311.5 -61.5q-164 0 -303 57.5t-231 155
t-143.5 225t-51.5 267.5zM354 688q0 -89 29.5 -175t85 -156.5t145 -114t199.5 -43.5q109 0 200 41.5t150 111t91 157.5t32 183q0 74 -19 143t-58 129.5t-93.5 105.5t-130.5 71t-164 26q-110 0 -200 -40t-147.5 -107.5t-88.5 -153t-31 -178.5z" />
    <glyph glyph-name="Otilde" unicode="&#xd5;" horiz-adv-x="1640" 
d="M78 680q0 108 31 211t93.5 193.5t150 159t209.5 108t263 39.5q166 0 306 -54t233.5 -147t145 -217t51.5 -264q0 -142 -54 -274.5t-149.5 -234.5t-239 -163.5t-311.5 -61.5q-164 0 -303 57.5t-231 155t-143.5 225t-51.5 267.5zM354 688q0 -89 29.5 -175t85 -156.5
t145 -114t199.5 -43.5q109 0 200 41.5t150 111t91 157.5t32 183q0 74 -19 143t-58 129.5t-93.5 105.5t-130.5 71t-164 26q-110 0 -200 -40t-147.5 -107.5t-88.5 -153t-31 -178.5zM436 1489q-2 13 -2 33q0 28 3.5 54.5t17.5 63t36.5 63t65.5 45.5t100 19q60 0 112.5 -20.5
t82.5 -45t65 -45t64 -20.5q68 0 68 107v20h157v-30q0 -27 -3.5 -54t-17 -65t-36.5 -65.5t-67 -47.5t-103 -20q-61 0 -111.5 20.5t-77.5 45t-60.5 45t-63.5 20.5q-74 0 -74 -105l2 -18h-158z" />
    <glyph glyph-name="Odieresis" unicode="&#xd6;" horiz-adv-x="1640" 
d="M78 680q0 108 31 211t93.5 193.5t150 159t209.5 108t263 39.5q166 0 306 -54t233.5 -147t145 -217t51.5 -264q0 -142 -54 -274.5t-149.5 -234.5t-239 -163.5t-311.5 -61.5q-164 0 -303 57.5t-231 155t-143.5 225t-51.5 267.5zM354 688q0 -89 29.5 -175t85 -156.5
t145 -114t199.5 -43.5q109 0 200 41.5t150 111t91 157.5t32 183q0 74 -19 143t-58 129.5t-93.5 105.5t-130.5 71t-164 26q-110 0 -200 -40t-147.5 -107.5t-88.5 -153t-31 -178.5zM1077 1491q-62 0 -101.5 37.5t-39.5 97.5q0 61 39.5 98t101.5 37q61 0 100.5 -37t39.5 -98
q0 -60 -39.5 -97.5t-100.5 -37.5zM563 1491q-60 0 -99.5 37.5t-39.5 97.5q0 61 39 98t100 37q62 0 102 -37t40 -98q0 -60 -40 -97.5t-102 -37.5z" />
    <glyph glyph-name="multiply" unicode="&#xd7;" 
d="M72 879l110 114l350 -360l351 360l110 -114l-350 -361l350 -358l-112 -115l-349 358l-348 -358l-112 115l348 358z" />
    <glyph glyph-name="Oslash" unicode="&#xd8;" horiz-adv-x="1640" 
d="M78 680q0 108 31 211t93.5 193.5t150 159t209.5 108t263 39.5q211 0 377 -86l94 122h162l-145 -192q119 -94 183.5 -231t64.5 -295q0 -142 -54 -274.5t-149.5 -234.5t-239 -163.5t-311.5 -61.5q-210 0 -381 95l-100 -131h-164l157 206q-116 98 -178.5 237.5t-62.5 297.5z
M1286 692q0 95 -33.5 184t-95.5 156l-586 -768q105 -65 242 -65q109 0 200 41.5t150 111t91 157.5t32 183zM354 688q0 -92 30.5 -181.5t88.5 -158.5l582 762q-97 57 -234 57q-110 0 -200 -40t-147.5 -107.5t-88.5 -153t-31 -178.5z" />
    <glyph glyph-name="Ugrave" unicode="&#xd9;" horiz-adv-x="1458" 
d="M444 1593l72 189l442 -195l-51 -137zM154 512v854h264v-827q0 -177 84 -258.5t229 -81.5q144 0 227.5 85t83.5 246v836h265v-825q0 -135 -45.5 -243.5t-124.5 -178.5t-183.5 -107t-224.5 -37q-98 0 -182 18t-157 59t-125 102.5t-81.5 152.5t-29.5 205z" />
    <glyph glyph-name="Uacute" unicode="&#xda;" horiz-adv-x="1458" 
d="M154 512v854h264v-827q0 -177 84 -258.5t229 -81.5q144 0 227.5 85t83.5 246v836h265v-825q0 -135 -45.5 -243.5t-124.5 -178.5t-183.5 -107t-224.5 -37q-98 0 -182 18t-157 59t-125 102.5t-81.5 152.5t-29.5 205zM551 1450l-49 137l442 195l72 -189z" />
    <glyph glyph-name="Ucircumflex" unicode="&#xdb;" horiz-adv-x="1458" 
d="M504 1470l-133 89l258 225h200l256 -225l-131 -89l-225 181zM154 512v854h264v-827q0 -177 84 -258.5t229 -81.5q144 0 227.5 85t83.5 246v836h265v-825q0 -135 -45.5 -243.5t-124.5 -178.5t-183.5 -107t-224.5 -37q-98 0 -182 18t-157 59t-125 102.5t-81.5 152.5
t-29.5 205z" />
    <glyph glyph-name="Udieresis" unicode="&#xdc;" horiz-adv-x="1458" 
d="M154 512v854h264v-827q0 -177 84 -258.5t229 -81.5q144 0 227.5 85t83.5 246v836h265v-825q0 -135 -45.5 -243.5t-124.5 -178.5t-183.5 -107t-224.5 -37q-98 0 -182 18t-157 59t-125 102.5t-81.5 152.5t-29.5 205zM987 1491q-62 0 -101.5 37.5t-39.5 97.5q0 61 39.5 98
t101.5 37q61 0 100 -37t39 -98q0 -60 -39.5 -97.5t-99.5 -37.5zM473 1491q-60 0 -99.5 37.5t-39.5 97.5q0 61 39 98t100 37q62 0 101.5 -37t39.5 -98q0 -60 -39.5 -97.5t-101.5 -37.5z" />
    <glyph glyph-name="Yacute" unicode="&#xdd;" horiz-adv-x="1245" 
d="M492 0v569l-494 797h309l316 -535l325 535h299l-491 -795v-571h-264zM444 1450l-49 137l443 195l71 -189z" />
    <glyph glyph-name="Thorn" unicode="&#xde;" horiz-adv-x="1191" 
d="M170 0v1366h264v-281h234q125 0 218.5 -30.5t148 -84t80.5 -120.5t26 -148q0 -194 -129.5 -305.5t-343.5 -111.5h-234v-285h-264zM434 506h193q127 0 183 46.5t56 135.5q0 83 -52.5 130.5t-186.5 47.5h-193v-360z" />
    <glyph glyph-name="germandbls" unicode="&#xdf;" horiz-adv-x="1222" 
d="M45 750v137l145 51v72q0 228 114.5 351.5t332.5 123.5q182 0 288.5 -83.5t106.5 -221.5q0 -57 -19 -107t-46.5 -86t-55 -68.5t-46.5 -68t-19 -70.5t18.5 -67.5t48 -58.5t65 -53t71 -57.5t65 -65.5t48 -83.5t18.5 -105.5q0 -139 -105 -226.5t-282 -87.5q-65 0 -123.5 13
t-84.5 26l-26 13l37 202q9 -7 24 -16.5t61.5 -26t90.5 -16.5q67 0 105 33t38 84q0 37 -22.5 69t-55.5 54t-72.5 52.5t-72.5 62.5t-55.5 85t-22.5 119q0 61 17.5 111.5t43 84.5t51 65.5t43 70.5t17.5 84q0 77 -45 113t-112 36q-183 0 -183 -276v-1018h-256v750h-145z" />
    <glyph glyph-name="agrave" unicode="&#xe0;" horiz-adv-x="1007" 
d="M53 219q0 289 545 361v32q0 77 -25 115.5t-104 38.5q-67 0 -140.5 -28t-114.5 -56l-40 -27l-61 181q7 5 19.5 13t55 28.5t89 36.5t118.5 29t146 13q175 0 244 -72t69 -231v-360q0 -31 10.5 -53t26 -32.5t31 -16.5t26.5 -7h10l-73 -198q-196 5 -260 137
q-11 -16 -23.5 -31.5t-39 -38t-56.5 -38.5t-75.5 -28t-96.5 -12q-126 0 -203.5 69t-77.5 175zM403 162q94 0 195 121v149q-149 -21 -217 -69t-68 -123q0 -40 25 -59t65 -19zM463 1040l-318 408h242l211 -334z" />
    <glyph glyph-name="aacute" unicode="&#xe1;" horiz-adv-x="1007" 
d="M53 219q0 289 545 361v32q0 77 -25 115.5t-104 38.5q-67 0 -140.5 -28t-114.5 -56l-40 -27l-61 181q7 5 19.5 13t55 28.5t89 36.5t118.5 29t146 13q175 0 244 -72t69 -231v-360q0 -31 10.5 -53t26 -32.5t31 -16.5t26.5 -7h10l-73 -198q-196 5 -260 137
q-11 -16 -23.5 -31.5t-39 -38t-56.5 -38.5t-75.5 -28t-96.5 -12q-126 0 -203.5 69t-77.5 175zM403 162q94 0 195 121v149q-149 -21 -217 -69t-68 -123q0 -40 25 -59t65 -19zM487 1040l-137 74l211 334h244z" />
    <glyph glyph-name="acircumflex" unicode="&#xe2;" horiz-adv-x="1007" 
d="M53 219q0 289 545 361v32q0 77 -25 115.5t-104 38.5q-67 0 -140.5 -28t-114.5 -56l-40 -27l-61 181q7 5 19.5 13t55 28.5t89 36.5t118.5 29t146 13q175 0 244 -72t69 -231v-360q0 -31 10.5 -53t26 -32.5t31 -16.5t26.5 -7h10l-73 -198q-196 5 -260 137
q-11 -16 -23.5 -31.5t-39 -38t-56.5 -38.5t-75.5 -28t-96.5 -12q-126 0 -203.5 69t-77.5 175zM403 162q94 0 195 121v149q-149 -21 -217 -69t-68 -123q0 -40 25 -59t65 -19zM303 1038l-141 60l235 350h158l233 -352l-139 -58l-174 244z" />
    <glyph glyph-name="atilde" unicode="&#xe3;" horiz-adv-x="1007" 
d="M53 219q0 289 545 361v32q0 77 -25 115.5t-104 38.5q-67 0 -140.5 -28t-114.5 -56l-40 -27l-61 181q7 5 19.5 13t55 28.5t89 36.5t118.5 29t146 13q175 0 244 -72t69 -231v-360q0 -31 10.5 -53t26 -32.5t31 -16.5t26.5 -7h10l-73 -198q-196 5 -260 137
q-11 -16 -23.5 -31.5t-39 -38t-56.5 -38.5t-75.5 -28t-96.5 -12q-126 0 -203.5 69t-77.5 175zM403 162q94 0 195 121v149q-149 -21 -217 -69t-68 -123q0 -40 25 -59t65 -19zM129 1120q-2 13 -2 31q0 28 3 56t16 66.5t34 66.5t61 48.5t93 20.5q46 0 84.5 -16t64 -39t47.5 -46
t44 -39t44 -16q60 0 60 117v25h156v-29q0 -28 -3 -56.5t-16 -68t-34.5 -68.5t-63 -50t-96.5 -21q-46 0 -83.5 16t-61.5 39t-44.5 45.5t-42.5 38.5t-45 16q-59 0 -59 -118v-19h-156z" />
    <glyph glyph-name="adieresis" unicode="&#xe4;" horiz-adv-x="1007" 
d="M53 219q0 289 545 361v32q0 77 -25 115.5t-104 38.5q-67 0 -140.5 -28t-114.5 -56l-40 -27l-61 181q7 5 19.5 13t55 28.5t89 36.5t118.5 29t146 13q175 0 244 -72t69 -231v-360q0 -31 10.5 -53t26 -32.5t31 -16.5t26.5 -7h10l-73 -198q-196 5 -260 137
q-11 -16 -23.5 -31.5t-39 -38t-56.5 -38.5t-75.5 -28t-96.5 -12q-126 0 -203.5 69t-77.5 175zM403 162q94 0 195 121v149q-149 -21 -217 -69t-68 -123q0 -40 25 -59t65 -19zM692 1145q-60 0 -97.5 35.5t-37.5 95.5t37.5 95.5t97.5 35.5q62 0 99.5 -35.5t37.5 -95.5
t-37.5 -95.5t-99.5 -35.5zM256 1145q-60 0 -97.5 35.5t-37.5 95.5t37.5 95.5t97.5 35.5q62 0 99.5 -35.5t37.5 -95.5t-37.5 -95.5t-99.5 -35.5z" />
    <glyph glyph-name="aring" unicode="&#xe5;" horiz-adv-x="1007" 
d="M53 219q0 289 545 361v32q0 77 -25 115.5t-104 38.5q-67 0 -140.5 -28t-114.5 -56l-40 -27l-61 181q7 5 19.5 13t55 28.5t89 36.5t118.5 29t146 13q175 0 244 -72t69 -231v-360q0 -31 10.5 -53t26 -32.5t31 -16.5t26.5 -7h10l-73 -198q-196 5 -260 137
q-11 -16 -23.5 -31.5t-39 -38t-56.5 -38.5t-75.5 -28t-96.5 -12q-126 0 -203.5 69t-77.5 175zM403 162q94 0 195 121v149q-149 -21 -217 -69t-68 -123q0 -40 25 -59t65 -19zM475 1096q-100 0 -153.5 57t-53.5 129q0 71 53 125.5t154 54.5t154 -54.5t53 -125.5
q0 -72 -53.5 -129t-153.5 -57zM475 1192q42 0 68 26t26 62q0 35 -24.5 60.5t-69.5 25.5q-46 0 -69 -25t-23 -61t24.5 -62t67.5 -26z" />
    <glyph glyph-name="ae" unicode="&#xe6;" horiz-adv-x="1538" 
d="M174 655l-61 181q7 5 19.5 13t54.5 28.5t87.5 36.5t115 29t140.5 13q192 0 254 -118q108 118 277 118q181 0 289.5 -115.5t109.5 -330.5l-139 -41l-463 -57q19 -111 88 -175.5t176 -64.5q68 0 139 29t107 57l37 29l68 -181q-6 -5 -17.5 -14t-50.5 -31.5t-82 -40
t-109.5 -31.5t-134.5 -14q-254 0 -381 195q-40 -76 -130.5 -135.5t-223.5 -59.5q-130 0 -210.5 69t-80.5 175q0 262 557 328v51q0 87 -25 127.5t-106 40.5q-69 0 -145.5 -28t-117.5 -56zM414 162q82 0 138 61t56 178q-295 -32 -295 -161q0 -40 28 -59t73 -19zM1042 766
q-77 0 -125.5 -56t-60.5 -149l328 39q0 7 -1.5 18t-9.5 39.5t-21.5 50.5t-42.5 40t-67 18z" />
    <glyph glyph-name="ccedilla" unicode="&#xe7;" horiz-adv-x="958" 
d="M410 -145q0 32 32 98l17 33q-180 30 -286.5 158.5t-106.5 304.5q0 99 36.5 190.5t101.5 162t161.5 112.5t209.5 42q59 0 114.5 -9.5t93 -23.5t67 -28t43.5 -23l14 -10l-90 -186q-4 3 -11 9t-30.5 20.5t-48 25.5t-61 20t-72.5 9q-114 0 -189 -80t-75 -217
q0 -132 70 -211.5t186 -79.5q64 0 124.5 23.5t89.5 46.5l29 24l78 -172q-4 -5 -12 -12.5t-37.5 -27.5t-64 -35.5t-92 -29t-121.5 -14.5l-7 -14q-18 -41 -18 -55q0 -18 18.5 -31t45 -24.5t53 -26t45 -43.5t18.5 -70q0 -83 -69 -139.5t-179 -56.5q-56 0 -107.5 15.5
t-75.5 31.5l-23 16l49 115q8 -7 21.5 -17t54.5 -26.5t79 -16.5q42 0 69.5 16t27.5 40q0 22 -27 40.5t-59 30.5t-59 37t-27 58z" />
    <glyph glyph-name="egrave" unicode="&#xe8;" horiz-adv-x="1009" 
d="M70 461q0 136 56.5 248.5t163 179.5t242.5 67q182 0 290.5 -118.5t109.5 -337.5l-139 -41l-461 -60q22 -105 90 -166t172 -61q68 0 139 29t107 57l37 29l65 -181q-6 -5 -17.5 -14t-50 -31.5t-80.5 -40t-108.5 -31.5t-134.5 -14q-153 0 -264 68.5t-164 177t-53 240.5z
M514 766q-80 0 -128.5 -60.5t-59.5 -158.5l329 43q0 7 -1 19t-9.5 42.5t-21.5 53.5t-42 42t-67 19zM502 1040l-318 408h242l211 -334z" />
    <glyph glyph-name="eacute" unicode="&#xe9;" horiz-adv-x="1009" 
d="M526 1040l-137 74l211 334h244zM70 461q0 136 56.5 248.5t163 179.5t242.5 67q182 0 290.5 -118.5t109.5 -337.5l-139 -41l-461 -60q22 -105 90 -166t172 -61q68 0 139 29t107 57l37 29l65 -181q-6 -5 -17.5 -14t-50 -31.5t-80.5 -40t-108.5 -31.5t-134.5 -14
q-153 0 -264 68.5t-164 177t-53 240.5zM514 766q-80 0 -128.5 -60.5t-59.5 -158.5l329 43q0 7 -1 19t-9.5 42.5t-21.5 53.5t-42 42t-67 19z" />
    <glyph glyph-name="ecircumflex" unicode="&#xea;" horiz-adv-x="1009" 
d="M344 1038l-141 60l235 350h158l233 -352l-139 -58l-174 244zM70 461q0 136 56.5 248.5t163 179.5t242.5 67q182 0 290.5 -118.5t109.5 -337.5l-139 -41l-461 -60q22 -105 90 -166t172 -61q68 0 139 29t107 57l37 29l65 -181q-6 -5 -17.5 -14t-50 -31.5t-80.5 -40
t-108.5 -31.5t-134.5 -14q-153 0 -264 68.5t-164 177t-53 240.5zM514 766q-80 0 -128.5 -60.5t-59.5 -158.5l329 43q0 7 -1 19t-9.5 42.5t-21.5 53.5t-42 42t-67 19z" />
    <glyph glyph-name="edieresis" unicode="&#xeb;" horiz-adv-x="1009" 
d="M733 1145q-60 0 -97.5 35.5t-37.5 95.5t37.5 95.5t97.5 35.5q62 0 99.5 -35.5t37.5 -95.5t-37.5 -95.5t-99.5 -35.5zM297 1145q-60 0 -97.5 35.5t-37.5 95.5t37.5 95.5t97.5 35.5q62 0 99.5 -35.5t37.5 -95.5t-37.5 -95.5t-99.5 -35.5zM70 461q0 136 56.5 248.5
t163 179.5t242.5 67q182 0 290.5 -118.5t109.5 -337.5l-139 -41l-461 -60q22 -105 90 -166t172 -61q68 0 139 29t107 57l37 29l65 -181q-6 -5 -17.5 -14t-50 -31.5t-80.5 -40t-108.5 -31.5t-134.5 -14q-153 0 -264 68.5t-164 177t-53 240.5zM514 766q-80 0 -128.5 -60.5
t-59.5 -158.5l329 43q0 7 -1 19t-9.5 42.5t-21.5 53.5t-42 42t-67 19z" />
    <glyph glyph-name="igrave" unicode="&#xec;" horiz-adv-x="514" 
d="M129 0v932h256v-932h-256zM246 1040l-318 408h242l211 -334z" />
    <glyph glyph-name="iacute" unicode="&#xed;" horiz-adv-x="514" 
d="M270 1040l-137 74l211 334h244zM129 0v932h256v-932h-256z" />
    <glyph glyph-name="icircumflex" unicode="&#xee;" horiz-adv-x="514" 
d="M86 1038l-141 60l235 350h158l233 -352l-139 -58l-174 244zM129 0v932h256v-932h-256z" />
    <glyph glyph-name="idieresis" unicode="&#xef;" horiz-adv-x="514" 
d="M475 1145q-60 0 -97.5 35.5t-37.5 95.5t37.5 95.5t97.5 35.5q62 0 99.5 -35.5t37.5 -95.5t-37.5 -95.5t-99.5 -35.5zM39 1145q-60 0 -97.5 35.5t-37.5 95.5t37.5 95.5t97.5 35.5q62 0 99.5 -35.5t37.5 -95.5t-37.5 -95.5t-99.5 -35.5zM129 0v932h256v-932h-256z" />
    <glyph glyph-name="eth" unicode="&#xf0;" horiz-adv-x="1120" 
d="M252 1001l-70 129l201 113q-100 57 -248 94l47 185q231 -43 410 -158l297 168l67 -131l-237 -135q148 -132 228.5 -309t80.5 -379q0 -172 -57.5 -307.5t-171.5 -215.5t-269 -80q-109 0 -198 39t-146 104.5t-87.5 149t-30.5 176.5q0 76 20.5 150.5t60 139.5t94 115
t127.5 78.5t154 28.5q134 0 201 -67q-67 153 -203 266zM319 463q0 -52 12.5 -102t37.5 -95t69.5 -72.5t100.5 -27.5q106 0 175.5 91.5t69.5 289.5q0 94 -50 156.5t-150 62.5q-116 0 -190.5 -86t-74.5 -217z" />
    <glyph glyph-name="ntilde" unicode="&#xf1;" horiz-adv-x="1095" 
d="M125 0v911l246 41v-172q163 176 352 176q121 0 186.5 -72.5t65.5 -219.5v-664h-254v555q0 96 -21 138t-73 42q-99 0 -246 -147v-588h-256zM215 1120q-2 13 -2 31q0 28 3 56t16 66.5t34 66.5t61 48.5t93 20.5q46 0 84.5 -16t64.5 -39t48 -46t44 -39t44 -16q59 0 59 117v25
h156v-29q0 -28 -3 -56.5t-16 -68t-34.5 -68.5t-63 -50t-96.5 -21q-46 0 -83.5 16t-61.5 39t-44.5 45.5t-42.5 38.5t-45 16q-59 0 -59 -118v-19h-156z" />
    <glyph glyph-name="ograve" unicode="&#xf2;" horiz-adv-x="1142" 
d="M68 463q0 72 17.5 141t57 133t97 112.5t144 77.5t191.5 29q121 0 218.5 -40t157.5 -106.5t92 -150t32 -174.5q0 -70 -17 -139.5t-56.5 -137t-96.5 -119t-144.5 -83t-193.5 -31.5q-121 0 -218 41t-157.5 110t-92 155t-31.5 182zM332 481q0 -131 62.5 -223t178.5 -92
q102 0 170 82t68 211q0 78 -24.5 145.5t-80.5 114.5t-135 47q-103 0 -171 -80.5t-68 -204.5zM561 1040l-317 408h241l211 -334z" />
    <glyph glyph-name="oacute" unicode="&#xf3;" horiz-adv-x="1142" 
d="M584 1040l-138 74l211 334h244zM68 463q0 72 17.5 141t57 133t97 112.5t144 77.5t191.5 29q121 0 218.5 -40t157.5 -106.5t92 -150t32 -174.5q0 -70 -17 -139.5t-56.5 -137t-96.5 -119t-144.5 -83t-193.5 -31.5q-121 0 -218 41t-157.5 110t-92 155t-31.5 182zM332 481
q0 -131 62.5 -223t178.5 -92q102 0 170 82t68 211q0 78 -24.5 145.5t-80.5 114.5t-135 47q-103 0 -171 -80.5t-68 -204.5z" />
    <glyph glyph-name="ocircumflex" unicode="&#xf4;" horiz-adv-x="1142" 
d="M399 1038l-141 60l236 350h157l234 -352l-140 -58l-174 244zM68 463q0 72 17.5 141t57 133t97 112.5t144 77.5t191.5 29q121 0 218.5 -40t157.5 -106.5t92 -150t32 -174.5q0 -70 -17 -139.5t-56.5 -137t-96.5 -119t-144.5 -83t-193.5 -31.5q-121 0 -218 41t-157.5 110
t-92 155t-31.5 182zM332 481q0 -131 62.5 -223t178.5 -92q102 0 170 82t68 211q0 78 -24.5 145.5t-80.5 114.5t-135 47q-103 0 -171 -80.5t-68 -204.5z" />
    <glyph glyph-name="otilde" unicode="&#xf5;" horiz-adv-x="1142" 
d="M68 463q0 72 17.5 141t57 133t97 112.5t144 77.5t191.5 29q121 0 218.5 -40t157.5 -106.5t92 -150t32 -174.5q0 -70 -17 -139.5t-56.5 -137t-96.5 -119t-144.5 -83t-193.5 -31.5q-121 0 -218 41t-157.5 110t-92 155t-31.5 182zM332 481q0 -131 62.5 -223t178.5 -92
q102 0 170 82t68 211q0 78 -24.5 145.5t-80.5 114.5t-135 47q-103 0 -171 -80.5t-68 -204.5zM225 1120q-2 13 -2 31q0 28 3 56t16 66.5t34 66.5t61 48.5t93 20.5q46 0 84.5 -16t64.5 -39t48 -46t44 -39t44 -16q59 0 59 117v25h156v-29q0 -28 -3 -56.5t-16 -68t-34.5 -68.5
t-63 -50t-96.5 -21q-46 0 -83.5 16t-61.5 39t-44.5 45.5t-42.5 38.5t-45 16q-59 0 -59 -118v-19h-156z" />
    <glyph glyph-name="odieresis" unicode="&#xf6;" horiz-adv-x="1142" 
d="M788 1145q-60 0 -97.5 35.5t-37.5 95.5t37.5 95.5t97.5 35.5q62 0 100 -35.5t38 -95.5t-38 -95.5t-100 -35.5zM352 1145q-60 0 -97.5 35.5t-37.5 95.5t37.5 95.5t97.5 35.5q62 0 99.5 -35.5t37.5 -95.5t-37.5 -95.5t-99.5 -35.5zM68 463q0 72 17.5 141t57 133t97 112.5
t144 77.5t191.5 29q121 0 218.5 -40t157.5 -106.5t92 -150t32 -174.5q0 -70 -17 -139.5t-56.5 -137t-96.5 -119t-144.5 -83t-193.5 -31.5q-121 0 -218 41t-157.5 110t-92 155t-31.5 182zM332 481q0 -131 62.5 -223t178.5 -92q102 0 170 82t68 211q0 78 -24.5 145.5
t-80.5 114.5t-135 47q-103 0 -171 -80.5t-68 -204.5z" />
    <glyph glyph-name="divide" unicode="&#xf7;" 
d="M532 758q-58 0 -99.5 42t-41.5 101t41.5 101t99.5 42q60 0 102 -42t42 -101t-42 -101t-102 -42zM74 436v166h917v-166h-917zM391 135q0 60 41 102t100 42q60 0 102 -42t42 -102q0 -59 -42 -100t-102 -41q-58 0 -99.5 41t-41.5 100z" />
    <glyph glyph-name="oslash" unicode="&#xf8;" horiz-adv-x="1142" 
d="M68 463q0 72 17.5 141t57 133t97 112.5t144 77.5t191.5 29q139 0 244 -51l68 88h143l-115 -151q78 -66 119 -160.5t41 -196.5q0 -70 -17 -139.5t-56.5 -137t-96.5 -119t-144.5 -83t-193.5 -31.5q-140 0 -252 56l-69 -92h-146l119 159q-75 67 -113 162.5t-38 202.5z
M811 459q0 102 -43 184l-324 -438q55 -39 129 -39q102 0 170 82t68 211zM332 481q0 -104 37 -182l321 430q-49 37 -119 37q-103 0 -171 -80.5t-68 -204.5z" />
    <glyph glyph-name="ugrave" unicode="&#xf9;" horiz-adv-x="1095" 
d="M119 256v676h256v-555q0 -95 19.5 -137.5t76.5 -42.5q92 0 236 127v608h254v-647q0 -50 10 -120.5t20 -115.5l10 -45l-245 -22q-21 89 -29 157q-62 -65 -152 -114.5t-200 -49.5q-117 0 -186.5 69t-69.5 212zM528 1040l-317 408h242l211 -334z" />
    <glyph glyph-name="uacute" unicode="&#xfa;" horiz-adv-x="1095" 
d="M553 1040l-137 74l211 334h243zM119 256v676h256v-555q0 -95 19.5 -137.5t76.5 -42.5q92 0 236 127v608h254v-647q0 -50 10 -120.5t20 -115.5l10 -45l-245 -22q-21 89 -29 157q-62 -65 -152 -114.5t-200 -49.5q-117 0 -186.5 69t-69.5 212z" />
    <glyph glyph-name="ucircumflex" unicode="&#xfb;" horiz-adv-x="1095" 
d="M367 1038l-142 60l236 350h157l234 -352l-139 -58l-174 244zM119 256v676h256v-555q0 -95 19.5 -137.5t76.5 -42.5q92 0 236 127v608h254v-647q0 -50 10 -120.5t20 -115.5l10 -45l-245 -22q-21 89 -29 157q-62 -65 -152 -114.5t-200 -49.5q-117 0 -186.5 69t-69.5 212z
" />
    <glyph glyph-name="udieresis" unicode="&#xfc;" horiz-adv-x="1095" 
d="M756 1145q-60 0 -97.5 35.5t-37.5 95.5t37.5 95.5t97.5 35.5q62 0 99.5 -35.5t37.5 -95.5t-37.5 -95.5t-99.5 -35.5zM319 1145q-60 0 -97.5 35.5t-37.5 95.5t37.5 95.5t97.5 35.5q62 0 100 -35.5t38 -95.5t-38 -95.5t-100 -35.5zM119 256v676h256v-555q0 -95 19.5 -137.5
t76.5 -42.5q92 0 236 127v608h254v-647q0 -50 10 -120.5t20 -115.5l10 -45l-245 -22q-21 89 -29 157q-62 -65 -152 -114.5t-200 -49.5q-117 0 -186.5 69t-69.5 212z" />
    <glyph glyph-name="yacute" unicode="&#xfd;" horiz-adv-x="972" 
d="M20 -289q100 12 189 80.5t125 155.5l33 78l-359 907h266l218 -610l213 610h258l-388 -1000q-30 -76 -74.5 -144.5t-103.5 -128t-136.5 -98t-162.5 -46.5zM504 1040l-137 74l211 334h243z" />
    <glyph glyph-name="thorn" unicode="&#xfe;" horiz-adv-x="1105" 
d="M129 -481v1908l256 41v-659q35 66 99.5 106.5t158.5 40.5q119 0 209.5 -63t136 -166.5t45.5 -230.5q0 -81 -19 -156.5t-58 -142t-94 -116t-132.5 -78t-167.5 -28.5q-116 0 -178 39v-454zM385 252q0 -42 36.5 -64t98.5 -22q113 0 181.5 80.5t68.5 232.5q0 129 -48.5 203
t-127.5 74q-112 0 -209 -140v-364z" />
    <glyph glyph-name="ydieresis" unicode="&#xff;" horiz-adv-x="972" 
d="M20 -289q100 12 189 80.5t125 155.5l33 78l-359 907h266l218 -610l213 610h258l-388 -1000q-30 -76 -74.5 -144.5t-103.5 -128t-136.5 -98t-162.5 -46.5zM709 1145q-61 0 -98.5 36t-37.5 95t37.5 95t98.5 36q62 0 99.5 -35.5t37.5 -95.5t-37.5 -95.5t-99.5 -35.5z
M272 1145q-60 0 -97.5 35.5t-37.5 95.5t37.5 95.5t97.5 35.5q62 0 100 -35.5t38 -95.5t-38 -95.5t-100 -35.5z" />
    <glyph glyph-name="Amacron" unicode="&#x100;" horiz-adv-x="1300" 
d="M10 0l514 1376h252l514 -1376h-268l-111 307h-528l-111 -307h-262zM647 1042l-186 -516h370zM350 1550v152h588v-152h-588z" />
    <glyph glyph-name="amacron" unicode="&#x101;" horiz-adv-x="1007" 
d="M53 219q0 289 545 361v32q0 77 -25 115.5t-104 38.5q-67 0 -140.5 -28t-114.5 -56l-40 -27l-61 181q7 5 19.5 13t55 28.5t89 36.5t118.5 29t146 13q175 0 244 -72t69 -231v-360q0 -31 10.5 -53t26 -32.5t31 -16.5t26.5 -7h10l-73 -198q-196 5 -260 137
q-11 -16 -23.5 -31.5t-39 -38t-56.5 -38.5t-75.5 -28t-96.5 -12q-126 0 -203.5 69t-77.5 175zM403 162q94 0 195 121v149q-149 -21 -217 -69t-68 -123q0 -40 25 -59t65 -19zM213 1182v159h526v-159h-526z" />
    <glyph glyph-name="Abreve" unicode="&#x102;" horiz-adv-x="1300" 
d="M10 0l514 1376h252l514 -1376h-268l-111 307h-528l-111 -307h-262zM647 1042l-186 -516h370zM645 1464q-161 0 -242.5 91.5t-60.5 232.5h139q-6 -88 32 -133t132 -45q87 0 128.5 45.5t35.5 132.5h139q21 -141 -61 -232.5t-242 -91.5z" />
    <glyph glyph-name="abreve" unicode="&#x103;" horiz-adv-x="1007" 
d="M53 219q0 289 545 361v32q0 77 -25 115.5t-104 38.5q-67 0 -140.5 -28t-114.5 -56l-40 -27l-61 181q7 5 19.5 13t55 28.5t89 36.5t118.5 29t146 13q175 0 244 -72t69 -231v-360q0 -31 10.5 -53t26 -32.5t31 -16.5t26.5 -7h10l-73 -198q-196 5 -260 137
q-11 -16 -23.5 -31.5t-39 -38t-56.5 -38.5t-75.5 -28t-96.5 -12q-126 0 -203.5 69t-77.5 175zM403 162q94 0 195 121v149q-149 -21 -217 -69t-68 -123q0 -40 25 -59t65 -19zM475 1110q-139 0 -218 77t-79 202q0 19 4 55h140v-25q0 -89 43 -128.5t110 -39.5t110.5 39.5
t43.5 128.5v25h139q0 -9 1 -27.5t1 -27.5q0 -124 -78.5 -201.5t-216.5 -77.5z" />
    <glyph glyph-name="Aogonek" unicode="&#x104;" horiz-adv-x="1300" 
d="M10 0l514 1376h252l514 -1376q-166 -153 -166 -258q0 -32 17 -49t43.5 -18.5t54 4t53.5 16.5l19 -152q-84 -28 -172 -28q-97 0 -153 48t-56 134q0 35 8.5 67t29.5 65t36.5 54t49 60t48.5 57h-80l-111 307h-528l-111 -307h-262zM647 1042l-186 -516h370z" />
    <glyph glyph-name="aogonek" unicode="&#x105;" horiz-adv-x="1009" 
d="M53 219q0 289 545 361v32q0 77 -25 115.5t-104 38.5q-67 0 -140.5 -28t-114.5 -56l-40 -27l-61 181q7 5 19.5 13t55 28.5t89 36.5t118.5 29t146 13q175 0 244 -72t69 -231v-360q0 -31 10.5 -53t26 -32.5t31 -16.5t26.5 -7h10l-73 -196l2 -2q-152 -148 -152 -244
q0 -68 74 -68q47 0 94 21l19 -152q-84 -28 -172 -28q-97 0 -153 48t-56 134q0 46 19 91.5t40.5 74t63.5 78t63 77.5q-73 39 -102 105q-11 -16 -23.5 -31.5t-39 -38t-56.5 -38.5t-75.5 -28t-96.5 -12q-126 0 -203.5 69t-77.5 175zM403 162q94 0 195 121v149
q-149 -21 -217 -69t-68 -123q0 -40 25 -59t65 -19z" />
    <glyph glyph-name="Cacute" unicode="&#x106;" horiz-adv-x="1382" 
d="M80 662q0 153 54 286t151 231.5t241.5 155t317.5 56.5q85 0 165 -11.5t133.5 -28.5t94.5 -33.5t61 -27.5l19 -12l-100 -223q-6 4 -16.5 11.5t-47.5 25.5t-78 32t-106.5 25.5t-134.5 11.5q-221 0 -352.5 -134.5t-131.5 -342.5q0 -145 66 -255.5t174 -167t239 -56.5
q68 0 134.5 13t112.5 31.5t82 36.5t54 31l17 13l106 -193q-7 -7 -21 -17.5t-62.5 -38.5t-104.5 -49.5t-146.5 -39t-187.5 -17.5q-151 0 -284 47.5t-233 133.5t-158 217t-58 289zM586 1450l-49 137l442 195l72 -189z" />
    <glyph glyph-name="cacute" unicode="&#x107;" horiz-adv-x="956" 
d="M524 1040l-137 74l211 334h244zM66 449q0 99 36.5 190.5t101.5 162t161.5 112.5t209.5 42q59 0 114.5 -9.5t93 -23.5t67 -28t43.5 -23l14 -10l-90 -186q-4 3 -11 9t-30.5 20.5t-48 25.5t-61 20t-72.5 9q-114 0 -189 -80t-75 -217q0 -132 70 -211.5t186 -79.5
q64 0 124.5 23.5t89.5 46.5l29 24l78 -172q-4 -5 -12.5 -13t-39 -28.5t-66.5 -36t-96 -28.5t-126 -13q-225 0 -363 135.5t-138 338.5z" />
    <glyph glyph-name="Ccircumflex" unicode="&#x108;" horiz-adv-x="1382" 
d="M80 662q0 153 54 286t151 231.5t241.5 155t317.5 56.5q85 0 165 -11.5t133.5 -28.5t94.5 -33.5t61 -27.5l19 -12l-100 -223q-6 4 -16.5 11.5t-47.5 25.5t-78 32t-106.5 25.5t-134.5 11.5q-221 0 -352.5 -134.5t-131.5 -342.5q0 -145 66 -255.5t174 -167t239 -56.5
q68 0 134.5 13t112.5 31.5t82 36.5t54 31l17 13l106 -193q-7 -7 -21 -17.5t-62.5 -38.5t-104.5 -49.5t-146.5 -39t-187.5 -17.5q-151 0 -284 47.5t-233 133.5t-158 217t-58 289zM539 1470l-133 89l258 225h200l256 -225l-131 -89l-225 181z" />
    <glyph glyph-name="ccircumflex" unicode="&#x109;" horiz-adv-x="956" 
d="M342 1038l-141 60l235 350h158l233 -352l-139 -58l-174 244zM66 449q0 99 36.5 190.5t101.5 162t161.5 112.5t209.5 42q59 0 114.5 -9.5t93 -23.5t67 -28t43.5 -23l14 -10l-90 -186q-4 3 -11 9t-30.5 20.5t-48 25.5t-61 20t-72.5 9q-114 0 -189 -80t-75 -217
q0 -132 70 -211.5t186 -79.5q64 0 124.5 23.5t89.5 46.5l29 24l78 -172q-4 -5 -12.5 -13t-39 -28.5t-66.5 -36t-96 -28.5t-126 -13q-225 0 -363 135.5t-138 338.5z" />
    <glyph glyph-name="Cdotaccent" unicode="&#x10a;" horiz-adv-x="1382" 
d="M764 1485q-66 0 -108 39t-42 102q0 64 42 103.5t108 39.5q65 0 107 -39.5t42 -103.5q0 -63 -42 -102t-107 -39zM80 662q0 153 54 286t151 231.5t241.5 155t317.5 56.5q85 0 165 -11.5t133.5 -28.5t94.5 -33.5t61 -27.5l19 -12l-100 -223q-6 4 -16.5 11.5t-47.5 25.5
t-78 32t-106.5 25.5t-134.5 11.5q-221 0 -352.5 -134.5t-131.5 -342.5q0 -145 66 -255.5t174 -167t239 -56.5q68 0 134.5 13t112.5 31.5t82 36.5t54 31l17 13l106 -193q-7 -7 -21 -17.5t-62.5 -38.5t-104.5 -49.5t-146.5 -39t-187.5 -17.5q-151 0 -284 47.5t-233 133.5
t-158 217t-58 289z" />
    <glyph glyph-name="cdotaccent" unicode="&#x10b;" horiz-adv-x="956" 
d="M66 449q0 99 36.5 190.5t101.5 162t161.5 112.5t209.5 42q59 0 114.5 -9.5t93 -23.5t67 -28t43.5 -23l14 -10l-90 -186q-4 3 -11 9t-30.5 20.5t-48 25.5t-61 20t-72.5 9q-114 0 -189 -80t-75 -217q0 -132 70 -211.5t186 -79.5q64 0 124.5 23.5t89.5 46.5l29 24l78 -172
q-4 -5 -12.5 -13t-39 -28.5t-66.5 -36t-96 -28.5t-126 -13q-225 0 -363 135.5t-138 338.5zM514 1135q-66 0 -107.5 40t-41.5 103t41.5 103t107.5 40q65 0 107.5 -40t42.5 -103t-42.5 -103t-107.5 -40z" />
    <glyph glyph-name="Ccaron" unicode="&#x10c;" horiz-adv-x="1382" 
d="M80 662q0 153 54 286t151 231.5t241.5 155t317.5 56.5q85 0 165 -11.5t133.5 -28.5t94.5 -33.5t61 -27.5l19 -12l-100 -223q-6 4 -16.5 11.5t-47.5 25.5t-78 32t-106.5 25.5t-134.5 11.5q-221 0 -352.5 -134.5t-131.5 -342.5q0 -145 66 -255.5t174 -167t239 -56.5
q68 0 134.5 13t112.5 31.5t82 36.5t54 31l17 13l106 -193q-7 -7 -21 -17.5t-62.5 -38.5t-104.5 -49.5t-146.5 -39t-187.5 -17.5q-151 0 -284 47.5t-233 133.5t-158 217t-58 289zM662 1470l-256 226l133 88l225 -180l225 180l131 -88l-258 -226h-200z" />
    <glyph glyph-name="ccaron" unicode="&#x10d;" horiz-adv-x="956" 
d="M436 1067l-235 350l141 60l172 -246l174 246l139 -58l-233 -352h-158zM66 449q0 99 36.5 190.5t101.5 162t161.5 112.5t209.5 42q59 0 114.5 -9.5t93 -23.5t67 -28t43.5 -23l14 -10l-90 -186q-4 3 -11 9t-30.5 20.5t-48 25.5t-61 20t-72.5 9q-114 0 -189 -80t-75 -217
q0 -132 70 -211.5t186 -79.5q64 0 124.5 23.5t89.5 46.5l29 24l78 -172q-4 -5 -12.5 -13t-39 -28.5t-66.5 -36t-96 -28.5t-126 -13q-225 0 -363 135.5t-138 338.5z" />
    <glyph glyph-name="Dcaron" unicode="&#x10e;" horiz-adv-x="1490" 
d="M170 0v1366h485q115 0 220 -21.5t203 -72t169.5 -125t114.5 -188t43 -254.5q0 -225 -106 -385.5t-290.5 -240t-430.5 -79.5h-408zM434 221h123q152 0 264.5 36t178.5 101t98 148.5t32 185.5q0 209 -128.5 331t-374.5 122h-193v-924zM633 1470l-256 226l133 88l225 -180
l226 180l131 -88l-258 -226h-201z" />
    <glyph glyph-name="dcaron" unicode="&#x10f;" horiz-adv-x="1110" 
d="M1108 1106l51 403l244 21l-148 -424h-147zM70 438q0 100 31.5 191.5t90.5 165t154 117.5t213 44q90 0 162 -28v499l254 41v-1183q0 -50 10.5 -121.5t21.5 -117.5l11 -46l-238 -14q-18 69 -28 135q-84 -146 -285 -146q-178 0 -287.5 133.5t-109.5 329.5zM522 166
q66 0 117 38.5t82 84.5v360q0 60 -38.5 88.5t-104.5 28.5q-115 0 -178.5 -80.5t-63.5 -230.5q0 -136 47.5 -212.5t138.5 -76.5z" />
    <glyph glyph-name="Dcroat" unicode="&#x110;" horiz-adv-x="1521" 
d="M53 592v203h148v571h485q115 0 220 -21.5t203 -72t169.5 -125t114.5 -188t43 -254.5q0 -225 -106 -385.5t-291 -240t-431 -79.5h-407v592h-148zM465 221h123q151 0 263.5 36t179 101t98.5 148.5t32 185.5q0 208 -129 330.5t-375 122.5h-192v-350h315v-203h-315v-371z" />
    <glyph glyph-name="dcroat" unicode="&#x111;" horiz-adv-x="1110" 
d="M438 1081v123h283v223l254 41v-264h155v-123h-155v-796q0 -50 10.5 -121.5t21.5 -117.5l11 -46l-238 -14q-18 69 -28 135q-84 -146 -285 -146q-178 0 -287.5 133.5t-109.5 329.5q0 100 31.5 191.5t90.5 165t154 117.5t213 44q90 0 162 -28v153h-283zM522 166
q66 0 117 38.5t82 84.5v360q0 60 -38.5 88.5t-104.5 28.5q-115 0 -178.5 -80.5t-63.5 -230.5q0 -136 47.5 -212.5t138.5 -76.5z" />
    <glyph glyph-name="Emacron" unicode="&#x112;" horiz-adv-x="1126" 
d="M170 0v1366h862v-221h-598v-342h471v-219h-471v-363h613v-221h-877zM315 1550v152h588v-152h-588z" />
    <glyph glyph-name="emacron" unicode="&#x113;" horiz-adv-x="1009" 
d="M70 461q0 136 56.5 248.5t163 179.5t242.5 67q182 0 290.5 -118.5t109.5 -337.5l-139 -41l-461 -60q22 -105 90 -166t172 -61q68 0 139 29t107 57l37 29l65 -181q-6 -5 -17.5 -14t-50 -31.5t-80.5 -40t-108.5 -31.5t-134.5 -14q-153 0 -264 68.5t-164 177t-53 240.5z
M514 766q-80 0 -128.5 -60.5t-59.5 -158.5l329 43q0 7 -1 19t-9.5 42.5t-21.5 53.5t-42 42t-67 19zM250 1182v159h526v-159h-526z" />
    <glyph glyph-name="Ebreve" unicode="&#x114;" horiz-adv-x="1126" 
d="M170 0v1366h862v-221h-598v-342h471v-219h-471v-363h613v-221h-877zM610 1464q-161 0 -242.5 91.5t-60.5 232.5h139q-6 -88 32 -133t132 -45q87 0 128.5 45.5t35.5 132.5h139q21 -141 -61 -232.5t-242 -91.5z" />
    <glyph glyph-name="ebreve" unicode="&#x115;" horiz-adv-x="1009" 
d="M70 461q0 136 56.5 248.5t163 179.5t242.5 67q182 0 290.5 -118.5t109.5 -337.5l-139 -41l-461 -60q22 -105 90 -166t172 -61q68 0 139 29t107 57l37 29l65 -181q-6 -5 -17.5 -14t-50 -31.5t-80.5 -40t-108.5 -31.5t-134.5 -14q-153 0 -264 68.5t-164 177t-53 240.5z
M514 766q-80 0 -128.5 -60.5t-59.5 -158.5l329 43q0 7 -1 19t-9.5 42.5t-21.5 53.5t-42 42t-67 19zM516 1110q-139 0 -218 77t-79 202q0 19 4 55h139v-25q0 -89 43.5 -128.5t110.5 -39.5t110.5 39.5t43.5 128.5v25h139q0 -9 1 -27.5t1 -27.5q0 -124 -78.5 -201.5
t-216.5 -77.5z" />
    <glyph glyph-name="Edotaccent" unicode="&#x116;" horiz-adv-x="1126" 
d="M610 1485q-66 0 -107.5 39t-41.5 102q0 64 41.5 103.5t107.5 39.5q65 0 107.5 -39.5t42.5 -103.5q0 -62 -42.5 -101.5t-107.5 -39.5zM170 0v1366h862v-221h-598v-342h471v-219h-471v-363h613v-221h-877z" />
    <glyph glyph-name="edotaccent" unicode="&#x117;" horiz-adv-x="1009" 
d="M70 461q0 136 56.5 248.5t163 179.5t242.5 67q182 0 290.5 -118.5t109.5 -337.5l-139 -41l-461 -60q22 -105 90 -166t172 -61q68 0 139 29t107 57l37 29l65 -181q-6 -5 -17.5 -14t-50 -31.5t-80.5 -40t-108.5 -31.5t-134.5 -14q-153 0 -264 68.5t-164 177t-53 240.5z
M514 766q-80 0 -128.5 -60.5t-59.5 -158.5l329 43q0 7 -1 19t-9.5 42.5t-21.5 53.5t-42 42t-67 19zM516 1135q-66 0 -107.5 40t-41.5 103t41.5 103t107.5 40q65 0 107.5 -40t42.5 -103t-42.5 -103t-107.5 -40z" />
    <glyph glyph-name="Eogonek" unicode="&#x118;" horiz-adv-x="1126" 
d="M170 0v1366h862v-221h-598v-342h471v-219h-471v-363h613v-221q-166 -153 -166 -258q0 -32 17 -49t43.5 -18.5t54 4t53.5 16.5l18 -152q-84 -28 -172 -28q-97 0 -153 48t-56 134q0 35 9 67.5t29.5 64.5t37.5 54t48.5 59.5t47.5 57.5h-688z" />
    <glyph glyph-name="eogonek" unicode="&#x119;" horiz-adv-x="1009" 
d="M70 461q0 136 56.5 248.5t163 179.5t242.5 67q182 0 290.5 -118.5t109.5 -337.5l-139 -41l-461 -60q22 -105 90 -166t172 -61q68 0 139 29t107 57l37 29l65 -181q-41 -32 -102 -65q-43 -31 -89 -77t-87 -109.5t-41 -112.5q0 -68 75 -68q48 0 95 21l18 -152
q-84 -28 -172 -28q-99 0 -155 48t-56 134q0 33 7.5 62.5t27 61.5t31.5 49t45 56t43 51q-10 -2 -31 -2q-153 0 -264 68.5t-164 177t-53 240.5zM514 766q-80 0 -128.5 -60.5t-59.5 -158.5l329 43q0 7 -1 19t-9.5 42.5t-21.5 53.5t-42 42t-67 19z" />
    <glyph glyph-name="Ecaron" unicode="&#x11a;" horiz-adv-x="1126" 
d="M170 0v1366h862v-221h-598v-342h471v-219h-471v-363h613v-221h-877zM508 1470l-256 226l133 88l225 -180l226 180l131 -88l-258 -226h-201z" />
    <glyph glyph-name="ecaron" unicode="&#x11b;" horiz-adv-x="1009" 
d="M438 1067l-235 350l141 60l172 -246l174 246l139 -58l-233 -352h-158zM70 461q0 136 56.5 248.5t163 179.5t242.5 67q182 0 290.5 -118.5t109.5 -337.5l-139 -41l-461 -60q22 -105 90 -166t172 -61q68 0 139 29t107 57l37 29l65 -181q-6 -5 -17.5 -14t-50 -31.5
t-80.5 -40t-108.5 -31.5t-134.5 -14q-153 0 -264 68.5t-164 177t-53 240.5zM514 766q-80 0 -128.5 -60.5t-59.5 -158.5l329 43q0 7 -1 19t-9.5 42.5t-21.5 53.5t-42 42t-67 19z" />
    <glyph glyph-name="Gcircumflex" unicode="&#x11c;" horiz-adv-x="1447" 
d="M537 1470l-134 89l259 225h200l256 -225l-131 -89l-225 181zM78 659q0 146 53 278t150 233t246.5 161t330.5 60q125 0 241 -25.5t170 -50.5l54 -25l-100 -223q-7 4 -19 10t-51 22.5t-80.5 29t-103 22.5t-121.5 10q-119 0 -215 -39t-157.5 -105.5t-94.5 -154t-33 -186.5
q0 -216 144.5 -343.5t365.5 -127.5q46 0 100.5 5t85.5 10l31 5v301h-274v219h532v-708q-292 -62 -497 -62q-213 0 -384.5 82.5t-272.5 239.5t-101 362z" />
    <glyph glyph-name="gcircumflex" unicode="&#x11d;" horiz-adv-x="1050" 
d="M324 1038l-142 60l236 350h157l234 -352l-139 -58l-174 244zM125 162q0 95 147 182q-90 42 -139 118t-49 169q0 77 34 139.5t91.5 102.5t130.5 61.5t154 21.5q64 0 143 -19t129 -19h117q29 0 60.5 5t48.5 10l16 5l14 -184h-100q-36 0 -76 6q61 -61 61 -156
q0 -90 -62.5 -160.5t-159 -105.5t-206.5 -35q-41 0 -59 2q-70 -41 -70 -65q0 -22 66 -44q23 -7 229 -63q42 -11 67 -18.5t65.5 -22t66 -28t55.5 -35t47 -44.5t29 -54.5t12 -67.5q0 -68 -39.5 -131.5t-107.5 -111.5t-165 -76.5t-206 -28.5q-110 0 -204 26.5t-156 82
t-62 130.5q0 144 225 269q-75 28 -111 60t-36 79zM272 -199q0 -51 56 -79.5t153 -28.5q114 0 191.5 36.5t77.5 94.5q0 39 -45.5 64t-167.5 59l-101 28q-4 -2 -25.5 -16t-28.5 -19t-26 -18.5t-27 -21.5l-21.5 -21.5t-19.5 -24.5t-11 -25t-5 -28zM494 473q76 0 124 43t48 107
q0 61 -45 112t-125 51q-79 0 -124.5 -49t-45.5 -110q0 -60 44 -107t124 -47z" />
    <glyph glyph-name="Gbreve" unicode="&#x11e;" horiz-adv-x="1447" 
d="M78 659q0 146 53 278t150 233t246.5 161t330.5 60q125 0 241 -25.5t170 -50.5l54 -25l-100 -223q-7 4 -19 10t-51 22.5t-80.5 29t-103 22.5t-121.5 10q-119 0 -215 -39t-157.5 -105.5t-94.5 -154t-33 -186.5q0 -216 144.5 -343.5t365.5 -127.5q46 0 100.5 5t85.5 10l31 5
v301h-274v219h532v-708q-292 -62 -497 -62q-213 0 -384.5 82.5t-272.5 239.5t-101 362zM762 1464q-161 0 -242.5 91.5t-60.5 232.5h139q-6 -88 32 -133t132 -45q87 0 128.5 45.5t35.5 132.5h139q21 -141 -61 -232.5t-242 -91.5z" />
    <glyph glyph-name="gbreve" unicode="&#x11f;" horiz-adv-x="1050" 
d="M125 162q0 95 147 182q-90 42 -139 118t-49 169q0 77 34 139.5t91.5 102.5t130.5 61.5t154 21.5q64 0 143 -19t129 -19h117q29 0 60.5 5t48.5 10l16 5l14 -184h-100q-36 0 -76 6q61 -61 61 -156q0 -90 -62.5 -160.5t-159 -105.5t-206.5 -35q-41 0 -59 2q-70 -41 -70 -65
q0 -22 66 -44q23 -7 229 -63q42 -11 67 -18.5t65.5 -22t66 -28t55.5 -35t47 -44.5t29 -54.5t12 -67.5q0 -68 -39.5 -131.5t-107.5 -111.5t-165 -76.5t-206 -28.5q-110 0 -204 26.5t-156 82t-62 130.5q0 144 225 269q-75 28 -111 60t-36 79zM272 -199q0 -51 56 -79.5
t153 -28.5q114 0 191.5 36.5t77.5 94.5q0 39 -45.5 64t-167.5 59l-101 28q-4 -2 -25.5 -16t-28.5 -19t-26 -18.5t-27 -21.5l-21.5 -21.5t-19.5 -24.5t-11 -25t-5 -28zM494 473q76 0 124 43t48 107q0 61 -45 112t-125 51q-79 0 -124.5 -49t-45.5 -110q0 -60 44 -107t124 -47z
M496 1110q-139 0 -218 77t-79 202q0 19 4 55h139v-25q0 -89 43.5 -128.5t110.5 -39.5t110 39.5t43 128.5v25h139q0 -9 1.5 -27.5t1.5 -27.5q0 -124 -78.5 -201.5t-216.5 -77.5z" />
    <glyph glyph-name="Gdotaccent" unicode="&#x120;" horiz-adv-x="1447" 
d="M762 1485q-66 0 -108 39t-42 102q0 64 42 103.5t108 39.5q65 0 107 -39.5t42 -103.5q0 -63 -42 -102t-107 -39zM78 659q0 146 53 278t150 233t246.5 161t330.5 60q125 0 241 -25.5t170 -50.5l54 -25l-100 -223q-7 4 -19 10t-51 22.5t-80.5 29t-103 22.5t-121.5 10
q-119 0 -215 -39t-157.5 -105.5t-94.5 -154t-33 -186.5q0 -216 144.5 -343.5t365.5 -127.5q46 0 100.5 5t85.5 10l31 5v301h-274v219h532v-708q-292 -62 -497 -62q-213 0 -384.5 82.5t-272.5 239.5t-101 362z" />
    <glyph glyph-name="gdotaccent" unicode="&#x121;" horiz-adv-x="1050" 
d="M125 162q0 95 147 182q-90 42 -139 118t-49 169q0 77 34 139.5t91.5 102.5t130.5 61.5t154 21.5q64 0 143 -19t129 -19h117q29 0 60.5 5t48.5 10l16 5l14 -184h-100q-36 0 -76 6q61 -61 61 -156q0 -90 -62.5 -160.5t-159 -105.5t-206.5 -35q-41 0 -59 2q-70 -41 -70 -65
q0 -22 66 -44q23 -7 229 -63q42 -11 67 -18.5t65.5 -22t66 -28t55.5 -35t47 -44.5t29 -54.5t12 -67.5q0 -68 -39.5 -131.5t-107.5 -111.5t-165 -76.5t-206 -28.5q-110 0 -204 26.5t-156 82t-62 130.5q0 144 225 269q-75 28 -111 60t-36 79zM272 -199q0 -51 56 -79.5
t153 -28.5q114 0 191.5 36.5t77.5 94.5q0 39 -45.5 64t-167.5 59l-101 28q-4 -2 -25.5 -16t-28.5 -19t-26 -18.5t-27 -21.5l-21.5 -21.5t-19.5 -24.5t-11 -25t-5 -28zM494 473q76 0 124 43t48 107q0 61 -45 112t-125 51q-79 0 -124.5 -49t-45.5 -110q0 -60 44 -107t124 -47z
M496 1135q-66 0 -108 40t-42 103t42 103t108 40q65 0 107 -40t42 -103t-42 -103t-107 -40z" />
    <glyph glyph-name="Gcommaaccent" unicode="&#x122;" horiz-adv-x="1447" 
d="M664 -100h217q5 -6 13.5 -17.5t22 -50t13.5 -80.5q0 -85 -61.5 -152.5t-147.5 -109.5l-96 102q104 48 104 148q0 95 -65 160zM78 659q0 146 53 278t150 233t246.5 161t330.5 60q125 0 241 -25.5t170 -50.5l54 -25l-100 -223q-7 4 -19 10t-51 22.5t-80.5 29t-103 22.5
t-121.5 10q-119 0 -215 -39t-157.5 -105.5t-94.5 -154t-33 -186.5q0 -216 144.5 -343.5t365.5 -127.5q46 0 100.5 5t85.5 10l31 5v301h-274v219h532v-708q-292 -62 -497 -62q-213 0 -384.5 82.5t-272.5 239.5t-101 362z" />
    <glyph glyph-name="gcommaaccent" unicode="&#x123;" horiz-adv-x="1050" 
d="M590 1049h-217q-5 6 -13.5 17.5t-22 49.5t-13.5 80q0 85 61 152.5t147 109.5l97 -102q-105 -48 -105 -148q0 -93 66 -159zM125 162q0 95 147 182q-90 42 -139 118t-49 169q0 77 34 139.5t91.5 102.5t130.5 61.5t154 21.5q64 0 143 -19t129 -19h117q29 0 60.5 5t48.5 10
l16 5l14 -184h-100q-36 0 -76 6q61 -61 61 -156q0 -90 -62.5 -160.5t-159 -105.5t-206.5 -35q-41 0 -59 2q-70 -41 -70 -65q0 -22 66 -44q23 -7 229 -63q42 -11 67 -18.5t65.5 -22t66 -28t55.5 -35t47 -44.5t29 -54.5t12 -67.5q0 -68 -39.5 -131.5t-107.5 -111.5t-165 -76.5
t-206 -28.5q-110 0 -204 26.5t-156 82t-62 130.5q0 144 225 269q-75 28 -111 60t-36 79zM272 -199q0 -51 56 -79.5t153 -28.5q114 0 191.5 36.5t77.5 94.5q0 39 -45.5 64t-167.5 59l-101 28q-4 -2 -25.5 -16t-28.5 -19t-26 -18.5t-27 -21.5l-21.5 -21.5t-19.5 -24.5t-11 -25
t-5 -28zM494 473q76 0 124 43t48 107q0 61 -45 112t-125 51q-79 0 -124.5 -49t-45.5 -110q0 -60 44 -107t124 -47z" />
    <glyph glyph-name="Hcircumflex" unicode="&#x124;" horiz-adv-x="1562" 
d="M170 0v1366h264v-559h694v559h263v-1366h-263v588h-694v-588h-264zM555 1470l-133 89l258 225h201l256 -225l-131 -89l-226 181z" />
    <glyph glyph-name="hcircumflex" unicode="&#x125;" horiz-adv-x="1099" 
d="M86 1524l-141 59l235 350h158l233 -352l-139 -57l-174 243zM129 0v1427l256 41v-684q155 172 340 172q123 0 188.5 -72t65.5 -220v-664h-254v555q0 96 -21 138t-73 42q-55 0 -122 -47t-124 -108v-580h-256z" />
    <glyph glyph-name="Hbar" unicode="&#x126;" horiz-adv-x="1591" 
d="M20 993v121h162v252h264v-252h695v252h262v-252h164v-121h-164v-993h-262v588h-695v-588h-264v993h-162zM446 807h695v186h-695v-186z" />
    <glyph glyph-name="hbar" unicode="&#x127;" horiz-adv-x="1099" 
d="M-8 1081v123h137v223l256 41v-264h301v-123h-301v-297q155 172 340 172q123 0 188.5 -72t65.5 -220v-664h-254v555q0 96 -21 138t-73 42q-55 0 -122 -47t-124 -108v-580h-256v1081h-137z" />
    <glyph glyph-name="Itilde" unicode="&#x128;" horiz-adv-x="604" 
d="M170 0v1366h264v-1366h-264zM-78 1489q-2 13 -2 33q0 28 3.5 54.5t17.5 63t36.5 63t65.5 45.5t100 19q60 0 112.5 -20.5t82.5 -45t65 -45t64 -20.5q68 0 68 107v20h157v-30q0 -27 -3.5 -54t-17 -65t-36.5 -65.5t-67 -47.5t-103 -20q-61 0 -111.5 20.5t-77.5 45t-60.5 45
t-63.5 20.5q-74 0 -74 -105l2 -18h-158z" />
    <glyph glyph-name="itilde" unicode="&#x129;" horiz-adv-x="514" 
d="M129 0v932h256v-932h-256zM-88 1120q-2 13 -2 31q0 28 3 56t16 66.5t34 66.5t61 48.5t93 20.5q46 0 84.5 -16t64 -39t47.5 -46t44 -39t44 -16q60 0 60 117v25h155v-29q0 -28 -3 -56.5t-16 -68t-34.5 -68.5t-63 -50t-96.5 -21q-46 0 -83 16t-61.5 39t-45 45.5t-42 38.5
t-44.5 16q-59 0 -59 -118v-19h-156z" />
    <glyph glyph-name="Imacron" unicode="&#x12a;" horiz-adv-x="604" 
d="M170 0v1366h264v-1366h-264zM10 1550v152h588v-152h-588z" />
    <glyph glyph-name="imacron" unicode="&#x12b;" horiz-adv-x="514" 
d="M129 0v932h256v-932h-256zM-4 1182v159h526v-159h-526z" />
    <glyph glyph-name="Ibreve" unicode="&#x12c;" horiz-adv-x="604" 
d="M170 0v1366h264v-1366h-264zM305 1464q-161 0 -242.5 91.5t-60.5 232.5h139q-6 -88 32 -133t132 -45q87 0 128.5 45.5t35.5 132.5h139q21 -141 -61 -232.5t-242 -91.5z" />
    <glyph glyph-name="ibreve" unicode="&#x12d;" horiz-adv-x="514" 
d="M129 0v932h256v-932h-256zM258 1110q-139 0 -218 77t-79 202q0 19 4 55h139v-25q0 -89 43.5 -128.5t110.5 -39.5t110.5 39.5t43.5 128.5v25h139q0 -9 1 -27.5t1 -27.5q0 -124 -78.5 -201.5t-216.5 -77.5z" />
    <glyph glyph-name="Iogonek" unicode="&#x12e;" horiz-adv-x="604" 
d="M170 0v1366h264v-1366q-166 -153 -166 -258q0 -32 17 -49t43.5 -18.5t54 4t53.5 16.5l19 -152q-84 -28 -172 -28q-99 0 -155 48t-56 134q0 35 9 67t30 65t37.5 54.5t49.5 59.5t48 57h-76z" />
    <glyph glyph-name="iogonek" unicode="&#x12f;" horiz-adv-x="514" 
d="M129 0v932h256v-932q-166 -153 -166 -258q0 -32 17 -49t43.5 -18.5t54 4t53.5 16.5l19 -152q-85 -28 -173 -28q-99 0 -154.5 48t-55.5 134q0 35 9 67t30 65t37.5 54.5t49.5 59.5t48 57h-68zM258 1135q-66 0 -109 40t-43 103t43 103t109 40q65 0 107.5 -40t42.5 -103
t-42.5 -103t-107.5 -40z" />
    <glyph glyph-name="Idotaccent" unicode="&#x130;" horiz-adv-x="604" 
d="M170 0v1366h264v-1366h-264zM305 1485q-66 0 -107.5 39t-41.5 102q0 64 41.5 103.5t107.5 39.5q65 0 107.5 -39.5t42.5 -103.5q0 -62 -42.5 -101.5t-107.5 -39.5z" />
    <glyph glyph-name="dotlessi" unicode="&#x131;" horiz-adv-x="514" 
d="M129 0v932h256v-932h-256z" />
    <glyph glyph-name="IJ" unicode="&#x132;" horiz-adv-x="1210" 
d="M170 0v1366h264v-1366h-264zM518 -164q258 23 258 389v1141h264v-1133q0 -92 -11 -170t-40.5 -156t-77.5 -135t-127 -99.5t-184 -57.5z" />
    <glyph glyph-name="ij" unicode="&#x133;" horiz-adv-x="1030" 
d="M258 1135q-66 0 -109 40t-43 103t43 103t109 40q65 0 107.5 -40t42.5 -103t-42.5 -103t-107.5 -40zM129 0v932h256v-932h-256zM770 1135q-66 0 -109 40t-43 103t43 103t109 40q65 0 107.5 -40t42.5 -103t-42.5 -103t-107.5 -40zM643 35v897h256v-885q0 -125 -32.5 -222.5
t-92 -160t-135 -99t-168.5 -50.5l-76 198q55 8 96.5 27t77.5 54.5t55 96t19 144.5z" />
    <glyph glyph-name="Jcircumflex" unicode="&#x134;" horiz-adv-x="604" 
d="M-86 -164q258 23 258 389v1141h264v-1133q0 -92 -11 -170t-40.5 -156t-77.5 -135t-127 -99.5t-184 -57.5zM80 1470l-133 89l258 225h201l256 -225l-132 -89l-225 181z" />
    <glyph glyph-name="jcircumflex" unicode="&#x135;" horiz-adv-x="514" 
d="M129 35v897h256v-885q0 -125 -32.5 -222.5t-92 -160t-135 -99t-168.5 -50.5l-76 198q55 8 96.5 27t77.5 54.5t55 96t19 144.5zM86 1038l-141 60l235 350h158l233 -352l-139 -58l-174 244z" />
    <glyph glyph-name="Kcommaaccent" unicode="&#x136;" horiz-adv-x="1273" 
d="M541 -100h217q5 -6 13.5 -17.5t22 -50t13.5 -80.5q0 -85 -61.5 -152.5t-147.5 -109.5l-96 102q104 48 104 148q0 95 -65 160zM170 0v1366h264v-541h37l461 541h325l-563 -639l592 -727h-334l-481 606h-37v-606h-264z" />
    <glyph glyph-name="kcommaaccent" unicode="&#x137;" 
d="M430 -100h217q5 -6 13.5 -17.5t22 -50t13.5 -80.5q0 -85 -61.5 -152.5t-147.5 -109.5l-96 102q105 48 105 148q0 94 -66 160zM129 0v1427l256 41v-858h33l305 322h324l-410 -408l428 -524h-317l-330 424h-33v-424h-256z" />
    <glyph glyph-name="kgreenlandic" unicode="&#x138;" 
d="M129 0v932h256v-352h29l319 352h324l-418 -436l416 -496h-318l-317 393h-35v-393h-256z" />
    <glyph glyph-name="Lacute" unicode="&#x139;" horiz-adv-x="1083" 
d="M125 1450l-49 137l442 195l72 -189zM170 0v1366h264v-1145h619v-221h-883z" />
    <glyph glyph-name="lacute" unicode="&#x13a;" horiz-adv-x="514" 
d="M270 1526l-137 73l211 334h244zM129 0v1427l256 41v-1468h-256z" />
    <glyph glyph-name="Lcommaaccent" unicode="&#x13b;" horiz-adv-x="1085" 
d="M500 -100h217q5 -6 13.5 -17.5t22 -50t13.5 -80.5q0 -85 -61.5 -152.5t-147.5 -109.5l-96 102q104 48 104 148q0 95 -65 160zM170 0v1366h264v-1145h619v-221h-883z" />
    <glyph glyph-name="lcommaaccent" unicode="&#x13c;" horiz-adv-x="514" 
d="M139 -100h217q6 -6 14 -17.5t22 -50t14 -80.5q0 -85 -61.5 -152.5t-147.5 -109.5l-97 102q105 48 105 148q0 94 -66 160zM129 0v1427l256 41v-1468h-256z" />
    <glyph glyph-name="Lcaron" unicode="&#x13d;" horiz-adv-x="1099" 
d="M666 1108l51 403l244 21l-148 -424h-147zM170 0v1366h264v-1145h619v-221h-883z" />
    <glyph glyph-name="lcaron" unicode="&#x13e;" horiz-adv-x="514" 
d="M518 1108l51 403l244 21l-147 -424h-148zM129 0v1427l256 41v-1468h-256z" />
    <glyph glyph-name="Ldot" unicode="&#x13f;" horiz-adv-x="1155" 
d="M170 0v1366h264v-1145h619v-221h-883zM870 580q-65 0 -111 45.5t-46 109.5q0 66 46 112t111 46q66 0 112 -46t46 -112q0 -65 -46 -110t-112 -45z" />
    <glyph glyph-name="ldot" unicode="&#x140;" horiz-adv-x="868" 
d="M129 0v1427l256 41v-1468h-256zM688 580q-65 0 -111.5 45.5t-46.5 109.5q0 66 46.5 112t111.5 46q66 0 112 -46t46 -112q0 -65 -46 -110t-112 -45z" />
    <glyph glyph-name="Lslash" unicode="&#x141;" horiz-adv-x="1112" 
d="M41 455v170l160 90v651h264v-502l301 172v-172l-301 -172v-471h616v-221h-880v545z" />
    <glyph glyph-name="lslash" unicode="&#x142;" horiz-adv-x="585" 
d="M14 449v169l156 89v720l256 41v-616l156 88v-172l-156 -88v-680h-256v537z" />
    <glyph glyph-name="Nacute" unicode="&#x143;" horiz-adv-x="1529" 
d="M586 1450l-49 137l442 195l72 -189zM170 0v1366h266l666 -963v963h258v-1366h-268l-664 956v-956h-258z" />
    <glyph glyph-name="nacute" unicode="&#x144;" horiz-adv-x="1095" 
d="M573 1040l-137 74l211 334h244zM125 0v911l246 41v-172q163 176 352 176q121 0 186.5 -72.5t65.5 -219.5v-664h-254v555q0 96 -21 138t-73 42q-99 0 -246 -147v-588h-256z" />
    <glyph glyph-name="Ncommaaccent" unicode="&#x145;" horiz-adv-x="1529" 
d="M645 -100h217q5 -6 13.5 -17.5t22 -50t13.5 -80.5q0 -85 -61.5 -152.5t-147.5 -109.5l-96 102q105 48 105 148q0 94 -66 160zM170 0v1366h266l666 -963v963h258v-1366h-268l-664 956v-956h-258z" />
    <glyph glyph-name="ncommaaccent" unicode="&#x146;" horiz-adv-x="1095" 
d="M426 -100h217q5 -6 13.5 -17.5t22 -50t13.5 -80.5q0 -85 -61.5 -152.5t-147.5 -109.5l-96 102q105 48 105 148q0 94 -66 160zM125 0v911l246 41v-172q163 176 352 176q121 0 186.5 -72.5t65.5 -219.5v-664h-254v555q0 96 -21 138t-73 42q-99 0 -246 -147v-588h-256z" />
    <glyph glyph-name="Ncaron" unicode="&#x147;" horiz-adv-x="1529" 
d="M170 0v1366h266l666 -963v963h258v-1366h-268l-664 956v-956h-258zM662 1470l-256 226l133 88l225 -180l225 180l131 -88l-258 -226h-200z" />
    <glyph glyph-name="ncaron" unicode="&#x148;" horiz-adv-x="1095" 
d="M481 1067l-235 350l141 60l172 -246l174 246l139 -58l-233 -352h-158zM125 0v911l246 41v-172q163 176 352 176q121 0 186.5 -72.5t65.5 -219.5v-664h-254v555q0 96 -21 138t-73 42q-99 0 -246 -147v-588h-256z" />
    <glyph glyph-name="napostrophe" unicode="&#x149;" horiz-adv-x="1095" 
d="M43 1497h217q5 -6 13.5 -17.5t22 -49.5t13.5 -80q0 -85 -61.5 -153t-147.5 -110l-96 103q105 48 105 147q0 94 -66 160zM125 0v911l246 41v-172q163 176 352 176q121 0 186.5 -72.5t65.5 -219.5v-664h-254v555q0 96 -21 138t-73 42q-99 0 -246 -147v-588h-256z" />
    <glyph glyph-name="Eng" unicode="&#x14a;" horiz-adv-x="1527" 
d="M170 0v1366h266l666 -963v963h258v-1133q0 -93 -11 -170.5t-41 -155.5t-78 -135t-127.5 -99.5t-184.5 -57.5l-82 221q185 16 243 180l-651 940v-956h-258z" />
    <glyph glyph-name="eng" unicode="&#x14b;" horiz-adv-x="1095" 
d="M125 0v911l246 41v-172q163 176 352 176q121 0 186.5 -72.5t65.5 -219.5v-617q0 -125 -32.5 -222.5t-91.5 -160t-134 -99t-168 -50.5l-78 198q55 8 97 27t78 54.5t55.5 96t19.5 144.5v520q0 96 -21 138t-73 42q-99 0 -246 -147v-588h-256z" />
    <glyph glyph-name="Omacron" unicode="&#x14c;" horiz-adv-x="1640" 
d="M78 680q0 108 31 211t93.5 193.5t150 159t209.5 108t263 39.5q166 0 306 -54t233.5 -147t145 -217t51.5 -264q0 -142 -54 -274.5t-149.5 -234.5t-239 -163.5t-311.5 -61.5q-164 0 -303 57.5t-231 155t-143.5 225t-51.5 267.5zM354 688q0 -89 29.5 -175t85 -156.5
t145 -114t199.5 -43.5q109 0 200 41.5t150 111t91 157.5t32 183q0 74 -19 143t-58 129.5t-93.5 105.5t-130.5 71t-164 26q-110 0 -200 -40t-147.5 -107.5t-88.5 -153t-31 -178.5zM524 1550v152h588v-152h-588z" />
    <glyph glyph-name="omacron" unicode="&#x14d;" horiz-adv-x="1142" 
d="M309 1182v159h527v-159h-527zM68 463q0 72 17.5 141t57 133t97 112.5t144 77.5t191.5 29q121 0 218.5 -40t157.5 -106.5t92 -150t32 -174.5q0 -70 -17 -139.5t-56.5 -137t-96.5 -119t-144.5 -83t-193.5 -31.5q-121 0 -218 41t-157.5 110t-92 155t-31.5 182zM332 481
q0 -131 62.5 -223t178.5 -92q102 0 170 82t68 211q0 78 -24.5 145.5t-80.5 114.5t-135 47q-103 0 -171 -80.5t-68 -204.5z" />
    <glyph glyph-name="Obreve" unicode="&#x14e;" horiz-adv-x="1640" 
d="M78 680q0 108 31 211t93.5 193.5t150 159t209.5 108t263 39.5q166 0 306 -54t233.5 -147t145 -217t51.5 -264q0 -142 -54 -274.5t-149.5 -234.5t-239 -163.5t-311.5 -61.5q-164 0 -303 57.5t-231 155t-143.5 225t-51.5 267.5zM354 688q0 -89 29.5 -175t85 -156.5
t145 -114t199.5 -43.5q109 0 200 41.5t150 111t91 157.5t32 183q0 74 -19 143t-58 129.5t-93.5 105.5t-130.5 71t-164 26q-110 0 -200 -40t-147.5 -107.5t-88.5 -153t-31 -178.5zM819 1464q-161 0 -242.5 91.5t-60.5 232.5h139q-6 -88 32 -133t132 -45q87 0 128.5 45.5
t35.5 132.5h139q21 -141 -61 -232.5t-242 -91.5z" />
    <glyph glyph-name="obreve" unicode="&#x14f;" horiz-adv-x="1142" 
d="M68 463q0 72 17.5 141t57 133t97 112.5t144 77.5t191.5 29q121 0 218.5 -40t157.5 -106.5t92 -150t32 -174.5q0 -70 -17 -139.5t-56.5 -137t-96.5 -119t-144.5 -83t-193.5 -31.5q-121 0 -218 41t-157.5 110t-92 155t-31.5 182zM332 481q0 -131 62.5 -223t178.5 -92
q102 0 170 82t68 211q0 78 -24.5 145.5t-80.5 114.5t-135 47q-103 0 -171 -80.5t-68 -204.5zM571 1110q-139 0 -218 77t-79 202q0 10 5 55h139v-25q0 -89 43 -128.5t110 -39.5t110.5 39.5t43.5 128.5v25h139q0 -9 1 -27.5t1 -27.5q0 -124 -78.5 -201.5t-216.5 -77.5z" />
    <glyph glyph-name="Ohungarumlaut" unicode="&#x150;" horiz-adv-x="1640" 
d="M1044 1460l-139 74l191 252h237zM657 1460l-139 74l178 252h238zM78 680q0 108 31 211t93.5 193.5t150 159t209.5 108t263 39.5q166 0 306 -54t233.5 -147t145 -217t51.5 -264q0 -142 -54 -274.5t-149.5 -234.5t-239 -163.5t-311.5 -61.5q-164 0 -303 57.5t-231 155
t-143.5 225t-51.5 267.5zM354 688q0 -89 29.5 -175t85 -156.5t145 -114t199.5 -43.5q109 0 200 41.5t150 111t91 157.5t32 183q0 74 -19 143t-58 129.5t-93.5 105.5t-130.5 71t-164 26q-110 0 -200 -40t-147.5 -107.5t-88.5 -153t-31 -178.5z" />
    <glyph glyph-name="ohungarumlaut" unicode="&#x151;" horiz-adv-x="1142" 
d="M764 1040l-127 74l221 334h225zM389 1040l-127 74l211 334h225zM68 463q0 72 17.5 141t57 133t97 112.5t144 77.5t191.5 29q121 0 218.5 -40t157.5 -106.5t92 -150t32 -174.5q0 -70 -17 -139.5t-56.5 -137t-96.5 -119t-144.5 -83t-193.5 -31.5q-121 0 -218 41t-157.5 110
t-92 155t-31.5 182zM332 481q0 -131 62.5 -223t178.5 -92q102 0 170 82t68 211q0 78 -24.5 145.5t-80.5 114.5t-135 47q-103 0 -171 -80.5t-68 -204.5z" />
    <glyph glyph-name="OE" unicode="&#x152;" horiz-adv-x="2027" 
d="M78 680q0 108 31 211t93.5 193.5t150 159t209.5 108t263 39.5q134 0 256 -25h852v-221h-598v-342h471v-219h-471v-363h613v-221h-877q-143 -25 -264 -25q-164 0 -303 57.5t-231 155t-143.5 225t-51.5 267.5zM354 688q0 -89 29.5 -174.5t85 -156.5t145 -114.5t199.5 -43.5
q154 0 258 26v905q-109 37 -250 37q-110 0 -200 -40t-147.5 -107.5t-88.5 -153t-31 -178.5z" />
    <glyph glyph-name="oe" unicode="&#x153;" horiz-adv-x="1746" 
d="M68 463q0 72 17.5 141t57 133t97 112.5t144 77.5t191.5 29q233 0 365 -168q126 168 330 168q181 0 289.5 -118.5t109.5 -337.5l-139 -41l-461 -60q22 -105 90 -166t172 -61q68 0 139 29t108 57l36 29l65 -181q-6 -5 -17.5 -14t-50 -31.5t-80.5 -40t-108.5 -31.5
t-134.5 -14q-226 0 -352 168q-131 -168 -369 -168q-121 0 -218 41t-157.5 110t-92 155t-31.5 182zM332 481q0 -131 62.5 -223t178.5 -92q102 0 170 82t68 211q0 78 -24.5 145.5t-80.5 114.5t-135 47q-103 0 -171 -80.5t-68 -204.5zM1251 766q-80 0 -128.5 -59.5
t-59.5 -157.5l330 41q0 7 -1.5 19t-9.5 42.5t-21.5 53.5t-42.5 42t-67 19z" />
    <glyph glyph-name="Racute" unicode="&#x154;" horiz-adv-x="1290" 
d="M170 0v1366h455q128 0 226.5 -32t158 -88.5t89 -129t29.5 -158.5q0 -127 -64.5 -224t-172.5 -152l385 -582h-311l-336 516h-195v-516h-264zM434 735h150q133 0 200.5 56t67.5 155q0 199 -270 199h-148v-410zM440 1450l-49 137l443 195l71 -189z" />
    <glyph glyph-name="racute" unicode="&#x155;" horiz-adv-x="747" 
d="M434 1040l-137 74l211 334h244zM125 0v911l246 41v-192q18 31 40.5 59.5t57.5 62t82 54t98 20.5q23 0 43 -4t28 -8l9 -4l-41 -246q-43 19 -88 19q-114 0 -219 -154v-559h-256z" />
    <glyph glyph-name="Rcommaaccent" unicode="&#x156;" horiz-adv-x="1288" 
d="M567 -100h217q6 -6 14 -17.5t22 -50t14 -80.5q0 -85 -61.5 -152.5t-147.5 -109.5l-97 102q105 48 105 148q0 94 -66 160zM170 0v1366h455q128 0 226.5 -32t158 -88.5t89 -129t29.5 -158.5q0 -127 -64.5 -224t-172.5 -152l385 -582h-311l-336 516h-195v-516h-264zM434 735
h150q133 0 200.5 56t67.5 155q0 199 -270 199h-148v-410z" />
    <glyph glyph-name="rcommaaccent" unicode="&#x157;" horiz-adv-x="747" 
d="M133 -100h217q5 -6 13.5 -17.5t22 -50t13.5 -80.5q0 -85 -61.5 -152.5t-147.5 -109.5l-96 102q105 48 105 148q0 94 -66 160zM125 0v911l246 41v-192q18 31 40.5 59.5t57.5 62t82 54t98 20.5q23 0 43 -4t28 -8l9 -4l-41 -246q-43 19 -88 19q-114 0 -219 -154v-559h-256z
" />
    <glyph glyph-name="Rcaron" unicode="&#x158;" horiz-adv-x="1290" 
d="M170 0v1366h455q128 0 226.5 -32t158 -88.5t89 -129t29.5 -158.5q0 -127 -64.5 -224t-172.5 -152l385 -582h-311l-336 516h-195v-516h-264zM434 735h150q133 0 200.5 56t67.5 155q0 199 -270 199h-148v-410zM516 1470l-256 226l133 88l225 -180l226 180l131 -88
l-258 -226h-201z" />
    <glyph glyph-name="rcaron" unicode="&#x159;" horiz-adv-x="747" 
d="M344 1067l-235 350l141 60l172 -246l174 246l139 -58l-233 -352h-158zM125 0v911l246 41v-192q18 31 40.5 59.5t57.5 62t82 54t98 20.5q23 0 43 -4t28 -8l9 -4l-41 -246q-43 19 -88 19q-114 0 -219 -154v-559h-256z" />
    <glyph glyph-name="Sacute" unicode="&#x15a;" horiz-adv-x="1054" 
d="M80 90l76 234q6 -5 17 -13.5t47 -29.5t73.5 -36.5t92.5 -28t108 -11.5q91 0 153 38.5t62 106.5q0 50 -33.5 91.5t-87.5 73.5t-118.5 63.5t-129.5 70t-119 84t-87.5 114t-33.5 152.5q0 164 127.5 278t343.5 114q84 0 177 -15.5t144 -31.5l50 -15l-43 -237q-18 8 -49 19.5
t-116.5 30.5t-158.5 19q-91 0 -149.5 -35.5t-58.5 -99.5q0 -50 33.5 -91.5t87 -72.5t118 -62t129 -69.5t118 -84.5t87 -117t33.5 -158q0 -121 -64.5 -212t-171.5 -137.5t-239 -46.5q-110 0 -214.5 29t-153.5 58zM367 1450l-50 137l443 195l71 -189z" />
    <glyph glyph-name="sacute" unicode="&#x15b;" horiz-adv-x="843" 
d="M440 1040l-137 74l211 334h244zM66 57l53 209q4 -4 12.5 -10.5t35.5 -23t56 -29t72 -23t86 -10.5q71 0 108 21.5t37 58.5q0 25 -24 47.5t-63 41.5t-85.5 39t-93 46t-85.5 58t-63 80t-24 106t22 108.5t66.5 91.5t121 64.5t177.5 23.5q76 0 145.5 -13t100.5 -25l31 -13
l-54 -207q-11 7 -31.5 17.5t-79 28.5t-112.5 18q-133 0 -133 -74q0 -25 24 -47.5t62.5 -41t85 -38.5t93 -46t85 -57.5t62.5 -79.5t24 -106q0 -132 -102.5 -214.5t-284.5 -82.5q-90 0 -171.5 20.5t-117.5 40.5z" />
    <glyph glyph-name="Scircumflex" unicode="&#x15c;" horiz-adv-x="1054" 
d="M80 90l76 234q6 -5 17 -13.5t47 -29.5t73.5 -36.5t92.5 -28t108 -11.5q91 0 153 38.5t62 106.5q0 50 -33.5 91.5t-87.5 73.5t-118.5 63.5t-129.5 70t-119 84t-87.5 114t-33.5 152.5q0 164 127.5 278t343.5 114q84 0 177 -15.5t144 -31.5l50 -15l-43 -237q-18 8 -49 19.5
t-116.5 30.5t-158.5 19q-91 0 -149.5 -35.5t-58.5 -99.5q0 -50 33.5 -91.5t87 -72.5t118 -62t129 -69.5t118 -84.5t87 -117t33.5 -158q0 -121 -64.5 -212t-171.5 -137.5t-239 -46.5q-110 0 -214.5 29t-153.5 58zM319 1470l-133 89l258 225h201l256 -225l-131 -89l-225 181z
" />
    <glyph glyph-name="scircumflex" unicode="&#x15d;" horiz-adv-x="843" 
d="M258 1038l-141 60l235 350h158l233 -352l-139 -58l-174 244zM66 57l53 209q4 -4 12.5 -10.5t35.5 -23t56 -29t72 -23t86 -10.5q71 0 108 21.5t37 58.5q0 25 -24 47.5t-63 41.5t-85.5 39t-93 46t-85.5 58t-63 80t-24 106t22 108.5t66.5 91.5t121 64.5t177.5 23.5
q76 0 145.5 -13t100.5 -25l31 -13l-54 -207q-11 7 -31.5 17.5t-79 28.5t-112.5 18q-133 0 -133 -74q0 -25 24 -47.5t62.5 -41t85 -38.5t93 -46t85 -57.5t62.5 -79.5t24 -106q0 -132 -102.5 -214.5t-284.5 -82.5q-90 0 -171.5 20.5t-117.5 40.5z" />
    <glyph glyph-name="Scedilla" unicode="&#x15e;" horiz-adv-x="1056" 
d="M408 -145q0 32 32 98l13 24q-62 3 -123.5 16t-104.5 29t-77 31.5t-51 26.5l-17 10l76 234q6 -5 17 -13.5t47 -29.5t73.5 -36.5t92.5 -28t108 -11.5q91 0 153 38.5t62 106.5q0 50 -33.5 91.5t-87.5 73.5t-118.5 63.5t-129.5 70t-119 84t-87.5 114t-33.5 152.5
q0 164 127.5 278t343.5 114q84 0 177 -15.5t144 -31.5l50 -15l-43 -237q-18 8 -49 19.5t-116.5 30.5t-158.5 19q-91 0 -149.5 -35.5t-58.5 -99.5q0 -50 33.5 -91.5t87 -72.5t118 -62t129 -69.5t118 -84.5t87 -117t33.5 -158q0 -161 -110 -264.5t-283 -124.5l-9 -21
q-18 -41 -18 -55q0 -18 18.5 -31t45 -24.5t53 -26t45 -43.5t18.5 -70q0 -83 -69 -139.5t-179 -56.5q-56 0 -107.5 15.5t-75.5 31.5l-23 16l49 115q8 -7 21.5 -17t54.5 -26.5t79 -16.5q42 0 69.5 16t27.5 40q0 22 -27 40.5t-59 30.5t-59 37t-27 58z" />
    <glyph glyph-name="scedilla" unicode="&#x15f;" horiz-adv-x="845" 
d="M315 -145q0 30 33 98l12 24q-82 3 -155.5 23t-106.5 38l-32 19l53 209q4 -4 12.5 -10.5t35.5 -23t56 -29t72 -23t86 -10.5q71 0 108 21.5t37 58.5q0 25 -24 47.5t-63 41.5t-85.5 39t-93 46t-85.5 58t-63 80t-24 106t22 108.5t66.5 91.5t121 64.5t177.5 23.5
q76 0 145.5 -13t100.5 -25l31 -13l-54 -207q-11 7 -31.5 17.5t-79 28.5t-112.5 18q-133 0 -133 -74q0 -25 24 -47.5t62.5 -41t85 -38.5t93 -46t85 -57.5t62.5 -79.5t24 -106q0 -112 -76 -190t-213 -98l-10 -23q-18 -40 -18 -55q0 -18 18.5 -31t45 -24.5t53 -26t45 -43.5
t18.5 -70q0 -83 -69 -139.5t-179 -56.5q-56 0 -108 15.5t-75 31.5l-24 16l50 115q8 -7 21.5 -17t54.5 -26.5t79 -16.5q42 0 69 16t27 40q0 22 -27 40.5t-59 30.5t-59 37t-27 58z" />
    <glyph glyph-name="Scaron" unicode="&#x160;" horiz-adv-x="1054" 
d="M80 90l76 234q6 -5 17 -13.5t47 -29.5t73.5 -36.5t92.5 -28t108 -11.5q91 0 153 38.5t62 106.5q0 50 -33.5 91.5t-87.5 73.5t-118.5 63.5t-129.5 70t-119 84t-87.5 114t-33.5 152.5q0 164 127.5 278t343.5 114q84 0 177 -15.5t144 -31.5l50 -15l-43 -237q-18 8 -49 19.5
t-116.5 30.5t-158.5 19q-91 0 -149.5 -35.5t-58.5 -99.5q0 -50 33.5 -91.5t87 -72.5t118 -62t129 -69.5t118 -84.5t87 -117t33.5 -158q0 -121 -64.5 -212t-171.5 -137.5t-239 -46.5q-110 0 -214.5 29t-153.5 58zM442 1470l-256 226l133 88l226 -180l225 180l131 -88
l-258 -226h-201z" />
    <glyph glyph-name="scaron" unicode="&#x161;" horiz-adv-x="843" 
d="M352 1067l-235 350l141 60l172 -246l174 246l139 -58l-233 -352h-158zM66 57l53 209q4 -4 12.5 -10.5t35.5 -23t56 -29t72 -23t86 -10.5q71 0 108 21.5t37 58.5q0 25 -24 47.5t-63 41.5t-85.5 39t-93 46t-85.5 58t-63 80t-24 106t22 108.5t66.5 91.5t121 64.5t177.5 23.5
q76 0 145.5 -13t100.5 -25l31 -13l-54 -207q-11 7 -31.5 17.5t-79 28.5t-112.5 18q-133 0 -133 -74q0 -25 24 -47.5t62.5 -41t85 -38.5t93 -46t85 -57.5t62.5 -79.5t24 -106q0 -132 -102.5 -214.5t-284.5 -82.5q-90 0 -171.5 20.5t-117.5 40.5z" />
    <glyph glyph-name="Tcommaaccent" unicode="&#x162;" horiz-adv-x="1230" 
d="M485 0v1145h-450v221h1161v-221h-448v-1145h-50l-18 -39q-18 -41 -18 -55q0 -18 18.5 -31t45 -24.5t53 -26t45 -43.5t18.5 -70q0 -83 -69 -139.5t-179 -56.5q-56 0 -108 15.5t-76 31.5l-23 16l49 115q8 -7 22 -17t55 -26.5t79 -16.5q42 0 69 16t27 40q0 22 -27 40.5
t-59 30.5t-59 37t-27 58q0 30 33 98l24 47h-88z" />
    <glyph glyph-name="tcommaaccent" unicode="&#x163;" horiz-adv-x="821" 
d="M365 -145q0 32 32 98l15 29q-103 18 -161 89t-58 191v488h-146v137l154 51v217l248 49v-272h284v-182h-284v-426q0 -140 96 -140q63 0 180 80l70 -186q-12 -9 -34 -23t-89.5 -41t-134.5 -34l-9 -19q-18 -41 -18 -55q0 -18 18.5 -31t45 -24.5t53 -26t45 -43.5t18.5 -70
q0 -83 -69 -139.5t-179 -56.5q-56 0 -107.5 15.5t-74.5 31.5l-24 16l49 115q8 -7 21.5 -17t54.5 -26.5t79 -16.5q42 0 69.5 16t27.5 40q0 22 -27 40.5t-59 30.5t-59 37t-27 58z" />
    <glyph glyph-name="Tcaron" unicode="&#x164;" horiz-adv-x="1230" 
d="M485 0v1145h-450v221h1161v-221h-448v-1145h-263zM508 1470l-256 226l133 88l225 -180l226 180l131 -88l-258 -226h-201z" />
    <glyph glyph-name="tcaron" unicode="&#x165;" horiz-adv-x="813" 
d="M592 1108l51 403l244 21l-148 -424h-147zM188 262v488h-145v137l154 51v217l247 49v-272h285v-182h-285v-426q0 -140 97 -140q63 0 180 80l70 -186q-5 -4 -15.5 -11t-43 -25t-67 -31.5t-85.5 -24.5t-101 -11q-133 0 -212 74t-79 213z" />
    <glyph glyph-name="Tbar" unicode="&#x166;" horiz-adv-x="1230" 
d="M160 629v123h325v393h-450v221h1161v-221h-448v-393h327v-123h-327v-629h-263v629h-325z" />
    <glyph glyph-name="tbar" unicode="&#x167;" horiz-adv-x="819" 
d="M47 467v123h143v160h-145v137l154 51v217l247 49v-272h285v-182h-285v-160h287v-123h-287v-143q0 -140 97 -140q63 0 180 80l70 -186q-5 -4 -15.5 -11t-43 -25t-67 -31.5t-85.5 -24.5t-101 -11q-133 0 -212 74t-79 213v205h-143z" />
    <glyph glyph-name="Utilde" unicode="&#x168;" horiz-adv-x="1458" 
d="M154 512v854h264v-827q0 -177 84 -258.5t229 -81.5q144 0 227.5 85t83.5 246v836h265v-825q0 -135 -45.5 -243.5t-124.5 -178.5t-183.5 -107t-224.5 -37q-98 0 -182 18t-157 59t-125 102.5t-81.5 152.5t-29.5 205zM346 1489q-2 13 -2 33q0 28 3.5 54.5t17.5 63t36.5 63
t65.5 45.5t100 19q60 0 112.5 -20.5t82.5 -45t65 -45t64 -20.5q67 0 67 107v20h158v-30q0 -27 -3.5 -54t-17 -65t-36.5 -65.5t-67 -47.5t-103 -20q-61 0 -111.5 20.5t-78 45t-61 45t-63.5 20.5q-73 0 -73 -105l2 -18h-158z" />
    <glyph glyph-name="utilde" unicode="&#x169;" horiz-adv-x="1095" 
d="M119 256v676h256v-555q0 -95 19.5 -137.5t76.5 -42.5q92 0 236 127v608h254v-647q0 -50 10 -120.5t20 -115.5l10 -45l-245 -22q-21 89 -29 157q-62 -65 -152 -114.5t-200 -49.5q-117 0 -186.5 69t-69.5 212zM193 1120q-3 13 -3 31q0 28 3 56t16 66.5t34 66.5t61 48.5
t93 20.5q46 0 84.5 -16t64.5 -39t48 -46t44 -39t44 -16q59 0 59 117v25h156v-29q0 -28 -3 -56.5t-16 -68t-34.5 -68.5t-63 -50t-96.5 -21q-46 0 -83 16t-61.5 39t-45 45.5t-42 38.5t-44.5 16q-19 0 -31.5 -12.5t-18.5 -33t-8 -38t-2 -34.5v-19h-155z" />
    <glyph glyph-name="Umacron" unicode="&#x16a;" horiz-adv-x="1458" 
d="M154 512v854h264v-827q0 -177 84 -258.5t229 -81.5q144 0 227.5 85t83.5 246v836h265v-825q0 -135 -45.5 -243.5t-124.5 -178.5t-183.5 -107t-224.5 -37q-98 0 -182 18t-157 59t-125 102.5t-81.5 152.5t-29.5 205zM434 1550v152h588v-152h-588z" />
    <glyph glyph-name="umacron" unicode="&#x16b;" horiz-adv-x="1095" 
d="M119 256v676h256v-555q0 -95 19.5 -137.5t76.5 -42.5q92 0 236 127v608h254v-647q0 -50 10 -120.5t20 -115.5l10 -45l-245 -22q-21 89 -29 157q-62 -65 -152 -114.5t-200 -49.5q-117 0 -186.5 69t-69.5 212zM276 1182v159h527v-159h-527z" />
    <glyph glyph-name="Ubreve" unicode="&#x16c;" horiz-adv-x="1458" 
d="M154 512v854h264v-827q0 -177 84 -258.5t229 -81.5q144 0 227.5 85t83.5 246v836h265v-825q0 -135 -45.5 -243.5t-124.5 -178.5t-183.5 -107t-224.5 -37q-98 0 -182 18t-157 59t-125 102.5t-81.5 152.5t-29.5 205zM729 1464q-161 0 -242.5 91.5t-60.5 232.5h139
q-6 -88 32 -133t132 -45q87 0 128.5 45.5t35.5 132.5h139q21 -141 -61 -232.5t-242 -91.5z" />
    <glyph glyph-name="ubreve" unicode="&#x16d;" horiz-adv-x="1095" 
d="M119 256v676h256v-555q0 -95 19.5 -137.5t76.5 -42.5q92 0 236 127v608h254v-647q0 -50 10 -120.5t20 -115.5l10 -45l-245 -22q-21 89 -29 157q-62 -65 -152 -114.5t-200 -49.5q-117 0 -186.5 69t-69.5 212zM539 1110q-139 0 -218 77t-79 202q0 19 4 55h139v-25
q0 -89 43.5 -128.5t110.5 -39.5t110 39.5t43 128.5v25h139q0 -9 1.5 -27.5t1.5 -27.5q0 -124 -78.5 -201.5t-216.5 -77.5z" />
    <glyph glyph-name="Uring" unicode="&#x16e;" horiz-adv-x="1458" 
d="M729 1403q-100 0 -153.5 57t-53.5 129q0 71 53 125.5t154 54.5t154 -54.5t53 -125.5q0 -72 -53.5 -129t-153.5 -57zM729 1499q42 0 68 26t26 62q0 35 -24.5 60.5t-69.5 25.5q-46 0 -69 -25t-23 -61t24.5 -62t67.5 -26zM154 512v854h264v-827q0 -177 84 -258.5t229 -81.5
q144 0 227.5 85t83.5 246v836h265v-825q0 -135 -45.5 -243.5t-124.5 -178.5t-183.5 -107t-224.5 -37q-98 0 -182 18t-157 59t-125 102.5t-81.5 152.5t-29.5 205z" />
    <glyph glyph-name="uring" unicode="&#x16f;" horiz-adv-x="1095" 
d="M539 1096q-100 0 -153.5 57t-53.5 129q0 71 53 125.5t154 54.5t153.5 -54.5t52.5 -125.5q0 -72 -53 -129t-153 -57zM539 1192q42 0 68 26t26 62q0 35 -24.5 60.5t-69.5 25.5q-46 0 -69.5 -25t-23.5 -61t25 -62t68 -26zM119 256v676h256v-555q0 -95 19.5 -137.5
t76.5 -42.5q92 0 236 127v608h254v-647q0 -50 10 -120.5t20 -115.5l10 -45l-245 -22q-21 89 -29 157q-62 -65 -152 -114.5t-200 -49.5q-117 0 -186.5 69t-69.5 212z" />
    <glyph glyph-name="Uhungarumlaut" unicode="&#x170;" horiz-adv-x="1458" 
d="M954 1460l-139 74l191 252h237zM567 1460l-139 74l178 252h238zM154 512v854h264v-827q0 -177 84 -258.5t229 -81.5q144 0 227.5 85t83.5 246v836h265v-825q0 -135 -45.5 -243.5t-124.5 -178.5t-183.5 -107t-224.5 -37q-98 0 -182 18t-157 59t-125 102.5t-81.5 152.5
t-29.5 205z" />
    <glyph glyph-name="uhungarumlaut" unicode="&#x171;" horiz-adv-x="1095" 
d="M119 256v676h256v-555q0 -95 19.5 -137.5t76.5 -42.5q92 0 236 127v608h254v-647q0 -50 10 -120.5t20 -115.5l10 -45l-245 -22q-21 89 -29 157q-62 -65 -152 -114.5t-200 -49.5q-117 0 -186.5 69t-69.5 212zM733 1040l-127 74l221 334h226zM358 1040l-127 74l211 334h226
z" />
    <glyph glyph-name="Uogonek" unicode="&#x172;" horiz-adv-x="1460" 
d="M154 512v854h264v-827q0 -177 84 -258.5t229 -81.5q144 0 227.5 85t83.5 246v836h265v-825q0 -176 -75 -302.5t-204 -193.5q-31 -23 -65 -55.5t-71 -74.5t-61 -88.5t-24 -84.5q0 -68 76 -68q47 0 94 21l18 -152q-84 -28 -172 -28q-99 0 -155 48t-56 134q0 27 7.5 54.5
t14.5 46.5t27.5 48.5t29.5 41t38 46t37 43.5q-12 -2 -37 -2q-98 0 -182 18t-157 59t-125 102.5t-81.5 152.5t-29.5 205z" />
    <glyph glyph-name="uogonek" unicode="&#x173;" horiz-adv-x="1095" 
d="M119 256v676h256v-555q0 -95 19.5 -137.5t76.5 -42.5q92 0 236 127v608h254v-647q0 -50 10 -120.5t20 -115.5l10 -45q-67 -61 -116 -132t-49 -130q0 -32 17 -49t43.5 -18.5t54 4t53.5 16.5l18 -152q-84 -28 -172 -28q-98 0 -153.5 48t-55.5 134q0 28 7.5 56t16.5 49
t28 48.5t32.5 43.5t39 46t38.5 46l-47 -4q-21 89 -29 157q-62 -65 -152 -114.5t-200 -49.5q-117 0 -186.5 69t-69.5 212z" />
    <glyph glyph-name="Wcircumflex" unicode="&#x174;" horiz-adv-x="1984" 
d="M766 1470l-133 89l258 225h201l256 -225l-131 -89l-226 181zM446 -10l-409 1376h272l285 -1001l297 1001h209l297 -1001l286 1001h265l-412 -1376h-268l-277 907l-274 -907h-271z" />
    <glyph glyph-name="wcircumflex" unicode="&#x175;" horiz-adv-x="1570" 
d="M612 1038l-141 60l236 350h157l234 -352l-140 -58l-174 244zM328 -6l-301 938h262l178 -647l213 647h217l209 -647l182 647h256l-303 -938h-248l-209 608l-206 -608h-250z" />
    <glyph glyph-name="Ycircumflex" unicode="&#x176;" horiz-adv-x="1245" 
d="M492 0v569l-494 797h309l316 -535l325 535h299l-491 -795v-571h-264zM397 1470l-133 89l258 225h201l256 -225l-131 -89l-225 181z" />
    <glyph glyph-name="ycircumflex" unicode="&#x177;" horiz-adv-x="972" 
d="M20 -289q100 12 189 80.5t125 155.5l33 78l-359 907h266l218 -610l213 610h258l-388 -1000q-30 -76 -74.5 -144.5t-103.5 -128t-136.5 -98t-162.5 -46.5zM319 1038l-141 60l236 350h157l234 -352l-139 -58l-174 244z" />
    <glyph glyph-name="Ydieresis" unicode="&#x178;" horiz-adv-x="1245" 
d="M492 0v569l-494 797h309l316 -535l325 535h299l-491 -795v-571h-264zM881 1491q-62 0 -102 37.5t-40 97.5q0 61 40 98t102 37q61 0 100 -37t39 -98q0 -60 -39.5 -97.5t-99.5 -37.5zM367 1491q-61 0 -100.5 37.5t-39.5 97.5q0 61 39.5 98t100.5 37q62 0 101.5 -37
t39.5 -98q0 -60 -39.5 -97.5t-101.5 -37.5z" />
    <glyph glyph-name="Zacute" unicode="&#x179;" horiz-adv-x="1191" 
d="M74 0v160l676 985h-646v221h986v-160l-666 -985h690v-221h-1040zM438 1450l-49 137l442 195l72 -189z" />
    <glyph glyph-name="zacute" unicode="&#x17a;" horiz-adv-x="921" 
d="M473 1040l-137 74l211 334h244zM74 0v156l426 579h-410v197h741v-156l-434 -579h451v-197h-774z" />
    <glyph glyph-name="Zdotaccent" unicode="&#x17b;" horiz-adv-x="1191" 
d="M616 1485q-66 0 -107.5 39t-41.5 102q0 64 41.5 103.5t107.5 39.5q65 0 107.5 -39.5t42.5 -103.5q0 -62 -42.5 -101.5t-107.5 -39.5zM74 0v160l676 985h-646v221h986v-160l-666 -985h690v-221h-1040z" />
    <glyph glyph-name="zdotaccent" unicode="&#x17c;" horiz-adv-x="921" 
d="M74 0v156l426 579h-410v197h741v-156l-434 -579h451v-197h-774zM463 1135q-66 0 -108 40t-42 103t42 103t108 40q65 0 107 -40t42 -103t-42 -103t-107 -40z" />
    <glyph glyph-name="Zcaron" unicode="&#x17d;" horiz-adv-x="1191" 
d="M74 0v160l676 985h-646v221h986v-160l-666 -985h690v-221h-1040zM514 1470l-256 226l133 88l225 -180l226 180l131 -88l-258 -226h-201z" />
    <glyph glyph-name="zcaron" unicode="&#x17e;" horiz-adv-x="921" 
d="M385 1067l-235 350l141 60l172 -246l174 246l139 -58l-233 -352h-158zM74 0v156l426 579h-410v197h741v-156l-434 -579h451v-197h-774z" />
    <glyph glyph-name="longs" unicode="&#x17f;" horiz-adv-x="575" 
d="M45 750v137l145 51v78q0 230 125 360.5t322 130.5q77 0 148.5 -20t104.5 -40l32 -20l-91 -190q-10 7 -27.5 18t-67.5 29.5t-95 18.5q-87 0 -141 -64t-54 -205v-1034h-256v750h-145z" />
    <glyph glyph-name="florin" unicode="&#x192;" horiz-adv-x="919" 
d="M47 569v144h283l20 166q30 239 173.5 375.5t342.5 136.5q73 0 146 -25l-56 -190q-67 18 -114 18q-90 0 -152.5 -71t-81.5 -226l-22 -184h291v-144h-308l-55 -465q-30 -239 -173.5 -375.5t-342.5 -136.5q-73 0 -143 25l53 190q67 -18 115 -18q90 0 152 71t81 226l57 483
h-266z" />
    <glyph glyph-name="Aringacute" unicode="&#x1fa;" horiz-adv-x="1292" 
d="M6 0l486 1300q-58 44 -58 130q0 66 52.5 113.5t154.5 47.5t154.5 -47.5t52.5 -113.5q0 -75 -51 -123l489 -1307h-268l-111 307h-528l-111 -307h-262zM643 1042l-186 -516h370zM463 1622l-49 137l442 195l72 -189zM641 1339q43 0 68.5 25t25.5 63q0 32 -25 57t-69 25
q-46 0 -69 -24.5t-23 -57.5q0 -38 24 -63t68 -25z" />
    <glyph glyph-name="aringacute" unicode="&#x1fb;" horiz-adv-x="1013" 
d="M55 219q0 289 545 361v32q0 77 -25 115.5t-104 38.5q-67 0 -140.5 -28t-114.5 -56l-40 -27l-61 181q10 7 30 19t83.5 38.5t131.5 42.5q-67 47 -67 137q0 66 52.5 114t154.5 48t154.5 -48t52.5 -114q0 -77 -56 -127q112 -21 158.5 -91.5t46.5 -201.5v-360q0 -31 11 -53
t26 -32.5t30.5 -16.5t26.5 -7h11l-74 -198q-196 5 -260 137q-11 -16 -23.5 -31.5t-39 -38t-56.5 -38.5t-75.5 -28t-96.5 -12q-126 0 -203.5 69t-77.5 175zM319 1257l-49 138l443 194l71 -188zM406 162q93 0 194 121v149q-149 -21 -217 -69t-68 -123q0 -40 25.5 -59t65.5 -19
zM500 983q43 0 68.5 25t25.5 63q0 32 -25 57t-69 25q-46 0 -69 -24.5t-23 -57.5q0 -38 24 -63t68 -25z" />
    <glyph glyph-name="AEacute" unicode="&#x1fc;" horiz-adv-x="1843" 
d="M-23 0l771 1366h1001v-221h-598v-342h471v-219h-471v-363h612v-221h-874v379h-420l-209 -379h-283zM889 1137l-297 -537h297v537zM1020 1450l-49 137l442 195l72 -189z" />
    <glyph glyph-name="aeacute" unicode="&#x1fd;" horiz-adv-x="1538" 
d="M690 1040l-137 74l211 334h244zM174 655l-61 181q7 5 19.5 13t54.5 28.5t87.5 36.5t115 29t140.5 13q192 0 254 -118q108 118 277 118q181 0 289.5 -115.5t109.5 -330.5l-139 -41l-463 -57q19 -111 88 -175.5t176 -64.5q68 0 139 29t107 57l37 29l68 -181
q-6 -5 -17.5 -14t-50.5 -31.5t-82 -40t-109.5 -31.5t-134.5 -14q-254 0 -381 195q-40 -76 -130.5 -135.5t-223.5 -59.5q-130 0 -210.5 69t-80.5 175q0 262 557 328v51q0 87 -25 127.5t-106 40.5q-69 0 -145.5 -28t-117.5 -56zM414 162q82 0 138 61t56 178
q-295 -32 -295 -161q0 -40 28 -59t73 -19zM1042 766q-77 0 -125.5 -56t-60.5 -149l328 39q0 7 -1.5 18t-9.5 39.5t-21.5 50.5t-42.5 40t-67 18z" />
    <glyph glyph-name="Oslashacute" unicode="&#x1fe;" horiz-adv-x="1640" 
d="M78 680q0 108 31 211t93.5 193.5t150 159t209.5 108t263 39.5q211 0 377 -86l94 122h162l-145 -192q119 -94 183.5 -231t64.5 -295q0 -142 -54 -274.5t-149.5 -234.5t-239 -163.5t-311.5 -61.5q-210 0 -381 95l-100 -131h-164l157 206q-116 98 -178.5 237.5t-62.5 297.5z
M1286 692q0 95 -33.5 184t-95.5 156l-586 -768q105 -65 242 -65q109 0 200 41.5t150 111t91 157.5t32 183zM354 688q0 -92 30.5 -181.5t88.5 -158.5l582 762q-97 57 -234 57q-110 0 -200 -40t-147.5 -107.5t-88.5 -153t-31 -178.5zM641 1450l-49 137l442 195l72 -189z" />
    <glyph glyph-name="oslashacute" unicode="&#x1ff;" horiz-adv-x="1146" 
d="M72 463q0 72 17.5 141t57.5 133t97.5 112.5t144 77.5t191.5 29q138 0 243 -51l68 88h143l-114 -151q78 -66 118.5 -160t40.5 -197q0 -70 -17 -139.5t-56.5 -137t-96.5 -119t-144.5 -83t-193.5 -31.5q-140 0 -252 56l-69 -92h-146l119 159q-75 67 -113 162.5t-38 202.5z
M815 459q0 102 -43 184l-323 -438q55 -39 129 -39q102 0 169.5 82t67.5 211zM336 481q0 -104 37 -182l321 430q-49 37 -119 37q-103 0 -171 -80.5t-68 -204.5zM594 1040l-137 74l211 334h243z" />
    <glyph glyph-name="Scommaaccent" unicode="&#x218;" horiz-adv-x="1054" 
d="M385 -100h217q5 -6 13.5 -17.5t22 -50t13.5 -80.5q0 -85 -61.5 -152.5t-147.5 -109.5l-96 102q105 48 105 148q0 94 -66 160zM80 90l76 234q6 -5 17 -13.5t47 -29.5t73.5 -36.5t92.5 -28t108 -11.5q91 0 153 38.5t62 106.5q0 50 -33.5 91.5t-87.5 73.5t-118.5 63.5
t-129.5 70t-119 84t-87.5 114t-33.5 152.5q0 164 127.5 278t343.5 114q84 0 177 -15.5t144 -31.5l50 -15l-43 -237q-18 8 -49 19.5t-116.5 30.5t-158.5 19q-91 0 -149.5 -35.5t-58.5 -99.5q0 -50 33.5 -91.5t87 -72.5t118 -62t129 -69.5t118 -84.5t87 -117t33.5 -158
q0 -121 -64.5 -212t-171.5 -137.5t-239 -46.5q-110 0 -214.5 29t-153.5 58z" />
    <glyph glyph-name="scommaaccent" unicode="&#x219;" horiz-adv-x="841" 
d="M291 -100h217q5 -6 13.5 -17.5t22 -50t13.5 -80.5q0 -85 -61.5 -152.5t-147.5 -109.5l-96 102q104 48 104 148q0 95 -65 160zM66 57l53 209q4 -4 12.5 -10.5t35.5 -23t56 -29t72 -23t86 -10.5q71 0 108 21.5t37 58.5q0 25 -24 47.5t-63 41.5t-85.5 39t-93 46t-85.5 58
t-63 80t-24 106t22 108.5t66.5 91.5t121 64.5t177.5 23.5q76 0 145.5 -13t100.5 -25l31 -13l-54 -207q-11 7 -31.5 17.5t-79 28.5t-112.5 18q-133 0 -133 -74q0 -25 24 -47.5t62.5 -41t85 -38.5t93 -46t85 -57.5t62.5 -79.5t24 -106q0 -132 -102.5 -214.5t-284.5 -82.5
q-90 0 -171.5 20.5t-117.5 40.5z" />
    <glyph glyph-name="uni021A" unicode="&#x21a;" horiz-adv-x="1230" 
d="M494 -100h217q5 -6 13.5 -17.5t22 -50t13.5 -80.5q0 -85 -61.5 -152.5t-147.5 -109.5l-96 102q104 48 104 148q0 95 -65 160zM485 0v1145h-450v221h1161v-221h-448v-1145h-263z" />
    <glyph glyph-name="uni021B" unicode="&#x21b;" horiz-adv-x="817" 
d="M340 -100h217q5 -6 13.5 -17.5t22 -50t13.5 -80.5q0 -85 -61.5 -152.5t-147.5 -109.5l-96 102q105 48 105 148q0 94 -66 160zM188 262v488h-145v137l154 51v217l247 49v-272h285v-182h-285v-426q0 -140 97 -140q63 0 180 80l70 -186q-5 -4 -15.5 -11t-43 -25t-67 -31.5
t-85.5 -24.5t-101 -11q-133 0 -212 74t-79 213z" />
    <glyph glyph-name="circumflex" unicode="&#x2c6;" horiz-adv-x="1044" 
d="M350 1038l-141 60l235 350h158l234 -352l-140 -58l-174 244z" />
    <glyph glyph-name="caron" unicode="&#x2c7;" horiz-adv-x="1044" 
d="M444 1067l-235 350l141 60l172 -246l174 246l140 -58l-234 -352h-158z" />
    <glyph glyph-name="breve" unicode="&#x2d8;" horiz-adv-x="1044" 
d="M522 1110q-139 0 -218 77t-79 202q0 19 4 55h140v-25q0 -89 43 -128.5t110 -39.5t110.5 39.5t43.5 128.5v25h139q0 -9 1 -27.5t1 -27.5q0 -124 -78.5 -201.5t-216.5 -77.5z" />
    <glyph glyph-name="dotaccent" unicode="&#x2d9;" horiz-adv-x="1044" 
d="M522 1135q-66 0 -107.5 40t-41.5 103t41.5 103t107.5 40q65 0 107.5 -40t42.5 -103t-42.5 -103t-107.5 -40z" />
    <glyph glyph-name="ring" unicode="&#x2da;" horiz-adv-x="1044" 
d="M522 1096q-100 0 -153.5 57t-53.5 129q0 71 53 125.5t154 54.5t154 -54.5t53 -125.5q0 -72 -53.5 -129t-153.5 -57zM522 1192q42 0 68 26t26 62q0 35 -24.5 60.5t-69.5 25.5q-46 0 -69 -25t-23 -61t24.5 -62t67.5 -26z" />
    <glyph glyph-name="ogonek" unicode="&#x2db;" horiz-adv-x="1044" 
d="M338 -303q0 61 27 112t87.5 121.5t82.5 102.5l204 33l15 -21q-44 -33 -90 -78t-89 -110t-43 -115q0 -68 76 -68q47 0 94 21l19 -152q-84 -28 -172 -28q-99 0 -155 48t-56 134z" />
    <glyph glyph-name="tilde" unicode="&#x2dc;" horiz-adv-x="1044" 
d="M180 1120q-2 13 -2 31q0 28 3 56t16 66.5t34 66.5t61 48.5t93 20.5q46 0 84.5 -16t64.5 -39t48 -46t44 -39t44 -16q59 0 59 117v25h156v-29q0 -28 -3 -56.5t-16 -68t-34.5 -68.5t-63 -50t-96.5 -21q-46 0 -83.5 16t-61.5 39t-44.5 45.5t-42.5 38.5t-45 16q-59 0 -59 -118
v-19h-156z" />
    <glyph glyph-name="hungarumlaut" unicode="&#x2dd;" horiz-adv-x="1044" 
d="M616 1040l-127 74l222 334h225zM242 1040l-127 74l211 334h225z" />
    <glyph glyph-name="Delta" unicode="&#x394;" horiz-adv-x="1284" 
d="M59 0v70l553 1296h93l520 -1296v-70h-1166zM623 1047l-361 -893h713z" />
    <glyph glyph-name="Delta" unicode="&#x2206;" horiz-adv-x="1284" 
d="M59 0v70l553 1296h93l520 -1296v-70h-1166zM623 1047l-361 -893h713z" />
    <glyph glyph-name="Omega" unicode="&#x3a9;" horiz-adv-x="1619" 
d="M98 0l-20 201h299q-49 55 -97.5 133.5t-91.5 201.5t-43 236q0 126 49.5 240t135.5 197.5t210 132.5t265 49q140 0 263.5 -48t210.5 -131.5t137 -199t50 -246.5q0 -278 -233 -565h311l-20 -201h-523l-40 98q0 1 22 36t33.5 54t36.5 65t40 80.5t35.5 87t32.5 97.5
t20.5 100.5t8.5 106.5q0 206 -102 324t-283 118q-180 0 -281.5 -118t-101.5 -324q0 -91 23.5 -187t62.5 -179.5t68.5 -137.5t61.5 -106q8 -12 11 -17l-41 -98h-510z" />
    <glyph glyph-name="Omega" unicode="&#x2126;" horiz-adv-x="1619" 
d="M98 0l-20 201h299q-49 55 -97.5 133.5t-91.5 201.5t-43 236q0 126 49.5 240t135.5 197.5t210 132.5t265 49q140 0 263.5 -48t210.5 -131.5t137 -199t50 -246.5q0 -278 -233 -565h311l-20 -201h-523l-40 98q0 1 22 36t33.5 54t36.5 65t40 80.5t35.5 87t32.5 97.5
t20.5 100.5t8.5 106.5q0 206 -102 324t-283 118q-180 0 -281.5 -118t-101.5 -324q0 -91 23.5 -187t62.5 -179.5t68.5 -137.5t61.5 -106q8 -12 11 -17l-41 -98h-510z" />
    <glyph glyph-name="pi" unicode="&#x3c0;" horiz-adv-x="1208" 
d="M78 735v197h1061v-197h-199v-497q0 -82 23 -102.5t110 -20.5v-129q-83 -11 -117 -11q-46 0 -81.5 8.5t-59.5 21.5t-41 35t-26 42.5t-14 51.5t-6 54t-1 58v489h-235v-63q0 -67 -2 -121.5t-9.5 -122t-19.5 -121t-34 -109.5t-52.5 -97t-75 -75t-100.5 -51l-113 158
q41 21 72.5 48.5t52.5 56.5t35.5 71t22.5 77t12 91t5 96.5t1 108.5v53h-209z" />
    <glyph glyph-name="Wgrave" unicode="&#x1e80;" horiz-adv-x="1984" 
d="M707 1593l71 189l443 -195l-52 -137zM446 -10l-409 1376h272l285 -1001l297 1001h209l297 -1001l286 1001h265l-412 -1376h-268l-277 907l-274 -907h-271z" />
    <glyph glyph-name="wgrave" unicode="&#x1e81;" horiz-adv-x="1570" 
d="M328 -6l-301 938h262l178 -647l213 647h217l209 -647l182 647h256l-303 -938h-248l-209 608l-206 -608h-250zM772 1040l-317 408h241l211 -334z" />
    <glyph glyph-name="Wacute" unicode="&#x1e82;" horiz-adv-x="1984" 
d="M813 1450l-49 137l442 195l72 -189zM446 -10l-409 1376h272l285 -1001l297 1001h209l297 -1001l286 1001h265l-412 -1376h-268l-277 907l-274 -907h-271z" />
    <glyph glyph-name="wacute" unicode="&#x1e83;" horiz-adv-x="1570" 
d="M797 1040l-138 74l211 334h244zM328 -6l-301 938h262l178 -647l213 647h217l209 -647l182 647h256l-303 -938h-248l-209 608l-206 -608h-250z" />
    <glyph glyph-name="Wdieresis" unicode="&#x1e84;" horiz-adv-x="1984" 
d="M446 -10l-409 1376h272l285 -1001l297 1001h209l297 -1001l286 1001h265l-412 -1376h-268l-277 907l-274 -907h-271zM1249 1491q-62 0 -101.5 37.5t-39.5 97.5q0 61 39.5 98t101.5 37q61 0 100.5 -37t39.5 -98q0 -60 -39.5 -97.5t-100.5 -37.5zM735 1491
q-60 0 -99.5 37.5t-39.5 97.5q0 61 39 98t100 37q62 0 102 -37t40 -98q0 -60 -40 -97.5t-102 -37.5z" />
    <glyph glyph-name="wdieresis" unicode="&#x1e85;" horiz-adv-x="1570" 
d="M1001 1145q-60 0 -97.5 35.5t-37.5 95.5t37.5 95.5t97.5 35.5q62 0 100 -35.5t38 -95.5t-38 -95.5t-100 -35.5zM565 1145q-60 0 -97.5 35.5t-37.5 95.5t37.5 95.5t97.5 35.5q62 0 99.5 -35.5t37.5 -95.5t-37.5 -95.5t-99.5 -35.5zM328 -6l-301 938h262l178 -647l213 647
h217l209 -647l182 647h256l-303 -938h-248l-209 608l-206 -608h-250z" />
    <glyph glyph-name="uni1E9E" unicode="&#x1e9e;" horiz-adv-x="1411" 
d="M152 0v723q0 177 45.5 307.5t131.5 208.5t201 115t263 37q64 0 137 -6.5t152.5 -17t117.5 -13.5v-183l-268 -333q83 -33 151 -74t128 -96.5t94 -129t34 -157.5q0 -78 -31.5 -151t-88 -130t-143 -91t-189.5 -34q-77 0 -153.5 20.5t-113.5 40.5l-38 21l47 236
q13 -10 35.5 -24.5t89.5 -39t131 -24.5q83 0 134.5 49t51.5 117q0 60 -38 112.5t-99.5 88.5t-129 60t-136.5 36v168l250 325q-77 15 -134 15q-195 0 -281.5 -108t-86.5 -351v-717h-264z" />
    <glyph glyph-name="Ygrave" unicode="&#x1ef2;" horiz-adv-x="1245" 
d="M492 0v569l-494 797h309l316 -535l325 535h299l-491 -795v-571h-264zM338 1593l72 189l442 -195l-51 -137z" />
    <glyph glyph-name="ygrave" unicode="&#x1ef3;" horiz-adv-x="972" 
d="M20 -289q100 12 189 80.5t125 155.5l33 78l-359 907h266l218 -610l213 610h258l-388 -1000q-30 -76 -74.5 -144.5t-103.5 -128t-136.5 -98t-162.5 -46.5zM479 1040l-317 408h241l211 -334z" />
    <glyph glyph-name="thinspace" unicode="&#x2009;" horiz-adv-x="30" 
 />
    <glyph glyph-name="endash" unicode="&#x2013;" horiz-adv-x="1052" 
d="M106 442v166h840v-166h-840z" />
    <glyph glyph-name="emdash" unicode="&#x2014;" horiz-adv-x="1851" 
d="M106 442v166h1639v-166h-1639z" />
    <glyph glyph-name="quoteleft" unicode="&#x2018;" horiz-adv-x="458" 
d="M197 870q-115 142 -115 283q0 203 221 377l84 -94q-125 -101 -125 -211q0 -52 30 -103t114 -141z" />
    <glyph glyph-name="quoteright" unicode="&#x2019;" horiz-adv-x="442" 
d="M152 870l-86 95q127 100 127 213q0 51 -31 102.5t-115 138.5l211 111q113 -139 113 -281q0 -205 -219 -379z" />
    <glyph glyph-name="quotesinglbase" unicode="&#x201a;" horiz-adv-x="495" 
d="M78 199l211 110q114 -140 114 -280q0 -204 -221 -377l-86 92q127 100 127 213q0 53 -30.5 104t-114.5 138z" />
    <glyph glyph-name="quotedblleft" unicode="&#x201c;" horiz-adv-x="849" 
d="M588 870q-115 142 -115 283q0 203 221 377l84 -94q-125 -101 -125 -211q0 -52 30 -103t114 -141zM197 870q-115 142 -115 283q0 203 221 377l84 -94q-125 -101 -125 -211q0 -52 30 -103t114 -141z" />
    <glyph glyph-name="quotedblright" unicode="&#x201d;" horiz-adv-x="833" 
d="M543 870l-86 95q127 100 127 213q0 51 -30.5 102.5t-113.5 138.5l209 111q113 -139 113 -281q0 -205 -219 -379zM152 870l-86 95q127 100 127 213q0 51 -31 102.5t-115 138.5l211 111q113 -139 113 -281q0 -205 -219 -379z" />
    <glyph glyph-name="quotedblbase" unicode="&#x201e;" horiz-adv-x="886" 
d="M469 199l211 110q115 -142 115 -280q0 -205 -222 -377l-86 92q127 100 127 213q0 53 -30.5 104t-114.5 138zM78 199l211 110q114 -140 114 -280q0 -204 -221 -377l-86 92q127 100 127 213q0 53 -30.5 104t-114.5 138z" />
    <glyph glyph-name="dagger" unicode="&#x2020;" horiz-adv-x="1003" 
d="M403 -285l29 1061l-366 -41v215l366 -43l-39 459h215l-37 -459l367 43v-215l-367 41l29 -1061h-197z" />
    <glyph glyph-name="daggerdbl" unicode="&#x2021;" horiz-adv-x="1036" 
d="M82 131v215l367 -41v471l-367 -41v215l367 -43l-39 459h215l-37 -459l366 43v-215l-366 41v-471l366 41v-215l-366 43l37 -459h-215l39 459z" />
    <glyph glyph-name="bullet" unicode="&#x2022;" horiz-adv-x="833" 
d="M418 213q-132 0 -222 89.5t-90 221.5t90 222t222 90q131 0 220 -90t89 -222t-89 -221.5t-220 -89.5z" />
    <glyph glyph-name="ellipsis" unicode="&#x2026;" horiz-adv-x="1658" 
d="M1243 131q0 66 46 113t110 47q66 0 113 -47t47 -113q0 -63 -47 -109.5t-113 -46.5q-64 0 -110 46.5t-46 109.5zM672 131q0 66 46 113t109 47q66 0 113 -47t47 -113q0 -63 -47 -109.5t-113 -46.5q-63 0 -109 46.5t-46 109.5zM100 131q0 66 46.5 113t111.5 47t111.5 -47
t46.5 -113q0 -63 -47 -109.5t-111 -46.5t-111 46.5t-47 109.5z" />
    <glyph glyph-name="perthousand" unicode="&#x2030;" horiz-adv-x="2330" 
d="M242 0l968 1397l103 -70l-922 -1327h-149zM412 721q-146 0 -241 93.5t-95 229.5q0 135 95 228.5t241 93.5q144 0 238.5 -93.5t94.5 -228.5t-94.5 -229t-238.5 -94zM412 870q76 0 124 53t48 121t-48 120.5t-124 52.5t-125 -52.5t-49 -120.5t49 -121t125 -53zM1597 299
q0 135 95 227t241 92q145 0 239.5 -92t94.5 -227t-95 -229.5t-239 -94.5q-146 0 -241 94t-95 230zM834 299q0 135 94 227t239 92q146 0 241 -92t95 -227q0 -136 -95 -230t-241 -94q-144 0 -238.5 94t-94.5 230zM1759 299q0 -69 49 -121.5t125 -52.5t124 52.5t48 121.5
q0 68 -48 120t-124 52t-125 -52t-49 -120zM995 299q0 -69 48 -121.5t124 -52.5t125 52.5t49 121.5q0 68 -49 120t-125 52t-124 -52t-48 -120z" />
    <glyph glyph-name="guilsinglleft" unicode="&#x2039;" horiz-adv-x="643" 
d="M422 82q-89 98 -164.5 182t-107.5 120.5t-58.5 66t-36.5 39.5t-22 20v8q30 24 203 218q108 122 186 210l141 -41l-293 -391q13 -19 293 -391z" />
    <glyph glyph-name="guilsinglright" unicode="&#x203a;" horiz-adv-x="643" 
d="M80 123l295 391q-13 15 -295 391l141 41q341 -383 357 -399q15 -15 32 -29v-8q-12 -10 -22 -20t-36.5 -39.5t-58.5 -66t-107.5 -120.5t-164.5 -182z" />
    <glyph glyph-name="fraction" unicode="&#x2044;" horiz-adv-x="301" 
d="M-158 0h-168l815 1417l136 -57z" />
    <glyph glyph-name="zerosuperior" unicode="&#x2070;" horiz-adv-x="796" 
d="M397 756q-85 0 -149.5 34t-102 93t-55.5 130.5t-18 153.5q0 86 18 162.5t55.5 141.5t103.5 103t154 38q83 0 146.5 -34t100.5 -92t55 -128.5t18 -151.5q0 -69 -11 -132t-35.5 -121.5t-61.5 -101.5t-93 -69t-125 -26zM399 907q119 0 119 279q0 274 -117 274
q-125 0 -125 -272q0 -54 5.5 -100.5t19 -89t38.5 -67t60 -24.5z" />
    <glyph glyph-name="foursuperior" unicode="&#x2074;" horiz-adv-x="753" 
d="M403 770v184h-358l-16 127l340 521h219v-504h114v-144h-114v-184h-185zM195 1098h208v317z" />
    <glyph glyph-name="fivesuperior" unicode="&#x2075;" horiz-adv-x="675" 
d="M303 756q-68 0 -130 18t-90 36l-28 17l70 142q9 -6 24.5 -16t59 -26t80.5 -16q60 0 94.5 30t34.5 71q0 129 -312 174v411h459v-149h-291v-127q152 -41 246 -116t94 -187q0 -120 -91 -191t-220 -71z" />
    <glyph glyph-name="sixsuperior" unicode="&#x2076;" horiz-adv-x="749" 
d="M379 756q-82 0 -145.5 29t-102 79t-57.5 113.5t-19 136.5q0 76 19.5 146t62.5 133t106.5 110.5t156.5 77t206 33.5l12 -156q-128 -2 -225.5 -50.5t-134.5 -150.5q66 56 164 56q121 0 196.5 -75.5t75.5 -184.5q0 -124 -81 -210.5t-234 -86.5zM377 1169q-67 0 -129 -45
q0 -217 131 -217q53 0 84 36.5t31 103.5q0 50 -26 86t-91 36z" />
    <glyph glyph-name="sevensuperior" unicode="&#x2077;" horiz-adv-x="647" 
d="M268 748l-188 38q198 371 319 654h-348v157h572l6 -90q-104 -245 -337 -711z" />
    <glyph glyph-name="eightsuperior" unicode="&#x2078;" horiz-adv-x="743" 
d="M371 756q-135 0 -219 61t-84 154q0 70 47.5 126t130.5 109q-75 55 -111.5 99t-36.5 104q0 89 78 146t201 57q118 0 193 -56t75 -147q0 -59 -37 -104.5t-110 -94.5q176 -115 176 -233q0 -92 -82 -156.5t-221 -64.5zM373 907q45 0 72.5 25t27.5 63q0 11 -2 21t-7.5 19.5
t-9.5 17t-13 16t-14 14t-16 13.5t-15 11t-15.5 10.5t-13.5 8.5q-21 -14 -33.5 -23.5t-30 -26.5t-26.5 -37t-9 -42q0 -41 29.5 -65.5t75.5 -24.5zM285 1397q0 -50 92 -111q24 18 35.5 27t29 32t17.5 44q0 34 -25 52.5t-63 18.5q-32 0 -59 -16.5t-27 -46.5z" />
    <glyph glyph-name="ninesuperior" unicode="&#x2079;" horiz-adv-x="745" 
d="M145 756l-12 155q277 4 348 195q-68 -45 -159 -45q-118 0 -193.5 74t-75.5 180q0 58 19.5 110.5t56.5 94.5t98 67t138 25q159 0 240 -102.5t81 -256.5q0 -76 -19.5 -145.5t-62 -132.5t-105 -109.5t-153 -76t-201.5 -33.5zM367 1204q67 0 127 43q0 107 -34 160t-95 53
q-49 0 -81 -37t-32 -102q0 -47 26 -82t89 -35z" />
    <glyph glyph-name="n.sups" unicode="&#x207f;" horiz-adv-x="794" 
d="M90 608v654h193v-103q106 119 237 119q90 0 139.5 -51t49.5 -154v-465h-199v383q0 68 -13 97.5t-44 29.5q-68 0 -164 -100v-410h-199z" />
    <glyph glyph-name="zeroinferior" unicode="&#x2080;" horiz-adv-x="796" 
d="M397 -246q-85 0 -149.5 34t-102 93.5t-55.5 131t-18 153.5q0 86 18 162.5t55.5 141t103.5 102.5t154 38q83 0 146.5 -33.5t100.5 -91.5t55 -128.5t18 -151.5q0 -69 -11 -132t-35.5 -122t-61.5 -102t-93 -69t-125 -26zM399 -94q119 0 119 278q0 275 -117 275
q-125 0 -125 -273q0 -54 5.5 -100.5t19 -88.5t38.5 -66.5t60 -24.5z" />
    <glyph glyph-name="oneinferior" unicode="&#x2081;" horiz-adv-x="645" 
d="M63 -231v141h189v545h-172v141h364v-686h172v-141h-553z" />
    <glyph glyph-name="twoinferior" unicode="&#x2082;" horiz-adv-x="718" 
d="M70 -231l-15 112q23 22 70.5 66t74 69.5t66 65t62 68t46 62.5t34 65t10.5 59q0 102 -115 102q-37 0 -74 -15t-55 -31l-18 -15l-99 121q4 5 12 12.5t34.5 26.5t57 34t78.5 27t99 12q124 0 200 -67.5t76 -180.5q0 -94 -63.5 -199t-214.5 -245h323v-149h-589z" />
    <glyph glyph-name="threeinferior" unicode="&#x2083;" horiz-adv-x="681" 
d="M295 -248q-68 0 -132 19t-94 38l-30 19l82 135q9 -6 24 -15t57.5 -23.5t80.5 -14.5q60 0 92.5 29.5t32.5 70.5q0 47 -45.5 69.5t-106.5 22.5h-70v150q70 2 127.5 38t57.5 91q0 68 -82 68q-35 0 -71 -12t-54 -24l-19 -12l-79 123q4 3 12.5 9t36 21t56.5 26t73 20.5t88 9.5
q113 0 179.5 -55.5t66.5 -138.5q0 -73 -49 -131t-115 -80q200 -43 200 -193q0 -106 -90 -183t-229 -77z" />
    <glyph glyph-name="fourinferior" unicode="&#x2084;" horiz-adv-x="755" 
d="M406 -231v184h-359l-16 127l340 520h219v-504h115v-143h-115v-184h-184zM197 96h209v318z" />
    <glyph glyph-name="fiveinferior" unicode="&#x2085;" horiz-adv-x="671" 
d="M301 -246q-68 0 -130 18t-90 36l-28 18l70 141q9 -6 24.5 -15.5t59 -25.5t80.5 -16q60 0 94.5 29.5t34.5 70.5q0 129 -312 174v412h459v-150h-291v-127q152 -41 246 -116t94 -187q0 -120 -91 -191t-220 -71z" />
    <glyph glyph-name="sixinferior" unicode="&#x2086;" horiz-adv-x="751" 
d="M381 -246q-82 0 -146 29t-102 79.5t-57 114t-19 136.5q0 96 32 181t96.5 155.5t173 114t249.5 48.5l13 -155q-128 -2 -226 -50.5t-135 -150.5q65 55 164 55q121 0 196.5 -75.5t75.5 -184.5q0 -124 -81 -210.5t-234 -86.5zM379 168q-67 0 -129 -45q0 -217 131 -217
q53 0 84 36t31 103q0 50 -26 86.5t-91 36.5z" />
    <glyph glyph-name="seveninferior" unicode="&#x2087;" horiz-adv-x="647" 
d="M268 -254l-188 39q201 375 319 653h-348v158h572l6 -90q-105 -249 -361 -760z" />
    <glyph glyph-name="eightinferior" unicode="&#x2088;" horiz-adv-x="743" 
d="M371 -246q-135 0 -219 61t-84 154q0 70 47.5 126.5t130.5 109.5q-75 55 -111.5 99t-36.5 104q0 89 78 145.5t201 56.5q118 0 193 -55.5t75 -146.5q0 -59 -37 -104.5t-110 -94.5q176 -115 176 -234q0 -92 -82 -156.5t-221 -64.5zM373 -94q45 0 72.5 25t27.5 63q0 11 -2 21
t-7.5 19.5t-9.5 17t-13 16t-14 14t-16 13.5t-15 11t-15.5 10.5t-13.5 8.5q-21 -14 -33.5 -23.5t-30 -26.5t-26.5 -37t-9 -42q0 -41 29.5 -65.5t75.5 -24.5zM285 395q0 -49 92 -110l9 6q8 6 10 8t10.5 8.5t11.5 9.5t10 9.5t10 11t8 11.5t7 12.5t4 12t2 13.5q0 34 -25 53
t-63 19q-32 0 -59 -17t-27 -47z" />
    <glyph glyph-name="nineinferior" unicode="&#x2089;" horiz-adv-x="741" 
d="M145 -246l-12 156q277 4 348 194q-68 -45 -159 -45q-118 0 -193.5 74t-75.5 180q0 58 19.5 110.5t56.5 94.5t98 67t138 25q159 0 240 -102t81 -256q0 -96 -32 -181t-95.5 -155t-170 -113.5t-243.5 -48.5zM367 203q67 0 127 43q0 107 -34 160t-95 53q-49 0 -81 -37.5
t-32 -102.5q0 -46 26 -81t89 -35z" />
    <glyph glyph-name="Euro" unicode="&#x20ac;" horiz-adv-x="1155" 
d="M76 365v118h106q-4 46 -4 74q0 26 4 84h-106v119h131q54 183 195.5 295t342.5 112q81 0 161.5 -18.5t120.5 -37.5l40 -19l-63 -197q-13 9 -35.5 21.5t-89 33.5t-129.5 21q-107 0 -176.5 -57.5t-102.5 -153.5h494l-35 -119h-486q-2 -23 -2 -68q0 -39 7 -90h438l-35 -118
h-373q37 -90 108 -141.5t171 -51.5q56 0 118.5 15t97.5 31l34 15l49 -182q-5 -3 -15 -8t-42 -18.5t-67 -23.5t-88 -18t-106 -8q-200 0 -341.5 105t-194.5 285h-127z" />
    <glyph glyph-name="trademark" unicode="&#x2122;" horiz-adv-x="1433" 
d="M653 821l21 545h194l117 -340l119 340h192l21 -545h-133l-17 396l-139 -396h-90l-139 398l-13 -398h-133zM250 821v436h-178v109h493v-109h-178v-436h-137z" />
    <glyph glyph-name="arrowleft" unicode="&#x2190;" horiz-adv-x="1280" 
d="M608 160q-334 366 -399.5 436.5t-102.5 103.5v9q39 31 111 108t391 432l174 -41q-225 -289 -340 -422h693v-161h-697q103 -119 344 -424z" />
    <glyph glyph-name="arrowup" unicode="&#x2191;" horiz-adv-x="1280" 
d="M559 164v743q-163 -141 -424 -344l-41 174q474 433 511 470q15 15 30 32h8q30 -38 105 -108t436 -394l-41 -174q-300 231 -422 340v-739h-162z" />
    <glyph glyph-name="arrowright" unicode="&#x2192;" horiz-adv-x="1280" 
d="M143 625v161h693q-116 129 -340 422l174 41q325 -361 394 -435.5t107 -104.5v-9q-32 -29 -94.5 -95.5t-257.5 -280.5q-92 -102 -149 -164l-174 41q236 299 344 424h-697z" />
    <glyph glyph-name="arrowdown" unicode="&#x2193;" horiz-adv-x="1280" 
d="M635 184q-30 38 -105 108t-436 394l41 174q267 -209 422 -340v740h162v-744q94 85 424 344l41 -174q-474 -433 -511 -470q-15 -15 -30 -32h-8z" />
    <glyph glyph-name="partialdiff" unicode="&#x2202;" horiz-adv-x="1105" 
d="M68 420q0 84 28 163.5t80 144.5t137 104.5t189 39.5q177 0 241 -100q-6 96 -26 178.5t-58 155t-91.5 123.5t-130.5 80.5t-171 29.5v193q157 0 284.5 -47.5t212 -127.5t142 -189t82.5 -226.5t25 -245.5q0 -202 -61.5 -365t-180 -259.5t-274.5 -96.5q-186 0 -307 129.5
t-121 315.5zM494 166q91 0 160 105t87 290q-28 51 -79 85t-115 34q-56 0 -100 -26t-68.5 -69t-36.5 -90.5t-12 -97.5q0 -99 45 -165t119 -66z" />
    <glyph glyph-name="product" unicode="&#x220f;" horiz-adv-x="1583" 
d="M68 1145v221h1448v-221h-213v-1329h-263v1329h-497v-1329h-262v1329h-213z" />
    <glyph glyph-name="summation" unicode="&#x2211;" horiz-adv-x="1214" 
d="M84 -25l438 615l-438 616v160h1008v-221h-666l389 -553l-389 -555h721v-221h-1063v159z" />
    <glyph glyph-name="minus" unicode="&#x2212;" 
d="M74 436v166h917v-166h-917z" />
    <glyph glyph-name="radical" unicode="&#x221a;" horiz-adv-x="1216" 
d="M627 -74l-314 842h-284v164h415l213 -580l416 1182h184l-577 -1608h-53z" />
    <glyph glyph-name="infinity" unicode="&#x221e;" horiz-adv-x="1667" 
d="M436 156q-145 0 -245.5 103.5t-100.5 252.5t100.5 252.5t245.5 103.5q62 0 119.5 -21t107.5 -60t89.5 -79.5t81.5 -95.5q32 40 56.5 67.5t67 66.5t81.5 63t93 41.5t109 17.5q140 0 238 -101t98 -245q0 -154 -100.5 -260t-245.5 -106q-62 0 -120 21t-108.5 60.5t-88.5 79
t-80 93.5q-40 -50 -71 -83.5t-83.5 -78t-114.5 -68.5t-129 -24zM926 512q6 -9 17 -24t45 -53.5t68.5 -68t82.5 -53.5t92 -24q76 0 135 61.5t59 161.5q0 99 -58.5 161t-135.5 62q-44 0 -91.5 -23t-84 -55.5t-66.5 -65.5t-47 -56zM436 289q44 0 91.5 23t84 55.5t66.5 65.5
t46 56l17 23q-6 9 -17 24t-45 53.5t-68.5 68t-82.5 53.5t-92 24q-76 0 -135 -61.5t-59 -161.5q0 -99 58.5 -161t135.5 -62z" />
    <glyph glyph-name="integral" unicode="&#x222b;" horiz-adv-x="870" 
d="M31 -270q55 -19 96 -19q90 0 143.5 71t53.5 226v1014q0 239 126 375.5t326 136.5q73 0 150 -25l-54 -190q-52 18 -96 18q-90 0 -143 -71t-53 -226v-1013q0 -238 -127 -375t-326 -137q-76 0 -150 24z" />
    <glyph glyph-name="approxequal" unicode="&#x2248;" 
d="M125 586l-90 125q60 60 144 104.5t167 44.5q59 0 113 -22.5t87.5 -49t77.5 -49t87 -22.5q122 0 221 106l92 -125q-57 -59 -142.5 -104t-170.5 -45q-59 0 -113 22.5t-87.5 49t-77.5 49t-87 22.5q-115 0 -221 -106zM125 199l-90 125q60 60 144 104.5t167 44.5
q59 0 113 -22.5t87.5 -49t77.5 -49t87 -22.5q122 0 221 106l92 -125q-57 -59 -142.5 -104t-170.5 -45q-59 0 -113 22.5t-87.5 49t-77.5 49t-87 22.5q-115 0 -221 -106z" />
    <glyph glyph-name="notequal" unicode="&#x2260;" 
d="M84 621v143h541l149 250l103 -62l-113 -188h217v-143h-301l-127 -215h428v-144h-514l-154 -260l-102 61l117 199h-244v144h330l127 215h-457z" />
    <glyph glyph-name="lessequal" unicode="&#x2264;" 
d="M66 657v95l872 397l41 -164l-649 -283l649 -299l-41 -161zM66 0v164h917v-164h-917z" />
    <glyph glyph-name="greaterequal" unicode="&#x2265;" 
d="M127 242l-41 161l647 299l-647 283l41 164l872 -397v-95zM82 0v164h917v-164h-917z" />
    <glyph glyph-name="triagup" unicode="&#x25b2;" horiz-adv-x="1280" 
d="M125 301l-25 74q124 148 224.5 277.5t155.5 207.5t93 135t50 80l12 23h10q4 -8 13 -24t48.5 -78t93.5 -137.5t155 -205.5t225 -278l-25 -74q-115 38 -514.5 38t-515.5 -38z" />
    <glyph glyph-name="triagrt" unicode="&#x25ba;" horiz-adv-x="1280" 
d="M295 188q38 116 38 516t-38 515l74 24q236 -196 416.5 -329.5t243.5 -169.5l63 -35v-11q-8 -4 -24 -12.5t-78 -48.5t-137.5 -93.5t-205.5 -154.5t-278 -225z" />
    <glyph glyph-name="triagdn" unicode="&#x25bc;" horiz-adv-x="1280" 
d="M635 301q-4 8 -13 24t-48.5 78t-93.5 137.5t-155 205.5t-225 278l25 74q115 -38 515 -38t515 38l25 -74q-124 -148 -224.5 -277.5t-155.5 -207.5t-93 -135t-50 -80l-12 -23h-10z" />
    <glyph glyph-name="triaglf" unicode="&#x25c4;" horiz-adv-x="1280" 
d="M186 698v11q8 4 24 12.5t78 48.5t137.5 93.5t205.5 154.5t278 225l74 -24q-38 -115 -38 -515t38 -516l-74 -24q-236 196 -416.5 329.5t-243.5 168.5z" />
    <glyph glyph-name="lozenge" unicode="&#x25ca;" horiz-adv-x="1091" 
d="M506 -78l-445 821l445 799h82l442 -799l-442 -821h-82zM250 745l299 -567l293 567l-295 545z" />
    <glyph glyph-name="Euro.uc" unicode="&#xe012;" 
d="M18 457v129h117q-2 25 -2 78q0 52 2 79h-117v129h136q48 233 199.5 376t381.5 143q82 0 161 -19t117 -38l38 -19l-74 -219q-11 8 -31 20t-81.5 31.5t-123.5 19.5q-131 0 -208 -79.5t-107 -215.5h487l-41 -129h-464v-61q0 -34 4 -96h413l-39 -129h-350q34 -122 110.5 -190
t198.5 -68q56 0 115.5 15t91.5 30l31 16l49 -209q-5 -3 -13.5 -8t-39 -18.5t-63.5 -23.5t-84.5 -18t-104.5 -8q-226 0 -375.5 129.5t-197.5 352.5h-136z" />
    <glyph glyph-name="cent.uc" unicode="&#xe028;" 
d="M512 0l8 229q-191 21 -299 147.5t-108 305.5q0 90 28.5 170.5t83 144.5t141 104t193.5 46l10 219h101l-11 -221q55 -5 104.5 -18.5t82 -29.5t56.5 -31.5t35 -25.5l11 -10l-125 -168q-8 7 -22 17t-58.5 30.5t-89.5 26.5l-20 -498q56 3 112 24.5t85 41.5l28 20l80 -182
q-4 -4 -13 -11t-39 -25.5t-63.5 -33t-88 -28.5t-111.5 -17l-9 -227h-102zM371 692q0 -89 41.5 -153.5t117.5 -87.5l21 481q-83 -19 -131.5 -82t-48.5 -158z" />
    <glyph glyph-name="dollar.uc" unicode="&#xe02c;" 
d="M84 121l76 233q15 -12 41.5 -29.5t105 -49.5t154.5 -37l22 340q-156 72 -219 116q-160 112 -160 279q0 74 29 140.5t83 119.5t138 86.5t187 38.5l16 211h102l-16 -213q70 -4 146 -18.5t117 -27.5l40 -12l-43 -237q-135 57 -276 67l-25 -329q44 -19 66.5 -29.5t64 -31.5
t65 -37.5t56.5 -42t52 -51.5t37.5 -58t27 -70.5t8.5 -81.5q0 -167 -122.5 -273t-311.5 -118l-15 -209h-102l14 211q-94 6 -183.5 34.5t-132.5 53.5zM365 999q0 -47 35.5 -82.5t103.5 -70.5l20 280q-73 -9 -116 -42t-43 -85zM719 375q0 46 -35 81.5t-102 71.5l-21 -288
q72 12 115 47.5t43 87.5z" />
    <glyph glyph-name="dotlessi.smcp" unicode="&#xe033;" horiz-adv-x="561" 
d="M152 0v997h258v-997h-258z" />
    <glyph glyph-name="florin.uc" unicode="&#xe039;" 
d="M72 645v154h278l21 168q29 238 173 374t347 136q70 0 143 -25l-53 -201q-88 19 -115 19q-192 0 -229 -287l-23 -184h291v-154h-309l-53 -455q-29 -239 -173.5 -375.5t-349.5 -136.5q-71 0 -141 25l51 201q70 -19 115 -19q90 0 151 68.5t80 218.5l56 473h-260z" />
    <glyph glyph-name="sterling.uc" unicode="&#xe03f;" 
d="M49 586v129h176l33 270q22 184 128 295t298 111q54 0 104.5 -9t83.5 -22t58.5 -26t37.5 -22l11 -9l-113 -179q-9 7 -25 17t-64.5 26.5t-94.5 16.5q-79 0 -119 -48.5t-51 -156.5l-27 -264h328l-18 -129h-324l-8 -94q-7 -74 -24.5 -146t-31.5 -108l-14 -35q107 -43 230 -43
q118 0 165.5 44t57.5 136h190q-6 -65 -19 -118.5t-39.5 -105.5t-64 -87.5t-97 -57.5t-134.5 -22t-152 22t-145.5 44t-120.5 22q-64 0 -190 -37l-41 127q5 2 14 6t32.5 19.5t42 34t35.5 50.5t21 68l31 281h-160z" />
    <glyph glyph-name="orn.001" unicode="&#xe04e;" horiz-adv-x="1388" 
d="M696 811q-22 27 -32 66l-93 358q-9 39 35 62.5t90 23.5q44 0 87 -24t34 -62l-92 -358q-4 -17 -11.5 -33.5t-12.5 -24.5zM571 156l93 358q4 17 12 33.5t14 24.5l6 8q19 -27 29 -66l92 -358q9 -38 -34 -62t-87 -24q-46 0 -90 23.5t-35 62.5zM797 754q8 28 39 57l264 258
q22 23 50 14t50.5 -29.5t36.5 -43.5q14 -25 21 -56.5t0.5 -60t-31.5 -35.5l-361 -98q-17 -4 -34.5 -5.5t-25.5 -0.5h-9zM168 858q-27 7 -35 36t-1.5 60t20.5 56q14 23 36.5 43.5t50.5 30t50 -12.5l264 -260q14 -13 23.5 -27t12.5 -22l3 -8q-31 -4 -70 6zM836 580
q-14 13 -23.5 27t-12.5 22l-3 8q30 4 69 -6l355 -99q27 -7 35 -36t1.5 -59.5t-20.5 -55.5q-24 -39 -66 -64.5t-71 2.5zM152 381q-14 25 -21 55.5t1 59.5t34 36l356 99q17 4 34.5 5.5t26.5 1.5l9 -1q-8 -28 -39 -57l-264 -258q-22 -23 -50 -14t-50.5 29.5t-36.5 43.5z" />
    <glyph glyph-name="orn.002" unicode="&#xe04f;" horiz-adv-x="1376" 
d="M162 858q-40 11 -40 61t23 91q14 23 37 43.5t51 30t50 -12.5l256 -252q46 56 114 68l-88 348q-9 39 35 62.5t90 23.5q44 0 87 -24t34 -62l-90 -348q71 -12 119 -66l254 248q22 23 50 14t50.5 -29.5t36.5 -43.5q14 -25 21 -56.5t0.5 -60t-31.5 -35.5l-349 -96
q13 -43 13 -66q0 -32 -13 -69l342 -95q40 -11 40 -60.5t-23 -90.5q-24 -39 -66 -64.5t-71 2.5l-256 250q-46 -56 -117 -65l90 -348q9 -38 -34 -62t-87 -24q-46 0 -90 23.5t-35 62.5l90 348q-70 12 -116 67l-256 -249q-22 -23 -50 -14t-51 29.5t-37 43.5q-14 25 -20.5 55.5
t1.5 59.5t34 36l348 97q-12 30 -12 67q0 33 10 66zM690 580q47 0 81 33.5t34 80.5t-34 81t-81 34t-81 -34t-34 -81t34 -80.5t81 -33.5z" />
    <glyph glyph-name="orn.003" unicode="&#xe050;" horiz-adv-x="1826" 
d="M242 442q-54 0 -78.5 38t-24.5 100q0 68 28.5 139.5t78.5 132t126.5 99t164.5 38.5q50 0 99 -15t84.5 -34.5t79 -55.5t68.5 -60.5t66 -67.5q15 -15 22 -23q99 -103 140 -137q105 -86 198 -86q87 0 158.5 58.5t71.5 158.5q0 38 -14.5 83t-14.5 64q0 43 29.5 69t72.5 26
q53 0 78 -38.5t25 -99.5q0 -67 -28.5 -138.5t-78 -132t-126 -99.5t-164.5 -39q-51 0 -101 15.5t-86.5 35.5t-82.5 59.5t-71 65t-71 74.5q-54 59 -80.5 85.5t-75.5 67.5t-94 58.5t-94 17.5q-57 0 -108.5 -23.5t-87.5 -74.5t-36 -119q0 -38 14.5 -83t14.5 -64q0 -43 -29.5 -69
t-72.5 -26z" />
    <glyph glyph-name="orn.004" unicode="&#xe051;" horiz-adv-x="1732" 
d="M696 1202q-38 0 -63 29t-25 67q0 47 37.5 70t97.5 23q65 0 135.5 -28t131 -76.5t100 -123t39.5 -159.5q0 -23 -13 -36.5t-32 -13.5t-31 13.5t-12 36.5q-3 86 -61.5 156.5t-155.5 70.5q-38 0 -83.5 -14.5t-64.5 -14.5zM188 449q-47 0 -69.5 37t-22.5 96q0 53 17.5 110
t52 109.5t80.5 94.5t108.5 67.5t130.5 25.5q51 0 101.5 -16.5t87.5 -37t84.5 -61t73.5 -66.5t73 -75q54 -57 83.5 -85.5t76 -66.5t89 -54.5t87.5 -16.5q55 0 107.5 23.5t90.5 74.5t38 119q0 38 -14.5 83t-14.5 64q0 38 29 63.5t67 25.5q47 0 69.5 -38t22.5 -98
q0 -65 -28.5 -136t-77.5 -131t-124.5 -99t-160.5 -39q-50 0 -99.5 15.5t-86.5 36t-81 58.5t-71.5 66t-70.5 74q-46 50 -65 69.5t-61 58.5t-69.5 55.5t-67.5 31t-79 14.5q-91 0 -164.5 -58.5t-73.5 -158.5q0 -38 14.5 -83t14.5 -64q0 -38 -29.5 -63t-67.5 -25zM582 412
q0 19 12 32t31 13t32 -13t13 -32q0 -87 58.5 -160.5t158.5 -73.5q38 0 83 14.5t64 14.5q38 0 63 -29t25 -67q0 -47 -37.5 -70t-95.5 -23q-67 0 -138 28.5t-131.5 78t-99 125.5t-38.5 162z" />
    <glyph glyph-name="orn.005" unicode="&#xe052;" horiz-adv-x="1349" 
d="M408 1083q-38 0 -63.5 29.5t-25.5 67.5q0 47 37.5 69.5t96.5 22.5q67 0 138 -28.5t131.5 -77.5t99 -125t38.5 -162q0 -19 -12 -32t-31 -13t-32 13t-13 32q0 87 -58.5 160t-158.5 73q-38 0 -83 -14.5t-64 -14.5zM805 563q0 19 13 32t32 13q87 0 160 58.5t73 158.5
q0 38 -14 83.5t-14 64.5q0 38 29 63t67 25q47 0 69.5 -37t22.5 -96q0 -67 -28.5 -138t-77.5 -131.5t-125 -99.5t-162 -39q-19 0 -32 12t-13 31zM201 348q-47 0 -69.5 37t-22.5 96q0 67 28.5 138t77.5 131.5t125 99.5t162 39q19 0 32 -12t13 -31t-13 -32t-32 -13
q-87 0 -160.5 -58.5t-73.5 -158.5q0 -38 14.5 -83.5t14.5 -64.5q0 -38 -29 -63t-67 -25zM492 530q0 19 12 32t31 13t32 -13t13 -32q0 -87 58.5 -160t158.5 -73q38 0 83 14.5t64 14.5q38 0 63 -29.5t25 -67.5q0 -47 -37 -69.5t-96 -22.5q-67 0 -138 28.5t-131.5 77.5t-99 125
t-38.5 162z" />
    <glyph glyph-name="orn.006" unicode="&#xe053;" horiz-adv-x="1650" 
d="M119 682q0 143 56 274t150.5 226t225.5 151t274 56q191 0 354 -95t258 -258t95 -354t-95 -354t-258 -258t-354 -95q-143 0 -274 56t-225.5 151t-150.5 226t-56 274zM213 682q0 -170 80.5 -313t221.5 -226.5t310 -83.5t310 83.5t222 226.5t81 313t-81 313t-222 226.5
t-310 83.5t-310 -83.5t-221.5 -226.5t-80.5 -313zM557 948q-38 0 -63 29t-25 67q0 47 37.5 70t95.5 23q67 0 138 -28.5t131.5 -78t99.5 -125.5t39 -162q0 -19 -12 -32t-31 -13t-32 13t-13 32q0 87 -58.5 160.5t-158.5 73.5q-38 0 -83.5 -14.5t-64.5 -14.5zM842 541
q0 19 13 32t32 13q87 0 160 58.5t73 158.5q0 38 -14 83t-14 64q0 38 29 63t67 25q47 0 69.5 -37t22.5 -96q0 -67 -28.5 -138t-77.5 -131.5t-125 -99t-162 -38.5q-19 0 -32 12t-13 31zM463 326q-47 0 -69.5 37t-22.5 96q0 67 28.5 138t77.5 131.5t125 99t162 38.5
q19 0 32 -12t13 -31t-13 -32t-32 -13q-87 0 -160.5 -58.5t-73.5 -158.5q0 -38 14.5 -83t14.5 -64q0 -38 -29 -63t-67 -25zM641 621q0 19 12 32t31 13t32 -13t13 -32q0 -87 58.5 -160.5t158.5 -73.5q38 0 83.5 14.5t64.5 14.5q38 0 63 -29.5t25 -67.5q0 -47 -37 -69.5
t-96 -22.5q-67 0 -138 28.5t-131.5 78t-99.5 125.5t-39 162z" />
    <glyph glyph-name="orn.007" unicode="&#xe054;" horiz-adv-x="1650" 
d="M119 682q0 143 56 274t150.5 226t225.5 151t274 56q191 0 354 -95t258 -258t95 -354t-95 -354t-258 -258t-354 -95q-143 0 -274 56t-225.5 151t-150.5 226t-56 274zM213 682q0 -170 80.5 -313t221.5 -226.5t310 -83.5t310 83.5t222 226.5t81 313t-81 313t-222 226.5
t-310 83.5t-310 -83.5t-221.5 -226.5t-80.5 -313zM823 768q-16 18 -22 47l-68 264q-8 28 24 45t66 17t65.5 -17t24.5 -45l-67 -264q-3 -13 -8.5 -24.5t-9.5 -16.5zM436 801q-20 6 -26 27.5t-1 43.5t15 39q10 18 27 34t38 23t37 -10l193 -190q10 -9 18 -19.5t11 -16.5l2 -7
q-23 -4 -54 4zM897 725q8 23 31 43l192 188q17 17 38 10.5t38 -22t27 -33.5q9 -18 13.5 -40t-0.5 -43t-24 -27l-262 -72q-14 -4 -27 -5t-19 0zM897 639q22 4 53 -4l260 -72q20 -6 25.5 -27t1 -43t-13.5 -40q-10 -18 -27.5 -34t-38 -22.5t-37.5 9.5l-192 190q-10 9 -18 19.5
t-10 16.5zM424 453q-10 17 -15 39.5t0.5 43.5t24.5 27l262 72q14 4 27.5 5t20.5 0l6 -1q-8 -23 -31 -43l-193 -188q-17 -17 -38 -10.5t-37.5 22t-26.5 33.5zM733 285l68 264q3 13 8.5 24.5t9.5 16.5l4 6q17 -18 23 -47l67 -264q7 -29 -24 -45.5t-66 -16.5q-34 0 -64.5 16.5
t-25.5 45.5z" />
    <glyph glyph-name="yen.uc" unicode="&#xe06a;" 
d="M106 610v129h234l-342 627h285l249 -506l259 506h272l-346 -627h254v-129h-309v-157h309v-127h-309v-326h-267v326h-289v127h289v157h-289z" />
    <glyph glyph-name="ct" unicode="&#xe087;" horiz-adv-x="1767" 
d="M66 449q0 99 36.5 190.5t101.5 162t161.5 112.5t209.5 42q9 0 26.5 -1t25.5 -1q-11 42 -11 90q0 151 105 254t280 103q181 0 289.5 -92.5t108.5 -241.5v-135h284v-182h-284v-426q0 -140 96 -140q65 0 182 80l68 -186q-5 -4 -15 -11t-42.5 -25t-66.5 -31.5t-84.5 -24.5
t-100.5 -11q-134 0 -212.5 74t-78.5 213v488h-146v137l154 51q7 6 17 17.5t27 49t17 76.5q0 98 -61.5 145.5t-163.5 47.5q-101 0 -169 -62.5t-68 -169.5q0 -58 24 -116q37 -13 70 -29t47 -25l14 -10l-90 -186q-4 3 -11 9t-30.5 20.5t-48 25.5t-61 20t-72.5 9
q-114 0 -189 -80t-75 -217q0 -132 70 -211.5t186 -79.5q64 0 124.5 23.5t89.5 46.5l29 24l78 -172q-4 -5 -12.5 -13t-39 -28.5t-66.5 -36t-96 -28.5t-126 -13q-225 0 -363 135.5t-138 338.5z" />
    <glyph glyph-name="germandbls.smcp" unicode="&#xe308;" horiz-adv-x="1800" 
d="M86 59l74 211q4 -3 12.5 -9t35.5 -20.5t56 -25.5t72.5 -20t87.5 -9q137 0 137 80q0 33 -34.5 62t-85.5 50.5t-111.5 52.5t-111.5 65t-85.5 90.5t-34.5 126.5q0 129 105.5 219t290.5 90q63 0 136 -11t114 -23l42 -11l-36 -217q-14 6 -39 14.5t-93.5 22.5t-125.5 14
q-138 0 -138 -74q0 -28 25.5 -52.5t66 -44t89.5 -40.5t97.5 -48.5t89 -61.5t66 -86.5t25.5 -116.5q0 -139 -111.5 -225.5t-281.5 -86.5q-83 0 -166.5 21t-125.5 42zM985 59l74 211q4 -3 12.5 -9t35.5 -20.5t56 -25.5t72.5 -20t87.5 -9q137 0 137 80q0 33 -34.5 62
t-85.5 50.5t-111.5 52.5t-111.5 65t-85.5 90.5t-34.5 126.5q0 129 105.5 219t290.5 90q63 0 136 -11t115 -23l42 -11l-37 -217q-14 6 -39 14.5t-93.5 22.5t-125.5 14q-138 0 -138 -74q0 -28 25.5 -52.5t66 -44t89 -40.5t97.5 -48.5t89.5 -61.5t66 -86.5t25.5 -116.5
q0 -139 -111.5 -225.5t-281.5 -86.5q-83 0 -166.5 21t-125.5 42z" />
    <glyph glyph-name="uni021B.smcp" unicode="&#xe30b;" horiz-adv-x="1015" 
d="M389 -100h217q5 -6 13.5 -17.5t22 -50t13.5 -80.5q0 -85 -61.5 -152.5t-147.5 -109.5l-96 102q105 48 105 148q0 94 -66 160zM383 0v793h-338v204h926v-204h-332v-793h-256z" />
    <glyph glyph-name="ordfeminine.smcp" unicode="&#xe351;" horiz-adv-x="962" 
d="M94 606l281 746h213l278 -746h-196l-52 150h-280l-53 -150h-191zM479 1159l-88 -254h174z" />
    <glyph glyph-name="ordmasculine.smcp" unicode="&#xe352;" horiz-adv-x="980" 
d="M483 592q-185 0 -297 111.5t-112 269.5q0 74 27.5 142t79 122.5t133 87.5t180.5 33q188 0 300.5 -106.5t112.5 -262.5q0 -77 -30 -148.5t-83.5 -127t-134.5 -88.5t-176 -33zM485 752q103 0 162.5 68t59.5 159q0 88 -56 152.5t-159 64.5t-160.5 -65.5t-57.5 -155.5
q0 -88 55 -155.5t156 -67.5z" />
    <glyph glyph-name="a.sups" unicode="&#xe361;" horiz-adv-x="729" 
d="M244 592q-92 0 -148.5 48.5t-56.5 125.5q0 101 98.5 165t284.5 89v20q0 48 -16 72.5t-66 24.5q-48 0 -102.5 -21t-84.5 -42l-30 -21l-43 141q5 3 14 9t40 20.5t65 25.5t86.5 20t107.5 9q126 0 177 -51t51 -160v-252q0 -35 18.5 -54.5t36.5 -21.5l18 -2l-51 -139
q-153 3 -199 86q-70 -92 -200 -92zM299 729q56 0 123 74v106q-180 -28 -180 -121q0 -59 57 -59z" />
    <glyph glyph-name="b.sups" unicode="&#xe362;" horiz-adv-x="788" 
d="M88 629v936h199v-336q56 49 155 49q140 0 217.5 -90.5t77.5 -226.5q0 -74 -23.5 -139.5t-69 -117t-119 -82t-165.5 -30.5q-32 0 -71.5 4t-73 9t-62.5 10.5t-46.5 9.5t-18.5 4zM403 1135q-57 0 -116 -41v-355q34 -12 75 -12q77 0 125 59t48 162q0 86 -35.5 136.5
t-96.5 50.5z" />
    <glyph glyph-name="c.sups" unicode="&#xe363;" horiz-adv-x="684" 
d="M401 592q-162 0 -259 94.5t-97 237.5q0 69 24 131.5t69 112.5t116.5 80t159.5 30q47 0 89.5 -8.5t69.5 -21t47.5 -25t29.5 -21.5l9 -8l-86 -129q-7 8 -19 19t-51.5 30t-80.5 19q-75 0 -123.5 -52.5t-48.5 -142.5t47 -146.5t123 -56.5q44 0 88.5 19.5t67.5 39.5l22 19
l53 -137q-3 -3 -9.5 -9t-30 -20.5t-50 -25.5t-70 -20t-90.5 -9z" />
    <glyph glyph-name="d.sups" unicode="&#xe364;" horiz-adv-x="800" 
d="M340 592q-130 0 -210.5 93.5t-80.5 229.5q0 70 23 134.5t65.5 116t110 82t149.5 30.5q61 0 111 -16v303h199v-756q0 -35 7 -84.5t14 -82.5l7 -32l-186 -10q-13 41 -21 84q-25 -41 -73 -66.5t-115 -25.5zM383 731q64 0 125 76v248q0 82 -90 82q-77 0 -119.5 -54.5
t-42.5 -152.5q0 -92 35 -145.5t92 -53.5z" />
    <glyph glyph-name="e.sups" unicode="&#xe365;" horiz-adv-x="724" 
d="M395 592q-164 0 -256 98t-92 240q0 146 93.5 247t242.5 101q131 0 209.5 -85t79.5 -245l-99 -26l-321 -41q18 -68 62 -107t112 -39q53 0 104.5 22.5t77.5 44.5l25 23l47 -141q-4 -4 -12.5 -10t-37 -22t-59.5 -28t-79 -22t-97 -10zM367 1139q-50 0 -82.5 -41.5
t-38.5 -106.5l217 29q0 2 -0.5 6.5t-2.5 17t-5.5 23.5t-10.5 25t-16.5 23.5t-25.5 16.5t-35 7z" />
    <glyph glyph-name="f.sups" unicode="&#xe366;" horiz-adv-x="522" 
d="M31 1126v105l102 35v14q0 150 91 234.5t233 84.5q56 0 108.5 -13.5t76.5 -27.5l24 -14l-66 -145q-7 6 -19.5 14.5t-49.5 22.5t-72 14q-57 0 -92 -39t-35 -119v-30h176v-136h-176v-518h-199v518h-102z" />
    <glyph glyph-name="g.sups" unicode="&#xe367;" horiz-adv-x="755" 
d="M336 272q-125 0 -217 47.5t-92 124.5q0 93 149 174q-96 38 -96 99q0 67 106 131q-65 30 -100 84t-35 119q0 105 86 166t209 61q47 0 103 -13.5t90 -13.5h92q21 0 43 3.5t34 7.5l11 4l10 -136h-70q-26 0 -53 3q43 -47 43 -105q0 -93 -93 -151t-218 -58h-29
q-41 -26 -41 -41t30 -26.5t110 -32.5q30 -7 47 -12q40 -10 67 -18.5t65.5 -25.5t62 -36t40.5 -48.5t17 -64.5q0 -97 -108 -169.5t-263 -72.5zM203 471q0 -32 36.5 -50t96.5 -18q73 0 123.5 23.5t50.5 56.5q0 28 -44.5 46.5t-131.5 40.5q-22 5 -33 8q-98 -62 -98 -107z
M346 944q50 0 80.5 29.5t30.5 73.5q0 40 -28 72t-79 32t-80.5 -31.5t-29.5 -72.5t28 -72t78 -31z" />
    <glyph glyph-name="h.sups" unicode="&#xe368;" horiz-adv-x="794" 
d="M510 608v385q0 67 -13.5 97t-43.5 30q-66 0 -164 -98v-414h-199v957h199v-396q103 111 231 111q90 0 139.5 -51t49.5 -154v-467h-199z" />
    <glyph glyph-name="i.sups" unicode="&#xe369;" horiz-adv-x="380" 
d="M193 1413q-48 0 -80.5 33t-32.5 82q0 42 33 73t80 31q43 0 75.5 -31.5t32.5 -72.5q0 -49 -32 -82t-76 -33zM90 608v654h199v-654h-199z" />
    <glyph glyph-name="j.sups" unicode="&#xe36a;" horiz-adv-x="380" 
d="M193 1413q-48 0 -80.5 33t-32.5 82q0 42 33 73t80 31q43 0 75.5 -31.5t32.5 -72.5q0 -49 -32 -82t-76 -33zM-31 266l-53 156q84 12 129 55.5t45 153.5v631h201v-623q0 -331 -322 -373z" />
    <glyph glyph-name="k.sups" unicode="&#xe36b;" horiz-adv-x="778" 
d="M528 608l-217 295h-20v-295h-201v957h201v-523h24l197 220h248l-273 -285l287 -369h-246z" />
    <glyph glyph-name="l.sups" unicode="&#xe36c;" horiz-adv-x="380" 
d="M90 608v957h199v-957h-199z" />
    <glyph glyph-name="m.sups" unicode="&#xe36d;" horiz-adv-x="1196" 
d="M90 608v654h193v-101q105 117 229 117q139 0 176 -121q105 121 234 121q90 0 139 -51t49 -154v-465h-199v383q0 67 -13.5 97t-43.5 30q-58 0 -156 -98v-412h-198v383q0 67 -13 97t-43 30q-61 0 -155 -98v-412h-199z" />
    <glyph glyph-name="o.sups" unicode="&#xe36e;" horiz-adv-x="819" 
d="M408 592q-116 0 -200.5 50t-123.5 125.5t-39 164.5q0 64 21 123.5t63.5 110.5t116 81.5t168.5 30.5q87 0 157 -28t113.5 -75t66.5 -105t23 -122q0 -63 -21 -123t-62.5 -113.5t-115 -86.5t-167.5 -33zM412 731q67 0 111 56t44 143q0 85 -39.5 146t-117.5 61
q-68 0 -113 -54.5t-45 -136.5q0 -91 41 -153t119 -62z" />
    <glyph glyph-name="p.sups" unicode="&#xe36f;" horiz-adv-x="796" 
d="M90 285v977h182v-93q60 111 189 111t206.5 -93.5t77.5 -230.5q0 -96 -37 -177t-115.5 -134t-184.5 -53q-75 0 -119 20v-327h-199zM426 1130q-42 0 -78.5 -25.5t-58.5 -57.5v-256q0 -28 26 -44t72 -16q68 0 110 56t42 157q0 87 -30.5 136.5t-82.5 49.5z" />
    <glyph glyph-name="q.sups" unicode="&#xe370;" horiz-adv-x="786" 
d="M498 283v356q-60 -49 -152 -49q-143 0 -221 90.5t-78 226.5q0 156 99 263.5t280 107.5q52 0 119.5 -9t108.5 -19l42 -9v-958h-198zM381 735q53 0 117 41v352q-37 15 -72 15q-78 0 -126 -58.5t-48 -162.5q0 -86 35 -136.5t94 -50.5z" />
    <glyph glyph-name="r.sups" unicode="&#xe371;" horiz-adv-x="538" 
d="M90 608v654h193v-107q83 123 196 123q16 0 30 -2.5t20 -5.5l6 -2l-29 -178q-33 12 -62 12q-78 0 -153 -94v-400h-201z" />
    <glyph glyph-name="s.sups" unicode="&#xe372;" horiz-adv-x="620" 
d="M285 592q-64 0 -123 14t-86 28l-27 15l37 164q3 -3 9 -8.5t26.5 -19t42 -23.5t54 -18.5t65.5 -8.5q43 0 65.5 14.5t22.5 34.5q0 22 -31.5 40.5t-76 37t-89.5 42t-76.5 66.5t-31.5 101q0 86 70 146.5t214 60.5q54 0 104 -9t74 -19l23 -9l-35 -162q-9 6 -24 15.5t-60 25
t-88 15.5q-40 0 -61 -12.5t-21 -32.5q0 -18 22.5 -34.5t57 -28.5t74 -31.5t74 -41.5t57 -61t22.5 -88q0 -92 -76 -152.5t-208 -60.5z" />
    <glyph glyph-name="t.sups" unicode="&#xe373;" horiz-adv-x="593" 
d="M344 592q-100 0 -158.5 52t-58.5 151v331h-100v105l106 35v153l195 35v-192h198v-136h-198v-282q0 -99 57 -99q24 0 55.5 14.5t50.5 28.5l19 15l59 -139q-11 -8 -30.5 -20t-78.5 -32t-116 -20z" />
    <glyph glyph-name="u.sups" unicode="&#xe374;" horiz-adv-x="794" 
d="M276 592q-87 0 -138.5 48t-51.5 148v474h201v-383q0 -65 12 -96t47 -31q61 0 152 79v431h200v-453q0 -36 7 -85.5t15 -81.5l7 -32l-195 -14q-12 55 -18 102q-106 -106 -238 -106z" />
    <glyph glyph-name="v.sups" unicode="&#xe375;" horiz-adv-x="684" 
d="M244 602l-246 660h209l133 -418l145 418h203l-262 -660h-182z" />
    <glyph glyph-name="w.sups" unicode="&#xe376;" horiz-adv-x="1112" 
d="M225 602l-211 660h203l119 -437l135 437h174l137 -433l117 433h199l-211 -660h-195l-135 397l-137 -397h-195z" />
    <glyph glyph-name="x.sups" unicode="&#xe377;" horiz-adv-x="712" 
d="M18 608l232 328l-230 326h228l114 -177l117 177h215l-233 -326l235 -328h-223l-121 178l-119 -178h-215z" />
    <glyph glyph-name="y.sups" unicode="&#xe378;" horiz-adv-x="679" 
d="M45 266l-53 154q81 9 143.5 50t89.5 99l21 49l-252 644h205l145 -408l141 408h197l-270 -703q-46 -115 -141 -198.5t-226 -94.5z" />
    <glyph glyph-name="z.sups" unicode="&#xe379;" horiz-adv-x="671" 
d="M53 608v109l295 401h-282v144h540v-109l-299 -401h309l2 -144h-565z" />
    <glyph glyph-name="egrave.sups" unicode="&#xe37a;" horiz-adv-x="724" 
d="M395 592q-164 0 -256 98t-92 240q0 146 93.5 247t242.5 101q131 0 209.5 -85t79.5 -245l-99 -26l-321 -41q18 -68 62 -107t112 -39q53 0 104.5 22.5t77.5 44.5l25 23l47 -141q-4 -4 -12.5 -10t-37 -22t-59.5 -28t-79 -22t-97 -10zM367 1139q-50 0 -82.5 -41.5
t-38.5 -106.5l217 29q0 2 -0.5 6.5t-2.5 17t-5.5 23.5t-10.5 25t-16.5 23.5t-25.5 16.5t-35 7zM158 1456l57 152l352 -156l-41 -111z" />
    <glyph glyph-name="ampersand.001" unicode="&#xe37b;" horiz-adv-x="1292" 
d="M70 342q0 67 21.5 124.5t63 103t86.5 79.5t105 68q-106 188 -106 330q0 65 22.5 124.5t66.5 109.5t120.5 80t175.5 30q170 0 266 -87t96 -231q0 -74 -24.5 -135.5t-71.5 -110t-96 -82.5t-117 -71q54 -72 72 -92q97 -121 222.5 -249.5t260 -245.5t267 -198t226.5 -94
l-102 -182q-97 4 -240.5 82.5t-294.5 200.5t-300 270.5t-267 296.5q-55 69 -67 88q-146 -92 -146 -199q0 -83 68.5 -129.5t167.5 -46.5q24 0 46.5 3t32.5 6l11 3l41 -200l-6 -2q-6 -1 -17 -2.5t-25 -3.5t-34 -3.5t-41 -1.5q-68 0 -134 12t-130 40t-112 69t-77.5 104.5
t-29.5 141.5zM502 1049q0 -88 69 -211q92 51 141.5 102.5t49.5 120.5q0 56 -34.5 92.5t-96.5 36.5q-64 0 -96.5 -40.5t-32.5 -100.5z" />
    <glyph glyph-name="exclamdown.uc" unicode="&#xe441;" horiz-adv-x="581" 
d="M389 905l43 -930h-293l47 930h203zM451 1235q0 -66 -46.5 -113t-111.5 -47q-66 0 -112 47t-46 113q0 63 46.5 109.5t111.5 46.5q64 0 111 -46.5t47 -109.5z" />
    <glyph glyph-name="questiondown.uc" unicode="&#xe444;" horiz-adv-x="751" 
d="M563 905q4 -24 4 -47q0 -67 -24 -131t-57.5 -112t-67.5 -89.5t-58 -79t-24 -65.5q0 -33 36.5 -71t88 -68.5t103 -56.5t88.5 -40l36 -14l-57 -227q-12 3 -33 9.5t-81 29t-114.5 47.5t-121 64.5t-114.5 81.5t-81 98t-33 114q0 46 22.5 92.5t56 84t73 82.5t73 86.5t56 97.5
t22.5 114h207zM612 1235q0 -66 -46 -113t-109 -47q-66 0 -113 47t-47 113q0 63 47 109.5t113 46.5q63 0 109 -46.5t46 -109.5z" />
    <glyph glyph-name="guillemotleft.uc" unicode="&#xe451;" horiz-adv-x="1058" 
d="M432 678v8q30 24 203 218q108 122 186 210l142 -41l-293 -391q13 -19 293 -391l-142 -41q-89 98 -164.5 182t-107.5 120.5t-58.5 66t-36.5 39.5t-22 20zM420 250q-89 98 -164.5 182t-107.5 120.5t-58.5 66t-36.5 39.5t-22 20v8q30 24 203 218q108 122 186 210l141 -41
l-293 -391q13 -19 293 -391z" />
    <glyph glyph-name="guillemotright.uc" unicode="&#xe452;" horiz-adv-x="1058" 
d="M496 291l292 391q-12 15 -292 391l141 41q341 -383 357 -399q15 -15 32 -29v-8q-12 -10 -22 -20t-36.5 -39.5t-58.5 -66t-107.5 -120.5t-164.5 -182zM94 291l295 391q-13 15 -295 391l142 41q341 -383 357 -399q15 -15 32 -29v-8q-12 -10 -22 -20t-36.5 -39.5t-58.5 -66
t-107.5 -120.5t-164.5 -182z" />
    <glyph glyph-name="guilsinglleft.uc" unicode="&#xe453;" horiz-adv-x="657" 
d="M422 250q-89 98 -164.5 182t-107.5 120.5t-58.5 66t-36.5 39.5t-22 20v8q30 24 203 218q108 122 186 210l141 -41l-293 -391q13 -19 293 -391z" />
    <glyph glyph-name="guilsinglright.uc" unicode="&#xe454;" horiz-adv-x="657" 
d="M94 291l295 391q-13 15 -295 391l142 41q341 -383 357 -399q15 -15 32 -29v-8q-12 -10 -22 -20t-36.5 -39.5t-58.5 -66t-107.5 -120.5t-164.5 -182z" />
    <glyph glyph-name="braceleft.uc" unicode="&#xe459;" horiz-adv-x="712" 
d="M254 20q0 205 -10 288q-35 310 -221 315v141q34 1 63 11.5t50.5 28.5t39.5 42.5t29.5 54t21 63.5t14 69.5t8 72t4 72.5t1.5 70.5t0 64.5v33q0 112 58 187t153.5 107.5t224.5 32.5v-135q-60 -5 -101 -13.5t-69.5 -26t-45 -37t-25 -56t-11 -72.5t-2.5 -96q0 -459 -213 -541
v-4q43 -17 78.5 -53.5t67 -100.5t49.5 -168.5t18 -240.5q0 -51 2 -83t7 -65.5t16.5 -53.5t29.5 -39t45.5 -29.5t65 -18.5t88.5 -12v-135q-436 0 -436 327z" />
    <glyph glyph-name="slash.uc" unicode="&#xe461;" horiz-adv-x="724" 
d="M-61 -201l682 1768h172l-680 -1768h-174z" />
    <glyph glyph-name="backslash.uc" unicode="&#xe462;" horiz-adv-x="733" 
d="M616 -201l-679 1768h178l682 -1768h-181z" />
    <glyph glyph-name="bar.uc" unicode="&#xe463;" horiz-adv-x="479" 
d="M150 -315v1994h184v-1994h-184z" />
    <glyph glyph-name="slash.smcp" unicode="&#xe467;" horiz-adv-x="733" 
d="M-68 -328l619 1602h180l-616 -1602h-183z" />
    <glyph glyph-name="backslash.smcp" unicode="&#xe468;" horiz-adv-x="733" 
d="M616 -328l-614 1602h180l617 -1602h-183z" />
    <glyph glyph-name="bar.smcp" unicode="&#xe469;" horiz-adv-x="499" 
d="M158 -307v1603h184v-1603h-184z" />
    <glyph glyph-name="hyphen.uc" unicode="&#xe482;" horiz-adv-x="829" 
d="M143 600v164h543v-164h-543z" />
    <glyph glyph-name="endash.uc" unicode="&#xe484;" horiz-adv-x="1128" 
d="M143 600v166h840v-166h-840z" />
    <glyph glyph-name="emdash.uc" unicode="&#xe486;" horiz-adv-x="1927" 
d="M143 600v166h1639v-166h-1639z" />
    <glyph glyph-name="parenleft.uc" unicode="&#xe491;" horiz-adv-x="630" 
d="M90 713q0 110 17.5 218t45.5 193t61.5 162t67 132t61.5 96t45 61l18 20l178 -59q-6 -7 -17 -20t-41.5 -57.5t-58.5 -92.5t-62.5 -123.5t-59 -152.5t-41.5 -177t-17 -200q0 -110 17 -217.5t43.5 -192t59 -161t65.5 -131t59.5 -95t43.5 -60.5l17 -20l-176 -67
q-7 8 -18.5 22t-45.5 63.5t-65 103.5t-68.5 139.5t-64.5 174.5t-45.5 206t-18.5 235z" />
    <glyph glyph-name="parenright.uc" unicode="&#xe492;" horiz-adv-x="628" 
d="M37 -164q12 14 33 40t73.5 113.5t92.5 183t73 243t33 297.5q0 137 -30.5 272t-74 230t-87.5 170.5t-74 112.5l-31 38l178 59q7 -7 18 -20.5t44 -60t63 -97t66.5 -130.5t62.5 -163.5t44 -192t18 -218.5q0 -118 -18 -234t-46.5 -207t-63.5 -173.5t-70 -141t-63.5 -102
t-46.5 -65.5l-18 -21z" />
    <glyph glyph-name="bracketleft.uc" unicode="&#xe493;" horiz-adv-x="591" 
d="M152 -168v1698h413v-144h-231v-1409h231v-145h-413z" />
    <glyph glyph-name="bracketright.uc" unicode="&#xe494;" horiz-adv-x="587" 
d="M23 -43h231v1448h-231v125h413v-1698h-413v125z" />
    <glyph glyph-name="braceright.uc" unicode="&#xe496;" horiz-adv-x="712" 
d="M274 129q0 136 18 240.5t49.5 168.5t67 100.5t78.5 53.5v4q-213 82 -213 541q0 60 -2.5 96t-11 72.5t-25 56t-45 37t-69.5 26t-101 13.5v135q130 0 225.5 -32.5t153.5 -107.5t58 -187q0 -199 9 -278q36 -299 222 -304v-141q-34 -1 -63 -12t-50.5 -30t-39.5 -45.5
t-29.5 -57.5t-21 -66.5t-14 -72.5t-8 -75t-4 -75t-1.5 -71.5t0 -65.5v-32q0 -327 -437 -327v135q51 4 88.5 12t65 18.5t45.5 29.5t29.5 39t16.5 53.5t7 65.5t2 83z" />
    <glyph glyph-name="zero.zero" unicode="&#xe515;" horiz-adv-x="1146" 
d="M84 475q0 98 31.5 189.5t91.5 166.5t157.5 120.5t217.5 45.5q115 0 208.5 -41t152 -110t89.5 -155t31 -181q0 -78 -19 -154t-59.5 -145t-98 -121.5t-140 -83.5t-179.5 -31q-115 0 -208.5 42.5t-152.5 114t-90.5 160t-31.5 183.5zM324 481q0 -60 13.5 -112.5t41.5 -96.5
t78 -70t116 -26q68 0 118.5 26t78.5 70.5t41.5 97t13.5 113.5t-13.5 115t-42 100t-78.5 72.5t-116 26.5q-68 0 -118 -27t-78 -73t-41.5 -100t-13.5 -116zM463 485q0 44 33 77.5t77 33.5t77.5 -33.5t33.5 -77.5t-33.5 -77t-77.5 -33t-77 33t-33 77z" />
    <glyph glyph-name="four.pnum" unicode="&#xe529;" horiz-adv-x="1116" 
d="M43 336l-10 168l555 868h286v-833h164v-203h-164v-336h-258v336h-573zM285 539h331v526z" />
    <glyph glyph-name="zero.tnum_zero" unicode="&#xe530;" 
d="M528 -25q-98 0 -179 38t-135.5 102.5t-91.5 152t-54 184.5t-17 203q0 112 16.5 215.5t54 199.5t93 166.5t139 112.5t185.5 42q99 0 179.5 -37t135 -100.5t91 -150t53 -182t16.5 -200.5q0 -94 -12 -183t-36 -173.5t-64 -154.5t-92.5 -123t-124.5 -82.5t-157 -29.5z
M532 199q48 0 85.5 28t60.5 74t38 111t21 131.5t6 142.5t-5.5 141.5t-20 129.5t-37.5 109t-60 73t-85 28q-60 0 -103.5 -40.5t-66.5 -111.5t-33 -151.5t-10 -175.5q0 -96 10 -178t33 -154.5t65.5 -114.5t101.5 -42zM530 569q-44 0 -77 33.5t-33 77.5t33 77.5t77 33.5
t77.5 -33.5t33.5 -77.5t-33.5 -77.5t-77.5 -33.5z" />
    <glyph glyph-name="at.uc" unicode="&#xe531;" horiz-adv-x="1726" 
d="M63 616q0 164 63 315t174 266t273.5 184t350.5 69q219 0 391.5 -89.5t267 -244.5t94.5 -346q0 -138 -52.5 -257t-164.5 -191q-48 -32 -104 -50.5t-152 -39.5t-147 -35q-37 143 -39 145q-30 -59 -102.5 -102t-151.5 -43q-131 0 -220 107t-89 284q0 122 47.5 224.5
t127.5 170.5t184 105.5t218 37.5q36 0 79.5 -4t68.5 -8l26 -4v-535q0 -40 4 -83t8 -66l5 -23q129 7 195.5 105.5t66.5 243.5q0 111 -38 209t-108 171.5t-177 116.5t-236 43q-148 0 -275 -56t-212 -149t-133 -214.5t-48 -251.5t48 -243t126 -189.5t176 -122t199 -50.5
l-31 -166q-199 12 -361.5 114t-257 273.5t-94.5 378.5zM809 385q89 0 158 109v458q-117 0 -194 -104.5t-77 -249.5q0 -87 29 -150t84 -63z" />
    <glyph glyph-name="zero.pnum" unicode="&#xe534;" horiz-adv-x="1146" 
d="M567 -25q-98 0 -179 38t-135.5 102.5t-91.5 152t-54 184.5t-17 203q0 112 16.5 215.5t54 199.5t93 166.5t139 112.5t185.5 42q99 0 179.5 -37t135 -100.5t91 -150t53 -182t16.5 -200.5q0 -94 -12 -183t-36 -173.5t-64 -154.5t-92.5 -123t-124.5 -82.5t-157 -29.5z
M571 199q48 0 85.5 28t60.5 74t38 111t21 131.5t6 142.5q0 96 -10 176t-32 151.5t-64.5 112.5t-102.5 41t-103.5 -40.5t-66.5 -111.5t-33 -151.5t-10 -175.5q0 -96 10.5 -178t33 -154.5t65.5 -114.5t102 -42z" />
    <glyph glyph-name="zero.pnum_zero" unicode="&#xe535;" horiz-adv-x="1146" 
d="M567 -25q-98 0 -179 38t-135.5 102.5t-91.5 152t-54 184.5t-17 203q0 112 16.5 215.5t54 199.5t93 166.5t139 112.5t185.5 42q99 0 179.5 -37t135 -100.5t91 -150t53 -182t16.5 -200.5q0 -94 -12 -183t-36 -173.5t-64 -154.5t-92.5 -123t-124.5 -82.5t-157 -29.5z
M571 199q48 0 85.5 28t60.5 74t38 111t21 131.5t6 142.5q0 96 -10 176t-32 151.5t-64.5 112.5t-102.5 41t-103.5 -40.5t-66.5 -111.5t-33 -151.5t-10 -175.5q0 -96 10.5 -178t33 -154.5t65.5 -114.5t102 -42zM569 569q-44 0 -77 33.5t-33 77.5t33 77.5t77 33.5t77.5 -33.5
t33.5 -77.5t-33.5 -77.5t-77.5 -33.5z" />
    <glyph glyph-name="one.pnum" unicode="&#xe536;" horiz-adv-x="929" 
d="M84 0v213h281v932h-256v221h522v-1153h268v-213h-815z" />
    <glyph glyph-name="two.pnum" unicode="&#xe537;" horiz-adv-x="1077" 
d="M84 0l-10 156q34 34 99 96.5t98.5 95.5t88 88t84 90t70 84.5t61.5 87.5t42.5 83t30.5 88t9 87q0 102 -52 153.5t-136 51.5q-64 0 -131.5 -30t-103.5 -59l-35 -30l-129 166l19.5 19.5t55.5 44t90 55.5t120 44t147 20q85 0 160.5 -24.5t136 -72.5t96 -126.5t35.5 -178.5
q0 -65 -15 -129.5t-36.5 -118t-62.5 -115t-74 -104.5t-91.5 -105t-94.5 -97t-103 -99h546v-221h-915z" />
    <glyph glyph-name="three.pnum" unicode="&#xe538;" horiz-adv-x="1013" 
d="M55 90l107 197q5 -4 13 -9.5t35 -21t55.5 -27t71 -21t83.5 -9.5q112 0 171.5 56t59.5 146q0 87 -78.5 130.5t-189.5 43.5q-2 0 -107 -6v224q119 3 225.5 73t106.5 162q0 65 -43 101t-121 36q-62 0 -127.5 -25t-100.5 -50l-34 -25l-100 186q7 6 20.5 15.5t56 33.5t87 42.5
t110 33.5t129.5 15q176 0 284 -97t108 -233q0 -197 -248 -326q139 -36 217 -127.5t78 -212.5q0 -172 -141.5 -296t-354.5 -124q-62 0 -123.5 12t-104.5 28.5t-77 33.5t-51 29z" />
    <glyph glyph-name="five.pnum" unicode="&#xe53a;" horiz-adv-x="987" 
d="M61 86l97 203q13 -10 37 -25t92 -40t131 -25q109 0 167 58t58 146q0 116 -118.5 189t-370.5 119v655h677v-221h-432v-250q516 -141 516 -487q0 -130 -70 -230t-182 -151.5t-243 -51.5q-60 0 -118.5 11.5t-100 27.5t-74.5 32.5t-49 27.5z" />
    <glyph glyph-name="six.pnum" unicode="&#xe53b;" horiz-adv-x="1130" 
d="M588 -25q-100 0 -183.5 31.5t-142 86.5t-99 130.5t-60 162t-19.5 181.5q0 124 31.5 240t99 220t164 182.5t236 127t305.5 54.5l18 -224q-438 -19 -555 -348q106 86 244 86q133 0 232 -61.5t148.5 -160.5t49.5 -220q0 -95 -30 -181.5t-86.5 -155.5t-148 -110t-204.5 -41z
M561 682q-74 0 -129.5 -30.5t-85.5 -63.5q0 -114 26 -200t83 -137.5t139 -51.5q92 0 143 65.5t51 177.5q0 33 -4.5 63t-19.5 63.5t-38.5 57.5t-66 40t-98.5 16z" />
    <glyph glyph-name="seven.pnum" unicode="&#xe53c;" horiz-adv-x="952" 
d="M106 27q292 531 521 1106h-568v233h873v-147q-262 -656 -572 -1244z" />
    <glyph glyph-name="eight.pnum" unicode="&#xe53d;" horiz-adv-x="1110" 
d="M86 326q0 63 22 119t63.5 102.5t85.5 81.5t105 73q-94 74 -147 154t-53 180q0 150 115.5 252.5t295.5 102.5q107 0 196.5 -37.5t145.5 -113.5t56 -177q0 -183 -209 -336q57 -37 97 -69t78.5 -76t58.5 -96.5t20 -112.5q0 -76 -35 -148t-96 -127.5t-150.5 -89t-191.5 -33.5
q-120 0 -222 38t-168.5 119.5t-66.5 193.5zM754 358q0 59 -54 110t-163 120q-105 -63 -161.5 -119.5t-56.5 -120.5q0 -71 57.5 -116.5t153.5 -45.5q93 0 158.5 52t65.5 120zM428 1051q0 -62 41 -112t117 -99q71 47 110 96t39 108q0 62 -42.5 100t-112.5 38q-73 0 -112.5 -37
t-39.5 -94z" />
    <glyph glyph-name="nine.pnum" unicode="&#xe53e;" horiz-adv-x="1120" 
d="M209 -25l-19 224q120 4 215.5 33.5t160.5 79.5t107 111.5t66 137.5q-102 -90 -247 -90q-130 0 -227 60.5t-145 157.5t-48 214q0 95 29.5 181.5t84.5 155.5t144.5 110t199.5 41q100 0 183.5 -31.5t142 -86.5t99 -130.5t60 -162t19.5 -181.5q0 -124 -31 -240t-97.5 -220
t-161.5 -182.5t-232.5 -127t-302.5 -54.5zM557 694q121 0 215 94q-2 170 -64.5 274.5t-183.5 104.5q-87 0 -135.5 -65.5t-48.5 -177.5q0 -32 4.5 -60.5t18.5 -60.5t37 -55t63.5 -38.5t93.5 -15.5z" />
    <glyph glyph-name="zero.tnum" unicode="&#xe53f;" 
d="M528 -25q-98 0 -179 38t-135.5 102.5t-91.5 152t-54 184.5t-17 203q0 112 16.5 215.5t54 199.5t93 166.5t139 112.5t185.5 42q99 0 179.5 -37t135 -100.5t91 -150t53 -182t16.5 -200.5q0 -94 -12 -183t-36 -173.5t-64 -154.5t-92.5 -123t-124.5 -82.5t-157 -29.5z
M532 199q48 0 85.5 28t60.5 74t38 111t21 131.5t6 142.5t-5.5 141.5t-20 129.5t-37.5 109t-60 73t-85 28q-60 0 -103.5 -40.5t-66.5 -111.5t-33 -151.5t-10 -175.5q0 -96 10 -178t33 -154.5t65.5 -114.5t101.5 -42z" />
    <glyph glyph-name="one.tnum" unicode="&#xe541;" 
d="M143 0v213h281v932h-256v221h522v-1153h268v-213h-815z" />
    <glyph glyph-name="two.tnum" unicode="&#xe542;" 
d="M80 0l-10 156q34 34 99 96.5t98.5 95.5t88 88t84 90t70 84.5t61.5 87.5t42.5 83t30.5 88t9 87q0 102 -52 153.5t-136 51.5q-64 0 -131.5 -30t-103.5 -59l-35 -30l-129 166l19.5 19.5t55.5 44t90 55.5t120 44t147 20q85 0 160.5 -24.5t136 -72.5t96 -126.5t35.5 -178.5
q0 -65 -15 -129.5t-36.5 -118t-62.5 -115t-74 -104.5t-91.5 -105t-94.5 -97t-103 -99h546v-221h-915z" />
    <glyph glyph-name="three.tnum" unicode="&#xe543;" 
d="M80 90l106 197q5 -4 13 -9.5t35 -21t55.5 -27t71 -21t83.5 -9.5q112 0 172 56t60 146q0 87 -78.5 130.5t-189.5 43.5q-2 0 -107 -6v224q119 3 225.5 73t106.5 162q0 65 -43 101t-121 36q-62 0 -127.5 -25t-99.5 -50l-35 -25l-101 186q7 6 20.5 15.5t56 33.5t87.5 42.5
t110.5 33.5t129.5 15q175 0 283 -97t108 -233q0 -197 -248 -326q139 -36 217 -127.5t78 -212.5q0 -172 -141 -296t-354 -124q-62 0 -123.5 12t-104.5 28.5t-77 33.5t-51 29z" />
    <glyph glyph-name="four.tnum" unicode="&#xe544;" 
d="M23 336l-11 168l555 868h287v-833h164v-203h-164v-336h-258v336h-573zM264 539h332v526z" />
    <glyph glyph-name="five.tnum" unicode="&#xe545;" 
d="M98 86l97 203q13 -10 37 -25t92 -40t131 -25q109 0 167 58t58 146q0 115 -118.5 188.5t-371.5 119.5v655h678v-221h-432v-250q516 -141 516 -487q0 -130 -70 -230t-182 -151.5t-243 -51.5q-60 0 -118.5 11.5t-100 27.5t-74.5 32.5t-50 27.5z" />
    <glyph glyph-name="six.tnum" unicode="&#xe546;" 
d="M553 -25q-100 0 -183.5 31.5t-142 86.5t-99 130.5t-60 162t-19.5 181.5q0 124 31.5 240t99 220t164 182.5t236 127t305.5 54.5l18 -224q-438 -19 -555 -348q106 86 244 86q133 0 232 -61.5t148.5 -160.5t49.5 -220q0 -95 -30 -181.5t-86.5 -155.5t-148 -110t-204.5 -41z
M526 682q-74 0 -129.5 -30.5t-85.5 -63.5q0 -114 26 -200t83 -137.5t139 -51.5q92 0 143.5 65.5t51.5 177.5q0 33 -4.5 63t-19.5 63.5t-39 57.5t-66.5 40t-98.5 16z" />
    <glyph glyph-name="seven.tnum" unicode="&#xe547;" 
d="M158 27q289 524 520 1106h-567v233h872v-147q-265 -664 -571 -1244z" />
    <glyph glyph-name="eight.tnum" unicode="&#xe548;" 
d="M66 326q0 63 22 119t63.5 102.5t85.5 81.5t105 73q-94 74 -147.5 154t-53.5 180q0 150 116 252.5t296 102.5q107 0 196.5 -37.5t145 -113.5t55.5 -177q0 -183 -209 -336q57 -37 97 -69t78.5 -76t58.5 -96.5t20 -112.5q0 -76 -35 -148t-96 -127.5t-150.5 -89t-191.5 -33.5
q-120 0 -221.5 38t-168 119.5t-66.5 193.5zM733 358q0 59 -54 110t-163 120q-104 -63 -160.5 -119t-56.5 -121q0 -71 57.5 -116.5t153.5 -45.5q93 0 158 52t65 120zM408 1051q0 -62 40.5 -112t116.5 -99q150 99 150 204q0 62 -43 100t-113 38q-73 0 -112 -37t-39 -94z" />
    <glyph glyph-name="nine.tnum" unicode="&#xe549;" 
d="M184 -25l-18 224q120 4 215.5 33.5t160.5 79.5t107 111.5t66 137.5q-102 -90 -248 -90q-130 0 -227 60.5t-145 157.5t-48 214q0 95 29.5 181.5t85 155.5t145 110t199.5 41q100 0 183.5 -31.5t142 -86.5t99 -130.5t60 -162t19.5 -181.5q0 -124 -31 -240t-97.5 -220
t-162 -182.5t-233 -127t-302.5 -54.5zM532 694q122 0 216 94q-2 170 -64.5 274.5t-183.5 104.5q-87 0 -136 -66t-49 -177q0 -32 4.5 -60.5t18.5 -60.5t37 -55t63.5 -38.5t93.5 -15.5z" />
    <glyph glyph-name="zero.onum_tab" unicode="&#xe555;" 
d="M45 475q0 98 31.5 189.5t91.5 166.5t157.5 120.5t217.5 45.5q115 0 208.5 -41t152 -110t89.5 -155t31 -181q0 -78 -19 -154t-59.5 -145t-98 -121.5t-140 -83.5t-179.5 -31q-115 0 -208.5 42.5t-152.5 114t-90.5 160t-31.5 183.5zM285 481q0 -60 13.5 -112.5t42 -96.5
t78.5 -70t116 -26q68 0 118 26t78.5 70.5t41.5 97t13 113.5t-13.5 115t-41.5 100t-78 72.5t-116 26.5q-68 0 -118.5 -27t-78.5 -73t-41.5 -100t-13.5 -116z" />
    <glyph glyph-name="zero.onum_tab_zero" unicode="&#xe556;" 
d="M45 475q0 98 31.5 189.5t91.5 166.5t157.5 120.5t217.5 45.5q115 0 208.5 -41t152 -110t89.5 -155t31 -181q0 -78 -19 -154t-59.5 -145t-98 -121.5t-140 -83.5t-179.5 -31q-115 0 -208.5 42.5t-152.5 114t-90.5 160t-31.5 183.5zM285 481q0 -60 13.5 -112.5t42 -96.5
t78.5 -70t116 -26q68 0 118 26t78.5 70.5t41.5 97t13 113.5t-13.5 115t-41.5 100t-78 72.5t-116 26.5q-68 0 -118.5 -27t-78.5 -73t-41.5 -100t-13.5 -116zM424 485q0 44 33.5 77.5t77.5 33.5t77 -33.5t33 -77.5t-33 -77t-77 -33t-77.5 33t-33.5 77z" />
    <glyph glyph-name="one.onum_tab" unicode="&#xe557;" 
d="M195 0v199h245v567h-237v207h487v-774h225v-199h-720z" />
    <glyph glyph-name="two.onum_tab" unicode="&#xe558;" 
d="M141 0v143q18 13 48.5 35t108 86.5t136.5 124t107.5 133t48.5 127.5q0 60 -40 98.5t-106 38.5q-47 0 -99 -19t-81 -37l-28 -19l-101 157q6 5 17.5 14t48.5 31t77 39t99.5 31t118.5 14q158 0 257 -88.5t99 -224.5q0 -68 -29.5 -135.5t-86 -132.5t-106.5 -112t-124 -107
h432v-197h-797z" />
    <glyph glyph-name="three.onum_tab" unicode="&#xe559;" 
d="M147 -209q50 -4 72 -4q172 0 283.5 67.5t111.5 192.5q0 50 -27 87.5t-72 57t-94 28.5t-102 9h-43v189q70 4 141 38.5t119 93t48 122.5q0 54 -36.5 84t-94.5 30q-47 0 -99.5 -21t-81.5 -42l-28 -21l-113 164q6 5 18 14t51 31.5t79.5 40t101 31.5t119.5 14q148 0 247 -81
t99 -201q0 -112 -71.5 -197t-180.5 -143q134 -36 208.5 -126t74.5 -202q0 -137 -88 -241t-233.5 -156.5t-324.5 -52.5q-41 0 -61 2z" />
    <glyph glyph-name="four.onum_tab" unicode="&#xe55a;" 
d="M31 27v168l547 784h266v-764h182v-188h-182v-422h-248v422h-565zM276 215h320v483z" />
    <glyph glyph-name="five.onum_tab" unicode="&#xe55b;" 
d="M176 -207q58 -4 84 -4q104 0 183.5 24t131.5 83t52 147q0 44 -12 80t-33 62t-51.5 47t-63.5 35t-73 25t-77.5 19t-79.5 16q-25 5 -38 7v639h630v-197h-385v-280q73 -19 131.5 -40.5t119.5 -58t101.5 -81.5t66.5 -111.5t26 -147.5q0 -146 -82 -251t-222 -157t-321 -52
q-42 0 -65 2z" />
    <glyph glyph-name="six.onum_tab" unicode="&#xe55c;" 
d="M547 -25q-93 0 -171.5 31.5t-133.5 86.5t-93 130t-56.5 161.5t-18.5 180.5q0 124 31 240.5t96.5 220.5t157.5 183t223 127.5t286 54.5l17 -199q-123 -9 -218.5 -45t-157.5 -93.5t-100 -124.5t-57 -149q92 115 260 115q116 0 206 -60.5t136.5 -159.5t46.5 -216
q0 -92 -30 -178t-85.5 -154.5t-143.5 -110t-195 -41.5zM553 688q-121 0 -221 -100q0 -181 60 -296.5t171 -115.5q84 0 133 71.5t49 184.5q0 34 -4.5 66t-17.5 68t-33 62t-55.5 43t-81.5 17z" />
    <glyph glyph-name="seven.onum_tab" unicode="&#xe55d;" 
d="M152 -367q306 573 526 1119h-574v221h863v-150q-230 -579 -570 -1241z" />
    <glyph glyph-name="eight.onum_tab" unicode="&#xe55e;" 
d="M90 336q0 63 20.5 117.5t59 99.5t80 79t98.5 70q-91 74 -142.5 153t-51.5 179q0 152 111.5 254.5t287.5 102.5q162 0 274.5 -88.5t112.5 -241.5q0 -106 -55.5 -186t-153.5 -150q55 -36 93.5 -68t76 -75.5t57 -96t19.5 -112.5q0 -102 -55 -192.5t-159.5 -148t-234.5 -57.5
q-64 0 -126.5 14t-119 44t-99 72t-68 101.5t-25.5 129.5zM723 354q0 27 -12 53.5t-28.5 47t-48.5 47t-55.5 43t-66.5 45.5q-96 -62 -147.5 -117.5t-51.5 -124.5q0 -75 58.5 -126.5t138.5 -51.5q86 0 149.5 56t63.5 128zM408 1055q0 -64 40 -116t115 -103q72 50 112 101
t40 114q0 65 -43 105t-115 40t-110.5 -40t-38.5 -101z" />
    <glyph glyph-name="nine.onum_tab" unicode="&#xe55f;" 
d="M197 -209q125 9 221 45.5t157.5 95t98 126t55.5 149.5q-89 -119 -260 -119q-174 0 -281.5 124.5t-107.5 301.5q0 91 30.5 177t86 154.5t143.5 110t195 41.5q116 0 208 -48t149 -130.5t86.5 -187t29.5 -223.5q0 -122 -31 -237.5t-96.5 -218t-158 -180.5t-223.5 -126
t-286 -54zM530 295q122 0 220 98q-2 177 -62 290.5t-168 113.5q-86 0 -134 -71.5t-48 -184.5q0 -33 4 -63.5t17 -65t33.5 -59.5t56 -41.5t81.5 -16.5z" />
    <glyph glyph-name="braceleft.smcp" unicode="&#xf60c;" horiz-adv-x="733" 
d="M260 68q0 184 -55 276.5t-176 95.5v142q231 0 231 323q0 210 103.5 295.5t332.5 85.5v-135q-62 -5 -103.5 -12t-70 -26t-43.5 -34.5t-23 -55.5t-10 -68.5t-4 -94.5q-2 -89 -17.5 -150.5t-46 -99.5t-64.5 -58.5t-85 -37.5v-4q44 -19 72.5 -37t56.5 -48.5t44 -72t27 -104.5
t13 -148q2 -64 4 -92t10 -67.5t23 -55t43.5 -34.5t70 -27t103.5 -14v-136q-105 0 -180.5 15.5t-125 45.5t-78.5 79t-40.5 109.5t-11.5 144.5z" />
    <glyph glyph-name="braceright.smcp" unicode="&#xf60d;" horiz-adv-x="733" 
d="M35 -190q37 3 66.5 7.5t54 12t42.5 14t32 20t23 23t16 30t10.5 34.5t6 43t3.5 48.5t2 57.5q2 85 12.5 148t26.5 104.5t44.5 72t57 48.5t72.5 37v4q-52 17 -85.5 37.5t-64.5 58.5t-46.5 99.5t-16.5 150.5q-1 39 -2 59t-3.5 49.5t-6 43.5t-10.5 35t-16 30.5t-23 23
t-32 19.5t-42.5 13.5t-54 11t-66.5 6.5v135q229 0 333.5 -85.5t104.5 -295.5q0 -323 229 -323v-142q-119 -3 -174 -95.5t-55 -276.5q0 -106 -19 -175.5t-67.5 -121t-134.5 -74.5t-217 -23v136z" />
    <glyph glyph-name="bracketleft.smcp" unicode="&#xf60e;" horiz-adv-x="606" 
d="M158 -319v1603h409v-135h-231v-1333h231v-135h-409z" />
    <glyph glyph-name="bracketright.smcp" unicode="&#xf60f;" horiz-adv-x="606" 
d="M39 -184h231v1333h-231v135h410v-1603h-410v135z" />
    <glyph glyph-name="parenleft.smcp" unicode="&#xf618;" horiz-adv-x="622" 
d="M104 502q0 103 15.5 203t41 177.5t55.5 147t60.5 118t56 84.5t41.5 54l15 17l168 -46q-11 -12 -28.5 -34t-62 -96.5t-79 -156t-62.5 -208t-28 -256.5q0 -132 27.5 -263t67 -224t79 -167.5t67.5 -111.5l27 -37l-166 -53q-12 14 -32 39.5t-70.5 112t-89.5 179t-71 235
t-32 286.5z" />
    <glyph glyph-name="parenright.smcp" unicode="&#xf619;" horiz-adv-x="616" 
d="M53 -297q11 14 29 39t63.5 107.5t81 170.5t64 221t28.5 265q0 130 -26.5 255t-64.5 210.5t-76 153t-64 99.5l-27 33l166 46q12 -12 31 -35t68.5 -101t87.5 -164.5t69 -222.5t31 -278q0 -144 -30.5 -284.5t-74 -238.5t-87.5 -175.5t-74 -115.5l-31 -38z" />
    <glyph glyph-name="aringacute.smcp" unicode="&#xf625;" horiz-adv-x="1085" 
d="M23 0l370 946q-61 47 -61 133q0 66 52.5 114t154.5 48t154 -47.5t52 -114.5q0 -81 -57 -129l377 -950h-256l-72 197h-397l-72 -197h-245zM360 1270l-49 137l443 195l71 -189zM539 729l-127 -342h254zM539 989q43 0 68.5 25t25.5 63q0 32 -25 57t-69 25q-46 0 -69.5 -24.5
t-23.5 -57.5q0 -38 24.5 -63t68.5 -25z" />
    <glyph glyph-name="zero.dnom" unicode="&#xf655;" horiz-adv-x="796" 
d="M397 -14q-85 0 -149.5 34t-102 93t-55.5 130.5t-18 153.5q0 86 18 162.5t55.5 141.5t103.5 103t154 38q83 0 146.5 -34t100.5 -92t55 -128.5t18 -151.5q0 -69 -11 -132t-35.5 -121.5t-61.5 -101.5t-93 -69t-125 -26zM399 137q119 0 119 279q0 274 -117 274
q-125 0 -125 -272q0 -54 5.5 -100.5t19 -89t38.5 -67t60 -24.5z" />
    <glyph glyph-name="one.dnom" unicode="&#xf656;" horiz-adv-x="643" 
d="M63 0v141h189v545h-172v141h364v-686h172v-141h-553z" />
    <glyph glyph-name="two.dnom" unicode="&#xf657;" horiz-adv-x="716" 
d="M70 0l-15 113q23 22 82 77t86.5 81.5t72.5 74t66 79t38.5 70.5t17.5 72q0 52 -31 77.5t-84 25.5q-37 0 -74 -15.5t-55 -30.5l-18 -16l-99 121q4 5 12 12.5t34.5 27t57 34.5t78.5 27t99 12q124 0 200 -67.5t76 -180.5q0 -94 -63.5 -199t-214.5 -245h323v-150h-589z" />
    <glyph glyph-name="three.dnom" unicode="&#xf658;" horiz-adv-x="681" 
d="M295 -16q-43 0 -85 7.5t-71.5 19t-53 22.5t-35.5 19l-11 7l82 136q9 -6 24 -15t57.5 -24t80.5 -15q60 0 92.5 30t32.5 71q0 47 -45.5 69.5t-106.5 22.5h-70v149q70 2 127.5 38t57.5 91q0 68 -82 68q-35 0 -71 -12t-54 -24l-19 -11l-79 123q4 3 12.5 9t36 21t56.5 26
t73 20.5t88 9.5q113 0 179.5 -56t66.5 -139q0 -73 -49 -131t-115 -80q200 -43 200 -192q0 -106 -90 -183t-229 -77z" />
    <glyph glyph-name="four.dnom" unicode="&#xf659;" horiz-adv-x="753" 
d="M403 0v184h-358l-16 127l340 520h219v-503h114v-144h-114v-184h-185zM195 328h208v317z" />
    <glyph glyph-name="five.dnom" unicode="&#xf65a;" horiz-adv-x="675" 
d="M303 -14q-43 0 -84 7.5t-69.5 17.5t-50.5 20.5t-33 18.5l-11 7l70 142q9 -6 24.5 -16t59 -26t80.5 -16q60 0 94.5 30t34.5 71q0 129 -312 174v411h459v-149h-291v-127q152 -41 246 -116t94 -187q0 -120 -91 -191t-220 -71z" />
    <glyph glyph-name="six.dnom" unicode="&#xf65b;" horiz-adv-x="749" 
d="M379 -14q-82 0 -145.5 29t-102 79t-57.5 113.5t-19 136.5q0 76 19.5 146t62.5 133t106.5 110.5t156.5 77t206 33.5l12 -156q-128 -2 -225.5 -50.5t-134.5 -150.5q66 56 164 56q121 0 196.5 -75.5t75.5 -184.5q0 -124 -81 -210.5t-234 -86.5zM377 399q-67 0 -129 -45
q0 -217 131 -217q53 0 84 36t31 103q0 50 -26 86.5t-91 36.5z" />
    <glyph glyph-name="seven.dnom" unicode="&#xf65c;" horiz-adv-x="647" 
d="M268 -23l-188 39q198 371 319 654h-348v157h572l6 -90q-105 -249 -361 -760z" />
    <glyph glyph-name="eight.dnom" unicode="&#xf65d;" horiz-adv-x="743" 
d="M371 -14q-135 0 -219 61t-84 154q0 70 47.5 126t130.5 109q-75 55 -111.5 99t-36.5 104q0 89 78 146t201 57q118 0 193 -56t75 -147q0 -59 -37 -104.5t-110 -94.5q176 -115 176 -233q0 -92 -82 -156.5t-221 -64.5zM373 137q45 0 72.5 25t27.5 63q0 11 -2 21t-7.5 19.5
t-9.5 17t-13 16t-14 14t-16 13.5t-15 11t-15.5 10.5t-13.5 8.5q-21 -14 -33.5 -23.5t-30 -26.5t-26.5 -37t-9 -42q0 -41 29.5 -65.5t75.5 -24.5zM285 627q0 -50 92 -111l9 6q8 6 10 8t10.5 8.5t11.5 9.5t10 9.5t10 11t8 11.5t7 12.5t4 12t2 13.5q0 34 -25 53t-63 19
q-32 0 -59 -16.5t-27 -46.5z" />
    <glyph glyph-name="nine.dnom" unicode="&#xf65e;" horiz-adv-x="745" 
d="M145 -14l-12 155q277 4 348 195q-68 -45 -159 -45q-118 0 -193.5 74t-75.5 180q0 58 19.5 110.5t56.5 94.5t98 67t138 25q159 0 240 -102.5t81 -256.5q0 -76 -19.5 -145.5t-62 -132.5t-105 -109.5t-153 -76t-201.5 -33.5zM367 434q67 0 127 43q0 107 -34 160t-95 53
q-49 0 -81 -37t-32 -102q0 -47 26 -82t89 -35z" />
    <glyph glyph-name="zero.numr" unicode="&#xf661;" horiz-adv-x="796" 
d="M397 524q-85 0 -149.5 34t-102 93.5t-55.5 131t-18 153.5q0 86 18 162.5t55.5 141t103.5 102.5t154 38q83 0 146.5 -33.5t100.5 -91.5t55 -128.5t18 -151.5q0 -69 -11 -132t-35.5 -122t-61.5 -102t-93 -69t-125 -26zM399 676q119 0 119 278q0 275 -117 275
q-125 0 -125 -273q0 -54 5.5 -100.5t19 -88.5t38.5 -66.5t60 -24.5z" />
    <glyph glyph-name="one.numr" unicode="&#xf662;" horiz-adv-x="645" 
d="M63 539v141h189v545h-172v141h364v-686h172v-141h-553z" />
    <glyph glyph-name="two.numr" unicode="&#xf663;" horiz-adv-x="718" 
d="M70 539l-15 112q23 22 70.5 66t74 69.5t66 65t62 68t46 62.5t34 65t10.5 59q0 102 -115 102q-37 0 -74 -15t-55 -31l-18 -15l-99 121q4 5 12 12.5t34.5 26.5t57 34t78.5 27t99 12q124 0 200 -67t76 -180q0 -94 -64 -199.5t-214 -245.5h323v-149h-589z" />
    <glyph glyph-name="three.numr" unicode="&#xf664;" horiz-adv-x="681" 
d="M295 522q-68 0 -132 19t-94 38l-30 19l82 135q9 -6 24 -15t57.5 -23.5t80.5 -14.5q60 0 92.5 29.5t32.5 70.5q0 47 -45.5 69.5t-106.5 22.5h-70v150q70 2 127.5 38t57.5 91q0 68 -82 68q-35 0 -71 -12t-54 -24l-19 -12l-79 123q4 3 12.5 9t36 21t56.5 26t73 20.5t88 9.5
q113 0 179.5 -55.5t66.5 -138.5q0 -73 -49 -131t-115 -80q200 -43 200 -193q0 -106 -90 -183t-229 -77z" />
    <glyph glyph-name="four.numr" unicode="&#xf665;" horiz-adv-x="755" 
d="M406 539v184h-359l-16 127l340 520h219v-504h115v-143h-115v-184h-184zM197 866h209v318z" />
    <glyph glyph-name="five.numr" unicode="&#xf666;" horiz-adv-x="671" 
d="M301 524q-68 0 -130 18t-90 36l-28 18l70 141q9 -6 24.5 -15.5t59 -25.5t80.5 -16q60 0 94.5 29.5t34.5 70.5q0 129 -312 174v412h459v-149h-291v-127q152 -41 246 -116.5t94 -187.5q0 -120 -91 -191t-220 -71z" />
    <glyph glyph-name="six.numr" unicode="&#xf667;" horiz-adv-x="751" 
d="M381 524q-82 0 -146 29t-102 79.5t-57 114t-19 136.5q0 96 32 181t96.5 155.5t173 114t249.5 48.5l13 -155q-128 -2 -226 -50.5t-135 -150.5q65 55 164 55q121 0 196.5 -75.5t75.5 -184.5q0 -124 -81 -210.5t-234 -86.5zM379 938q-67 0 -129 -45q0 -217 131 -217
q53 0 84 36t31 103q0 50 -26 86.5t-91 36.5z" />
    <glyph glyph-name="seven.numr" unicode="&#xf668;" horiz-adv-x="647" 
d="M268 516l-188 39q201 375 319 653h-348v158h572l6 -90q-105 -249 -361 -760z" />
    <glyph glyph-name="eight.numr" unicode="&#xf669;" horiz-adv-x="743" 
d="M371 524q-135 0 -219 61t-84 154q0 70 47.5 126.5t130.5 109.5q-75 55 -111.5 99t-36.5 104q0 89 78 145.5t201 56.5q118 0 193 -55.5t75 -146.5q0 -59 -37 -104.5t-110 -94.5q176 -115 176 -234q0 -92 -82 -156.5t-221 -64.5zM373 676q45 0 72.5 25t27.5 63q0 11 -2 21
t-7.5 19.5t-9.5 17t-13 16t-14 14t-16 13.5t-15 11t-15.5 10.5t-13.5 8.5q-21 -14 -33.5 -23.5t-30 -26.5t-26.5 -37t-9 -42q0 -41 29.5 -65.5t75.5 -24.5zM285 1165q0 -49 92 -110l9 6q8 6 10 8t10.5 8.5t11.5 9.5t10 9.5t10 11t8 11.5t7 12.5t4 12t2 13.5q0 34 -25 53
t-63 19q-32 0 -59 -17t-27 -47z" />
    <glyph glyph-name="nine.numr" unicode="&#xf66a;" horiz-adv-x="741" 
d="M145 524l-12 156q277 4 348 194q-68 -45 -159 -45q-118 0 -193.5 74t-75.5 180q0 58 19.5 110.5t56.5 94.5t98 67t138 25q159 0 240 -102t81 -256q0 -96 -32 -181t-95.5 -155t-170 -113.5t-243.5 -48.5zM367 973q67 0 127 43q0 107 -34 160t-95 53q-49 0 -81 -37
t-32 -102q0 -47 26 -82t89 -35z" />
    <glyph glyph-name="abreve.smcp" unicode="&#xf66d;" horiz-adv-x="1083" 
d="M20 0l396 1006h250l397 -1006h-256l-72 197h-397l-72 -197h-246zM537 729l-127 -342h254zM539 1118q-160 0 -242 90t-61 226h139q-13 -170 164 -170q86 0 127.5 44.5t35.5 125.5h140q21 -135 -61.5 -225.5t-241.5 -90.5z" />
    <glyph glyph-name="amacron.smcp" unicode="&#xf66e;" horiz-adv-x="1083" 
d="M20 0l396 1006h250l397 -1006h-256l-72 197h-397l-72 -197h-246zM537 729l-127 -342h254zM248 1200v152h588v-152h-588z" />
    <glyph glyph-name="aogonek.smcp" unicode="&#xf66f;" horiz-adv-x="1083" 
d="M20 0l396 1006h250l397 -1006q-166 -153 -166 -258q0 -32 17 -49t43.5 -18.5t54 4t53.5 16.5l18 -152q-84 -28 -172 -28q-98 0 -153.5 48t-55.5 134q0 35 8.5 67t29.5 65t36.5 54t49 60t48.5 57h-67l-72 197h-397l-72 -197h-246zM537 729l-127 -342h254z" />
    <glyph glyph-name="aeacute.smcp" unicode="&#xf670;" horiz-adv-x="1517" 
d="M754 1122l-49 135l442 195l72 -186zM-12 0l610 997h823v-209h-450v-182h352v-205h-352v-192h469v-209h-721v229h-334l-133 -229h-264zM719 801l-213 -365h213v365z" />
    <glyph glyph-name="cacute.smcp" unicode="&#xf671;" horiz-adv-x="1122" 
d="M80 481q0 231 166 386t430 155q66 0 129 -10.5t106 -25.5t76.5 -30t49.5 -26l16 -10l-92 -203q-5 4 -13.5 10t-37.5 22.5t-60.5 29t-80 22.5t-97.5 10q-146 0 -240 -80.5t-94 -226.5q0 -78 29 -140.5t76.5 -100.5t106 -57.5t120.5 -19.5q46 0 94.5 11t84.5 26t65 30.5
t44 26.5l15 11l100 -172q-6 -6 -18 -15.5t-53 -34.5t-86.5 -44t-117.5 -34.5t-147 -15.5q-114 0 -216.5 34t-182 97t-126 160t-46.5 215zM416 1122l-49 135l442 195l72 -186z" />
    <glyph glyph-name="ccaron.smcp" unicode="&#xf672;" horiz-adv-x="1122" 
d="M80 481q0 231 166 386t430 155q66 0 129 -10.5t106 -25.5t76.5 -30t49.5 -26l16 -10l-92 -203q-5 4 -13.5 10t-37.5 22.5t-60.5 29t-80 22.5t-97.5 10q-146 0 -240 -80.5t-94 -226.5q0 -78 29 -140.5t76.5 -100.5t106 -57.5t120.5 -19.5q46 0 94.5 11t84.5 26t65 30.5
t44 26.5l15 11l100 -172q-6 -6 -18 -15.5t-53 -34.5t-86.5 -44t-117.5 -34.5t-147 -15.5q-114 0 -216.5 34t-182 97t-126 160t-46.5 215zM508 1120l-256 226l133 88l225 -181l226 181l131 -88l-258 -226h-201z" />
    <glyph glyph-name="ccircumflex.smcp" unicode="&#xf673;" horiz-adv-x="1122" 
d="M385 1120l-133 88l258 226h201l256 -226l-131 -88l-226 180zM80 481q0 231 166 386t430 155q66 0 129 -10.5t106 -25.5t76.5 -30t49.5 -26l16 -10l-92 -203q-5 4 -13.5 10t-37.5 22.5t-60.5 29t-80 22.5t-97.5 10q-146 0 -240 -80.5t-94 -226.5q0 -78 29 -140.5
t76.5 -100.5t106 -57.5t120.5 -19.5q46 0 94.5 11t84.5 26t65 30.5t44 26.5l15 11l100 -172q-6 -6 -18 -15.5t-53 -34.5t-86.5 -44t-117.5 -34.5t-147 -15.5q-114 0 -216.5 34t-182 97t-126 160t-46.5 215z" />
    <glyph glyph-name="cdotaccent.smcp" unicode="&#xf674;" horiz-adv-x="1122" 
d="M610 1137q-66 0 -107.5 39t-41.5 102q0 64 41.5 103.5t107.5 39.5q65 0 107.5 -39.5t42.5 -103.5q0 -62 -42.5 -101.5t-107.5 -39.5zM80 481q0 231 166 386t430 155q66 0 129 -10.5t106 -25.5t76.5 -30t49.5 -26l16 -10l-92 -203q-5 4 -13.5 10t-37.5 22.5t-60.5 29
t-80 22.5t-97.5 10q-146 0 -240 -80.5t-94 -226.5q0 -78 29 -140.5t76.5 -100.5t106 -57.5t120.5 -19.5q46 0 94.5 11t84.5 26t65 30.5t44 26.5l15 11l100 -172q-6 -6 -18 -15.5t-53 -34.5t-86.5 -44t-117.5 -34.5t-147 -15.5q-114 0 -216.5 34t-182 97t-126 160t-46.5 215z
" />
    <glyph glyph-name="dcaron.smcp" unicode="&#xf675;" horiz-adv-x="1228" 
d="M152 0v997h419q88 0 169 -16t155.5 -53t128.5 -91.5t86.5 -137.5t32.5 -185q0 -243 -175 -378.5t-460 -135.5h-356zM410 205h82q197 0 292 83.5t95 219.5q0 131 -84 208t-246 77h-139v-588zM483 1120l-256 226l133 88l226 -181l225 181l131 -88l-258 -226h-201z" />
    <glyph glyph-name="dcroat.smcp" unicode="&#xf676;" horiz-adv-x="1251" 
d="M66 426v162h110v409h420q112 0 210.5 -27t181 -82t131 -151t48.5 -223q0 -243 -175 -378.5t-460 -135.5h-356v426h-110zM434 209h82q196 0 291.5 82.5t95.5 216.5q0 128 -84 204t-246 76h-139v-200h232v-162h-232v-217z" />
    <glyph glyph-name="ebreve.smcp" unicode="&#xf677;" horiz-adv-x="956" 
d="M152 0v997h706v-204h-448v-189h352v-201h-352v-198h469v-205h-727zM514 1118q-160 0 -242 90t-61 226h139q-13 -170 164 -170q87 0 128.5 44.5t35.5 125.5h139q21 -135 -61.5 -225.5t-241.5 -90.5z" />
    <glyph glyph-name="ecaron.smcp" unicode="&#xf678;" horiz-adv-x="956" 
d="M152 0v997h706v-204h-448v-189h352v-201h-352v-198h469v-205h-727zM412 1120l-256 226l133 88l225 -181l225 181l131 -88l-258 -226h-200z" />
    <glyph glyph-name="edotaccent.smcp" unicode="&#xf679;" horiz-adv-x="956" 
d="M514 1137q-66 0 -107.5 39t-41.5 102q0 64 41.5 103.5t107.5 39.5q65 0 107.5 -39.5t42.5 -103.5q0 -62 -42.5 -101.5t-107.5 -39.5zM152 0v997h706v-204h-448v-189h352v-201h-352v-198h469v-205h-727z" />
    <glyph glyph-name="emacron.smcp" unicode="&#xf67a;" horiz-adv-x="956" 
d="M152 0v997h706v-204h-448v-189h352v-201h-352v-198h469v-205h-727zM219 1200v152h588v-152h-588z" />
    <glyph glyph-name="eng.smcp" unicode="&#xf67b;" horiz-adv-x="1271" 
d="M152 0v997h260l458 -645v645h250v-827q0 -77 -13 -143t-35 -113.5t-50.5 -87t-59.5 -65t-62.5 -44.5t-60 -29t-50.5 -16.5t-35 -7.5l-13 -2l-73 207q5 0 14 1.5t34 9.5t47.5 21t48 40.5t42.5 64.5l-451 635v-641h-251z" />
    <glyph glyph-name="eogonek.smcp" unicode="&#xf67c;" horiz-adv-x="956" 
d="M152 0v997h706v-204h-448v-189h352v-201h-352v-198h469v-205q-166 -153 -166 -258q0 -32 17 -49t43.5 -18.5t54 4t53.5 16.5l18 -152q-84 -28 -172 -28q-97 0 -153 48t-56 134q0 35 8.5 67t29.5 65t36.5 54t49 60t48.5 57h-538z" />
    <glyph glyph-name="gbreve.smcp" unicode="&#xf67d;" horiz-adv-x="1191" 
d="M80 473q0 112 43 211.5t120.5 174.5t196 119t260.5 44q100 0 192 -21t134 -42l43 -21l-88 -199q-14 8 -39 20t-100.5 32t-149.5 20q-165 0 -258.5 -88t-93.5 -231q0 -151 101.5 -231.5t248.5 -80.5q30 0 67.5 4t60.5 8l22 3v174h-209v198h452v-549q-253 -43 -415 -43
q-169 0 -302 60t-209.5 174t-76.5 264zM618 1118q-160 0 -242 90t-61 226h140q-13 -170 163 -170q87 0 128.5 44.5t35.5 125.5h140q21 -135 -62 -225.5t-242 -90.5z" />
    <glyph glyph-name="gcircumflex.smcp" unicode="&#xf67e;" horiz-adv-x="1191" 
d="M80 473q0 112 43 211.5t120.5 174.5t196 119t260.5 44q100 0 192 -21t134 -42l43 -21l-88 -199q-14 8 -39 20t-100.5 32t-149.5 20q-165 0 -258.5 -88t-93.5 -231q0 -151 101.5 -231.5t248.5 -80.5q30 0 67.5 4t60.5 8l22 3v174h-209v198h452v-549q-253 -43 -415 -43
q-169 0 -302 60t-209.5 174t-76.5 264zM393 1120l-133 88l258 226h201l256 -226l-131 -88l-226 180z" />
    <glyph glyph-name="gcommaaccent.smcp" unicode="&#xf67f;" horiz-adv-x="1191" 
d="M80 473q0 112 43 211.5t120.5 174.5t196 119t260.5 44q100 0 192 -21t134 -42l43 -21l-88 -199q-14 8 -39 20t-100.5 32t-149.5 20q-165 0 -258.5 -88t-93.5 -231q0 -151 101.5 -231.5t248.5 -80.5q30 0 67.5 4t60.5 8l22 3v174h-209v198h452v-549q-253 -43 -415 -43
q-169 0 -302 60t-209.5 174t-76.5 264zM492 -100h217q5 -6 13.5 -17.5t22 -50t13.5 -80.5q0 -85 -61.5 -152.5t-147.5 -109.5l-96 102q104 48 104 148q0 95 -65 160z" />
    <glyph glyph-name="gdotaccent.smcp" unicode="&#xf680;" horiz-adv-x="1191" 
d="M80 473q0 112 43 211.5t120.5 174.5t196 119t260.5 44q100 0 192 -21t134 -42l43 -21l-88 -199q-14 8 -39 20t-100.5 32t-149.5 20q-165 0 -258.5 -88t-93.5 -231q0 -151 101.5 -231.5t248.5 -80.5q30 0 67.5 4t60.5 8l22 3v174h-209v198h452v-549q-253 -43 -415 -43
q-169 0 -302 60t-209.5 174t-76.5 264zM618 1137q-66 0 -107.5 39t-41.5 102q0 64 41.5 103.5t107.5 39.5q65 0 107.5 -39.5t42.5 -103.5q0 -62 -42.5 -101.5t-107.5 -39.5z" />
    <glyph glyph-name="hbar.smcp" unicode="&#xf681;" horiz-adv-x="1327" 
d="M47 713v123h117v161h258v-161h485v161h256v-161h117v-123h-117v-713h-256v367h-485v-367h-258v713h-117zM422 571h485v142h-485v-142z" />
    <glyph glyph-name="hcircumflex.smcp" unicode="&#xf682;" horiz-adv-x="1304" 
d="M424 1120l-133 88l258 226h201l256 -226l-132 -88l-225 180zM152 0v997h258v-387h485v387h256v-997h-256v408h-485v-408h-258z" />
    <glyph glyph-name="ibreve.smcp" unicode="&#xf683;" horiz-adv-x="561" 
d="M152 0v997h258v-997h-258zM281 1118q-160 0 -242.5 90t-61.5 226h140q-13 -170 164 -170q86 0 127.5 44.5t35.5 125.5h140q21 -135 -61.5 -225.5t-241.5 -90.5z" />
    <glyph glyph-name="ij.smcp" unicode="&#xf684;" horiz-adv-x="1126" 
d="M522 -90q8 1 21 4.5t46.5 22t59.5 47t47 86t21 131.5v796h258v-786q0 -97 -21 -178t-54.5 -132t-74.5 -90t-81.5 -58.5t-74 -31.5t-54.5 -15l-21 -3zM152 0v997h258v-997h-258z" />
    <glyph glyph-name="imacron.smcp" unicode="&#xf685;" horiz-adv-x="561" 
d="M152 0v997h258v-997h-258zM-10 1200v152h588v-152h-588z" />
    <glyph glyph-name="iogonek.smcp" unicode="&#xf686;" horiz-adv-x="561" 
d="M152 0v997h258v-997q-166 -153 -166 -258q0 -32 17 -49t43.5 -18.5t54 4t53.5 16.5l18 -152q-84 -28 -172 -28q-99 0 -155 48t-56 134q0 35 9 67t30 65t37.5 54.5t49.5 59.5t48 57h-69z" />
    <glyph glyph-name="itilde.smcp" unicode="&#xf687;" horiz-adv-x="561" 
d="M152 0v997h258v-997h-258zM-102 1139q-1 6 -1.5 16t1 39t7 55t21 58t38.5 55t63 39t92 16q60 0 112.5 -20.5t82.5 -45t64 -45t62 -20.5q37 0 54.5 32t16.5 64l-1 31h156q1 -6 1.5 -16t-1.5 -39.5t-7.5 -56.5t-21.5 -59.5t-39.5 -56t-64 -39.5t-93.5 -16q-50 0 -92 13.5
t-69.5 33t-51.5 39t-49.5 33t-50.5 13.5q-38 0 -56 -31t-17 -61l1 -31h-157z" />
    <glyph glyph-name="jcircumflex.smcp" unicode="&#xf688;" horiz-adv-x="563" 
d="M57 1120l-133 88l258 226h201l256 -226l-131 -88l-225 180zM-39 -90q8 1 21 4.5t46.5 22t59.5 47t47 86t21 131.5v796h258v-786q0 -97 -21 -178t-54.5 -132t-74.5 -90t-81.5 -58.5t-74 -31.5t-54.5 -15l-21 -3z" />
    <glyph glyph-name="kcommaaccent.smcp" unicode="&#xf689;" horiz-adv-x="1116" 
d="M471 -100h217q5 -6 13.5 -17.5t22 -50t13.5 -80.5q0 -85 -61.5 -152.5t-147.5 -109.5l-96 102q105 48 105 148q0 94 -66 160zM152 0v997h258v-372h34l318 372h309l-416 -467l441 -530h-316l-336 418h-34v-418h-258z" />
    <glyph glyph-name="lacute.smcp" unicode="&#xf68a;" horiz-adv-x="917" 
d="M152 0v997h258v-792h464v-205h-722zM86 1122l-49 135l442 195l72 -186z" />
    <glyph glyph-name="lcaron.smcp" unicode="&#xf68b;" horiz-adv-x="952" 
d="M152 0v997h258v-792h464v-205h-722zM592 707l51 403l244 20l-148 -423h-147z" />
    <glyph glyph-name="lcommaaccent.smcp" unicode="&#xf68c;" horiz-adv-x="919" 
d="M395 -100h217q6 -6 14 -17.5t22 -50t14 -80.5q0 -85 -61.5 -152.5t-147.5 -109.5l-97 102q105 48 105 148q0 94 -66 160zM152 0v997h258v-792h464v-205h-722z" />
    <glyph glyph-name="ldot.smcp" unicode="&#xf68d;" horiz-adv-x="1013" 
d="M152 0v997h258v-792h464v-205h-722zM791 408q-65 0 -111.5 45.5t-46.5 109.5q0 66 46.5 112t111.5 46q66 0 111.5 -46t45.5 -112q0 -65 -45.5 -110t-111.5 -45z" />
    <glyph glyph-name="nacute.smcp" unicode="&#xf68e;" horiz-adv-x="1273" 
d="M442 1122l-49 135l443 195l71 -186zM152 0v997h260l458 -645v645h250v-997h-262l-455 641v-641h-251z" />
    <glyph glyph-name="ncaron.smcp" unicode="&#xf68f;" horiz-adv-x="1273" 
d="M535 1120l-256 226l133 88l225 -181l225 181l131 -88l-258 -226h-200zM152 0v997h260l458 -645v645h250v-997h-262l-455 641v-641h-251z" />
    <glyph glyph-name="ncommaaccent.smcp" unicode="&#xf690;" horiz-adv-x="1273" 
d="M518 -100h217q5 -6 13.5 -17.5t22 -50t13.5 -80.5q0 -85 -61.5 -152.5t-147.5 -109.5l-96 102q105 48 105 148q0 94 -66 160zM152 0v997h260l458 -645v645h250v-997h-262l-455 641v-641h-251z" />
    <glyph glyph-name="obreve.smcp" unicode="&#xf691;" horiz-adv-x="1327" 
d="M78 496q0 78 24 153.5t73 143t118 118.5t165.5 81t207.5 30q132 0 242.5 -40t183.5 -109t113 -160.5t40 -194.5q0 -104 -42 -201.5t-116.5 -173.5t-188.5 -122t-247 -46q-131 0 -241 43.5t-181.5 116t-111 166t-39.5 195.5zM342 500q0 -58 20 -114t57 -103t98.5 -76
t137.5 -29q149 0 238.5 96.5t89.5 231.5q0 131 -84 222t-235 91q-149 0 -235.5 -93t-86.5 -226zM659 1118q-160 0 -242 90t-61 226h140q-13 -170 163 -170q87 0 128.5 44.5t35.5 125.5h140q21 -135 -62 -225.5t-242 -90.5z" />
    </font>
</defs>
</svg>
