<?xml version="1.0" standalone="no"?>
<!DOCTYPE svg PUBLIC "-//W3C//DTD SVG 1.1//EN" "http://www.w3.org/Graphics/SVG/1.1/DTD/svg11.dtd" >
<svg xmlns="http://www.w3.org/2000/svg" xmlns:xlink="http://www.w3.org/1999/xlink" version="1.1">
<metadata>
Created by FontForge 20201107 at Wed Nov 20 02:26:25 2024
 By 
Copyright (c) 2010 by Jos Buivenga. All rights reserved.
</metadata>
<defs>
<font id="CallunaSans-BoldItalic" horiz-adv-x="1064" >
  <font-face 
    font-family="Calluna Sans"
    font-weight="700"
    font-style="italic"
    font-stretch="normal"
    units-per-em="2048"
    panose-1="2 0 0 0 0 0 0 0 0 0"
    ascent="1536"
    descent="-512"
    x-height="932"
    cap-height="1366"
    bbox="-451 -510 2279 1956"
    underline-thickness="102"
    underline-position="-204"
    slope="-12"
    unicode-range="U+0020-FB06"
  />
<missing-glyph horiz-adv-x="1413" 
d="M92 -109v1584h1229v-1584h-1229zM246 301l82 -84l379 381l378 -381l82 84l-379 379l379 381l-80 84l-380 -383l-381 383l-80 -84l379 -381z" />
    <glyph glyph-name="f_b" unicode="fb" horiz-adv-x="1679" 
d="M639 0l270 1278q-72 31 -143 31q-55 0 -98.5 -21t-71 -53t-49.5 -84.5t-34 -101.5t-24 -117h248l-45 -184h-229q-51 -361 -83 -510q-95 -439 -281 -612q-93 -85 -212 -113l-98 170q49 14 92 43t76 63.5t63 88.5t51 101t41 119.5t32.5 126t27 138t22 137.5t19.5 141
l14 107h-151v133l176 57l6 37q74 532 498 532q147 0 280 -65l160 26l-149 -704h6q48 75 136.5 133.5t174.5 58.5q111 0 182.5 -88.5t71.5 -242.5q0 -72 -18.5 -147.5t-52.5 -148t-87.5 -136.5t-119 -112.5t-151 -77t-179.5 -28.5q-46 0 -166 12.5t-205 12.5zM1270 733
q-48 0 -115 -54.5t-117.5 -124.5t-60.5 -118l-59 -278q42 -11 79 -11q76 0 145 40t116 103.5t74.5 142.5t27.5 157t-26.5 110.5t-63.5 32.5z" />
    <glyph glyph-name="f_f_b" unicode="ffb" horiz-adv-x="2275" 
d="M1235 0l270 1278q-72 31 -143 31q-55 0 -98.5 -21t-71 -53t-49.5 -84.5t-34 -101.5t-24 -117h248l-45 -184h-229q-51 -361 -83 -510q-95 -439 -281 -612q-93 -85 -212 -113l-98 170q49 14 92 43t76 63.5t63 88.5t51 101t41 119.5t32.5 126t27 138t22 137.5t19.5 141
l14 117h-360q-4 -25 -11 -77q-15 -107 -23.5 -164t-27 -162.5t-34 -167.5t-42.5 -155t-54.5 -150.5t-68 -127t-85.5 -112t-104 -78t-126 -51.5l-98 170q49 14 92 43t76 63.5t63 88.5t51 101t41 119.5t32.5 126t27 138t22 137.5t19.5 141l14 107h-151v133l176 57l6 37
q11 77 31.5 143t59.5 129.5t92.5 108.5t134 72.5t180.5 27.5q138 0 262 -78q126 129 334 129q147 0 280 -65l160 26l-150 -704h7q48 75 136.5 133.5t174.5 58.5q111 0 182.5 -88.5t71.5 -242.5q0 -72 -18.5 -147.5t-52.5 -148t-87.5 -136.5t-119 -112.5t-151 -77
t-179.5 -28.5q-46 0 -166 12.5t-205 12.5zM1866 733q-48 0 -115 -54.5t-117.5 -124.5t-60.5 -118l-60 -278q42 -11 80 -11q76 0 145 40t116 103.5t74.5 142.5t27.5 157t-26.5 110.5t-63.5 32.5zM854 975q16 125 57 227q-64 55 -145 55q-57 0 -101 -18t-72 -46t-49.5 -73
t-32.5 -87.5t-22 -100.5h359z" />
    <glyph glyph-name="f_f_h" unicode="ffh" horiz-adv-x="2275" 
d="M1235 0l270 1278q-72 31 -143 31q-55 0 -98.5 -21t-71 -53t-49.5 -84.5t-34 -101.5t-24 -117h248l-45 -184h-229q-51 -361 -83 -510q-95 -439 -281 -612q-93 -85 -212 -113l-98 170q49 14 92 43t76 63.5t63 88.5t51 101t41 119.5t32.5 126t27 138t22 137.5t19.5 141
l14 117h-360q-4 -25 -11 -77q-15 -107 -23.5 -164t-27 -162.5t-34 -167.5t-42.5 -155t-54.5 -150.5t-68 -127t-85.5 -112t-104 -78t-126 -51.5l-98 170q49 14 92 43t76 63.5t63 88.5t51 101t41 119.5t32.5 126t27 138t22 137.5t19.5 141l14 107h-151v133l176 57l6 37
q11 77 31.5 143t59.5 129.5t92.5 108.5t134 72.5t180.5 27.5q138 0 262 -78q126 129 334 129q147 0 280 -65l160 26l-152 -714q54 78 154.5 140t210.5 62q188 0 188 -196q0 -20 -2.5 -44.5t-5 -43t-9 -51.5t-9.5 -48t-11.5 -54.5t-11.5 -51.5l-98 -467h-246l101 471
q32 163 32 201q0 30 -11 45.5t-40 15.5q-74 0 -182.5 -106t-124.5 -181l-94 -446h-246zM854 975q16 125 57 227q-64 55 -145 55q-57 0 -101 -18t-72 -46t-49.5 -73t-32.5 -87.5t-22 -100.5h359z" />
    <glyph glyph-name="f_f_j" unicode="ffj" horiz-adv-x="1736" 
d="M76 748v133l176 57l6 37q11 77 31.5 143t59.5 129.5t92.5 108.5t134 72.5t180.5 27.5q138 0 262 -78q126 129 334 129q74 0 144 -18.5t103 -36.5l33 -18l-86 -187q-9 7 -25.5 17.5t-65 27.5t-93.5 17q-55 0 -98.5 -21t-71 -53t-49.5 -84.5t-34 -101.5t-24 -117h609
l-189 -887q-51 -239 -177 -370t-288 -160l-77 190q49 8 90.5 27t82.5 55.5t72 99t49 148.5l154 723h-350q-50 -358 -79 -498q-92 -441 -272 -620q-98 -97 -227 -127l-98 170q49 14 92 43t76 63.5t63 88.5t51 101t41 119.5t32.5 126t27 138t22 137.5t19.5 141l14 117h-358
q-50 -357 -79 -495q-92 -441 -271 -621q-99 -99 -228 -129l-98 170q49 14 92 43t76 63.5t63 88.5t51 101t41 119.5t32.5 126t27 138t22 137.5t19.5 141l14 107h-151zM854 975q16 125 57 227q-64 55 -145 55q-57 0 -101 -18t-72 -46t-49.5 -73t-32.5 -87.5t-22 -100.5h359z
" />
    <glyph glyph-name="f_f_k" unicode="ffk" horiz-adv-x="2220" 
d="M1235 0l270 1278q-72 31 -143 31q-55 0 -98.5 -21t-71 -53t-49.5 -84.5t-34 -101.5t-24 -117h248l-45 -184h-229q-51 -361 -83 -510q-95 -439 -281 -612q-93 -85 -212 -113l-98 170q49 14 92 43t76 63.5t63 88.5t51 101t41 119.5t32.5 126t27 138t22 137.5t19.5 141
l14 117h-360q-4 -25 -11 -77q-15 -107 -23.5 -164t-27 -162.5t-34 -167.5t-42.5 -155t-54.5 -150.5t-68 -127t-85.5 -112t-104 -78t-126 -51.5l-98 170q49 14 92 43t76 63.5t63 88.5t51 101t41 119.5t32.5 126t27 138t22 137.5t19.5 141l14 107h-151v133l176 57l6 37
q11 77 31.5 143t59.5 129.5t92.5 108.5t134 72.5t180.5 27.5q138 0 262 -78q126 129 334 129q147 0 280 -65l160 26l-182 -856h32l320 320h317l-454 -436l278 -496h-278l-223 424h-31l-90 -424h-246zM854 975q16 125 57 227q-64 55 -145 55q-57 0 -101 -18t-72 -46
t-49.5 -73t-32.5 -87.5t-22 -100.5h359z" />
    <glyph glyph-name="f_h" unicode="fh" horiz-adv-x="1679" 
d="M639 0l270 1278q-72 31 -143 31q-55 0 -98.5 -21t-71 -53t-49.5 -84.5t-34 -101.5t-24 -117h248l-45 -184h-229q-51 -361 -83 -510q-95 -439 -281 -612q-93 -85 -212 -113l-98 170q49 14 92 43t76 63.5t63 88.5t51 101t41 119.5t32.5 126t27 138t22 137.5t19.5 141
l14 107h-151v133l176 57l6 37q74 532 498 532q147 0 280 -65l160 26l-152 -714q54 78 154.5 140t210.5 62q188 0 188 -196q0 -20 -2.5 -44.5t-5 -43t-9 -51.5t-9.5 -48t-11.5 -54.5t-11.5 -51.5l-98 -467h-246l101 471q32 163 32 201q0 30 -11 45.5t-40 15.5
q-74 0 -182.5 -106t-124.5 -181l-94 -446h-246z" />
    <glyph glyph-name="f_k" unicode="fk" horiz-adv-x="1624" 
d="M639 0l270 1278q-72 31 -143 31q-55 0 -98.5 -21t-71 -53t-49.5 -84.5t-34 -101.5t-24 -117h248l-45 -184h-229q-51 -361 -83 -510q-95 -439 -281 -612q-93 -85 -212 -113l-98 170q49 14 92 43t76 63.5t63 88.5t51 101t41 119.5t32.5 126t27 138t22 137.5t19.5 141
l14 107h-151v133l176 57l6 37q74 532 498 532q147 0 280 -65l160 26l-182 -856h33l319 320h317l-454 -436l278 -496h-278l-223 424h-31l-90 -424h-246z" />
    <glyph glyph-name="ff" unicode="ff" horiz-adv-x="1292" 
d="M76 748v133l176 57l6 37q11 77 31.5 143t59.5 129.5t92.5 108.5t134 72.5t180.5 27.5q140 0 258 -76q117 127 317 127q68 0 133 -15.5t96 -31.5l31 -16l-86 -187q-8 6 -23 14.5t-58 23t-83 14.5q-51 0 -91 -20.5t-66 -53t-46 -84t-31.5 -101.5t-21.5 -118h248l-45 -184
h-227q-50 -382 -94 -567q-111 -461 -340 -607q-66 -43 -144 -61l-98 170q55 16 102.5 48t84 80.5t66.5 101.5t53 125.5t40.5 137.5t32.5 152t24.5 154t20.5 159l14 117h-358q-50 -357 -79 -495q-92 -441 -271 -621q-99 -99 -228 -129l-98 170q49 14 92 43t76 63.5t63 88.5
t51 101t41 119.5t32.5 126t27 138t22 137.5t19.5 141l14 107h-151zM489 932h359l6 43q17 136 55 229q-61 53 -143 53q-57 0 -101 -18t-72 -46t-49.5 -73t-32.5 -87.5t-22 -100.5z" />
    <glyph glyph-name="fi" unicode="fi" horiz-adv-x="1110" 
d="M625 0l159 758h-319q-50 -358 -79 -498q-92 -441 -272 -620q-98 -97 -227 -127l-98 170q49 14 92 42.5t76.5 64t63.5 88t51.5 102t41 119t32.5 127t26.5 137t22 137.5t18.5 141l14 107h-151v133l176 57l6 37q74 532 498 532q74 0 144 -18.5t103 -36.5l33 -18l-86 -187
q-9 7 -25.5 17.5t-65 27.5t-93.5 17q-55 0 -98.5 -21t-71 -53t-49.5 -84.5t-34 -101.5t-24 -117h578l-197 -932h-245z" />
    <glyph glyph-name="fl" unicode="fl" horiz-adv-x="1124" 
d="M639 0l270 1278q-73 31 -143 31q-55 0 -98.5 -21t-71 -53t-49.5 -84.5t-34 -101.5t-24 -117h248l-45 -184h-229q-51 -361 -83 -510q-95 -439 -281 -612q-93 -85 -212 -113l-98 170q49 14 92 42.5t76.5 64t63.5 88t51.5 102t41 119t32.5 127t26.5 137t22 137.5t18.5 141
l14 107h-151v133l176 57l6 37q74 532 498 532q74 0 144 -15.5t103 -31.5l33 -16l-2 -2l162 26l-311 -1468h-246z" />
    <glyph glyph-name="f_f_i" unicode="ffi" horiz-adv-x="1705" 
d="M1221 0l159 758h-319q-50 -358 -79 -498q-92 -441 -272 -620q-98 -97 -227 -127l-98 170q49 14 92 43t76 63.5t63 88.5t51 101t41 119.5t32.5 126t27 138t22 137.5t19.5 141l14 117h-358q-50 -357 -79 -495q-92 -441 -271 -621q-99 -99 -228 -129l-98 170q49 14 92 43
t76 63.5t63 88.5t51 101t41 119.5t32.5 126t27 138t22 137.5t19.5 141l14 107h-151v133l176 57l6 37q11 77 31.5 143t59.5 129.5t92.5 108.5t134 72.5t180.5 27.5q138 0 262 -78q126 129 334 129q74 0 144 -18.5t103 -36.5l33 -18l-86 -187q-9 7 -25.5 17.5t-65 27.5
t-93.5 17q-55 0 -98.5 -21t-71 -53t-49.5 -84.5t-34 -101.5t-24 -117h578l-197 -932h-245zM854 975q16 125 57 227q-64 55 -145 55q-57 0 -101 -18t-72 -46t-49.5 -73t-32.5 -87.5t-22 -100.5h359z" />
    <glyph glyph-name="f_f_l" unicode="ffl" horiz-adv-x="1720" 
d="M1235 0l270 1278q-77 31 -143 31q-55 0 -98.5 -21t-71 -53t-49.5 -84.5t-34 -101.5t-24 -117h248l-45 -184h-229q-51 -361 -83 -510q-95 -439 -281 -612q-93 -85 -212 -113l-98 170q49 14 92 43t76 63.5t63 88.5t51 101t41 119.5t32.5 126t27 138t22 137.5t19.5 141
l14 117h-360q-4 -25 -11 -77q-15 -107 -23.5 -164t-27 -162.5t-34 -167.5t-42.5 -155t-54.5 -150.5t-68 -127t-85.5 -112t-104 -78t-126 -51.5l-98 170q49 14 92 43t76 63.5t63 88.5t51 101t41 119.5t32.5 126t27 138t22 137.5t19.5 141l14 104h-151v136l176 57l6 37
q11 77 31.5 143t59.5 129.5t92.5 108.5t134 72.5t180.5 27.5q138 0 262 -78q126 129 334 129q156 0 282 -65l158 26l-311 -1468h-246zM854 975q16 125 57 227q-64 55 -145 55q-57 0 -101 -18t-72 -46t-49.5 -73t-32.5 -87.5t-22 -100.5h359z" />
    <glyph glyph-name="f_j" unicode="fj" horiz-adv-x="1142" 
d="M369 -295q233 38 295 330l153 723h-352q-50 -358 -79 -498q-92 -441 -272 -620q-98 -97 -227 -127l-98 170q49 14 92 43t76 63.5t63 88.5t51 101t41 119.5t32.5 126t27 138t22 137.5t19.5 141l14 107h-151v133l176 57l6 37q74 532 498 532q74 0 144 -18.5t103 -36.5
l33 -18l-86 -187q-9 7 -25.5 17.5t-65 27.5t-93.5 17q-55 0 -98.5 -21t-71 -53t-49.5 -84.5t-34 -101.5t-24 -117h611l-189 -887q-51 -239 -177 -370t-288 -160z" />
    <glyph glyph-name=".notdef" horiz-adv-x="1413" 
d="M92 -109v1584h1229v-1584h-1229zM246 301l82 -84l379 381l378 -381l82 84l-379 379l379 381l-80 84l-380 -383l-381 383l-80 -84l379 -381z" />
    <glyph glyph-name=".null" horiz-adv-x="0" 
 />
    <glyph glyph-name="nonmarkingreturn" horiz-adv-x="682" 
 />
    <glyph glyph-name="space" unicode=" " horiz-adv-x="491" 
 />
    <glyph glyph-name="exclam" unicode="!" horiz-adv-x="571" 
d="M172 463l150 903h282l-237 -903h-195zM47 88q0 79 47.5 142t134.5 63q58 0 87.5 -31.5t29.5 -79.5q0 -78 -48.5 -142.5t-137.5 -64.5q-56 0 -84.5 32.5t-28.5 80.5z" />
    <glyph glyph-name="quotedbl" unicode="&#x22;" horiz-adv-x="765" 
d="M514 821l109 545h213l-15 -76l-164 -469h-143zM162 821l108 545h213l-14 -76l-162 -469h-145z" />
    <glyph glyph-name="numbersign" unicode="#" horiz-adv-x="1347" 
d="M125 653l33 140h278l109 391h141l-108 -391h299l108 391h141l-108 -391h299l-33 -140h-303l-78 -282h301l-33 -140h-307l-112 -413h-144l113 413h-297l-113 -413h-143l113 413h-269l33 140h274l78 282h-272zM541 653l-78 -282h297l78 282h-297z" />
    <glyph glyph-name="dollar" unicode="$" horiz-adv-x="948" 
d="M-2 84l49 207q4 -4 11.5 -10.5t35.5 -24t59.5 -31t84.5 -25.5t110 -14l66 306q-51 24 -78.5 38t-70 43.5t-65 58.5t-40 74t-17.5 99q0 66 24 124.5t72 107.5t129.5 80.5t186.5 37.5l39 178h98l-39 -178q75 -4 142 -18.5t97 -27.5l30 -13l-60 -199q-11 6 -32 15t-86 25
t-132 19l-65 -303q51 -23 80.5 -38t72.5 -44t66.5 -58t41 -73t17.5 -96q0 -148 -116 -247t-306 -109l-34 -170h-99l35 170q-55 3 -107 14.5t-86.5 25t-61.5 26.5t-40 22zM604 326q0 69 -100 123l-55 -259q155 23 155 136zM358 819q0 -69 99 -123l55 254q-154 -19 -154 -131z
" />
    <glyph glyph-name="percent" unicode="%" horiz-adv-x="1550" 
d="M135 0l1200 1397l99 -74l-1133 -1323h-166zM444 721q-128 0 -205 76.5t-77 197.5q0 91 49.5 176.5t136 140t184.5 54.5q129 0 206 -77t77 -199q0 -146 -112.5 -257.5t-258.5 -111.5zM455 868q81 0 140.5 66.5t59.5 142.5q0 61 -35.5 102.5t-97.5 41.5q-79 0 -139.5 -63.5
t-60.5 -149.5q0 -60 35 -100t98 -40zM782 250q0 91 49.5 176.5t136.5 140t185 54.5q129 0 206 -77.5t77 -199.5q0 -146 -112.5 -257.5t-258.5 -111.5q-129 0 -206 77.5t-77 197.5zM942 262q0 -60 35 -99.5t98 -39.5q81 0 141 66.5t60 142.5q0 61 -35.5 102t-97.5 41
q-79 0 -140 -64t-61 -149z" />
    <glyph glyph-name="ampersand" unicode="&#x26;" horiz-adv-x="1411" 
d="M23 301q0 64 20.5 119.5t52.5 97t83 80.5t98.5 66t111.5 57q-41 131 -41 237q0 63 15.5 124.5t49 117.5t80.5 98.5t115 67.5t148 25q143 0 227 -76.5t84 -214.5q0 -85 -30.5 -156t-88.5 -125t-117.5 -91t-142.5 -77q20 -39 27 -51q78 -143 190 -258q106 80 171 178
t65 199q0 63 -29 129l207 63q41 -84 41 -172q0 -128 -83 -268t-222 -258q118 -81 229 -117l-121 -180q-144 38 -313 162q-204 -103 -406 -103q-65 0 -124.5 11t-114.5 35.5t-95 61.5t-63.5 93t-23.5 125zM459 172q101 0 231 49q-114 120 -186 246q-30 50 -43 80
q-99 -50 -152 -101.5t-53 -119.5q0 -76 56.5 -115t146.5 -39zM602 983q0 -73 21 -156q111 57 170 115.5t59 140.5q0 57 -27 86t-73 29q-42 0 -72.5 -19t-46.5 -51t-23.5 -68t-7.5 -77z" />
    <glyph glyph-name="quotesingle" unicode="'" horiz-adv-x="415" 
d="M162 821l108 545h219l-14 -76l-178 -469h-135z" />
    <glyph glyph-name="parenleft" unicode="(" horiz-adv-x="630" 
d="M84 430q0 124 20 246.5t52.5 219.5t71 185t77.5 151t71.5 110t52.5 70l20 24l163 -60q-7 -8 -19.5 -23.5t-47.5 -66.5t-67 -107t-71.5 -142.5t-67.5 -175t-47.5 -202.5t-19.5 -227q0 -131 24.5 -257t60 -212t71 -154t60.5 -101l24 -32l-174 -67q-10 13 -27.5 37
t-61 105.5t-77 170.5t-61 227.5t-27.5 280.5z" />
    <glyph glyph-name="parenright" unicode=")" horiz-adv-x="606" 
d="M-59 -324l21 23q20 23 55 69.5t75.5 109t82.5 149.5t76 183t55.5 217.5t21.5 244.5q0 119 -20.5 235t-49 197t-57.5 145t-49 95l-21 32l178 60q8 -12 22.5 -34.5t50.5 -98.5t63.5 -158t50 -210t22.5 -259q0 -132 -23 -262.5t-60 -233.5t-81.5 -196t-89 -160t-81.5 -116.5
t-60 -73.5l-23 -25z" />
    <glyph glyph-name="asterisk" unicode="*" horiz-adv-x="1077" 
d="M569 1092l-77 317h237l-78 -317h-82zM735 995l-41 72l236 225l119 -205zM485 995l-313 92l119 205l235 -225zM694 874l41 72l314 -92l-119 -205zM291 649l-119 205l313 92l41 -72zM492 532l77 318h82l78 -318h-237z" />
    <glyph glyph-name="plus" unicode="+" 
d="M43 442v162h399v416h166v-416h393v-162h-393v-442h-166v442h-399z" />
    <glyph glyph-name="comma" unicode="," horiz-adv-x="489" 
d="M82 -4q0 39 -13.5 81.5t-54.5 143.5l234 76q57 -105 57 -203q0 -130 -91 -258.5t-245 -238.5l-90 102q94 75 121 104q82 86 82 193z" />
    <glyph glyph-name="hyphen" unicode="-" horiz-adv-x="772" 
d="M104 442v160h545v-160h-545z" />
    <glyph glyph-name="period" unicode="." horiz-adv-x="489" 
d="M16 88q0 79 48 142t135 63q58 0 87 -31.5t29 -79.5q0 -78 -48.5 -142.5t-137.5 -64.5q-56 0 -84.5 32.5t-28.5 80.5z" />
    <glyph glyph-name="slash" unicode="/" horiz-adv-x="733" 
d="M53 -401h-168l772 1767h168z" />
    <glyph glyph-name="zero" unicode="0" horiz-adv-x="1110" 
d="M59 393q0 109 42 217t115 194t181 139.5t230 53.5q126 0 218.5 -57t136.5 -147.5t44 -200.5q0 -102 -39.5 -209.5t-109.5 -199t-179.5 -150t-236.5 -58.5q-128 0 -221 59t-137 152.5t-44 206.5zM293 381q0 -205 180 -205q77 0 140 38.5t100.5 99.5t57.5 131t20 139
q0 98 -43.5 155.5t-137.5 57.5q-77 0 -140 -40.5t-100.5 -104t-57 -134t-19.5 -137.5z" />
    <glyph glyph-name="one" unicode="1" horiz-adv-x="825" 
d="M-12 0l28 197h238l123 571h-219l30 205h474l-166 -776h213l-41 -197h-680z" />
    <glyph glyph-name="two" unicode="2" horiz-adv-x="917" 
d="M2 0v145q11 7 30.5 20t75.5 52.5t107 78.5t113 93.5t107 103t75.5 100.5t30.5 93q0 48 -30.5 76.5t-86.5 28.5q-40 0 -89 -17.5t-77 -35.5l-29 -17l-100 162q6 5 18 12.5t49.5 27t76.5 34.5t96.5 27.5t113.5 12.5q145 0 231.5 -75t86.5 -195q0 -61 -26 -123.5
t-62.5 -112.5t-98 -108t-109.5 -96.5t-120 -91.5h395l-24 -195h-754z" />
    <glyph glyph-name="three" unicode="3" horiz-adv-x="817" 
d="M-131 -217q93 0 182 16.5t165.5 49.5t123.5 89.5t47 129.5q0 161 -237 161h-41l20 183q46 5 107.5 27.5t120.5 57t100 85.5t41 104q0 105 -129 105q-44 0 -96 -16.5t-81 -32.5l-30 -17l-74 174q19 11 51.5 27.5t121 43.5t163.5 27q90 0 162 -27.5t118 -89.5t46 -149
q0 -67 -29.5 -128.5t-78.5 -108.5t-100 -81t-106 -59q101 -31 155 -100.5t54 -175.5q0 -115 -64.5 -209t-173.5 -153.5t-247.5 -91.5t-290.5 -32v191z" />
    <glyph glyph-name="four" unicode="4" horiz-adv-x="1054" 
d="M-41 27l14 170l695 782h256l-164 -768h176l-39 -184h-176l-90 -422h-238l90 422h-524zM215 211h309l99 467z" />
    <glyph glyph-name="five" unicode="5" horiz-adv-x="802" 
d="M-104 -215q68 0 129.5 6t131 26t119 52t82.5 88t33 131q0 104 -76 158.5t-274 87.5l135 639h596l-22 -195h-379l-64 -295q76 -24 131.5 -51t106.5 -70.5t77.5 -107.5t26.5 -148q0 -126 -60 -225.5t-164.5 -161.5t-239 -94.5t-289.5 -32.5v193z" />
    <glyph glyph-name="six" unicode="6" horiz-adv-x="1042" 
d="M68 434q0 110 30 222t85 216.5t138 196.5t183 161.5t225.5 112t261.5 48.5l19 -201q-121 -8 -223 -44.5t-176.5 -93.5t-127.5 -124t-90 -146q111 111 254 111q149 0 232.5 -106.5t83.5 -260.5q0 -101 -38 -200t-104 -177t-164.5 -126t-210.5 -48q-124 0 -211 61
t-127 162.5t-40 235.5zM569 690q-55 0 -114 -22t-91 -44l-32 -22q-21 -96 -21 -180q0 -250 154 -250q99 0 171.5 104t72.5 244q0 78 -31 124t-109 46z" />
    <glyph glyph-name="seven" unicode="7" horiz-adv-x="925" 
d="M-106 -365q407 565 735 1119h-533l23 219h833l-8 -150q-341 -578 -805 -1241z" />
    <glyph glyph-name="eight" unicode="8" horiz-adv-x="1019" 
d="M406 -25q-98 0 -179.5 35.5t-134.5 112t-53 180.5q0 74 26 137t76.5 114t102.5 88.5t125 78.5q-123 137 -123 276q0 160 126 277t302 117q140 0 232.5 -79.5t92.5 -219.5q0 -66 -21.5 -123.5t-62.5 -105t-87.5 -84t-108.5 -74.5q78 -73 121 -141.5t43 -157.5
q0 -82 -38.5 -160.5t-102 -138t-152.5 -96t-184 -36.5zM635 383q0 52 -32 99.5t-93 105.5q-59 -33 -98 -60t-77 -61t-56.5 -71.5t-18.5 -78.5q0 -66 44.5 -105.5t109.5 -39.5q88 0 154.5 65.5t66.5 145.5zM492 1018q0 -92 83 -182q98 58 149.5 114.5t51.5 128.5q0 55 -32 85
t-89 30q-77 0 -120 -51.5t-43 -124.5z" />
    <glyph glyph-name="nine" unicode="9" horiz-adv-x="1050" 
d="M23 -227q123 9 226.5 46.5t177.5 96t127 127t89 150.5q-113 -117 -256 -117q-149 0 -232 106t-83 258q0 99 38 197t103.5 175.5t163.5 126t209 48.5q94 0 167 -35t119 -97t69.5 -144.5t23.5 -180.5q0 -133 -42 -267.5t-123.5 -255t-192 -216t-257.5 -154t-309 -65.5z
M467 279q53 0 111 21.5t90 43.5l32 21q21 94 21 180q0 118 -38.5 182t-113.5 64q-99 0 -171 -103.5t-72 -243.5q0 -77 30.5 -121t110.5 -44z" />
    <glyph glyph-name="colon" unicode=":" horiz-adv-x="540" 
d="M37 88q0 79 47.5 142t134.5 63q58 0 87.5 -31.5t29.5 -79.5q0 -78 -48.5 -142.5t-137.5 -64.5q-56 0 -84.5 32.5t-28.5 80.5zM172 752q0 79 47.5 141.5t134.5 62.5q58 0 87.5 -31t29.5 -79q0 -78 -48.5 -142.5t-137.5 -64.5q-56 0 -84.5 32.5t-28.5 80.5z" />
    <glyph glyph-name="semicolon" unicode=";" horiz-adv-x="540" 
d="M172 752q0 79 47.5 141.5t134.5 62.5q58 0 87.5 -31t29.5 -79q0 -78 -48.5 -142.5t-137.5 -64.5q-56 0 -84.5 32.5t-28.5 80.5zM104 -4q0 39 -13.5 83t-53.5 142l233 76q58 -107 58 -203q0 -130 -91 -258.5t-245 -238.5l-90 102q94 75 121 105q81 85 81 192z" />
    <glyph glyph-name="less" unicode="&#x3c;" 
d="M31 473v94l872 469l41 -166l-682 -350l682 -370l-41 -164z" />
    <glyph glyph-name="equal" unicode="=" 
d="M74 612v160h897v-160h-897zM74 254v160h897v-160h-897z" />
    <glyph glyph-name="greater" unicode="&#x3e;" 
d="M152 -14l-41 164l680 370l-680 350l41 166l872 -469v-94z" />
    <glyph glyph-name="question" unicode="?" horiz-adv-x="757" 
d="M180 463q-4 64 11.5 121.5t43.5 99.5t62.5 79.5t70 69t65.5 60.5t48.5 61t18.5 64t-29 67.5t-70.5 62.5t-83.5 50t-71 35l-29 12l100 213q10 -4 26 -10.5t63.5 -29.5t91 -48t96 -64t90.5 -79t64 -91.5t26 -103.5q0 -48 -20 -91.5t-52 -78t-71.5 -68.5t-80 -69.5
t-75.5 -72.5t-59.5 -86t-30.5 -103h-205zM74 92q0 76 48 138.5t134 62.5q59 0 88 -31.5t29 -83.5q0 -72 -49 -137.5t-136 -65.5q-114 0 -114 117z" />
    <glyph glyph-name="at" unicode="@" horiz-adv-x="1718" 
d="M35 262q0 119 34 239t95 226.5t150 199t195 159.5t234 105t263 38q285 0 458.5 -158.5t173.5 -400.5q0 -70 -15.5 -145.5t-49 -158.5t-99.5 -157.5t-155 -120.5q-38 -19 -87.5 -35.5t-88.5 -26t-109 -25t-114 -26.5l2 211q-36 -90 -115.5 -150.5t-167.5 -60.5
q-99 0 -160 79t-61 222q0 110 38 210t102.5 175t148 131t177.5 84.5t187 28.5q36 0 83 -4t76 -8l30 -4l-115 -533q-9 -42 -14 -85t-6 -65l-1 -22q79 11 143 54.5t103.5 107t60.5 139t21 154.5q0 194 -121 316t-338 122q-129 0 -249.5 -46.5t-212.5 -127t-161.5 -184
t-106 -221t-36.5 -234.5q0 -110 33.5 -199.5t90.5 -147t128.5 -89.5t151.5 -37l-45 -162q-112 8 -211.5 55.5t-175 127.5t-120 196.5t-44.5 253.5zM727 160q83 0 186 188l84 387q-86 -5 -165.5 -72t-128 -169.5t-48.5 -208.5q0 -125 72 -125z" />
    <glyph glyph-name="A" unicode="A" horiz-adv-x="1230" 
d="M-90 0l758 1376h241l215 -1376h-250l-43 305h-501l-164 -305h-256zM727 1038l-278 -514h350z" />
    <glyph glyph-name="B" unicode="B" horiz-adv-x="1185" 
d="M55 0l271 1366h405q111 0 192.5 -25.5t126.5 -70t66 -98t21 -117.5q0 -58 -20 -110t-54.5 -92t-68 -68t-72.5 -52q29 -17 54 -39.5t49.5 -56.5t39 -84t14.5 -109q0 -127 -70 -230t-184 -158.5t-247 -55.5h-523zM352 219h211q114 0 182 63.5t68 159.5q0 146 -178 146h-209
zM537 1147l-70 -348h250q6 3 16.5 9t36.5 26.5t45.5 44t36 62t16.5 79.5q0 62 -40 94.5t-140 32.5h-151z" />
    <glyph glyph-name="C" unicode="C" horiz-adv-x="1320" 
d="M90 567q0 126 39.5 247.5t115.5 225t178.5 182.5t237 124t281.5 45q121 0 234.5 -29.5t167.5 -58.5l53 -29l-137 -201q-5 4 -14.5 10.5t-42 23t-68 29t-90.5 23t-111 10.5q-164 0 -297.5 -80.5t-207 -215t-73.5 -293.5q0 -186 102 -284.5t269 -98.5q95 0 190 31.5
t143 62.5l48 31l102 -191q-8 -6 -22.5 -16.5t-63 -37.5t-102 -47.5t-137 -37.5t-168.5 -17q-181 0 -322.5 70t-223 205.5t-81.5 316.5z" />
    <glyph glyph-name="D" unicode="D" horiz-adv-x="1413" 
d="M55 0l271 1366h422q99 0 187.5 -19t169 -61.5t138.5 -106t92.5 -159t34.5 -213.5q0 -172 -71 -322.5t-193 -256.5t-289 -167t-354 -61h-408zM352 217h105q158 0 284.5 48.5t204 130.5t118 183t40.5 212q0 174 -98.5 266t-296.5 92h-172z" />
    <glyph glyph-name="E" unicode="E" horiz-adv-x="1075" 
d="M55 0l271 1366h821l-43 -217h-567l-68 -346h446l-43 -217h-446l-74 -369h580l-43 -217h-834z" />
    <glyph glyph-name="F" unicode="F" horiz-adv-x="1042" 
d="M55 0l271 1366h819l-45 -219h-563l-70 -354h446l-43 -220h-448l-113 -573h-254z" />
    <glyph glyph-name="G" unicode="G" horiz-adv-x="1388" 
d="M88 563q0 158 65.5 308t178 265t277 185t349.5 70q115 0 226.5 -26.5t165.5 -52.5l55 -26l-139 -205q-5 4 -15 9.5t-43 21t-68.5 27t-89.5 21t-108 9.5q-128 0 -239.5 -50.5t-187 -133.5t-118.5 -190t-43 -220q0 -183 108.5 -280.5t291.5 -97.5q42 0 92.5 6t79.5 12l30 6
l62 305h-256l45 219h510l-141 -708q-28 -7 -76 -17.5t-167 -27.5t-206 -17q-185 0 -329 70t-227 204.5t-83 313.5z" />
    <glyph glyph-name="H" unicode="H" horiz-adv-x="1497" 
d="M55 0l271 1366h254l-111 -559h657l111 559h254l-270 -1366h-254l116 588h-657l-117 -588h-254z" />
    <glyph glyph-name="I" unicode="I" horiz-adv-x="585" 
d="M55 0l271 1366h254l-271 -1366h-254z" />
    <glyph glyph-name="J" unicode="J" horiz-adv-x="587" 
d="M102 227l226 1139h254l-224 -1130q-14 -68 -29 -123t-38.5 -117t-51 -109.5t-67.5 -95t-88 -81t-113 -59t-141 -36.5l-80 215q54 4 100.5 21.5t78.5 40.5t59.5 59t44.5 66.5t31.5 73.5t21.5 70t16 66z" />
    <glyph glyph-name="K" unicode="K" horiz-adv-x="1220" 
d="M55 0l271 1366h254l-109 -541h35l518 541h334l-662 -666l426 -700h-297l-362 606h-35l-119 -606h-254z" />
    <glyph glyph-name="L" unicode="L" horiz-adv-x="1021" 
d="M55 0l271 1366h254l-228 -1147h586l-45 -219h-838z" />
    <glyph glyph-name="M" unicode="M" horiz-adv-x="1726" 
d="M31 0l321 1366h353l120 -948l500 948h371l-226 -1366h-245l176 1063l-572 -1063h-165l-142 1067l-246 -1067h-245z" />
    <glyph glyph-name="N" unicode="N" horiz-adv-x="1462" 
d="M55 0l271 1366h256l432 -985l196 985h246l-270 -1366h-258l-432 979l-195 -979h-246z" />
    <glyph glyph-name="O" unicode="O" horiz-adv-x="1546" 
d="M90 571q0 102 28 203t78.5 191.5t124.5 169t163 135t197.5 89t223.5 32.5q179 0 317 -75.5t211.5 -207.5t73.5 -299q0 -153 -63 -303t-170.5 -267.5t-262.5 -190.5t-325 -73q-137 0 -250.5 47t-188.5 128t-116 189.5t-41 231.5zM356 580q0 -78 20 -146t59.5 -123.5
t106.5 -88t154 -32.5q92 0 178 36t151.5 98t114.5 140.5t75 166.5t26 174q0 103 -37 185.5t-116.5 134t-190.5 51.5q-109 0 -210 -50t-173 -132t-115 -191t-43 -223z" />
    <glyph glyph-name="P" unicode="P" horiz-adv-x="1153" 
d="M55 0l271 1366h438q212 0 315 -102.5t103 -276.5q0 -117 -47.5 -217t-125.5 -166.5t-178 -103.5t-206 -37h-224l-92 -463h-254zM444 682h162q144 0 226.5 79t82.5 204q0 90 -48.5 136t-168.5 46h-161z" />
    <glyph glyph-name="Q" unicode="Q" horiz-adv-x="1546" 
d="M260 -133q69 11 202.5 57.5t194.5 83.5v6q-140 -4 -251 40.5t-178.5 124.5t-102.5 180.5t-35 213.5q0 151 62 298.5t168 262.5t260 186t325 71q271 0 436.5 -163t165.5 -421q0 -173 -77.5 -336t-208.5 -291t-294 -227t-345 -160q243 -78 465 -78q143 0 278.5 36.5
t216.5 90.5l53 -190q-219 -131 -569 -131q-177 0 -350 43t-436 151zM356 578q0 -80 21 -150t61.5 -126.5t108.5 -89t155 -32.5q93 0 178 35.5t150 96.5t113 140t73 169.5t25 181.5q0 104 -37 187t-116.5 134.5t-190.5 51.5q-146 0 -271.5 -84t-197.5 -221.5t-72 -292.5z" />
    <glyph glyph-name="R" unicode="R" horiz-adv-x="1228" 
d="M834 0l-230 516h-192l-103 -516h-254l271 1366h415q215 0 319.5 -99t104.5 -274q0 -143 -91.5 -259.5t-225.5 -168.5l260 -565h-274zM455 733h139q142 0 223.5 70.5t81.5 181.5q0 79 -51 120.5t-172 41.5h-139z" />
    <glyph glyph-name="S" unicode="S" horiz-adv-x="1007" 
d="M8 90l74 225q6 -5 16 -12.5t43 -27t67 -34.5t84.5 -27.5t98.5 -12.5q101 0 175.5 47t74.5 127q0 45 -26 84.5t-67 70.5t-90.5 62.5t-99.5 68t-91 78.5t-67 103t-26 133q0 83 35.5 158t99 132.5t160 91.5t211.5 34q81 0 167 -15.5t131 -31.5l46 -15l-53 -229
q-16 7 -43.5 18t-104.5 29t-145 18q-111 0 -178.5 -43.5t-67.5 -120.5q0 -46 26 -85t67 -68.5t90.5 -59.5t99.5 -66t91 -79.5t67 -108t26 -143.5q0 -95 -41.5 -174.5t-111.5 -131.5t-160 -81t-189 -29q-98 0 -195.5 29t-145.5 58z" />
    <glyph glyph-name="T" unicode="T" horiz-adv-x="1155" 
d="M338 0l227 1147h-426l45 219h1104l-45 -219h-424l-227 -1147h-254z" />
    <glyph glyph-name="U" unicode="U" horiz-adv-x="1392" 
d="M131 408q0 63 16 151l160 807h254l-166 -834q-12 -62 -12 -110q0 -120 63 -176t172 -56q139 0 236 87.5t129 250.5l166 838h254l-170 -856q-52 -257 -215.5 -396t-405.5 -139q-78 0 -148 15.5t-131.5 49.5t-106 83.5t-70 122.5t-25.5 162z" />
    <glyph glyph-name="V" unicode="V" horiz-adv-x="1187" 
d="M358 -10l-186 1376h248l123 -989l516 989h272l-731 -1376h-242z" />
    <glyph glyph-name="W" unicode="W" horiz-adv-x="1894" 
d="M315 -10l-106 1376h246l63 -1006l483 1006h195l82 -1008l465 1008h264l-653 -1376h-254l-84 923l-449 -923h-252z" />
    <glyph glyph-name="X" unicode="X" horiz-adv-x="1214" 
d="M-86 0l569 698l-278 668h272l189 -481l381 481h305l-576 -704l283 -662h-275l-192 475l-373 -475h-305z" />
    <glyph glyph-name="Y" unicode="Y" horiz-adv-x="1175" 
d="M338 0l113 569l-312 797h285l190 -532l414 532h301l-624 -795l-113 -571h-254z" />
    <glyph glyph-name="Z" unicode="Z" horiz-adv-x="1126" 
d="M-23 0l13 162l811 985h-590l45 219h926l-23 -162l-813 -985h641l-45 -219h-965z" />
    <glyph glyph-name="bracketleft" unicode="[" horiz-adv-x="643" 
d="M104 -332l150 1698h393l-12 -145h-219l-125 -1407h219l-12 -146h-394z" />
    <glyph glyph-name="backslash" unicode="\" horiz-adv-x="1253" 
d="M852 -401l-588 1767h172l590 -1767h-174z" />
    <glyph glyph-name="bracketright" unicode="]" horiz-adv-x="681" 
d="M20 -186h220l125 1407h-220l13 145h393l-150 -1698h-393z" />
    <glyph glyph-name="asciicircum" unicode="^" horiz-adv-x="1126" 
d="M70 512l438 879h143l439 -879h-183l-329 664l-330 -664h-178z" />
    <glyph glyph-name="underscore" unicode="_" horiz-adv-x="1077" 
d="M-111 -76h1024v-137h-1024v137z" />
    <glyph glyph-name="grave" unicode="`" horiz-adv-x="1024" 
d="M639 1040l-231 408h237l139 -334z" />
    <glyph glyph-name="a" unicode="a" horiz-adv-x="1017" 
d="M18 285q0 64 19.5 137.5t56 148.5t93.5 144t126 123t160 86t189 32q43 0 136 -12t173 -12l-133 -631q-17 -87 -17 -131q0 -69 31 -133l-225 -62q-39 64 -39 146q0 42 4 67h-6q-47 -96 -137.5 -154.5t-190.5 -58.5q-107 0 -173.5 78.5t-66.5 231.5zM266 311
q0 -133 74 -133q55 0 121.5 61t117.5 149t68 169l45 217q-32 10 -69 10q-87 0 -170 -67t-135 -177.5t-52 -228.5z" />
    <glyph glyph-name="b" unicode="b" horiz-adv-x="1046" 
d="M6 0l303 1427l254 41l-149 -704h6q48 75 136.5 133.5t174.5 58.5q111 0 182.5 -88.5t71.5 -242.5q0 -72 -18.5 -147.5t-52.5 -148t-87.5 -136.5t-119 -112.5t-151 -77t-179.5 -28.5q-46 0 -165.5 12.5t-205.5 12.5zM637 733q-48 0 -115 -54.5t-117.5 -124.5t-60.5 -118
l-59 -278q42 -11 80 -11q101 0 186 67.5t130.5 168.5t45.5 207q0 78 -26.5 110.5t-63.5 32.5z" />
    <glyph glyph-name="c" unicode="c" horiz-adv-x="888" 
d="M37 387q0 106 39 207.5t108 182t173.5 130t226.5 49.5q52 0 101 -10t82 -24t58 -28t37 -24l12 -10l-86 -178q-4 3 -10.5 9t-29 21t-45.5 26t-58.5 20.5t-69.5 9.5q-108 0 -193 -107t-85 -268q0 -114 45.5 -171.5t128.5 -57.5q54 0 113.5 23.5t91.5 46.5l33 24l77 -164
q-5 -5 -15.5 -13t-44.5 -28.5t-71.5 -36t-94.5 -28.5t-116 -13q-186 0 -296.5 116t-110.5 296z" />
    <glyph glyph-name="d" unicode="d" horiz-adv-x="1052" 
d="M27 311q0 108 43.5 221t118.5 208t189 155.5t243 60.5q73 0 139 -20l104 491l254 41l-248 -1167q-16 -71 -16 -131q0 -69 31 -133l-226 -62q-38 62 -38 148l4 65h-7q-50 -102 -142 -157.5t-189 -55.5q-114 0 -187 90t-73 246zM369 178q53 0 120.5 60.5t121 149.5
t69.5 169l31 150q7 37 -15.5 57t-64.5 20q-91 0 -172 -65.5t-127.5 -168.5t-46.5 -214q0 -158 84 -158z" />
    <glyph glyph-name="e" unicode="e" horiz-adv-x="897" 
d="M29 334q0 82 26 169.5t75.5 168t114.5 144.5t151 102t177 38q118 0 196.5 -54t78.5 -163q0 -54 -23 -103.5t-59.5 -86.5t-88.5 -70.5t-102 -57t-108.5 -43.5t-100.5 -31.5t-85 -20.5q3 -77 34 -119.5t107 -42.5q62 0 136.5 29t118.5 57l44 29l39 -185q-7 -5 -19 -13
t-51.5 -28.5t-81 -36t-102 -28.5t-119.5 -13q-90 0 -160 28.5t-112.5 79t-64 114t-21.5 137.5zM535 776q-67 0 -141 -78.5t-101 -214.5q74 20 140 49t119.5 76.5t53.5 98.5q0 29 -16.5 49t-54.5 20z" />
    <glyph glyph-name="f" unicode="f" horiz-adv-x="696" 
d="M76 748v133l176 57l6 37q12 87 31.5 158.5t56.5 143t87.5 120.5t127.5 79.5t174 30.5q68 0 133 -15.5t96 -31.5l31 -16l-86 -187q-8 6 -23 14.5t-58 23t-83 14.5q-51 0 -91 -20.5t-66 -53t-46 -84t-31.5 -101.5t-21.5 -118h248l-45 -184h-229q-49 -379 -92 -560
q-107 -457 -330 -608q-70 -48 -154 -67l-98 170q49 14 92 42.5t76.5 64t63.5 88t51.5 102t41 119t32.5 127t26.5 137t22 137.5t18.5 141l14 107h-151z" />
    <glyph glyph-name="g" unicode="g" horiz-adv-x="1015" 
d="M45 -127h205q-49 -64 -49 -115q0 -32 28 -57t90 -25q50 0 89 13.5t65 35t45 56t29 68.5t17.5 81t10.5 85t7.5 89t9.5 84h-6q-49 -96 -137 -154.5t-181 -58.5q-111 0 -180.5 74.5t-69.5 214.5q0 86 27 180.5t82.5 185.5t131 164t180.5 117.5t223 44.5q43 0 136 -12
t173 -12l-119 -565q-12 -56 -24.5 -139.5t-21 -147t-25.5 -141t-38 -135t-58.5 -114.5t-87 -93.5t-124.5 -59t-170 -22.5q-153 0 -238 58.5t-85 135.5q0 81 65 164zM338 178q46 0 98 39t93.5 97t73.5 123.5t44 119.5l45 217q-32 10 -69 10q-88 0 -170.5 -67.5t-134.5 -182.5
t-52 -243q0 -113 72 -113z" />
    <glyph glyph-name="h" unicode="h" horiz-adv-x="1046" 
d="M6 0l303 1427l254 41l-151 -714q54 79 154 140.5t210 61.5q103 0 146 -55.5t43 -140.5q0 -24 -2.5 -49.5t-9 -60.5t-10.5 -55.5t-14.5 -66.5t-13.5 -61l-98 -467h-246l101 471q33 168 33 201q0 61 -52 61q-74 0 -182.5 -106t-124.5 -181l-94 -446h-246z" />
    <glyph glyph-name="i" unicode="i" horiz-adv-x="493" 
d="M381 1135q-58 0 -89.5 35.5t-31.5 91.5q0 70 48 115.5t114 45.5q57 0 89 -35t32 -92q0 -69 -47.5 -115t-114.5 -46zM8 0l197 932h246l-197 -932h-246z" />
    <glyph glyph-name="j" unicode="j" horiz-adv-x="493" 
d="M383 1135q-60 0 -95.5 31.5t-35.5 82.5q0 74 43 124t115 50q61 0 96 -32.5t35 -87.5q0 -73 -45 -120.5t-113 -47.5zM14 35l191 897h246l-189 -887q-26 -123 -77.5 -220.5t-119 -160t-142 -99t-156.5 -50.5l-78 200q266 40 325 320z" />
    <glyph glyph-name="k" unicode="k" horiz-adv-x="991" 
d="M6 0l303 1427l254 41l-182 -856h33l319 320h318l-455 -436l278 -496h-278l-223 424h-31l-90 -424h-246z" />
    <glyph glyph-name="l" unicode="l" horiz-adv-x="491" 
d="M6 0l303 1427l254 41l-311 -1468h-246z" />
    <glyph glyph-name="m" unicode="m" horiz-adv-x="1587" 
d="M4 0l195 911l243 41l-47 -223q44 83 148 155t221 72q105 0 150 -62t38 -159q48 83 149 152t216 69q188 0 188 -196q0 -20 -2.5 -44.5t-5 -43t-9 -51.5t-9.5 -48t-11.5 -54.5t-11.5 -51.5l-98 -467h-246l100 471q33 168 33 201q0 30 -11 45.5t-40 15.5q-48 0 -115.5 -51
t-118.5 -117t-61 -112l-94 -453h-246l100 471q33 168 33 201q0 30 -11 45.5t-40 15.5q-49 0 -117 -51.5t-118.5 -118t-59.5 -110.5l-96 -453h-246z" />
    <glyph glyph-name="n" unicode="n" horiz-adv-x="1044" 
d="M4 0l195 911l243 41l-47 -223q46 83 153.5 155t225.5 72q103 0 146 -55.5t43 -140.5q0 -24 -2.5 -49.5t-9 -60.5t-10.5 -55.5t-14.5 -66.5t-13.5 -61l-98 -467h-246l101 471q32 163 32 201q0 30 -11 45.5t-40 15.5q-49 0 -119.5 -51t-123.5 -117.5t-62 -111.5l-96 -453
h-246z" />
    <glyph glyph-name="o" unicode="o" horiz-adv-x="1075" 
d="M37 381q0 109 41 212.5t113 184t179 129.5t230 49q101 0 180.5 -33t127.5 -88.5t73 -124t25 -145.5q0 -73 -21 -152t-67 -157.5t-111 -140.5t-160.5 -101t-206.5 -39q-100 0 -178.5 32t-127 88.5t-73 128.5t-24.5 157zM295 387q0 -107 40.5 -168t123.5 -61
q64 0 119.5 37.5t91 95.5t55.5 126.5t20 133.5q0 100 -40 161.5t-121 61.5q-115 0 -202 -113t-87 -274z" />
    <glyph glyph-name="p" unicode="p" horiz-adv-x="1042" 
d="M-98 -481l297 1392l243 41l-47 -215q51 99 143.5 159t184.5 60q111 0 184.5 -89.5t73.5 -237.5q0 -110 -43 -225.5t-116.5 -211t-182.5 -156.5t-229 -61q-90 0 -158 35l-96 -450zM303 250q-10 -46 11 -74.5t75 -28.5q88 0 165.5 65t123 170t45.5 218q0 82 -23 118t-59 36
q-52 0 -120.5 -64.5t-123 -158.5t-71.5 -177z" />
    <glyph glyph-name="q" unicode="q" horiz-adv-x="1048" 
d="M27 307q0 87 25.5 177t77 174.5t122.5 151t171 106.5t212 40q47 0 166 -12t205 -12l-291 -1372l-254 -41l135 639h-6q-59 -74 -142 -128.5t-167 -54.5q-111 0 -182.5 89t-71.5 243zM285 342q0 -78 26.5 -110.5t63.5 -32.5q48 0 115 55t117.5 125.5t60.5 118.5l57 276
q-38 10 -78 10q-101 0 -186 -67t-130.5 -168t-45.5 -207z" />
    <glyph glyph-name="r" unicode="r" horiz-adv-x="743" 
d="M4 0l195 911l243 41l-51 -243h10q82 121 149 181t150 60q24 0 45.5 -3t30.5 -6l10 -3l-51 -240q-32 13 -73 13q-95 0 -205 -133q-111 -133 -131 -226l-76 -352h-246z" />
    <glyph glyph-name="s" unicode="s" horiz-adv-x="763" 
d="M-31 53l56 185q11 -9 31.5 -21.5t81 -33.5t118.5 -21q63 0 100 23t37 69q0 38 -29.5 70t-71.5 60.5t-84.5 61.5t-72 88t-29.5 125q0 138 104.5 217.5t270.5 79.5q73 0 138.5 -15t94.5 -31l29 -15l-55 -180q-9 6 -25 15t-67 24.5t-102 15.5q-68 0 -105 -24t-37 -66
q0 -31 21.5 -58t53 -47t69 -48t69 -58t53 -79.5t21.5 -110.5q0 -75 -31 -134.5t-84 -95.5t-119 -55t-141 -19q-78 0 -152 19.5t-108 39.5z" />
    <glyph glyph-name="t" unicode="t" horiz-adv-x="784" 
d="M113 182q0 50 10 94l100 472h-133v133l180 57l41 195l252 57l-55 -258h280l-40 -184h-279l-86 -400q-10 -44 -10 -84q0 -78 61 -78q76 0 189 84l57 -180q-174 -115 -334 -115q-233 0 -233 207z" />
    <glyph glyph-name="u" unicode="u" horiz-adv-x="1048" 
d="M53 209q0 30 4 66t8 57.5t14 68.5t13 64l98 467h246l-100 -471q-33 -168 -33 -201q0 -82 64 -82q45 0 97.5 40.5t94.5 100t74 124t43 114.5l80 375h245l-133 -631q-20 -104 -15 -159t30 -105l-228 -62q-47 78 -37 193h-6q-135 -193 -338 -193q-221 0 -221 234z" />
    <glyph glyph-name="v" unicode="v" horiz-adv-x="927" 
d="M225 -6q-99 534 -114 938h247q0 -274 43 -651q224 395 318 651h254q-19 -48 -41.5 -99t-42 -92.5t-49.5 -98.5t-47.5 -90.5t-54.5 -97.5t-52 -89.5t-58 -96t-54 -88.5t-59 -95.5t-56 -90.5h-234z" />
    <glyph glyph-name="w" unicode="w" horiz-adv-x="1458" 
d="M219 -6q-87 467 -104 938h243q0 -340 33 -651q176 316 299 651h213q0 -288 45 -656q174 321 297 656h250q-153 -388 -494 -938h-200q-48 246 -74 551q-126 -272 -299 -551h-209z" />
    <glyph glyph-name="x" unicode="x" horiz-adv-x="946" 
d="M-98 0l428 483l-209 449h256l117 -275l229 275h287l-426 -477l209 -455h-250l-123 279l-234 -279h-284z" />
    <glyph glyph-name="y" unicode="y" horiz-adv-x="940" 
d="M-268 -301q116 8 237 89.5t187 164.5q24 30 33 63.5t6 102.5q-5 133 -35 396t-74 417h242q39 -166 56 -353t7 -335q231 386 338 688h252q-56 -144 -174 -363t-256 -428q-186 -283 -371 -440q-217 -183 -405 -186z" />
    <glyph glyph-name="z" unicode="z" horiz-adv-x="892" 
d="M-25 0l17 162l534 577h-413l28 193h731l-22 -172l-524 -567h432l-41 -193h-742z" />
    <glyph glyph-name="braceleft" unicode="{" horiz-adv-x="688" 
d="M195 133q0 337 -181 342l11 125q46 1 84 24t63 53t46 86t31.5 94.5t20.5 109.5t13 101.5t8 97.5q1 16 2 24q10 112 71.5 187t155.5 108t217 33l-8 -136q-57 -5 -97 -13.5t-69 -26t-46 -37t-28.5 -56t-17 -72.5t-10.5 -96q-40 -456 -252 -540v-4q71 -30 115.5 -129.5
t44.5 -284.5q0 -39 -6.5 -132.5t-6.5 -127.5q0 -98 45.5 -138.5t178.5 -52.5l-15 -135q-389 0 -389 285q0 47 9.5 149t9.5 162z" />
    <glyph glyph-name="bar" unicode="|" horiz-adv-x="641" 
d="M221 -461v1995h174v-1995h-174z" />
    <glyph glyph-name="braceright" unicode="}" horiz-adv-x="698" 
d="M227 -27q10 109 29.5 199t44 151t55.5 106t61 70t62 38v4q-160 68 -160 393q0 37 6.5 129.5t6.5 128.5q0 98 -45.5 139t-175.5 51l12 136q178 0 283.5 -72t105.5 -219q0 -32 -9 -133.5t-9 -161.5q0 -54 4.5 -99t16.5 -89t32 -74t52.5 -49.5t76.5 -20.5l-10 -125
q-197 -5 -251 -407q-9 -63 -20 -203q-31 -328 -442 -328l10 135q57 5 96 14t67.5 26.5t45.5 37t28 56t16.5 72t10.5 95.5z" />
    <glyph glyph-name="asciitilde" unicode="~" horiz-adv-x="1159" 
d="M84 344q0 176 75.5 261t211.5 85q66 0 117.5 -20.5t83.5 -49.5t59.5 -58t60 -49.5t70.5 -20.5q40 0 68 19.5t41 51t18.5 60.5t5.5 59h164q0 -176 -75.5 -261t-211.5 -85q-56 0 -102 14.5t-74.5 36.5t-56 47t-48.5 47t-49.5 36.5t-60.5 14.5q-40 0 -68 -19t-41 -50
t-18.5 -60t-5.5 -59h-164z" />
    <glyph glyph-name="uni00A0" unicode="&#xa0;" horiz-adv-x="491" 
 />
    <glyph glyph-name="exclamdown" unicode="&#xa1;" horiz-adv-x="565" 
d="M369 469l-150 -903h-282l237 903h195zM494 844q0 -79 -48 -142t-135 -63q-58 0 -87 31.5t-29 79.5q0 78 48.5 142t137.5 64q57 0 85 -32t28 -80z" />
    <glyph glyph-name="cent" unicode="&#xa2;" horiz-adv-x="940" 
d="M326 -45l47 188q-140 26 -219.5 125.5t-79.5 239.5q0 74 22 146t66.5 136t105.5 113t144.5 79t177.5 32l45 178h98l-47 -184q47 -7 88.5 -21t67.5 -29.5t45 -30t27 -23.5l8 -9l-134 -160q-6 7 -18 17t-51 30.5t-82 26.5l-117 -471q51 5 105.5 27.5t82.5 42.5l29 20
l60 -174q-5 -5 -15 -13t-42.5 -28t-68 -35.5t-91 -28.5t-111.5 -14l-45 -180h-98zM317 522q0 -139 107 -174l113 455q-94 -21 -157 -98t-63 -183z" />
    <glyph glyph-name="sterling" unicode="&#xa3;" horiz-adv-x="1112" 
d="M123 489l27 119h131l55 164q64 194 169 294.5t265 100.5q59 0 110 -12t82 -29.5t53.5 -35t32.5 -29.5l9 -12l-113 -160q-3 3 -8 8.5t-22.5 19.5t-37.5 24.5t-52 19t-66 8.5q-68 0 -111.5 -44t-77.5 -159l-49 -158h328l-41 -119h-324q-24 -78 -54.5 -149t-49.5 -103
l-19 -32q11 -7 30.5 -17.5t79 -27.5t118.5 -17q31 0 51.5 2.5t48 13t46 30.5t37.5 58.5t32 92.5h184q-90 -391 -393 -391q-70 0 -139.5 22t-132 44t-115.5 22q-57 0 -166 -37l-53 127q6 2 16 6t38 19t52 33.5t49.5 50.5t38.5 69l60 184h-119z" />
    <glyph glyph-name="yen" unicode="&#xa5;" horiz-adv-x="1110" 
d="M139 557l27 119h180l-158 467h250l129 -436l320 436h258l-354 -467h200l-26 -119h-265l-47 -61l-18 -86h299l-25 -119h-299l-61 -291h-246l62 291h-281l25 119h280l19 84l-23 63h-246z" />
    <glyph glyph-name="brokenbar" unicode="&#xa6;" horiz-adv-x="552" 
d="M207 682v733h188v-733h-188zM207 365h188v-734h-188v734z" />
    <glyph glyph-name="section" unicode="&#xa7;" horiz-adv-x="1169" 
d="M127 -154q47 58 82 139.5t45 159.5l90 697q14 113 51.5 209.5t98 173.5t152 121.5t204.5 44.5q59 0 117.5 -11t99.5 -26.5t74 -31.5t49 -27l16 -11l-73 -135q-6 4 -16 10.5t-42 23t-64 29t-78 23t-89 10.5q-75 0 -136.5 -35.5t-102 -96t-66 -133t-35.5 -153.5l-72 -589
q-10 -66 -17.5 -106t-24.5 -104.5t-44.5 -116.5t-66.5 -91zM-70 -244q6 -4 16 -10.5t42 -23t64 -29t78 -23t89 -10.5q74 0 135 35t102 95t66.5 132.5t36.5 155.5l74 590q7 55 14 94t23.5 105t46.5 122t71 96l150 -26q-101 -126 -125 -299l-94 -697q-15 -113 -52.5 -209
t-98 -173.5t-151.5 -121.5t-204 -44q-59 0 -117 11t-99 26.5t-73.5 31t-48.5 26.5l-16 11z" />
    <glyph glyph-name="dieresis" unicode="&#xa8;" horiz-adv-x="1024" 
d="M811 1143q-55 0 -85 33t-30 86q0 67 45.5 110t108.5 43q54 0 84.5 -32.5t30.5 -86.5q0 -66 -45 -109.5t-109 -43.5zM387 1143q-55 0 -85 33t-30 86q0 67 45.5 110t108.5 43q54 0 84.5 -32.5t30.5 -86.5q0 -66 -45 -109.5t-109 -43.5z" />
    <glyph glyph-name="copyright" unicode="&#xa9;" horiz-adv-x="1591" 
d="M113 682q0 143 56 274t150.5 226t225.5 151t274 56q191 0 354 -95t258 -258t95 -354t-95 -354t-258 -258t-354 -95q-143 0 -274 56t-225.5 151t-150.5 226t-56 274zM227 682q0 -164 78 -302t214.5 -219t299.5 -81t299.5 81t214.5 219t78 302t-78 302t-214.5 219
t-299.5 81t-299.5 -81t-214.5 -219t-78 -302zM424 680q0 79 27.5 153.5t78 135t131.5 97t179 36.5q56 0 107.5 -12.5t84.5 -31t58 -36.5t36 -30l11 -13l-93 -133q-3 4 -9 10.5t-26 23t-42 29t-56.5 23t-70.5 10.5q-110 0 -169 -72t-59 -176q0 -109 65 -184.5t175 -75.5
q61 0 117 24.5t82 49.5l26 24l56 -139q-4 -5 -11.5 -13t-34.5 -28.5t-58.5 -36t-83 -28.5t-107.5 -13q-181 0 -297.5 117t-116.5 289z" />
    <glyph glyph-name="ordfeminine" unicode="&#xaa;" horiz-adv-x="800" 
d="M330 702q-78 0 -129 53t-51 150q0 60 19.5 126t59 130t93.5 115.5t129 83t159 31.5q33 0 102 -9.5t126 -9.5l-93 -442q-24 -120 11 -185l-170 -43q-35 59 -25 150h-4q-32 -68 -95 -109t-132 -41zM385 850q55 0 122 87t85 173l31 145q-16 9 -43 9q-87 0 -161.5 -104
t-74.5 -232q0 -78 41 -78z" />
    <glyph glyph-name="guillemotleft" unicode="&#xab;" horiz-adv-x="1009" 
d="M418 510l2 8q9 6 16 11.5t15.5 13t24 22t34 32t53 51t73.5 70.5t103.5 99t134.5 129l134 -41l-363 -399l197 -383l-137 -41q-48 73 -91 138.5t-68 103.5t-46.5 71.5t-32.5 49.5t-20.5 30t-15.5 21t-13 14zM305 82q-48 73 -91 138.5t-68 103.5t-46.5 71.5t-32.5 49.5
t-20.5 30t-15.5 21t-13 14l2 8q9 6 16 11.5t16 13t24.5 22t33.5 32t53 51t73.5 70.5t103.5 99t135 129l133 -41l-362 -399l196 -383z" />
    <glyph glyph-name="logicalnot" unicode="&#xac;" horiz-adv-x="1232" 
d="M133 647v160h948v-580h-168v420h-780z" />
    <glyph glyph-name="registered" unicode="&#xae;" horiz-adv-x="878" 
d="M537 733q-146 0 -250.5 104t-104.5 250t104.5 250.5t250.5 104.5t250 -104.5t104 -250.5t-104 -250t-250 -104zM537 799q111 0 194.5 86.5t83.5 201.5t-83.5 201t-194.5 86q-114 0 -196.5 -85.5t-82.5 -201.5t82.5 -202t196.5 -86zM614 918l-88 126h-26v-126h-94v348h122
q144 0 144 -105q0 -64 -62 -96l109 -147h-105zM500 1106h35q40 0 40 47q0 49 -55 49h-20v-96z" />
    <glyph glyph-name="macron" unicode="&#xaf;" horiz-adv-x="1024" 
d="M117 1186l33 151h528l-33 -151h-528z" />
    <glyph glyph-name="degree" unicode="&#xb0;" horiz-adv-x="647" 
d="M432 899q-104 0 -177 72t-73 174t73 174t177 72t177 -72t73 -174t-73 -174t-177 -72zM432 1008q56 0 94.5 39.5t38.5 97.5t-38.5 96.5t-94.5 38.5t-94.5 -38.5t-38.5 -96.5t38.5 -97.5t94.5 -39.5z" />
    <glyph glyph-name="plusminus" unicode="&#xb1;" 
d="M74 627v161h354v355h174v-355h348v-161h-348v-351h-174v351h-354zM88 0v162h856v-162h-856z" />
    <glyph glyph-name="twosuperior" unicode="&#xb2;" horiz-adv-x="698" 
d="M119 770v115l233 194q104 86 157.5 148t53.5 121q0 40 -25.5 62t-70.5 22q-35 0 -69 -13.5t-51 -26.5l-17 -14l-99 127q5 4 13.5 11.5t36.5 26t58.5 32.5t77.5 25.5t95 11.5q112 0 180 -60t68 -166q0 -100 -61.5 -186t-180.5 -184l-112 -94h309l-21 -152h-575z" />
    <glyph glyph-name="threesuperior" unicode="&#xb3;" horiz-adv-x="647" 
d="M102 813l64 148q8 -5 22 -13t56.5 -21.5t85.5 -13.5q69 0 104 31.5t35 73.5q0 45 -37 65.5t-90 20.5h-63l18 149q74 2 142.5 44t68.5 96q0 55 -72 55q-28 0 -59 -9t-47 -19l-17 -9l-71 125q4 3 12.5 8t34.5 18.5t53.5 23.5t67 18t77.5 8q104 0 166 -52.5t62 -127.5
q0 -77 -64 -141.5t-139 -92.5q158 -57 158 -182q0 -102 -98.5 -181t-245.5 -79q-63 0 -119 14t-81 28z" />
    <glyph glyph-name="acute" unicode="&#xb4;" horiz-adv-x="1024" 
d="M496 1040l-138 74l283 334h262z" />
    <glyph glyph-name="mu" unicode="&#xb5;" horiz-adv-x="1157" 
d="M20 -80l201 1012h244l-109 -553q-20 -86 -9 -133t65 -47q86 0 243 125l121 608h246l-127 -643q-17 -83 0.5 -103t101.5 -20l-36 -180q-86 -11 -125 -11q-115 0 -160 40t-45 112q-166 -152 -328 -152q-44 0 -88 13q-12 -88 -20.5 -241.5t-14.5 -188.5h-252q59 198 92 362z
" />
    <glyph glyph-name="mu" unicode="&#x3bc;" horiz-adv-x="1157" 
d="M20 -80l201 1012h244l-109 -553q-20 -86 -9 -133t65 -47q86 0 243 125l121 608h246l-127 -643q-17 -83 0.5 -103t101.5 -20l-36 -180q-86 -11 -125 -11q-115 0 -160 40t-45 112q-166 -152 -328 -152q-44 0 -88 13q-12 -88 -20.5 -241.5t-14.5 -188.5h-252q59 198 92 362z
" />
    <glyph glyph-name="paragraph" unicode="&#xb6;" horiz-adv-x="1333" 
d="M231 -336q124 0 196 74.5t105 241.5l76 387h-16q-121 0 -214.5 33t-149 91.5t-83.5 132t-28 160.5q0 157 89.5 292t236.5 212.5t311 77.5h637l-27 -137h-141l-244 -1229h-143l243 1229h-145l-252 -1270q-14 -72 -33 -129.5t-54.5 -119t-82 -102t-119 -67t-162.5 -26.5
v149z" />
    <glyph glyph-name="periodcentered" unicode="&#xb7;" horiz-adv-x="501" 
d="M207 365q-57 0 -85 32t-28 80q0 79 47.5 142t134.5 63q58 0 87.5 -31.5t29.5 -79.5q0 -78 -48.5 -142t-137.5 -64z" />
    <glyph glyph-name="cedilla" unicode="&#xb8;" horiz-adv-x="1024" 
d="M293 -145q0 8 2 17t4 15t7.5 16.5t8 15t10.5 17.5t11 17l35 57h127l-27 -49q-29 -58 -29 -70q0 -18 14 -31.5t34 -24.5t40 -25t34 -40.5t14 -62.5q0 -75 -70.5 -133.5t-165.5 -58.5q-37 0 -72.5 6.5t-59.5 15.5t-43.5 18.5t-28.5 16.5l-9 6l47 115q7 -7 19.5 -17
t51 -26.5t77.5 -16.5q45 0 75.5 18.5t30.5 43.5q0 23 -21.5 42.5t-47 32t-47 35t-21.5 50.5z" />
    <glyph glyph-name="onesuperior" unicode="&#xb9;" horiz-adv-x="608" 
d="M100 770l29 143h178l109 541h-164l18 143h359l-137 -684h163l-28 -143h-527z" />
    <glyph glyph-name="ordmasculine" unicode="&#xba;" horiz-adv-x="831" 
d="M453 702q-143 0 -219 80.5t-76 202.5q0 102 50 194t144.5 151t212.5 59q142 0 218.5 -80.5t76.5 -192.5q0 -65 -25.5 -135t-73.5 -133.5t-129 -104.5t-179 -41zM465 838q84 0 137 84.5t53 183.5q0 63 -25.5 105t-76.5 42q-75 0 -134 -78t-59 -186q0 -70 26 -110.5
t79 -40.5z" />
    <glyph glyph-name="guillemotright" unicode="&#xbb;" horiz-adv-x="1011" 
d="M385 123l363 399l-197 383l137 41q48 -73 91 -138.5t68 -103.5t46.5 -71.5t32.5 -49.5t20.5 -30t15.5 -21t13 -14l-2 -8q-9 -6 -16 -11.5t-16 -13t-24.5 -22t-33.5 -32t-53 -51t-73.5 -70.5t-103.5 -99t-135 -129zM-14 123l362 399l-196 383l137 41q65 -98 120 -182.5
t78.5 -120.5t42.5 -65.5t27 -39.5t18 -20l-2 -8q-9 -6 -16 -11.5t-15.5 -13t-24 -22t-34 -32t-53 -51t-73.5 -70.5t-103.5 -99t-134.5 -129z" />
    <glyph glyph-name="onequarter" unicode="&#xbc;" horiz-adv-x="1693" 
d="M1225 0l37 182h-340l8 129l426 520h213l-101 -507h105l-27 -142h-106l-37 -182h-178zM1096 324h194l62 309zM76 549l28 143h179l108 541h-164l19 143h358l-137 -684h164l-29 -143h-526zM469 0h-178l1098 1417l133 -57z" />
    <glyph glyph-name="onehalf" unicode="&#xbd;" horiz-adv-x="1785" 
d="M82 549l29 143h178l108 541h-164l19 143h358l-137 -684h164l-29 -143h-526zM1032 0v115l234 194q104 86 157.5 148t53.5 121q0 39 -26 61.5t-71 22.5q-35 0 -69 -13.5t-51 -26.5l-17 -14l-98 127q4 4 12.5 11.5t37 26t59 32.5t77 25.5t94.5 11.5q112 0 180 -60t68 -166
q0 -101 -61 -186.5t-180 -183.5l-113 -94h309l-20 -152h-576zM467 0h-178l1097 1417l134 -57z" />
    <glyph glyph-name="threequarters" unicode="&#xbe;" horiz-adv-x="1738" 
d="M78 582l63 147q8 -5 22 -13t56.5 -21t85.5 -13q69 0 104 31t35 73q0 45 -37 65.5t-90 20.5h-63l18 150q74 2 142.5 43.5t68.5 95.5q0 56 -71 56q-28 0 -59 -9.5t-47 -18.5l-17 -9l-72 125q12 8 34.5 20.5t87 33.5t124.5 21q104 0 165.5 -52.5t61.5 -127.5q0 -77 -64 -141
t-139 -92q158 -57 158 -183q0 -102 -98.5 -181t-245.5 -79q-63 0 -118.5 14.5t-80.5 29.5zM481 0h-178l1098 1417l133 -57zM1266 0l37 182h-340l8 129l426 520h213l-101 -507h105l-27 -142h-106l-37 -182h-178zM1137 324h194l62 309z" />
    <glyph glyph-name="questiondown" unicode="&#xbf;" horiz-adv-x="747" 
d="M539 469q4 -62 -11.5 -117t-43.5 -95.5t-62.5 -76.5t-70 -66.5t-65.5 -58.5t-48.5 -59t-18.5 -62q0 -32 29 -67.5t70.5 -62.5t83.5 -50t71 -35l29 -12l-101 -213q-10 4 -26 10.5t-63.5 29.5t-90.5 48t-95.5 64t-90.5 79t-64 91.5t-26 103.5q0 46 20 88t52 75.5t71.5 66
t80 66.5t75.5 70t59.5 83t30.5 100h205zM645 840q0 -76 -48 -138.5t-134 -62.5q-59 0 -88 31.5t-29 83.5q0 72 48.5 137t135.5 65q59 0 87 -31t28 -85z" />
    <glyph glyph-name="Agrave" unicode="&#xc0;" horiz-adv-x="1230" 
d="M-90 0l758 1376h241l215 -1376h-250l-43 305h-501l-164 -305h-256zM727 1038l-278 -514h350zM522 1593l72 189l446 -195l-55 -135z" />
    <glyph glyph-name="Aacute" unicode="&#xc1;" horiz-adv-x="1230" 
d="M-90 0l758 1376h241l215 -1376h-250l-43 305h-501l-164 -305h-256zM727 1038l-278 -514h350zM676 1450l-51 137l444 195l72 -189z" />
    <glyph glyph-name="Acircumflex" unicode="&#xc2;" horiz-adv-x="1230" 
d="M-90 0l758 1376h241l215 -1376h-250l-43 305h-501l-164 -305h-256zM727 1038l-278 -514h350zM596 1470l-117 89l293 225h193l194 -225l-135 -89l-176 181z" />
    <glyph glyph-name="Atilde" unicode="&#xc3;" horiz-adv-x="1230" 
d="M-90 0l758 1376h241l215 -1376h-250l-43 305h-501l-164 -305h-256zM727 1038l-278 -514h350zM446 1509q1 5 2 14.5t8 36.5t17 51t30 54t45 51.5t63.5 36t84.5 14.5q49 0 90 -14t67.5 -33.5t49.5 -39.5t46.5 -34t47.5 -14q35 0 57.5 33t27.5 65l5 33l152 -20
q-1 -5 -2.5 -14.5t-8.5 -37t-17.5 -52t-31 -55t-45.5 -52t-64.5 -36.5t-86.5 -15q-49 0 -88 14t-63.5 33.5t-45.5 39.5t-44.5 34t-49.5 14q-36 0 -59.5 -32t-28.5 -64l-6 -31z" />
    <glyph glyph-name="Adieresis" unicode="&#xc4;" horiz-adv-x="1230" 
d="M-90 0l758 1376h241l215 -1376h-250l-43 305h-501l-164 -305h-256zM727 1038l-278 -514h350zM1081 1489q-55 0 -89 30t-34 78q0 71 41 118.5t107 47.5q57 0 90 -31.5t33 -82.5q0 -68 -43 -114t-105 -46zM586 1489q-57 0 -91 30t-32 78q0 71 40.5 118.5t106.5 47.5
q57 0 90 -31.5t33 -82.5q0 -69 -42.5 -114.5t-104.5 -45.5z" />
    <glyph glyph-name="Aring" unicode="&#xc5;" horiz-adv-x="1230" 
d="M-90 0l758 1376h241l215 -1376h-250l-43 305h-501l-164 -305h-256zM727 1038l-278 -514h350zM825 1450q-95 0 -141.5 40t-46.5 105q0 73 59.5 131t171.5 58q95 0 142 -41t47 -103q0 -77 -62.5 -133.5t-169.5 -56.5zM829 1532q39 0 76 27.5t37 72.5q0 29 -19.5 49.5
t-58.5 20.5q-56 0 -83 -33t-27 -72q0 -65 75 -65z" />
    <glyph glyph-name="AE" unicode="&#xc6;" horiz-adv-x="1783" 
d="M-121 0l1004 1366h972l-43 -217h-567l-67 -346h446l-43 -217h-446l-74 -369h579l-43 -217h-833l74 379h-396l-274 -379h-289zM600 598h281l106 535z" />
    <glyph glyph-name="Ccedilla" unicode="&#xc7;" horiz-adv-x="1323" 
d="M492 -145q0 8 2 17t4 15t7.5 16.5t8 15t10.5 17.5t11 17l22 39q-211 42 -338 194t-127 381q0 126 39.5 247.5t115.5 225t178.5 182.5t237 124t281.5 45q121 0 234.5 -29.5t167.5 -58.5l53 -29l-137 -201q-5 4 -14.5 10.5t-42 23t-68 29t-90.5 23t-111 10.5
q-164 0 -297.5 -80.5t-207 -215t-73.5 -293.5q0 -186 102 -284.5t269 -98.5q95 0 190 31.5t143 62.5l48 31l102 -191q-8 -6 -22.5 -16.5t-63 -37.5t-102 -47.5t-137 -37.5t-168.5 -17q-29 0 -41 2l-8 -16q-29 -58 -29 -70q0 -18 14 -31.5t33.5 -24.5t39.5 -25t34 -40.5
t14 -62.5q0 -75 -70 -133.5t-165 -58.5q-37 0 -72.5 6.5t-59.5 15.5t-43.5 18.5t-28.5 16.5l-9 6l47 115q7 -7 19 -17t50.5 -26.5t77.5 -16.5q45 0 76 18.5t31 43.5q0 23 -21.5 42.5t-47 32t-47 35t-21.5 50.5z" />
    <glyph glyph-name="Egrave" unicode="&#xc8;" horiz-adv-x="1075" 
d="M55 0l271 1366h821l-43 -217h-567l-68 -346h446l-43 -217h-446l-74 -369h580l-43 -217h-834zM469 1593l72 189l446 -195l-55 -135z" />
    <glyph glyph-name="Eacute" unicode="&#xc9;" horiz-adv-x="1075" 
d="M55 0l271 1366h821l-43 -217h-567l-68 -346h446l-43 -217h-446l-74 -369h580l-43 -217h-834zM623 1450l-52 137l445 195l71 -189z" />
    <glyph glyph-name="Ecircumflex" unicode="&#xca;" horiz-adv-x="1075" 
d="M55 0l271 1366h821l-43 -217h-567l-68 -346h446l-43 -217h-446l-74 -369h580l-43 -217h-834zM543 1470l-117 89l293 225h192l195 -225l-135 -89l-176 181z" />
    <glyph glyph-name="Edieresis" unicode="&#xcb;" horiz-adv-x="1075" 
d="M55 0l271 1366h821l-43 -217h-567l-68 -346h446l-43 -217h-446l-74 -369h580l-43 -217h-834zM1028 1489q-55 0 -89 30t-34 78q0 71 41 118.5t107 47.5q57 0 90 -31.5t33 -82.5q0 -68 -43 -114t-105 -46zM532 1489q-56 0 -90 30t-32 78q0 71 40.5 118.5t106.5 47.5
q57 0 90 -31.5t33 -82.5q0 -68 -43 -114t-105 -46z" />
    <glyph glyph-name="Igrave" unicode="&#xcc;" horiz-adv-x="585" 
d="M55 0l271 1366h254l-271 -1366h-254zM184 1593l72 189l446 -195l-55 -135z" />
    <glyph glyph-name="Iacute" unicode="&#xcd;" horiz-adv-x="585" 
d="M55 0l271 1366h254l-271 -1366h-254zM338 1450l-51 137l444 195l72 -189z" />
    <glyph glyph-name="Icircumflex" unicode="&#xce;" horiz-adv-x="585" 
d="M55 0l271 1366h254l-271 -1366h-254zM258 1470l-117 89l293 225h193l194 -225l-135 -89l-176 181z" />
    <glyph glyph-name="Idieresis" unicode="&#xcf;" horiz-adv-x="585" 
d="M55 0l271 1366h254l-271 -1366h-254zM700 1491q-55 0 -84.5 33t-29.5 86q0 67 45 110t108 43q54 0 84.5 -32t30.5 -86q0 -66 -45 -110t-109 -44zM276 1491q-55 0 -84.5 33t-29.5 86q0 67 45 110t108 43q54 0 84.5 -32t30.5 -86q0 -66 -45 -110t-109 -44z" />
    <glyph glyph-name="Eth" unicode="&#xd0;" horiz-adv-x="1443" 
d="M53 594l39 201h152l112 571h422q99 0 187.5 -19t169 -61.5t139 -106t93 -159t34.5 -213.5q0 -172 -71 -322.5t-193 -256.5t-289 -167t-354 -61h-408l117 594h-150zM383 217h104q128 0 235.5 32t182.5 87t127.5 128.5t77.5 156t25 170.5q0 174 -99 266t-297 92h-172
l-69 -354h286l-39 -201h-288z" />
    <glyph glyph-name="Ntilde" unicode="&#xd1;" horiz-adv-x="1462" 
d="M55 0l271 1366h256l432 -985l196 985h246l-270 -1366h-258l-432 979l-195 -979h-246zM549 1509q1 5 2 14.5t8 36.5t17 51t30 54t45 51.5t63.5 36t84.5 14.5q49 0 90 -14t67.5 -33.5t49.5 -39.5t46.5 -34t47.5 -14q35 0 57.5 33t27.5 65l5 33l151 -20q-1 -5 -2.5 -14.5
t-8.5 -37t-17.5 -52t-31 -55t-45.5 -52t-64.5 -36.5t-86.5 -15q-49 0 -88 14t-63.5 33.5t-45 39.5t-44 34t-49.5 14q-36 0 -60 -32t-29 -64l-6 -31z" />
    <glyph glyph-name="Ograve" unicode="&#xd2;" horiz-adv-x="1546" 
d="M90 571q0 102 28 203t78.5 191.5t124.5 169t163 135t197.5 89t223.5 32.5q179 0 317 -75.5t211.5 -207.5t73.5 -299q0 -153 -63 -303t-170.5 -267.5t-262.5 -190.5t-325 -73q-137 0 -250.5 47t-188.5 128t-116 189.5t-41 231.5zM356 580q0 -78 20 -146t59.5 -123.5
t106.5 -88t154 -32.5q92 0 178 36t151.5 98t114.5 140.5t75 166.5t26 174q0 103 -37 185.5t-116.5 134t-190.5 51.5q-109 0 -210 -50t-173 -132t-115 -191t-43 -223zM666 1593l71 189l447 -195l-56 -135z" />
    <glyph glyph-name="Oacute" unicode="&#xd3;" horiz-adv-x="1546" 
d="M90 571q0 102 28 203t78.5 191.5t124.5 169t163 135t197.5 89t223.5 32.5q179 0 317 -75.5t211.5 -207.5t73.5 -299q0 -153 -63 -303t-170.5 -267.5t-262.5 -190.5t-325 -73q-137 0 -250.5 47t-188.5 128t-116 189.5t-41 231.5zM356 580q0 -78 20 -146t59.5 -123.5
t106.5 -88t154 -32.5q92 0 178 36t151.5 98t114.5 140.5t75 166.5t26 174q0 103 -37 185.5t-116.5 134t-190.5 51.5q-109 0 -210 -50t-173 -132t-115 -191t-43 -223zM819 1450l-51 137l444 195l72 -189z" />
    <glyph glyph-name="Ocircumflex" unicode="&#xd4;" horiz-adv-x="1546" 
d="M90 571q0 102 28 203t78.5 191.5t124.5 169t163 135t197.5 89t223.5 32.5q179 0 317 -75.5t211.5 -207.5t73.5 -299q0 -153 -63 -303t-170.5 -267.5t-262.5 -190.5t-325 -73q-137 0 -250.5 47t-188.5 128t-116 189.5t-41 231.5zM356 580q0 -78 20 -146t59.5 -123.5
t106.5 -88t154 -32.5q92 0 178 36t151.5 98t114.5 140.5t75 166.5t26 174q0 103 -37 185.5t-116.5 134t-190.5 51.5q-109 0 -210 -50t-173 -132t-115 -191t-43 -223zM739 1470l-116 89l292 225h193l195 -225l-136 -89l-176 181z" />
    <glyph glyph-name="Otilde" unicode="&#xd5;" horiz-adv-x="1546" 
d="M90 571q0 102 28 203t78.5 191.5t124.5 169t163 135t197.5 89t223.5 32.5q179 0 317 -75.5t211.5 -207.5t73.5 -299q0 -153 -63 -303t-170.5 -267.5t-262.5 -190.5t-325 -73q-137 0 -250.5 47t-188.5 128t-116 189.5t-41 231.5zM356 580q0 -78 20 -146t59.5 -123.5
t106.5 -88t154 -32.5q92 0 178 36t151.5 98t114.5 140.5t75 166.5t26 174q0 103 -37 185.5t-116.5 134t-190.5 51.5q-109 0 -210 -50t-173 -132t-115 -191t-43 -223zM590 1509q1 5 2 14.5t8 36.5t17 51t30 54t45 51.5t63.5 36t84.5 14.5q49 0 90 -14t67.5 -33.5t49.5 -39.5
t46.5 -34t47.5 -14q35 0 57.5 33t27.5 65l5 33l151 -20q-1 -5 -2.5 -14.5t-8.5 -37t-17.5 -52t-31 -55t-45.5 -52t-64.5 -36.5t-86.5 -15q-49 0 -88 14t-63.5 33.5t-45 39.5t-44 34t-49.5 14q-36 0 -60 -32t-30 -64l-5 -31z" />
    <glyph glyph-name="Odieresis" unicode="&#xd6;" horiz-adv-x="1546" 
d="M90 571q0 102 28 203t78.5 191.5t124.5 169t163 135t197.5 89t223.5 32.5q179 0 317 -75.5t211.5 -207.5t73.5 -299q0 -153 -63 -303t-170.5 -267.5t-262.5 -190.5t-325 -73q-137 0 -250.5 47t-188.5 128t-116 189.5t-41 231.5zM356 580q0 -78 20 -146t59.5 -123.5
t106.5 -88t154 -32.5q92 0 178 36t151.5 98t114.5 140.5t75 166.5t26 174q0 103 -37 185.5t-116.5 134t-190.5 51.5q-109 0 -210 -50t-173 -132t-115 -191t-43 -223zM1225 1489q-55 0 -89 30t-34 78q0 71 40.5 118.5t106.5 47.5q57 0 90 -31.5t33 -82.5q0 -69 -42.5 -114.5
t-104.5 -45.5zM729 1489q-57 0 -91 30t-32 78q0 71 41 118.5t107 47.5q57 0 90 -31.5t33 -82.5q0 -68 -43 -114t-105 -46z" />
    <glyph glyph-name="multiply" unicode="&#xd7;" 
d="M66 879l110 114l350 -360l351 360l110 -114l-350 -361l350 -358l-113 -115l-348 358l-348 -358l-112 115l348 358z" />
    <glyph glyph-name="Oslash" unicode="&#xd8;" horiz-adv-x="1546" 
d="M90 571q0 102 28 203t78.5 191.5t124.5 169t163 135t197.5 89t223.5 32.5q166 0 299 -68l80 104h158l-131 -174q94 -79 145 -193t51 -251q0 -153 -63 -303t-170.5 -267.5t-262.5 -190.5t-325 -73q-164 0 -297 68l-80 -104h-159l135 176q-94 83 -144.5 201.5t-50.5 254.5z
M1241 805q0 151 -80 254l-631 -830q70 -39 166 -39q92 0 178 36t151.5 98t114.5 140.5t75 166.5t26 174zM356 580q0 -167 78 -269l629 828q-72 37 -166 37q-109 0 -210 -50t-173 -132t-115 -191t-43 -223z" />
    <glyph glyph-name="Ugrave" unicode="&#xd9;" horiz-adv-x="1392" 
d="M131 408q0 63 16 151l160 807h254l-166 -834q-12 -62 -12 -110q0 -120 63 -176t172 -56q139 0 236 87.5t129 250.5l166 838h254l-170 -856q-52 -257 -215.5 -396t-405.5 -139q-78 0 -148 15.5t-131.5 49.5t-106 83.5t-70 122.5t-25.5 162zM584 1593l71 189l447 -195
l-55 -135z" />
    <glyph glyph-name="Uacute" unicode="&#xda;" horiz-adv-x="1392" 
d="M131 408q0 63 16 151l160 807h254l-166 -834q-12 -62 -12 -110q0 -120 63 -176t172 -56q139 0 236 87.5t129 250.5l166 838h254l-170 -856q-52 -257 -215.5 -396t-405.5 -139q-78 0 -148 15.5t-131.5 49.5t-106 83.5t-70 122.5t-25.5 162zM737 1450l-51 137l444 195
l72 -189z" />
    <glyph glyph-name="Ucircumflex" unicode="&#xdb;" horiz-adv-x="1392" 
d="M131 408q0 63 16 151l160 807h254l-166 -834q-12 -62 -12 -110q0 -120 63 -176t172 -56q139 0 236 87.5t129 250.5l166 838h254l-170 -856q-52 -257 -215.5 -396t-405.5 -139q-78 0 -148 15.5t-131.5 49.5t-106 83.5t-70 122.5t-25.5 162zM657 1470l-116 89l293 225h192
l195 -225l-136 -89l-176 181z" />
    <glyph glyph-name="Udieresis" unicode="&#xdc;" horiz-adv-x="1392" 
d="M131 408q0 63 16 151l160 807h254l-166 -834q-12 -62 -12 -110q0 -120 63 -176t172 -56q139 0 236 87.5t129 250.5l166 838h254l-170 -856q-52 -257 -215.5 -396t-405.5 -139q-78 0 -148 15.5t-131.5 49.5t-106 83.5t-70 122.5t-25.5 162zM1143 1489q-55 0 -89 30t-34 78
q0 71 40.5 118.5t106.5 47.5q57 0 90 -31.5t33 -82.5q0 -69 -42.5 -114.5t-104.5 -45.5zM647 1489q-57 0 -91 30t-32 78q0 71 41 118.5t107 47.5q57 0 90 -31.5t33 -82.5q0 -68 -43 -114t-105 -46z" />
    <glyph glyph-name="Yacute" unicode="&#xdd;" horiz-adv-x="1175" 
d="M338 0l113 569l-312 797h285l190 -532l414 532h301l-624 -795l-113 -571h-254zM623 1450l-52 137l445 195l71 -189z" />
    <glyph glyph-name="Thorn" unicode="&#xde;" horiz-adv-x="1138" 
d="M53 0l273 1366h254l-58 -279h187q212 0 319 -93t107 -242q0 -105 -47 -194.5t-124 -147.5t-174.5 -90.5t-201.5 -32.5h-223l-58 -287h-254zM408 506h161q139 0 219 65t80 166q0 65 -52 98t-173 33h-164z" />
    <glyph glyph-name="germandbls" unicode="&#xdf;" horiz-adv-x="1159" 
d="M68 748l30 139l142 49q10 57 22 106t33 107t47.5 104t66.5 91t89 74.5t116 48t146 18.5q169 0 257.5 -78t88.5 -205q0 -60 -20 -113t-50.5 -89t-65.5 -72.5t-65.5 -65t-50.5 -63.5t-20 -70q0 -31 17.5 -62.5t43.5 -56.5t56.5 -58t56.5 -66t43.5 -81t17.5 -102
q0 -138 -111 -233t-280 -95q-57 0 -111.5 12t-80.5 24l-25 12l59 202q8 -6 21.5 -15t52 -23.5t74.5 -14.5q62 0 101.5 39t39.5 96q0 33 -15.5 61.5t-39 48t-51 45.5t-51 52t-39 69.5t-15.5 96.5q0 50 15 94.5t39 78.5t53 65t58 60t53 57.5t39 63.5t15 72q0 127 -125 127
q-58 0 -103 -24.5t-73.5 -62.5t-50.5 -99.5t-34 -118t-23 -135.5q-6 -43 -19 -140q-13 -101 -20.5 -156.5t-24.5 -161.5t-32 -171t-41.5 -161t-54 -158.5t-67 -136t-84.5 -120t-103.5 -85t-125.5 -55.5l-98 170q234 71 340 529q39 168 80 519q1 10 2 17h-145z" />
    <glyph glyph-name="agrave" unicode="&#xe0;" horiz-adv-x="1017" 
d="M18 285q0 64 19.5 137.5t56 148.5t93.5 144t126 123t160 86t189 32q43 0 136 -12t173 -12l-133 -631q-17 -87 -17 -131q0 -69 31 -133l-225 -62q-39 64 -39 146q0 42 4 67h-6q-47 -96 -137.5 -154.5t-190.5 -58.5q-107 0 -173.5 78.5t-66.5 231.5zM266 311
q0 -133 74 -133q55 0 121.5 61t117.5 149t68 169l45 217q-32 10 -69 10q-87 0 -170 -67t-135 -177.5t-52 -228.5zM606 1040l-231 408h237l140 -334z" />
    <glyph glyph-name="aacute" unicode="&#xe1;" horiz-adv-x="1017" 
d="M18 285q0 64 19.5 137.5t56 148.5t93.5 144t126 123t160 86t189 32q43 0 136 -12t173 -12l-133 -631q-17 -87 -17 -131q0 -69 31 -133l-225 -62q-39 64 -39 146q0 42 4 67h-6q-47 -96 -137.5 -154.5t-190.5 -58.5q-107 0 -173.5 78.5t-66.5 231.5zM266 311
q0 -133 74 -133q55 0 121.5 61t117.5 149t68 169l45 217q-32 10 -69 10q-87 0 -170 -67t-135 -177.5t-52 -228.5zM635 1040l-137 74l282 334h262z" />
    <glyph glyph-name="acircumflex" unicode="&#xe2;" horiz-adv-x="1017" 
d="M18 285q0 64 19.5 137.5t56 148.5t93.5 144t126 123t160 86t189 32q43 0 136 -12t173 -12l-133 -631q-17 -87 -17 -131q0 -69 31 -133l-225 -62q-39 64 -39 146q0 42 4 67h-6q-47 -96 -137.5 -154.5t-190.5 -58.5q-107 0 -173.5 78.5t-66.5 231.5zM266 311
q0 -133 74 -133q55 0 121.5 61t117.5 149t68 169l45 217q-32 10 -69 10q-87 0 -170 -67t-135 -177.5t-52 -228.5zM451 1038l-129 60l299 350h149l148 -352l-138 -58l-112 244z" />
    <glyph glyph-name="atilde" unicode="&#xe3;" horiz-adv-x="1017" 
d="M18 285q0 64 19.5 137.5t56 148.5t93.5 144t126 123t160 86t189 32q43 0 136 -12t173 -12l-133 -631q-17 -87 -17 -131q0 -69 31 -133l-225 -62q-39 64 -39 146q0 42 4 67h-6q-47 -96 -137.5 -154.5t-190.5 -58.5q-107 0 -173.5 78.5t-66.5 231.5zM266 311
q0 -133 74 -133q55 0 121.5 61t117.5 149t68 169l45 217q-32 10 -69 10q-87 0 -170 -67t-135 -177.5t-52 -228.5zM293 1130q1 6 2 16t8 39t17 55.5t29 58.5t42.5 55t60.5 39t80 16q44 0 79 -16t57 -39t40 -46t37 -39t39 -16q33 0 55.5 38t28.5 76l6 38l150 -21
q-1 -6 -2.5 -16t-8.5 -39.5t-17 -56t-29.5 -59t-43.5 -56t-61 -39.5t-80 -16q-44 0 -79 16t-56 39t-38 45.5t-35.5 38.5t-38.5 16q-33 0 -56 -36.5t-30 -73.5l-7 -37z" />
    <glyph glyph-name="adieresis" unicode="&#xe4;" horiz-adv-x="1017" 
d="M18 285q0 64 19.5 137.5t56 148.5t93.5 144t126 123t160 86t189 32q43 0 136 -12t173 -12l-133 -631q-17 -87 -17 -131q0 -69 31 -133l-225 -62q-39 64 -39 146q0 42 4 67h-6q-47 -96 -137.5 -154.5t-190.5 -58.5q-107 0 -173.5 78.5t-66.5 231.5zM266 311
q0 -133 74 -133q55 0 121.5 61t117.5 149t68 169l45 217q-32 10 -69 10q-87 0 -170 -67t-135 -177.5t-52 -228.5zM860 1143q-55 0 -85 33t-30 86q0 67 45.5 110t108.5 43q54 0 84.5 -32.5t30.5 -86.5q0 -66 -45 -109.5t-109 -43.5zM436 1143q-55 0 -84.5 33t-29.5 86
q0 67 45 110t108 43q54 0 84.5 -32.5t30.5 -86.5q0 -66 -45 -109.5t-109 -43.5z" />
    <glyph glyph-name="aring" unicode="&#xe5;" horiz-adv-x="1017" 
d="M18 285q0 64 19.5 137.5t56 148.5t93.5 144t126 123t160 86t189 32q43 0 136 -12t173 -12l-133 -631q-17 -87 -17 -131q0 -69 31 -133l-225 -62q-39 64 -39 146q0 42 4 67h-6q-47 -96 -137.5 -154.5t-190.5 -58.5q-107 0 -173.5 78.5t-66.5 231.5zM266 311
q0 -133 74 -133q55 0 121.5 61t117.5 149t68 169l45 217q-32 10 -69 10q-87 0 -170 -67t-135 -177.5t-52 -228.5zM643 1096q-93 0 -138.5 47.5t-45.5 113.5q0 75 62.5 140t172.5 65q93 0 139 -46t46 -111q0 -45 -25 -91.5t-81 -82t-130 -35.5zM649 1184q48 0 82.5 35.5
t34.5 80.5q0 33 -19.5 53.5t-58.5 20.5q-53 0 -83 -36t-30 -83q0 -32 18.5 -51.5t55.5 -19.5z" />
    <glyph glyph-name="ae" unicode="&#xe6;" horiz-adv-x="1411" 
d="M-20 199q0 54 20 99.5t53 78t82.5 58t100 41t114 27.5t117 17.5t115.5 9.5q24 105 24 152q0 40 -22 61t-76 21q-62 0 -134.5 -28t-114.5 -56l-42 -27l-59 183q7 5 20.5 13t56.5 28.5t87.5 36.5t110.5 29t130 13q197 0 232 -129q135 129 305 129q51 0 96 -12t83 -37.5
t60.5 -71t22.5 -106.5q0 -77 -36 -135.5t-89.5 -93t-133 -58t-149.5 -33t-155 -14.5q-6 -26 -6 -53q0 -92 33.5 -138t109.5 -46q39 0 84 12.5t81.5 30.5t67.5 35.5t49 29.5l17 13l39 -185q-7 -5 -19 -13t-50.5 -28.5t-78.5 -36t-99 -28.5t-116 -13q-123 0 -203.5 53.5
t-115.5 145.5q-49 -78 -142.5 -138.5t-216.5 -60.5q-116 0 -184.5 59.5t-68.5 164.5zM309 158q85 0 153 61t91 166q-326 -22 -326 -158q0 -69 82 -69zM1055 782q-65 0 -132.5 -61.5t-101.5 -175.5q64 6 114 15.5t97 27t72.5 46.5t25.5 68q0 33 -18 56.5t-57 23.5z" />
    <glyph glyph-name="ccedilla" unicode="&#xe7;" horiz-adv-x="888" 
d="M223 -145q0 8 2 17t4 15t7.5 16.5t8 15t10.5 17.5t11 17l29 47q-122 39 -190 143t-68 244q0 106 39 207.5t108 182t173.5 130t226.5 49.5q52 0 101 -10t82 -24t58 -28t37 -24l12 -10l-86 -178q-4 3 -10.5 9t-29 21t-45.5 26t-58.5 20.5t-69.5 9.5q-108 0 -193 -107
t-85 -268q0 -114 45.5 -171.5t128.5 -57.5q54 0 113.5 23.5t91.5 46.5l33 24l77 -164q-5 -5 -15.5 -13t-44.5 -28.5t-71.5 -36t-94.5 -28.5t-116 -13q-24 0 -34 2l-9 -16q-28 -56 -28 -70q0 -18 14 -31.5t33.5 -24.5t39.5 -25t34 -40.5t14 -62.5q0 -75 -70.5 -133.5
t-165.5 -58.5q-37 0 -72.5 6.5t-59.5 15.5t-43.5 18.5t-28.5 16.5l-9 6l47 115q7 -7 19.5 -17t51 -26.5t77.5 -16.5q45 0 75.5 18.5t30.5 43.5q0 23 -21.5 42.5t-47 32t-47 35t-21.5 50.5z" />
    <glyph glyph-name="egrave" unicode="&#xe8;" horiz-adv-x="897" 
d="M29 334q0 82 26 169.5t75.5 168t114.5 144.5t151 102t177 38q118 0 196.5 -54t78.5 -163q0 -54 -23 -103.5t-59.5 -86.5t-88.5 -70.5t-102 -57t-108.5 -43.5t-100.5 -31.5t-85 -20.5q3 -77 34 -119.5t107 -42.5q62 0 136.5 29t118.5 57l44 29l39 -185q-7 -5 -19 -13
t-51.5 -28.5t-81 -36t-102 -28.5t-119.5 -13q-90 0 -160 28.5t-112.5 79t-64 114t-21.5 137.5zM535 776q-67 0 -141 -78.5t-101 -214.5q74 20 140 49t119.5 76.5t53.5 98.5q0 29 -16.5 49t-54.5 20zM537 1040l-232 408h238l139 -334z" />
    <glyph glyph-name="eacute" unicode="&#xe9;" horiz-adv-x="897" 
d="M29 334q0 82 26 169.5t75.5 168t114.5 144.5t151 102t177 38q118 0 196.5 -54t78.5 -163q0 -54 -23 -103.5t-59.5 -86.5t-88.5 -70.5t-102 -57t-108.5 -43.5t-100.5 -31.5t-85 -20.5q3 -77 34 -119.5t107 -42.5q62 0 136.5 29t118.5 57l44 29l39 -185q-7 -5 -19 -13
t-51.5 -28.5t-81 -36t-102 -28.5t-119.5 -13q-90 0 -160 28.5t-112.5 79t-64 114t-21.5 137.5zM535 776q-67 0 -141 -78.5t-101 -214.5q74 20 140 49t119.5 76.5t53.5 98.5q0 29 -16.5 49t-54.5 20zM565 1040l-137 74l283 334h262z" />
    <glyph glyph-name="ecircumflex" unicode="&#xea;" horiz-adv-x="897" 
d="M29 334q0 82 26 169.5t75.5 168t114.5 144.5t151 102t177 38q118 0 196.5 -54t78.5 -163q0 -54 -23 -103.5t-59.5 -86.5t-88.5 -70.5t-102 -57t-108.5 -43.5t-100.5 -31.5t-85 -20.5q3 -77 34 -119.5t107 -42.5q62 0 136.5 29t118.5 57l44 29l39 -185q-7 -5 -19 -13
t-51.5 -28.5t-81 -36t-102 -28.5t-119.5 -13q-90 0 -160 28.5t-112.5 79t-64 114t-21.5 137.5zM535 776q-67 0 -141 -78.5t-101 -214.5q74 20 140 49t119.5 76.5t53.5 98.5q0 29 -16.5 49t-54.5 20zM381 1038l-129 60l299 350h149l148 -352l-137 -58l-113 244z" />
    <glyph glyph-name="edieresis" unicode="&#xeb;" horiz-adv-x="897" 
d="M29 334q0 82 26 169.5t75.5 168t114.5 144.5t151 102t177 38q118 0 196.5 -54t78.5 -163q0 -54 -23 -103.5t-59.5 -86.5t-88.5 -70.5t-102 -57t-108.5 -43.5t-100.5 -31.5t-85 -20.5q3 -77 34 -119.5t107 -42.5q62 0 136.5 29t118.5 57l44 29l39 -185q-7 -5 -19 -13
t-51.5 -28.5t-81 -36t-102 -28.5t-119.5 -13q-90 0 -160 28.5t-112.5 79t-64 114t-21.5 137.5zM535 776q-67 0 -141 -78.5t-101 -214.5q74 20 140 49t119.5 76.5t53.5 98.5q0 29 -16.5 49t-54.5 20zM791 1143q-55 0 -85 33t-30 86q0 67 45 110t108 43q54 0 84.5 -32.5
t30.5 -86.5q0 -66 -44.5 -109.5t-108.5 -43.5zM367 1143q-55 0 -85 33t-30 86q0 67 45.5 110t108.5 43q54 0 84 -32.5t30 -86.5q0 -66 -44.5 -109.5t-108.5 -43.5z" />
    <glyph glyph-name="igrave" unicode="&#xec;" horiz-adv-x="491" 
d="M8 0l195 932h246l-197 -932h-244zM344 1040l-231 408h237l139 -334z" />
    <glyph glyph-name="iacute" unicode="&#xed;" horiz-adv-x="491" 
d="M8 0l195 932h246l-197 -932h-244zM373 1040l-137 74l282 334h262z" />
    <glyph glyph-name="icircumflex" unicode="&#xee;" horiz-adv-x="491" 
d="M8 0l195 932h246l-197 -932h-244zM188 1038l-129 60l299 350h150l147 -352l-137 -58l-112 244z" />
    <glyph glyph-name="idieresis" unicode="&#xef;" horiz-adv-x="491" 
d="M8 0l195 932h246l-197 -932h-244zM598 1143q-55 0 -85 33t-30 86q0 67 45.5 110t108.5 43q54 0 84.5 -32.5t30.5 -86.5q0 -66 -45 -109.5t-109 -43.5zM174 1143q-55 0 -85 33t-30 86q0 67 45.5 110t108.5 43q54 0 84.5 -32.5t30.5 -86.5q0 -66 -45 -109.5t-109 -43.5z
" />
    <glyph glyph-name="eth" unicode="&#xf0;" horiz-adv-x="1085" 
d="M367 1001l-68 132l217 114q-79 52 -203 88l49 187q202 -48 355 -168l319 172l68 -131l-277 -148q183 -215 183 -520q0 -198 -72 -368.5t-208 -277t-306 -106.5q-178 0 -284.5 110.5t-106.5 279.5q0 103 41 208t111 190t172.5 139t215.5 54q59 0 107.5 -17t65.5 -30
t28 -26q-31 151 -135 264zM438 158q61 0 115 35.5t90.5 90.5t64 120t40 124t12.5 103q0 57 -35.5 98t-112.5 41q-134 0 -229.5 -117.5t-95.5 -281.5q0 -94 35.5 -153.5t115.5 -59.5z" />
    <glyph glyph-name="ntilde" unicode="&#xf1;" horiz-adv-x="1044" 
d="M4 0l195 911l243 41l-47 -223q46 83 153.5 155t225.5 72q103 0 146 -55.5t43 -140.5q0 -24 -2.5 -49.5t-9 -60.5t-10.5 -55.5t-14.5 -66.5t-13.5 -61l-98 -467h-246l101 471q32 163 32 201q0 30 -11 45.5t-40 15.5q-49 0 -119.5 -51t-123.5 -117.5t-62 -111.5l-96 -453
h-246zM313 1130q1 11 4 30t19.5 67t40 85t70 67t106.5 30q44 0 79 -16t57 -39t40 -46t37 -39t39 -16q33 0 55.5 38t28.5 76l6 38l149 -21q-1 -6 -2.5 -16t-8.5 -39.5t-17 -56t-29 -59t-43 -56t-61 -39.5t-80 -16q-44 0 -79 16t-56 39t-38.5 45.5t-36 38.5t-38.5 16
q-33 0 -56 -36.5t-29 -73.5l-7 -37z" />
    <glyph glyph-name="ograve" unicode="&#xf2;" horiz-adv-x="1075" 
d="M37 381q0 109 41 212.5t113 184t179 129.5t230 49q101 0 180.5 -33t127.5 -88.5t73 -124t25 -145.5q0 -73 -21 -152t-67 -157.5t-111 -140.5t-160.5 -101t-206.5 -39q-100 0 -178.5 32t-127 88.5t-73 128.5t-24.5 157zM295 387q0 -107 40.5 -168t123.5 -61
q64 0 119.5 37.5t91 95.5t55.5 126.5t20 133.5q0 100 -40 161.5t-121 61.5q-115 0 -202 -113t-87 -274zM631 1040l-232 408h238l139 -334z" />
    <glyph glyph-name="oacute" unicode="&#xf3;" horiz-adv-x="1075" 
d="M37 381q0 109 41 212.5t113 184t179 129.5t230 49q101 0 180.5 -33t127.5 -88.5t73 -124t25 -145.5q0 -73 -21 -152t-67 -157.5t-111 -140.5t-160.5 -101t-206.5 -39q-100 0 -178.5 32t-127 88.5t-73 128.5t-24.5 157zM295 387q0 -107 40.5 -168t123.5 -61
q64 0 119.5 37.5t91 95.5t55.5 126.5t20 133.5q0 100 -40 161.5t-121 61.5q-115 0 -202 -113t-87 -274zM659 1040l-137 74l283 334h262z" />
    <glyph glyph-name="ocircumflex" unicode="&#xf4;" horiz-adv-x="1075" 
d="M37 381q0 109 41 212.5t113 184t179 129.5t230 49q101 0 180.5 -33t127.5 -88.5t73 -124t25 -145.5q0 -73 -21 -152t-67 -157.5t-111 -140.5t-160.5 -101t-206.5 -39q-100 0 -178.5 32t-127 88.5t-73 128.5t-24.5 157zM295 387q0 -107 40.5 -168t123.5 -61
q64 0 119.5 37.5t91 95.5t55.5 126.5t20 133.5q0 100 -40 161.5t-121 61.5q-115 0 -202 -113t-87 -274zM475 1038l-129 60l299 350h150l147 -352l-137 -58l-113 244z" />
    <glyph glyph-name="otilde" unicode="&#xf5;" horiz-adv-x="1075" 
d="M37 381q0 109 41 212.5t113 184t179 129.5t230 49q101 0 180.5 -33t127.5 -88.5t73 -124t25 -145.5q0 -73 -21 -152t-67 -157.5t-111 -140.5t-160.5 -101t-206.5 -39q-100 0 -178.5 32t-127 88.5t-73 128.5t-24.5 157zM295 387q0 -107 40.5 -168t123.5 -61
q64 0 119.5 37.5t91 95.5t55.5 126.5t20 133.5q0 100 -40 161.5t-121 61.5q-115 0 -202 -113t-87 -274zM317 1130q1 11 4 30t19.5 67t40 85t70 67t106.5 30q44 0 79 -16t57 -39t40 -46t37 -39t39 -16q33 0 55.5 38t28.5 76l6 38l150 -21q-1 -6 -2.5 -16t-8.5 -39.5t-17 -56
t-29.5 -59t-43.5 -56t-61 -39.5t-80 -16q-44 0 -79 16t-56 39t-38.5 45.5t-36 38.5t-38.5 16q-33 0 -56 -36.5t-29 -73.5l-7 -37z" />
    <glyph glyph-name="odieresis" unicode="&#xf6;" horiz-adv-x="1075" 
d="M37 381q0 109 41 212.5t113 184t179 129.5t230 49q101 0 180.5 -33t127.5 -88.5t73 -124t25 -145.5q0 -73 -21 -152t-67 -157.5t-111 -140.5t-160.5 -101t-206.5 -39q-100 0 -178.5 32t-127 88.5t-73 128.5t-24.5 157zM295 387q0 -107 40.5 -168t123.5 -61
q64 0 119.5 37.5t91 95.5t55.5 126.5t20 133.5q0 100 -40 161.5t-121 61.5q-115 0 -202 -113t-87 -274zM885 1143q-55 0 -85 33t-30 86q0 67 45.5 110t108.5 43q54 0 84 -32.5t30 -86.5q0 -66 -44.5 -109.5t-108.5 -43.5zM461 1143q-55 0 -85 33t-30 86q0 67 45.5 110
t108.5 43q54 0 84 -32.5t30 -86.5q0 -66 -44.5 -109.5t-108.5 -43.5z" />
    <glyph glyph-name="divide" unicode="&#xf7;" 
d="M526 758q-58 0 -99.5 42t-41.5 101t41.5 101t99.5 42q60 0 102 -42t42 -101t-42 -101t-102 -42zM68 438v162h917v-162h-917zM385 135q0 60 41.5 103t99.5 43q60 0 102 -43t42 -103q0 -59 -42 -100t-102 -41q-58 0 -99.5 41t-41.5 100z" />
    <glyph glyph-name="oslash" unicode="&#xf8;" horiz-adv-x="1073" 
d="M37 381q0 109 41 212.5t113 184t179 129.5t230 49q106 0 186 -36l56 73h139l-100 -133q125 -113 125 -295q0 -73 -21 -152t-67 -157.5t-111 -140.5t-160.5 -101t-206.5 -39q-105 0 -190 37l-53 -73h-142l101 135q-119 107 -119 307zM752 551q0 57 -17 113l-362 -486
q36 -20 86 -20q66 0 123 37.5t93 95.5t56.5 126.5t20.5 133.5zM289 387q0 -69 14 -115l361 482q-38 20 -80 20q-119 0 -207 -112.5t-88 -274.5z" />
    <glyph glyph-name="ugrave" unicode="&#xf9;" horiz-adv-x="1050" 
d="M55 209q0 30 4 66t8 57.5t14 68.5t13 64l99 467h245l-100 -471q-33 -168 -33 -201q0 -82 64 -82q45 0 97.5 40.5t94.5 100t74 124t43 114.5l80 375h246l-134 -631q-20 -104 -15 -159t30 -105l-228 -62q-47 77 -36 193h-7q-135 -193 -338 -193q-221 0 -221 234zM606 1040
l-231 408h237l140 -334z" />
    <glyph glyph-name="uacute" unicode="&#xfa;" horiz-adv-x="1050" 
d="M55 209q0 30 4 66t8 57.5t14 68.5t13 64l99 467h245l-100 -471q-33 -168 -33 -201q0 -82 64 -82q45 0 97.5 40.5t94.5 100t74 124t43 114.5l80 375h246l-134 -631q-20 -104 -15 -159t30 -105l-228 -62q-47 77 -36 193h-7q-135 -193 -338 -193q-221 0 -221 234zM635 1040
l-137 74l282 334h262z" />
    <glyph glyph-name="ucircumflex" unicode="&#xfb;" horiz-adv-x="1050" 
d="M55 209q0 30 4 66t8 57.5t14 68.5t13 64l99 467h245l-100 -471q-33 -168 -33 -201q0 -82 64 -82q45 0 97.5 40.5t94.5 100t74 124t43 114.5l80 375h246l-134 -631q-20 -104 -15 -159t30 -105l-228 -62q-47 77 -36 193h-7q-135 -193 -338 -193q-221 0 -221 234zM451 1038
l-129 60l299 350h149l148 -352l-138 -58l-112 244z" />
    <glyph glyph-name="udieresis" unicode="&#xfc;" horiz-adv-x="1050" 
d="M55 209q0 30 4 66t8 57.5t14 68.5t13 64l99 467h245l-100 -471q-33 -168 -33 -201q0 -82 64 -82q45 0 97.5 40.5t94.5 100t74 124t43 114.5l80 375h246l-134 -631q-20 -104 -15 -159t30 -105l-228 -62q-47 77 -36 193h-7q-135 -193 -338 -193q-221 0 -221 234zM860 1143
q-55 0 -85 33t-30 86q0 67 45.5 110t108.5 43q54 0 84.5 -32.5t30.5 -86.5q0 -66 -45 -109.5t-109 -43.5zM436 1143q-55 0 -84.5 33t-29.5 86q0 67 45 110t108 43q54 0 84.5 -32.5t30.5 -86.5q0 -66 -45 -109.5t-109 -43.5z" />
    <glyph glyph-name="yacute" unicode="&#xfd;" horiz-adv-x="940" 
d="M-268 -301q116 8 237 89.5t187 164.5q24 30 33 63.5t6 102.5q-5 133 -35 396t-74 417h242q39 -166 56 -353t7 -335q231 386 338 688h252q-56 -144 -174 -363t-256 -428q-186 -283 -371 -440q-217 -183 -405 -186zM575 1040l-137 74l283 334h262z" />
    <glyph glyph-name="thorn" unicode="&#xfe;" horiz-adv-x="1044" 
d="M412 -25q-90 0 -158 35l-96 -450l-254 -41l407 1908l254 41l-151 -714q51 92 138.5 147t172.5 55q111 0 184.5 -89.5t73.5 -237.5q0 -110 -43 -225.5t-116.5 -211t-182.5 -156.5t-229 -61zM328 354l-25 -110q-9 -45 12 -71t76 -26q88 0 165.5 65t123 170t45.5 218
q0 82 -23 118t-59 36q-52 0 -120.5 -64.5t-123 -158.5t-71.5 -177z" />
    <glyph glyph-name="ydieresis" unicode="&#xff;" horiz-adv-x="940" 
d="M-268 -301q116 8 237 89.5t187 164.5q24 30 33 63.5t6 102.5q-5 133 -35 396t-74 417h242q39 -166 56 -353t7 -335q231 386 338 688h252q-56 -144 -174 -363t-256 -428q-186 -283 -371 -440q-217 -183 -405 -186zM803 1143q-55 0 -85 33t-30 86q0 67 45.5 110t108.5 43
q54 0 84 -32.5t30 -86.5q0 -66 -44.5 -109.5t-108.5 -43.5zM379 1143q-55 0 -85 33t-30 86q0 67 45.5 110t108.5 43q54 0 84 -32.5t30 -86.5q0 -66 -44.5 -109.5t-108.5 -43.5z" />
    <glyph glyph-name="Amacron" unicode="&#x100;" horiz-adv-x="1230" 
d="M-90 0l758 1376h241l215 -1376h-250l-43 305h-501l-164 -305h-256zM727 1038l-278 -514h350zM549 1550l33 152h561l-33 -152h-561z" />
    <glyph glyph-name="amacron" unicode="&#x101;" horiz-adv-x="1017" 
d="M18 285q0 64 19.5 137.5t56 148.5t93.5 144t126 123t160 86t189 32q43 0 136 -12t173 -12l-133 -631q-17 -87 -17 -131q0 -69 31 -133l-225 -62q-39 64 -39 146q0 42 4 67h-6q-47 -96 -137.5 -154.5t-190.5 -58.5q-107 0 -173.5 78.5t-66.5 231.5zM266 311
q0 -133 74 -133q55 0 121.5 61t117.5 149t68 169l45 217q-32 10 -69 10q-87 0 -170 -67t-135 -177.5t-52 -228.5zM387 1186l33 151h528l-33 -151h-528z" />
    <glyph glyph-name="Abreve" unicode="&#x102;" horiz-adv-x="1230" 
d="M-90 0l758 1376h241l215 -1376h-250l-43 305h-501l-164 -305h-256zM727 1038l-278 -514h350zM840 1464q-124 0 -192 59.5t-68 157.5q0 51 18 107h133q-8 -46 -8 -64q0 -63 31.5 -88.5t89.5 -25.5q75 0 129.5 41.5t68.5 136.5h134q-8 -150 -97.5 -237t-238.5 -87z" />
    <glyph glyph-name="abreve" unicode="&#x103;" horiz-adv-x="1017" 
d="M18 285q0 64 19.5 137.5t56 148.5t93.5 144t126 123t160 86t189 32q43 0 136 -12t173 -12l-133 -631q-17 -87 -17 -131q0 -69 31 -133l-225 -62q-39 64 -39 146q0 42 4 67h-6q-47 -96 -137.5 -154.5t-190.5 -58.5q-107 0 -173.5 78.5t-66.5 231.5zM266 311
q0 -133 74 -133q55 0 121.5 61t117.5 149t68 169l45 217q-32 10 -69 10q-87 0 -170 -67t-135 -177.5t-52 -228.5zM655 1110q-119 0 -184 62.5t-65 162.5q0 53 18 109h133q-10 -52 -10 -78q0 -117 112 -117q64 0 115 44t74 151h133q-9 -152 -97.5 -243t-228.5 -91z" />
    <glyph glyph-name="Aogonek" unicode="&#x104;" horiz-adv-x="1230" 
d="M-90 0l758 1376h241l215 -1376h-2q-225 -181 -225 -276q0 -52 66 -52q41 0 88 21v-150q-82 -28 -156 -28q-86 0 -135 42t-49 117q0 36 11.5 72.5t26 63t44.5 62.5t47.5 54.5t55.5 56.5l17 17h-39l-43 305h-501l-164 -305h-256zM727 1038l-278 -514h350z" />
    <glyph glyph-name="aogonek" unicode="&#x105;" horiz-adv-x="1024" 
d="M18 285q0 64 19.5 137.5t56 148.5t93.5 144t126 123t160 86t189 32q43 0 136 -12t173 -12l-133 -631q-17 -87 -17 -131q0 -69 31 -133l-4 -2q-36 -27 -59 -45t-67.5 -57t-72 -70t-49.5 -69.5t-22 -69.5q0 -52 65 -52q41 0 88 21v-150q-82 -28 -156 -28q-86 0 -135 42
t-49 117q0 25 6 50.5t13.5 46t23 45.5t27.5 41t34.5 41t35 38t38.5 39l37 37q-18 46 -18 109q0 42 4 67h-6q-47 -96 -137.5 -154.5t-190.5 -58.5q-107 0 -173.5 78.5t-66.5 231.5zM266 311q0 -133 74 -133q55 0 121.5 61t117.5 149t68 169l45 217q-32 10 -69 10
q-87 0 -170 -67t-135 -177.5t-52 -228.5z" />
    <glyph glyph-name="Cacute" unicode="&#x106;" horiz-adv-x="1320" 
d="M90 567q0 126 39.5 247.5t115.5 225t178.5 182.5t237 124t281.5 45q121 0 234.5 -29.5t167.5 -58.5l53 -29l-137 -201q-5 4 -14.5 10.5t-42 23t-68 29t-90.5 23t-111 10.5q-164 0 -297.5 -80.5t-207 -215t-73.5 -293.5q0 -186 102 -284.5t269 -98.5q95 0 190 31.5
t143 62.5l48 31l102 -191q-8 -6 -22.5 -16.5t-63 -37.5t-102 -47.5t-137 -37.5t-168.5 -17q-181 0 -322.5 70t-223 205.5t-81.5 316.5zM782 1450l-51 137l445 195l71 -189z" />
    <glyph glyph-name="cacute" unicode="&#x107;" horiz-adv-x="888" 
d="M37 387q0 106 39 207.5t108 182t173.5 130t226.5 49.5q52 0 101 -10t82 -24t58 -28t37 -24l12 -10l-86 -178q-4 3 -10.5 9t-29 21t-45.5 26t-58.5 20.5t-69.5 9.5q-108 0 -193 -107t-85 -268q0 -114 45.5 -171.5t128.5 -57.5q54 0 113.5 23.5t91.5 46.5l33 24l77 -164
q-5 -5 -15.5 -13t-44.5 -28.5t-71.5 -36t-94.5 -28.5t-116 -13q-186 0 -296.5 116t-110.5 296zM592 1040l-137 74l282 334h262z" />
    <glyph glyph-name="Ccircumflex" unicode="&#x108;" horiz-adv-x="1320" 
d="M90 567q0 126 39.5 247.5t115.5 225t178.5 182.5t237 124t281.5 45q121 0 234.5 -29.5t167.5 -58.5l53 -29l-137 -201q-5 4 -14.5 10.5t-42 23t-68 29t-90.5 23t-111 10.5q-164 0 -297.5 -80.5t-207 -215t-73.5 -293.5q0 -186 102 -284.5t269 -98.5q95 0 190 31.5
t143 62.5l48 31l102 -191q-8 -6 -22.5 -16.5t-63 -37.5t-102 -47.5t-137 -37.5t-168.5 -17q-181 0 -322.5 70t-223 205.5t-81.5 316.5zM702 1470l-116 89l293 225h192l195 -225l-136 -89l-176 181z" />
    <glyph glyph-name="ccircumflex" unicode="&#x109;" horiz-adv-x="888" 
d="M37 387q0 106 39 207.5t108 182t173.5 130t226.5 49.5q52 0 101 -10t82 -24t58 -28t37 -24l12 -10l-86 -178q-4 3 -10.5 9t-29 21t-45.5 26t-58.5 20.5t-69.5 9.5q-108 0 -193 -107t-85 -268q0 -114 45.5 -171.5t128.5 -57.5q54 0 113.5 23.5t91.5 46.5l33 24l77 -164
q-5 -5 -15.5 -13t-44.5 -28.5t-71.5 -36t-94.5 -28.5t-116 -13q-186 0 -296.5 116t-110.5 296zM408 1038l-129 60l299 350h149l147 -352l-137 -58l-112 244z" />
    <glyph glyph-name="Cdotaccent" unicode="&#x10a;" horiz-adv-x="1320" 
d="M90 567q0 126 39.5 247.5t115.5 225t178.5 182.5t237 124t281.5 45q121 0 234.5 -29.5t167.5 -58.5l53 -29l-137 -201q-5 4 -14.5 10.5t-42 23t-68 29t-90.5 23t-111 10.5q-164 0 -297.5 -80.5t-207 -215t-73.5 -293.5q0 -186 102 -284.5t269 -98.5q95 0 190 31.5
t143 62.5l48 31l102 -191q-8 -6 -22.5 -16.5t-63 -37.5t-102 -47.5t-137 -37.5t-168.5 -17q-181 0 -322.5 70t-223 205.5t-81.5 316.5zM940 1483q-60 0 -95.5 31.5t-35.5 82.5q0 74 43 124.5t115 50.5q61 0 96 -33t35 -88q0 -73 -45 -120.5t-113 -47.5z" />
    <glyph glyph-name="cdotaccent" unicode="&#x10b;" horiz-adv-x="888" 
d="M37 387q0 106 39 207.5t108 182t173.5 130t226.5 49.5q52 0 101 -10t82 -24t58 -28t37 -24l12 -10l-86 -178q-4 3 -10.5 9t-29 21t-45.5 26t-58.5 20.5t-69.5 9.5q-108 0 -193 -107t-85 -268q0 -114 45.5 -171.5t128.5 -57.5q54 0 113.5 23.5t91.5 46.5l33 24l77 -164
q-5 -5 -15.5 -13t-44.5 -28.5t-71.5 -36t-94.5 -28.5t-116 -13q-186 0 -296.5 116t-110.5 296zM612 1135q-60 0 -95.5 31.5t-35.5 82.5q0 74 43 124t115 50q61 0 96 -32.5t35 -87.5q0 -73 -45 -120.5t-113 -47.5z" />
    <glyph glyph-name="Ccaron" unicode="&#x10c;" horiz-adv-x="1320" 
d="M90 567q0 126 39.5 247.5t115.5 225t178.5 182.5t237 124t281.5 45q121 0 234.5 -29.5t167.5 -58.5l53 -29l-137 -201q-5 4 -14.5 10.5t-42 23t-68 29t-90.5 23t-111 10.5q-164 0 -297.5 -80.5t-207 -215t-73.5 -293.5q0 -186 102 -284.5t269 -98.5q95 0 190 31.5
t143 62.5l48 31l102 -191q-8 -6 -22.5 -16.5t-63 -37.5t-102 -47.5t-137 -37.5t-168.5 -17q-181 0 -322.5 70t-223 205.5t-81.5 316.5zM831 1470l-194 226l135 88l174 -180l254 180l117 -88l-293 -226h-193z" />
    <glyph glyph-name="ccaron" unicode="&#x10d;" horiz-adv-x="888" 
d="M37 387q0 106 39 207.5t108 182t173.5 130t226.5 49.5q52 0 101 -10t82 -24t58 -28t37 -24l12 -10l-86 -178q-4 3 -10.5 9t-29 21t-45.5 26t-58.5 20.5t-69.5 9.5q-108 0 -193 -107t-85 -268q0 -114 45.5 -171.5t128.5 -57.5q54 0 113.5 23.5t91.5 46.5l33 24l77 -164
q-5 -5 -15.5 -13t-44.5 -28.5t-71.5 -36t-94.5 -28.5t-116 -13q-186 0 -296.5 116t-110.5 296zM498 1067l-148 352l137 58l113 -244l217 244l129 -60l-299 -350h-149z" />
    <glyph glyph-name="Dcaron" unicode="&#x10e;" horiz-adv-x="1413" 
d="M55 0l271 1366h422q99 0 187.5 -19t169 -61.5t138.5 -106t92.5 -159t34.5 -213.5q0 -172 -71 -322.5t-193 -256.5t-289 -167t-354 -61h-408zM352 217h105q158 0 284.5 48.5t204 130.5t118 183t40.5 212q0 174 -98.5 266t-296.5 92h-172zM772 1470l-194 226l135 88
l174 -180l254 180l116 -88l-292 -226h-193z" />
    <glyph glyph-name="dcaron" unicode="&#x10f;" horiz-adv-x="1052" 
d="M27 311q0 108 43.5 221t118.5 208t189 155.5t243 60.5q73 0 139 -20l104 491l254 41l-248 -1167q-16 -71 -16 -131q0 -69 31 -133l-226 -62q-38 62 -38 148l4 65h-7q-50 -102 -142 -157.5t-189 -55.5q-114 0 -187 90t-73 246zM369 178q53 0 120.5 60.5t121 149.5
t69.5 169l31 150q7 37 -15.5 57t-64.5 20q-91 0 -172 -65.5t-127.5 -168.5t-46.5 -214q0 -158 84 -158zM1167 1106l131 403l250 21l-231 -424h-150z" />
    <glyph glyph-name="Dcroat" unicode="&#x110;" horiz-adv-x="1443" 
d="M53 594l39 201h152l112 571h422q99 0 187.5 -19t169 -61.5t139 -106t93 -159t34.5 -213.5q0 -172 -71 -322.5t-193 -256.5t-289 -167t-354 -61h-408l117 594h-150zM383 217h104q128 0 235.5 32t182.5 87t127.5 128.5t77.5 156t25 170.5q0 174 -99 266t-297 92h-172
l-69 -354h286l-39 -201h-288z" />
    <glyph glyph-name="dcroat" unicode="&#x111;" horiz-adv-x="1052" 
d="M524 1081l25 123h268l47 223l254 41l-57 -264h147l-24 -123h-148l-166 -780q-16 -71 -16 -131q0 -69 31 -133l-226 -62q-38 62 -38 148l4 65h-7q-50 -102 -142 -157.5t-189 -55.5q-114 0 -187 90t-73 246q0 108 43.5 221t118.5 208t189 155.5t243 60.5q73 0 139 -20
l31 145h-267zM369 178q53 0 120.5 60.5t121 149.5t69.5 169l31 150q7 37 -15.5 57t-64.5 20q-91 0 -172 -65.5t-127.5 -168.5t-46.5 -214q0 -158 84 -158z" />
    <glyph glyph-name="Emacron" unicode="&#x112;" horiz-adv-x="1075" 
d="M55 0l271 1366h821l-43 -217h-567l-68 -346h446l-43 -217h-446l-74 -369h580l-43 -217h-834zM496 1550l32 152h562l-33 -152h-561z" />
    <glyph glyph-name="emacron" unicode="&#x113;" horiz-adv-x="897" 
d="M29 334q0 82 26 169.5t75.5 168t114.5 144.5t151 102t177 38q118 0 196.5 -54t78.5 -163q0 -54 -23 -103.5t-59.5 -86.5t-88.5 -70.5t-102 -57t-108.5 -43.5t-100.5 -31.5t-85 -20.5q3 -77 34 -119.5t107 -42.5q62 0 136.5 29t118.5 57l44 29l39 -185q-7 -5 -19 -13
t-51.5 -28.5t-81 -36t-102 -28.5t-119.5 -13q-90 0 -160 28.5t-112.5 79t-64 114t-21.5 137.5zM535 776q-67 0 -141 -78.5t-101 -214.5q74 20 140 49t119.5 76.5t53.5 98.5q0 29 -16.5 49t-54.5 20zM317 1186l33 151h529l-33 -151h-529z" />
    <glyph glyph-name="Ebreve" unicode="&#x114;" horiz-adv-x="1075" 
d="M55 0l271 1366h821l-43 -217h-567l-68 -346h446l-43 -217h-446l-74 -369h580l-43 -217h-834zM786 1464q-124 0 -192 59.5t-68 157.5q0 48 19 107h133q-8 -46 -8 -64q0 -63 31.5 -88.5t89.5 -25.5q75 0 129.5 41.5t68.5 136.5h133q-8 -150 -97.5 -237t-238.5 -87z" />
    <glyph glyph-name="ebreve" unicode="&#x115;" horiz-adv-x="897" 
d="M29 334q0 82 26 169.5t75.5 168t114.5 144.5t151 102t177 38q118 0 196.5 -54t78.5 -163q0 -54 -23 -103.5t-59.5 -86.5t-88.5 -70.5t-102 -57t-108.5 -43.5t-100.5 -31.5t-85 -20.5q3 -77 34 -119.5t107 -42.5q62 0 136.5 29t118.5 57l44 29l39 -185q-7 -5 -19 -13
t-51.5 -28.5t-81 -36t-102 -28.5t-119.5 -13q-90 0 -160 28.5t-112.5 79t-64 114t-21.5 137.5zM535 776q-67 0 -141 -78.5t-101 -214.5q74 20 140 49t119.5 76.5t53.5 98.5q0 29 -16.5 49t-54.5 20zM586 1110q-119 0 -184.5 62.5t-65.5 162.5q0 53 18 109h133
q-10 -52 -10 -78q0 -117 113 -117q63 0 114 44t74 151h133q-9 -152 -97.5 -243t-227.5 -91z" />
    <glyph glyph-name="Edotaccent" unicode="&#x116;" horiz-adv-x="1075" 
d="M55 0l271 1366h821l-43 -217h-567l-68 -346h446l-43 -217h-446l-74 -369h580l-43 -217h-834zM780 1483q-60 0 -95.5 31.5t-35.5 82.5q0 74 43 124.5t115 50.5q61 0 96 -33t35 -88q0 -73 -45 -120.5t-113 -47.5z" />
    <glyph glyph-name="edotaccent" unicode="&#x117;" horiz-adv-x="897" 
d="M29 334q0 82 26 169.5t75.5 168t114.5 144.5t151 102t177 38q118 0 196.5 -54t78.5 -163q0 -54 -23 -103.5t-59.5 -86.5t-88.5 -70.5t-102 -57t-108.5 -43.5t-100.5 -31.5t-85 -20.5q3 -77 34 -119.5t107 -42.5q62 0 136.5 29t118.5 57l44 29l39 -185q-7 -5 -19 -13
t-51.5 -28.5t-81 -36t-102 -28.5t-119.5 -13q-90 0 -160 28.5t-112.5 79t-64 114t-21.5 137.5zM535 776q-67 0 -141 -78.5t-101 -214.5q74 20 140 49t119.5 76.5t53.5 98.5q0 29 -16.5 49t-54.5 20zM586 1135q-60 0 -95.5 31.5t-35.5 82.5q0 74 42.5 124t114.5 50
q61 0 96 -32.5t35 -87.5q0 -73 -44.5 -120.5t-112.5 -47.5z" />
    <glyph glyph-name="Eogonek" unicode="&#x118;" horiz-adv-x="1075" 
d="M55 0l271 1366h821l-43 -217h-567l-68 -346h446l-43 -217h-446l-74 -369h580l-43 -217h-2q-225 -181 -225 -276q0 -52 65 -52q41 0 88 21v-150q-82 -28 -156 -28q-86 0 -135 42t-49 117q0 44 14 85t46 84t55 67.5t69 70.5l19 19h-623z" />
    <glyph glyph-name="eogonek" unicode="&#x119;" horiz-adv-x="901" 
d="M31 334q0 82 26 169.5t75.5 168t114.5 144.5t151 102t177 38q118 0 196.5 -54t78.5 -163q0 -54 -23 -103.5t-59.5 -86.5t-88.5 -70.5t-102 -57t-108.5 -43.5t-100.5 -31.5t-85 -20.5q3 -77 34 -119.5t107 -42.5q62 0 136.5 29t118.5 57l44 29l39 -185q-37 -26 -92 -53
q-40 -30 -61 -46.5t-69 -58t-75 -72t-50.5 -70t-23.5 -70.5q0 -52 66 -52q41 0 88 21v-150q-82 -28 -156 -28q-86 0 -135 42t-49 117q0 44 13.5 84.5t44.5 81.5t53.5 66t66.5 69q-89 1 -157.5 29.5t-110.5 78.5t-63 113.5t-21 137.5zM537 776q-67 0 -141 -78.5t-101 -214.5
q74 20 140 49t119.5 76.5t53.5 98.5q0 29 -16.5 49t-54.5 20z" />
    <glyph glyph-name="Ecaron" unicode="&#x11a;" horiz-adv-x="1075" 
d="M55 0l271 1366h821l-43 -217h-567l-68 -346h446l-43 -217h-446l-74 -369h580l-43 -217h-834zM672 1470l-195 226l135 88l174 -180l254 180l117 -88l-293 -226h-192z" />
    <glyph glyph-name="ecaron" unicode="&#x11b;" horiz-adv-x="897" 
d="M29 334q0 82 26 169.5t75.5 168t114.5 144.5t151 102t177 38q118 0 196.5 -54t78.5 -163q0 -54 -23 -103.5t-59.5 -86.5t-88.5 -70.5t-102 -57t-108.5 -43.5t-100.5 -31.5t-85 -20.5q3 -77 34 -119.5t107 -42.5q62 0 136.5 29t118.5 57l44 29l39 -185q-7 -5 -19 -13
t-51.5 -28.5t-81 -36t-102 -28.5t-119.5 -13q-90 0 -160 28.5t-112.5 79t-64 114t-21.5 137.5zM535 776q-67 0 -141 -78.5t-101 -214.5q74 20 140 49t119.5 76.5t53.5 98.5q0 29 -16.5 49t-54.5 20zM471 1067l-147 352l137 58l112 -244l218 244l129 -60l-299 -350h-150z" />
    <glyph glyph-name="Gcircumflex" unicode="&#x11c;" horiz-adv-x="1388" 
d="M88 563q0 158 65.5 308t178 265t277 185t349.5 70q115 0 226.5 -26.5t165.5 -52.5l55 -26l-139 -205q-5 4 -15 9.5t-43 21t-68.5 27t-89.5 21t-108 9.5q-128 0 -239.5 -50.5t-187 -133.5t-118.5 -190t-43 -220q0 -183 108.5 -280.5t291.5 -97.5q42 0 92.5 6t79.5 12l30 6
l62 305h-256l45 219h510l-141 -708q-28 -7 -76 -17.5t-167 -27.5t-206 -17q-185 0 -329 70t-227 204.5t-83 313.5zM700 1470l-116 89l293 225h192l195 -225l-136 -89l-176 181z" />
    <glyph glyph-name="gcircumflex" unicode="&#x11d;" horiz-adv-x="1015" 
d="M45 -127h205q-49 -64 -49 -115q0 -32 28 -57t90 -25q50 0 89 13.5t65 35t45 56t29 68.5t17.5 81t10.5 85t7.5 89t9.5 84h-6q-49 -96 -137 -154.5t-181 -58.5q-111 0 -180.5 74.5t-69.5 214.5q0 86 27 180.5t82.5 185.5t131 164t180.5 117.5t223 44.5q43 0 136 -12
t173 -12l-119 -565q-12 -56 -24.5 -139.5t-21 -147t-25.5 -141t-38 -135t-58.5 -114.5t-87 -93.5t-124.5 -59t-170 -22.5q-153 0 -238 58.5t-85 135.5q0 81 65 164zM338 178q46 0 98 39t93.5 97t73.5 123.5t44 119.5l45 217q-32 10 -69 10q-88 0 -170.5 -67.5t-134.5 -182.5
t-52 -243q0 -113 72 -113zM449 1038l-130 60l299 350h150l147 -352l-137 -58l-112 244z" />
    <glyph glyph-name="Gbreve" unicode="&#x11e;" horiz-adv-x="1388" 
d="M88 563q0 158 65.5 308t178 265t277 185t349.5 70q115 0 226.5 -26.5t165.5 -52.5l55 -26l-139 -205q-5 4 -15 9.5t-43 21t-68.5 27t-89.5 21t-108 9.5q-128 0 -239.5 -50.5t-187 -133.5t-118.5 -190t-43 -220q0 -183 108.5 -280.5t291.5 -97.5q42 0 92.5 6t79.5 12l30 6
l62 305h-256l45 219h510l-141 -708q-28 -7 -76 -17.5t-167 -27.5t-206 -17q-185 0 -329 70t-227 204.5t-83 313.5zM944 1464q-124 0 -192 59.5t-68 157.5q0 51 18 107h134q-9 -52 -9 -64q0 -63 31.5 -88.5t89.5 -25.5q75 0 130 41.5t69 136.5h133q-8 -150 -97.5 -237
t-238.5 -87z" />
    <glyph glyph-name="gbreve" unicode="&#x11f;" horiz-adv-x="1015" 
d="M45 -127h205q-49 -64 -49 -115q0 -32 28 -57t90 -25q50 0 89 13.5t65 35t45 56t29 68.5t17.5 81t10.5 85t7.5 89t9.5 84h-6q-49 -96 -137 -154.5t-181 -58.5q-111 0 -180.5 74.5t-69.5 214.5q0 86 27 180.5t82.5 185.5t131 164t180.5 117.5t223 44.5q43 0 136 -12
t173 -12l-119 -565q-12 -56 -24.5 -139.5t-21 -147t-25.5 -141t-38 -135t-58.5 -114.5t-87 -93.5t-124.5 -59t-170 -22.5q-153 0 -238 58.5t-85 135.5q0 81 65 164zM338 178q46 0 98 39t93.5 97t73.5 123.5t44 119.5l45 217q-32 10 -69 10q-88 0 -170.5 -67.5t-134.5 -182.5
t-52 -243q0 -113 72 -113zM653 1110q-119 0 -184.5 62.5t-65.5 162.5q0 50 19 109h133q-10 -52 -10 -78q0 -117 112 -117q64 0 115 44t74 151h133q-9 -152 -97.5 -243t-228.5 -91z" />
    <glyph glyph-name="Gdotaccent" unicode="&#x120;" horiz-adv-x="1388" 
d="M88 563q0 158 65.5 308t178 265t277 185t349.5 70q115 0 226.5 -26.5t165.5 -52.5l55 -26l-139 -205q-5 4 -15 9.5t-43 21t-68.5 27t-89.5 21t-108 9.5q-128 0 -239.5 -50.5t-187 -133.5t-118.5 -190t-43 -220q0 -183 108.5 -280.5t291.5 -97.5q42 0 92.5 6t79.5 12l30 6
l62 305h-256l45 219h510l-141 -708q-28 -7 -76 -17.5t-167 -27.5t-206 -17q-185 0 -329 70t-227 204.5t-83 313.5zM938 1483q-60 0 -95.5 31.5t-35.5 82.5q0 74 43 124.5t115 50.5q61 0 96 -33t35 -88q0 -73 -45 -120.5t-113 -47.5z" />
    <glyph glyph-name="gdotaccent" unicode="&#x121;" horiz-adv-x="1015" 
d="M45 -127h205q-49 -64 -49 -115q0 -32 28 -57t90 -25q50 0 89 13.5t65 35t45 56t29 68.5t17.5 81t10.5 85t7.5 89t9.5 84h-6q-49 -96 -137 -154.5t-181 -58.5q-111 0 -180.5 74.5t-69.5 214.5q0 86 27 180.5t82.5 185.5t131 164t180.5 117.5t223 44.5q43 0 136 -12
t173 -12l-119 -565q-12 -56 -24.5 -139.5t-21 -147t-25.5 -141t-38 -135t-58.5 -114.5t-87 -93.5t-124.5 -59t-170 -22.5q-153 0 -238 58.5t-85 135.5q0 81 65 164zM338 178q46 0 98 39t93.5 97t73.5 123.5t44 119.5l45 217q-32 10 -69 10q-88 0 -170.5 -67.5t-134.5 -182.5
t-52 -243q0 -113 72 -113zM653 1135q-60 0 -95.5 31.5t-35.5 82.5q0 74 43 124t115 50q61 0 96 -32.5t35 -87.5q0 -73 -45 -120.5t-113 -47.5z" />
    <glyph glyph-name="Gcommaaccent" unicode="&#x122;" horiz-adv-x="1388" 
d="M88 563q0 158 65.5 308t178 265t277 185t349.5 70q115 0 226.5 -26.5t165.5 -52.5l55 -26l-139 -205q-5 4 -15 9.5t-43 21t-68.5 27t-89.5 21t-108 9.5q-128 0 -239.5 -50.5t-187 -133.5t-118.5 -190t-43 -220q0 -183 108.5 -280.5t291.5 -97.5q42 0 92.5 6t79.5 12l30 6
l62 305h-256l45 219h510l-141 -708q-28 -7 -76 -17.5t-167 -27.5t-206 -17q-185 0 -329 70t-227 204.5t-83 313.5zM510 -100h207q20 -32 20 -93q0 -108 -77 -192t-185 -125l-72 107q63 31 101.5 82.5t38.5 115.5q0 61 -33 105z" />
    <glyph glyph-name="gcommaaccent" unicode="&#x123;" horiz-adv-x="1015" 
d="M45 -127h205q-49 -64 -49 -115q0 -32 28 -57t90 -25q50 0 89 13.5t65 35t45 56t29 68.5t17.5 81t10.5 85t7.5 89t9.5 84h-6q-49 -96 -137 -154.5t-181 -58.5q-111 0 -180.5 74.5t-69.5 214.5q0 86 27 180.5t82.5 185.5t131 164t180.5 117.5t223 44.5q43 0 136 -12
t173 -12l-119 -565q-12 -56 -24.5 -139.5t-21 -147t-25.5 -141t-38 -135t-58.5 -114.5t-87 -93.5t-124.5 -59t-170 -22.5q-153 0 -238 58.5t-85 135.5q0 81 65 164zM338 178q46 0 98 39t93.5 97t73.5 123.5t44 119.5l45 217q-32 10 -69 10q-88 0 -170.5 -67.5t-134.5 -182.5
t-52 -243q0 -113 72 -113zM715 1051h-207q-21 31 -21 92q0 108 77.5 192t185.5 125l71 -106q-62 -30 -100.5 -82.5t-38.5 -116.5q0 -60 33 -104z" />
    <glyph glyph-name="Hcircumflex" unicode="&#x124;" horiz-adv-x="1497" 
d="M55 0l271 1366h254l-111 -559h657l111 559h254l-270 -1366h-254l116 588h-657l-117 -588h-254zM713 1470l-117 89l293 225h192l195 -225l-135 -89l-176 181z" />
    <glyph glyph-name="hcircumflex" unicode="&#x125;" horiz-adv-x="1046" 
d="M6 0l303 1427l254 41l-151 -714q54 79 154 140.5t210 61.5q103 0 146 -55.5t43 -140.5q0 -24 -2.5 -49.5t-9 -60.5t-10.5 -55.5t-14.5 -66.5t-13.5 -61l-98 -467h-246l101 471q33 168 33 201q0 61 -52 61q-74 0 -182.5 -106t-124.5 -181l-94 -446h-246zM283 1524l-129 59
l299 350h149l148 -352l-138 -57l-112 243z" />
    <glyph glyph-name="Hbar" unicode="&#x126;" horiz-adv-x="1523" 
d="M109 993l24 123h156l49 250h254l-49 -250h657l49 250h254l-49 -250h150l-25 -123h-149l-197 -993h-254l117 588h-658l-116 -588h-254l196 993h-155zM481 807h658l37 186h-658z" />
    <glyph glyph-name="hbar" unicode="&#x127;" horiz-adv-x="1046" 
d="M100 1081l25 123h137l47 223l254 41l-57 -264h282l-24 -123h-283l-69 -327q54 79 154 140.5t210 61.5q103 0 146 -55.5t43 -140.5q0 -24 -2.5 -49.5t-9 -60.5t-10.5 -55.5t-14.5 -66.5t-13.5 -61l-98 -467h-246l101 471q33 168 33 201q0 61 -52 61q-74 0 -182.5 -106
t-124.5 -181l-94 -446h-246l230 1081h-136z" />
    <glyph glyph-name="Itilde" unicode="&#x128;" horiz-adv-x="585" 
d="M55 0l271 1366h254l-271 -1366h-254zM109 1509q1 5 2 14.5t8 36.5t17 51t29.5 54t44.5 51.5t63.5 36t84.5 14.5q49 0 90 -14t67.5 -33.5t49.5 -39.5t46.5 -34t47.5 -14q35 0 57.5 33t27.5 65l6 33l151 -20q-1 -5 -2.5 -14.5t-8.5 -37t-17.5 -52t-31 -55t-45.5 -52
t-64.5 -36.5t-86.5 -15q-49 0 -88 14t-63.5 33.5t-45.5 39.5t-44.5 34t-49.5 14q-36 0 -59.5 -32t-28.5 -64l-6 -31z" />
    <glyph glyph-name="itilde" unicode="&#x129;" horiz-adv-x="491" 
d="M8 0l195 932h246l-197 -932h-244zM31 1130q1 6 2 16t8 39t17 55.5t29 58.5t42.5 55t60.5 39t80 16q44 0 79 -16t57 -39t40 -46t37 -39t39 -16q33 0 55.5 38t28.5 76l6 38l150 -21q-1 -6 -2.5 -16t-8.5 -39.5t-17 -56t-29.5 -59t-43.5 -56t-61 -39.5t-80 -16q-44 0 -79 16
t-56 39t-38.5 45.5t-36 38.5t-38.5 16q-33 0 -56 -36.5t-30 -73.5l-6 -37z" />
    <glyph glyph-name="Imacron" unicode="&#x12a;" horiz-adv-x="585" 
d="M55 0l271 1366h254l-271 -1366h-254zM211 1550l33 152h561l-33 -152h-561z" />
    <glyph glyph-name="imacron" unicode="&#x12b;" horiz-adv-x="491" 
d="M8 0l195 932h246l-197 -932h-244zM123 1186l33 151h528l-33 -151h-528z" />
    <glyph glyph-name="Ibreve" unicode="&#x12c;" horiz-adv-x="585" 
d="M55 0l271 1366h254l-271 -1366h-254zM502 1464q-124 0 -192 59.5t-68 157.5q0 51 18 107h133q-8 -46 -8 -64q0 -63 31.5 -88.5t89.5 -25.5q75 0 130 41.5t69 136.5h133q-8 -150 -97.5 -237t-238.5 -87z" />
    <glyph glyph-name="ibreve" unicode="&#x12d;" horiz-adv-x="491" 
d="M8 0l195 932h246l-197 -932h-244zM393 1110q-119 0 -184.5 62.5t-65.5 162.5q0 50 19 109h133q-10 -52 -10 -78q0 -117 112 -117q64 0 115 44t74 151h133q-9 -152 -97.5 -243t-228.5 -91z" />
    <glyph glyph-name="Iogonek" unicode="&#x12e;" horiz-adv-x="585" 
d="M55 0l271 1366h254l-271 -1366h-2q-225 -181 -225 -276q0 -52 65 -52q42 0 89 21v-150q-82 -28 -156 -28q-86 0 -135 42t-49 117q0 36 11.5 72.5t26 63t44.5 62.5t47.5 54.5t55.5 56.5l17 17h-43z" />
    <glyph glyph-name="iogonek" unicode="&#x12f;" horiz-adv-x="493" 
d="M8 0l197 932h246l-197 -932h-2q-225 -181 -225 -276q0 -52 65 -52q41 0 88 21v-150q-81 -28 -155 -28q-86 0 -135.5 42t-49.5 117q0 24 6 49t11.5 43.5t23 45t25 38.5t33 40.5t32 35.5t38 39t34.5 35h-35zM381 1135q-58 0 -89.5 35.5t-31.5 91.5q0 70 48 115.5t114 45.5
q57 0 89 -35t32 -92q0 -69 -47.5 -115t-114.5 -46z" />
    <glyph glyph-name="Idotaccent" unicode="&#x130;" horiz-adv-x="585" 
d="M55 0l271 1366h254l-271 -1366h-254zM496 1483q-60 0 -95.5 31.5t-35.5 82.5q0 74 43 124.5t114 50.5q61 0 96 -33t35 -88q0 -73 -44.5 -120.5t-112.5 -47.5z" />
    <glyph glyph-name="dotlessi" unicode="&#x131;" horiz-adv-x="491" 
d="M8 0l195 932h246l-197 -932h-244z" />
    <glyph glyph-name="IJ" unicode="&#x132;" horiz-adv-x="1173" 
d="M55 0l271 1366h254l-271 -1366h-254zM688 227l225 1139h254l-223 -1130q-14 -68 -29 -123t-38.5 -117t-51 -109.5t-67.5 -95t-88 -81t-113 -59t-141 -36.5l-80 215q54 4 100.5 21.5t78.5 40.5t59.5 59t44.5 66.5t31.5 73.5t21.5 70t16 66z" />
    <glyph glyph-name="ij" unicode="&#x133;" horiz-adv-x="987" 
d="M381 1135q-58 0 -89.5 35.5t-31.5 91.5q0 70 48 115.5t114 45.5q57 0 89 -35t32 -92q0 -69 -47.5 -115t-114.5 -46zM8 0l197 932h246l-197 -932h-246zM877 1135q-60 0 -96 31.5t-36 82.5q0 74 43 124t115 50q61 0 96 -32.5t35 -87.5q0 -73 -44.5 -120.5t-112.5 -47.5z
M508 35l190 897h246l-188 -887q-26 -123 -77.5 -220.5t-119 -160t-142.5 -99t-157 -50.5l-78 200q267 40 326 320z" />
    <glyph glyph-name="Jcircumflex" unicode="&#x134;" horiz-adv-x="587" 
d="M102 227l226 1139h254l-224 -1130q-14 -68 -29 -123t-38.5 -117t-51 -109.5t-67.5 -95t-88 -81t-113 -59t-141 -36.5l-80 215q54 4 100.5 21.5t78.5 40.5t59.5 59t44.5 66.5t31.5 73.5t21.5 70t16 66zM260 1470l-117 89l293 225h193l194 -225l-135 -89l-176 181z" />
    <glyph glyph-name="jcircumflex" unicode="&#x135;" horiz-adv-x="493" 
d="M14 35l191 897h246l-189 -887q-26 -123 -77.5 -220.5t-119 -160t-142 -99t-156.5 -50.5l-78 200q266 40 325 320zM172 1038l-129 60l299 350h150l147 -352l-137 -58l-113 244z" />
    <glyph glyph-name="Kcommaaccent" unicode="&#x136;" horiz-adv-x="1216" 
d="M55 0l271 1366h254l-109 -541h35l518 541h334l-662 -666l426 -700h-297l-362 606h-35l-119 -606h-254zM383 -100h207q20 -32 20 -93q0 -108 -77 -192t-185 -125l-72 107q63 31 101.5 82.5t38.5 115.5q0 61 -33 105z" />
    <glyph glyph-name="kcommaaccent" unicode="&#x137;" horiz-adv-x="991" 
d="M6 0l303 1427l254 41l-182 -856h33l319 320h318l-455 -436l278 -496h-278l-223 424h-31l-90 -424h-246zM268 -100h207q21 -32 21 -93q0 -108 -77.5 -192t-185.5 -125l-71 107q63 31 101 82.5t38 115.5q0 61 -33 105z" />
    <glyph glyph-name="kgreenlandic" unicode="&#x138;" horiz-adv-x="1015" 
d="M8 0l197 932h246l-74 -350h24l363 350h326l-492 -455l293 -477h-295l-225 393h-35l-82 -393h-246z" />
    <glyph glyph-name="Lacute" unicode="&#x139;" horiz-adv-x="1021" 
d="M55 0l271 1366h254l-228 -1147h586l-45 -219h-838zM338 1450l-51 137l444 195l72 -189z" />
    <glyph glyph-name="lacute" unicode="&#x13a;" horiz-adv-x="491" 
d="M6 0l303 1427l254 41l-311 -1468h-246zM469 1526l-137 73l282 334h263z" />
    <glyph glyph-name="Lcommaaccent" unicode="&#x13b;" horiz-adv-x="1019" 
d="M55 0l271 1366h254l-228 -1147h586l-45 -219h-838zM340 -100h207q20 -32 20 -93q0 -108 -77 -192t-185 -125l-72 107q63 31 101.5 82.5t38.5 115.5q0 61 -33 105z" />
    <glyph glyph-name="lcommaaccent" unicode="&#x13c;" horiz-adv-x="491" 
d="M6 0l303 1427l254 41l-311 -1468h-246zM-10 -100h207q20 -32 20 -93q0 -108 -77 -192t-185 -125l-72 107q63 31 101.5 82.5t38.5 115.5q0 61 -33 105z" />
    <glyph glyph-name="Lcaron" unicode="&#x13d;" horiz-adv-x="1046" 
d="M55 0l271 1366h254l-228 -1147h586l-45 -219h-838zM748 1110l131 403l249 21l-231 -424h-149z" />
    <glyph glyph-name="lcaron" unicode="&#x13e;" horiz-adv-x="491" 
d="M6 0l303 1427l254 41l-311 -1468h-246zM612 1110l131 403l250 21l-231 -424h-150z" />
    <glyph glyph-name="Ldot" unicode="&#x13f;" horiz-adv-x="1107" 
d="M55 0l271 1366h254l-228 -1147h586l-45 -219h-838zM848 580q-57 0 -85 32t-28 80q0 79 48 142t135 63q58 0 87 -31.5t29 -79.5q0 -78 -48.5 -142t-137.5 -64z" />
    <glyph glyph-name="ldot" unicode="&#x140;" horiz-adv-x="745" 
d="M6 0l303 1427l254 41l-311 -1468h-246zM623 582q-57 0 -85 32t-28 80q0 79 47.5 142t134.5 63q58 0 87.5 -31.5t29.5 -79.5q0 -78 -48.5 -142t-137.5 -64z" />
    <glyph glyph-name="Lslash" unicode="&#x141;" horiz-adv-x="1056" 
d="M18 442l35 187l750 424l-37 -187zM92 0l270 1366h254l-227 -1147h586l-45 -219h-838z" />
    <glyph glyph-name="lslash" unicode="&#x142;" horiz-adv-x="571" 
d="M-8 446l39 189l612 326l-41 -189zM49 0l303 1427l254 41l-311 -1468h-246z" />
    <glyph glyph-name="Nacute" unicode="&#x143;" horiz-adv-x="1462" 
d="M55 0l271 1366h256l432 -985l196 985h246l-270 -1366h-258l-432 979l-195 -979h-246zM778 1450l-51 137l444 195l72 -189z" />
    <glyph glyph-name="nacute" unicode="&#x144;" horiz-adv-x="1044" 
d="M4 0l195 911l243 41l-47 -223q46 83 153.5 155t225.5 72q103 0 146 -55.5t43 -140.5q0 -24 -2.5 -49.5t-9 -60.5t-10.5 -55.5t-14.5 -66.5t-13.5 -61l-98 -467h-246l101 471q32 163 32 201q0 30 -11 45.5t-40 15.5q-49 0 -119.5 -51t-123.5 -117.5t-62 -111.5l-96 -453
h-246zM655 1040l-137 74l283 334h262z" />
    <glyph glyph-name="Ncommaaccent" unicode="&#x145;" horiz-adv-x="1462" 
d="M55 0l271 1366h256l432 -985l196 985h246l-270 -1366h-258l-432 979l-195 -979h-246zM483 -100h207q21 -32 21 -93q0 -108 -77 -192t-185 -125l-72 107q63 31 101 82.5t38 115.5q0 61 -33 105z" />
    <glyph glyph-name="ncommaaccent" unicode="&#x146;" horiz-adv-x="1044" 
d="M4 0l195 911l243 41l-47 -223q46 83 153.5 155t225.5 72q103 0 146 -55.5t43 -140.5q0 -24 -2.5 -49.5t-9 -60.5t-10.5 -55.5t-14.5 -66.5t-13.5 -61l-98 -467h-246l101 471q32 163 32 201q0 30 -11 45.5t-40 15.5q-49 0 -119.5 -51t-123.5 -117.5t-62 -111.5l-96 -453
h-246zM268 -100h207q21 -32 21 -93q0 -108 -77.5 -192t-185.5 -125l-71 107q63 31 101 82.5t38 115.5q0 61 -33 105z" />
    <glyph glyph-name="Ncaron" unicode="&#x147;" horiz-adv-x="1462" 
d="M55 0l271 1366h256l432 -985l196 985h246l-270 -1366h-258l-432 979l-195 -979h-246zM827 1470l-194 226l135 88l174 -180l254 180l117 -88l-293 -226h-193z" />
    <glyph glyph-name="ncaron" unicode="&#x148;" horiz-adv-x="1044" 
d="M4 0l195 911l243 41l-47 -223q46 83 153.5 155t225.5 72q103 0 146 -55.5t43 -140.5q0 -24 -2.5 -49.5t-9 -60.5t-10.5 -55.5t-14.5 -66.5t-13.5 -61l-98 -467h-246l101 471q32 163 32 201q0 30 -11 45.5t-40 15.5q-49 0 -119.5 -51t-123.5 -117.5t-62 -111.5l-96 -453
h-246zM561 1067l-147 352l137 58l113 -244l217 244l129 -60l-299 -350h-150z" />
    <glyph glyph-name="napostrophe" unicode="&#x149;" horiz-adv-x="1044" 
d="M4 0l195 911l243 41l-47 -223q46 83 153.5 155t225.5 72q103 0 146 -55.5t43 -140.5q0 -24 -2.5 -49.5t-9 -60.5t-10.5 -55.5t-14.5 -66.5t-13.5 -61l-98 -467h-246l101 471q32 163 32 201q0 30 -11 45.5t-40 15.5q-49 0 -119.5 -51t-123.5 -117.5t-62 -111.5l-96 -453
h-246zM242 1499h207q20 -31 20 -92q0 -108 -77 -192t-185 -125l-72 106q62 30 100.5 82.5t38.5 116.5q0 61 -32 104z" />
    <glyph glyph-name="Eng" unicode="&#x14a;" horiz-adv-x="1462" 
d="M55 0l271 1366h256l432 -985l196 985h246l-223 -1130q-14 -68 -29 -123t-38.5 -117t-51 -109.5t-67.5 -95t-88 -81t-113 -59t-141 -36.5l-80 215q205 16 295 188l-424 961l-195 -979h-246z" />
    <glyph glyph-name="eng" unicode="&#x14b;" horiz-adv-x="1042" 
d="M4 0l195 911l243 41l-47 -223q46 83 153.5 155t225.5 72q103 0 146 -55.5t43 -140.5q0 -24 -2.5 -49.5t-9 -60.5t-10.5 -55.5t-14.5 -66.5t-13.5 -61l-90 -422q-26 -123 -77.5 -220.5t-119 -160t-142 -99t-156.5 -50.5l-78 200q266 40 325 320l95 436q32 163 32 201
q0 30 -11 45.5t-40 15.5q-49 0 -119.5 -51t-123.5 -117.5t-62 -111.5l-96 -453h-246z" />
    <glyph glyph-name="Omacron" unicode="&#x14c;" horiz-adv-x="1546" 
d="M90 571q0 102 28 203t78.5 191.5t124.5 169t163 135t197.5 89t223.5 32.5q179 0 317 -75.5t211.5 -207.5t73.5 -299q0 -153 -63 -303t-170.5 -267.5t-262.5 -190.5t-325 -73q-137 0 -250.5 47t-188.5 128t-116 189.5t-41 231.5zM356 580q0 -78 20 -146t59.5 -123.5
t106.5 -88t154 -32.5q92 0 178 36t151.5 98t114.5 140.5t75 166.5t26 174q0 103 -37 185.5t-116.5 134t-190.5 51.5q-109 0 -210 -50t-173 -132t-115 -191t-43 -223zM692 1550l33 152h561l-33 -152h-561z" />
    <glyph glyph-name="omacron" unicode="&#x14d;" horiz-adv-x="1075" 
d="M37 381q0 109 41 212.5t113 184t179 129.5t230 49q101 0 180.5 -33t127.5 -88.5t73 -124t25 -145.5q0 -73 -21 -152t-67 -157.5t-111 -140.5t-160.5 -101t-206.5 -39q-100 0 -178.5 32t-127 88.5t-73 128.5t-24.5 157zM295 387q0 -107 40.5 -168t123.5 -61
q64 0 119.5 37.5t91 95.5t55.5 126.5t20 133.5q0 100 -40 161.5t-121 61.5q-115 0 -202 -113t-87 -274zM412 1186l32 151h529l-33 -151h-528z" />
    <glyph glyph-name="Obreve" unicode="&#x14e;" horiz-adv-x="1546" 
d="M90 571q0 102 28 203t78.5 191.5t124.5 169t163 135t197.5 89t223.5 32.5q179 0 317 -75.5t211.5 -207.5t73.5 -299q0 -153 -63 -303t-170.5 -267.5t-262.5 -190.5t-325 -73q-137 0 -250.5 47t-188.5 128t-116 189.5t-41 231.5zM356 580q0 -78 20 -146t59.5 -123.5
t106.5 -88t154 -32.5q92 0 178 36t151.5 98t114.5 140.5t75 166.5t26 174q0 103 -37 185.5t-116.5 134t-190.5 51.5q-109 0 -210 -50t-173 -132t-115 -191t-43 -223zM983 1464q-124 0 -192 59.5t-68 157.5q0 51 18 107h133q-8 -46 -8 -64q0 -63 31.5 -88.5t89.5 -25.5
q75 0 130 41.5t69 136.5h133q-8 -150 -97.5 -237t-238.5 -87z" />
    <glyph glyph-name="obreve" unicode="&#x14f;" horiz-adv-x="1075" 
d="M37 381q0 109 41 212.5t113 184t179 129.5t230 49q101 0 180.5 -33t127.5 -88.5t73 -124t25 -145.5q0 -73 -21 -152t-67 -157.5t-111 -140.5t-160.5 -101t-206.5 -39q-100 0 -178.5 32t-127 88.5t-73 128.5t-24.5 157zM295 387q0 -107 40.5 -168t123.5 -61
q64 0 119.5 37.5t91 95.5t55.5 126.5t20 133.5q0 100 -40 161.5t-121 61.5q-115 0 -202 -113t-87 -274zM680 1110q-119 0 -184.5 62.5t-65.5 162.5q0 50 19 109h133q-11 -57 -11 -78q0 -117 113 -117q63 0 114 44t74 151h134q-9 -152 -97.5 -243t-228.5 -91z" />
    <glyph glyph-name="Ohungarumlaut" unicode="&#x150;" horiz-adv-x="1546" 
d="M90 571q0 102 28 203t78.5 191.5t124.5 169t163 135t197.5 89t223.5 32.5q179 0 317 -75.5t211.5 -207.5t73.5 -299q0 -153 -63 -303t-170.5 -267.5t-262.5 -190.5t-325 -73q-137 0 -250.5 47t-188.5 128t-116 189.5t-41 231.5zM356 580q0 -78 20 -146t59.5 -123.5
t106.5 -88t154 -32.5q92 0 178 36t151.5 98t114.5 140.5t75 166.5t26 174q0 103 -37 185.5t-116.5 134t-190.5 51.5q-109 0 -210 -50t-173 -132t-115 -191t-43 -223zM1036 1534l211 252h238l-301 -326zM795 1460l-142 74l193 252h233z" />
    <glyph glyph-name="ohungarumlaut" unicode="&#x151;" horiz-adv-x="1075" 
d="M37 381q0 109 41 212.5t113 184t179 129.5t230 49q101 0 180.5 -33t127.5 -88.5t73 -124t25 -145.5q0 -73 -21 -152t-67 -157.5t-111 -140.5t-160.5 -101t-206.5 -39q-100 0 -178.5 32t-127 88.5t-73 128.5t-24.5 157zM295 387q0 -107 40.5 -168t123.5 -61
q64 0 119.5 37.5t91 95.5t55.5 126.5t20 133.5q0 100 -40 161.5t-121 61.5q-115 0 -202 -113t-87 -274zM860 1040l-117 74l271 334h225zM494 1040l-113 74l256 334h219z" />
    <glyph glyph-name="OE" unicode="&#x152;" horiz-adv-x="1935" 
d="M90 569q0 125 40 246t116.5 224.5t179.5 182.5t237 124t281 45q93 0 236 -25h827l-43 -217h-567l-68 -346h447l-43 -217h-447l-74 -369h580l-43 -217h-821q-125 -25 -217 -25q-147 0 -266.5 46.5t-196 127.5t-117.5 188.5t-41 231.5zM362 575q0 -78 19.5 -144t61 -121.5
t115 -87.5t173.5 -32q119 0 227 27l183 920q-91 39 -215 39q-159 0 -290 -85t-202.5 -222.5t-71.5 -293.5z" />
    <glyph glyph-name="oe" unicode="&#x153;" horiz-adv-x="1579" 
d="M37 381q0 109 41 212.5t113 184t179 129.5t230 49q113 0 195.5 -44t128.5 -121q152 165 342 165q69 0 127 -21t97.5 -72t39.5 -124q0 -54 -23 -103.5t-59.5 -86.5t-88.5 -70.5t-102 -57t-108.5 -43.5t-100.5 -31.5t-85 -20.5q3 -77 34 -119.5t107 -42.5q62 0 136.5 29
t118.5 57l44 29l39 -185q-7 -5 -19 -13t-50.5 -28.5t-78.5 -36t-99 -28.5t-116 -13q-198 0 -286 146q-146 -146 -353 -146q-100 0 -178.5 32t-127 88.5t-73 128.5t-24.5 157zM295 387q0 -107 40.5 -168t123.5 -61q64 0 119.5 37.5t91 95.5t55.5 126.5t20 133.5
q0 100 -40 161.5t-121 61.5q-115 0 -202 -113t-87 -274zM1217 776q-67 0 -141 -78.5t-101 -214.5q74 20 140 49t119.5 76.5t53.5 98.5q0 29 -16.5 49t-54.5 20z" />
    <glyph glyph-name="Racute" unicode="&#x154;" horiz-adv-x="1228" 
d="M834 0l-230 516h-192l-103 -516h-254l271 1366h415q215 0 319.5 -99t104.5 -274q0 -143 -91.5 -259.5t-225.5 -168.5l260 -565h-274zM455 733h139q142 0 223.5 70.5t81.5 181.5q0 79 -51 120.5t-172 41.5h-139zM637 1450l-51 137l444 195l72 -189z" />
    <glyph glyph-name="racute" unicode="&#x155;" horiz-adv-x="743" 
d="M4 0l195 911l243 41l-51 -243h10q82 121 149 181t150 60q24 0 45.5 -3t30.5 -6l10 -3l-51 -240q-32 13 -73 13q-95 0 -205 -133q-111 -133 -131 -226l-76 -352h-246zM526 1040l-137 74l283 334h262z" />
    <glyph glyph-name="Rcommaaccent" unicode="&#x156;" horiz-adv-x="1224" 
d="M834 0l-230 516h-192l-103 -516h-254l271 1366h415q215 0 319.5 -99t104.5 -274q0 -143 -91.5 -259.5t-225.5 -168.5l260 -565h-274zM455 733h139q142 0 223.5 70.5t81.5 181.5q0 79 -51 120.5t-172 41.5h-139zM410 -100h206q21 -32 21 -93q0 -108 -77 -192t-185 -125
l-72 107q63 31 101 82.5t38 115.5q0 62 -32 105z" />
    <glyph glyph-name="rcommaaccent" unicode="&#x157;" horiz-adv-x="743" 
d="M4 0l195 911l243 41l-51 -243h10q82 121 149 181t150 60q24 0 45.5 -3t30.5 -6l10 -3l-51 -240q-32 13 -73 13q-95 0 -205 -133q-111 -133 -131 -226l-76 -352h-246zM-14 -100h207q20 -32 20 -93q0 -108 -77 -192t-185 -125l-72 107q63 31 101 82.5t38 115.5
q0 62 -32 105z" />
    <glyph glyph-name="Rcaron" unicode="&#x158;" horiz-adv-x="1228" 
d="M834 0l-230 516h-192l-103 -516h-254l271 1366h415q215 0 319.5 -99t104.5 -274q0 -143 -91.5 -259.5t-225.5 -168.5l260 -565h-274zM455 733h139q142 0 223.5 70.5t81.5 181.5q0 79 -51 120.5t-172 41.5h-139zM686 1470l-194 226l135 88l174 -180l254 180l116 -88
l-292 -226h-193z" />
    <glyph glyph-name="rcaron" unicode="&#x159;" horiz-adv-x="743" 
d="M4 0l195 911l243 41l-51 -243h10q82 121 149 181t150 60q24 0 45.5 -3t30.5 -6l10 -3l-51 -240q-32 13 -73 13q-95 0 -205 -133q-111 -133 -131 -226l-76 -352h-246zM432 1067l-147 352l137 58l113 -244l217 244l129 -60l-299 -350h-150z" />
    <glyph glyph-name="Sacute" unicode="&#x15a;" horiz-adv-x="1007" 
d="M8 90l74 225q6 -5 16 -12.5t43 -27t67 -34.5t84.5 -27.5t98.5 -12.5q101 0 175.5 47t74.5 127q0 45 -26 84.5t-67 70.5t-90.5 62.5t-99.5 68t-91 78.5t-67 103t-26 133q0 83 35.5 158t99 132.5t160 91.5t211.5 34q81 0 167 -15.5t131 -31.5l46 -15l-53 -229
q-16 7 -43.5 18t-104.5 29t-145 18q-111 0 -178.5 -43.5t-67.5 -120.5q0 -46 26 -85t67 -68.5t90.5 -59.5t99.5 -66t91 -79.5t67 -108t26 -143.5q0 -95 -41.5 -174.5t-111.5 -131.5t-160 -81t-189 -29q-98 0 -195.5 29t-145.5 58zM567 1450l-51 137l445 195l71 -189z" />
    <glyph glyph-name="sacute" unicode="&#x15b;" horiz-adv-x="763" 
d="M-31 53l56 185q11 -9 31.5 -21.5t81 -33.5t118.5 -21q63 0 100 23t37 69q0 38 -29.5 70t-71.5 60.5t-84.5 61.5t-72 88t-29.5 125q0 138 104.5 217.5t270.5 79.5q73 0 138.5 -15t94.5 -31l29 -15l-55 -180q-9 6 -25 15t-67 24.5t-102 15.5q-68 0 -105 -24t-37 -66
q0 -31 21.5 -58t53 -47t69 -48t69 -58t53 -79.5t21.5 -110.5q0 -75 -31 -134.5t-84 -95.5t-119 -55t-141 -19q-78 0 -152 19.5t-108 39.5zM508 1040l-137 74l282 334h262z" />
    <glyph glyph-name="Scircumflex" unicode="&#x15c;" horiz-adv-x="1007" 
d="M8 90l74 225q6 -5 16 -12.5t43 -27t67 -34.5t84.5 -27.5t98.5 -12.5q101 0 175.5 47t74.5 127q0 45 -26 84.5t-67 70.5t-90.5 62.5t-99.5 68t-91 78.5t-67 103t-26 133q0 83 35.5 158t99 132.5t160 91.5t211.5 34q81 0 167 -15.5t131 -31.5l46 -15l-53 -229
q-16 7 -43.5 18t-104.5 29t-145 18q-111 0 -178.5 -43.5t-67.5 -120.5q0 -46 26 -85t67 -68.5t90.5 -59.5t99.5 -66t91 -79.5t67 -108t26 -143.5q0 -95 -41.5 -174.5t-111.5 -131.5t-160 -81t-189 -29q-98 0 -195.5 29t-145.5 58zM487 1470l-116 89l293 225h192l195 -225
l-136 -89l-176 181z" />
    <glyph glyph-name="scircumflex" unicode="&#x15d;" horiz-adv-x="763" 
d="M-31 53l56 185q11 -9 31.5 -21.5t81 -33.5t118.5 -21q63 0 100 23t37 69q0 38 -29.5 70t-71.5 60.5t-84.5 61.5t-72 88t-29.5 125q0 138 104.5 217.5t270.5 79.5q73 0 138.5 -15t94.5 -31l29 -15l-55 -180q-9 6 -25 15t-67 24.5t-102 15.5q-68 0 -105 -24t-37 -66
q0 -31 21.5 -58t53 -47t69 -48t69 -58t53 -79.5t21.5 -110.5q0 -75 -31 -134.5t-84 -95.5t-119 -55t-141 -19q-78 0 -152 19.5t-108 39.5zM324 1038l-129 60l299 350h149l148 -352l-138 -58l-112 244z" />
    <glyph glyph-name="Scedilla" unicode="&#x15e;" horiz-adv-x="1011" 
d="M242 -145q0 8 2 17t4 15t7.5 16.5t8 15t10.5 17.5t11 17l18 31q-76 10 -149.5 36.5t-108.5 47.5l-35 22l74 225q6 -5 16 -12.5t43 -27t67 -34.5t84.5 -27.5t98.5 -12.5q101 0 175.5 47t74.5 127q0 45 -26 84.5t-67 70.5t-90.5 62.5t-99.5 68t-91 78.5t-67 103t-26 133
q0 83 35.5 158t99 132.5t160 91.5t211.5 34q81 0 167 -15.5t131 -31.5l46 -15l-53 -229q-16 7 -43.5 18t-104.5 29t-145 18q-111 0 -178.5 -43.5t-67.5 -120.5q0 -46 26 -85t67 -68.5t90.5 -59.5t99.5 -66t91 -79.5t67 -108t26 -143.5q0 -122 -66.5 -216t-173 -144
t-233.5 -56l-8 -14q-29 -58 -29 -70q0 -18 14 -31.5t33.5 -24.5t39.5 -25t34 -40.5t14 -62.5q0 -75 -70 -133.5t-165 -58.5q-37 0 -72.5 6.5t-59.5 15.5t-43.5 18.5t-28.5 16.5l-9 6l47 115q7 -7 19 -17t50.5 -26.5t77.5 -16.5q45 0 76 18.5t31 43.5q0 23 -21.5 42.5t-47 32
t-47 35t-21.5 50.5z" />
    <glyph glyph-name="scedilla" unicode="&#x15f;" horiz-adv-x="768" 
d="M115 -145q0 8 2 17t4 15t7.5 16.5t8 15t10.5 17.5t11 17l16 31q-56 8 -106.5 25t-73.5 31l-23 13l56 185q11 -9 31.5 -21.5t81 -33.5t118.5 -21q63 0 100 23t37 69q0 38 -29.5 70t-71.5 60.5t-84 61.5t-71.5 88t-29.5 125q0 138 104 217.5t270 79.5q73 0 138.5 -15
t94.5 -31l29 -15l-55 -180q-9 6 -25 15t-67 24.5t-102 15.5q-68 0 -105 -24t-37 -66q0 -31 21.5 -58t53 -47t69 -48t69 -58t53 -79.5t21.5 -110.5q0 -94 -48.5 -162t-123.5 -101.5t-168 -38.5l-8 -16q-29 -58 -29 -70q0 -18 14 -31.5t33.5 -24.5t39.5 -25t34 -40.5t14 -62.5
q0 -75 -70 -133.5t-165 -58.5q-37 0 -72.5 6.5t-59.5 15.5t-43.5 18.5t-28.5 16.5l-9 6l47 115q7 -7 19 -17t50.5 -26.5t77.5 -16.5q45 0 76 18.5t31 43.5q0 23 -21.5 42.5t-47 32t-47 35t-21.5 50.5z" />
    <glyph glyph-name="Scaron" unicode="&#x160;" horiz-adv-x="1007" 
d="M8 90l74 225q6 -5 16 -12.5t43 -27t67 -34.5t84.5 -27.5t98.5 -12.5q101 0 175.5 47t74.5 127q0 45 -26 84.5t-67 70.5t-90.5 62.5t-99.5 68t-91 78.5t-67 103t-26 133q0 83 35.5 158t99 132.5t160 91.5t211.5 34q81 0 167 -15.5t131 -31.5l46 -15l-53 -229
q-16 7 -43.5 18t-104.5 29t-145 18q-111 0 -178.5 -43.5t-67.5 -120.5q0 -46 26 -85t67 -68.5t90.5 -59.5t99.5 -66t91 -79.5t67 -108t26 -143.5q0 -95 -41.5 -174.5t-111.5 -131.5t-160 -81t-189 -29q-98 0 -195.5 29t-145.5 58zM616 1470l-194 226l135 88l174 -180
l254 180l117 -88l-293 -226h-193z" />
    <glyph glyph-name="scaron" unicode="&#x161;" horiz-adv-x="763" 
d="M-31 53l56 185q11 -9 31.5 -21.5t81 -33.5t118.5 -21q63 0 100 23t37 69q0 38 -29.5 70t-71.5 60.5t-84.5 61.5t-72 88t-29.5 125q0 138 104.5 217.5t270.5 79.5q73 0 138.5 -15t94.5 -31l29 -15l-55 -180q-9 6 -25 15t-67 24.5t-102 15.5q-68 0 -105 -24t-37 -66
q0 -31 21.5 -58t53 -47t69 -48t69 -58t53 -79.5t21.5 -110.5q0 -75 -31 -134.5t-84 -95.5t-119 -55t-141 -19q-78 0 -152 19.5t-108 39.5zM414 1067l-148 352l137 58l113 -244l217 244l129 -60l-299 -350h-149z" />
    <glyph glyph-name="Tcommaaccent" unicode="&#x162;" horiz-adv-x="1155" 
d="M338 0l227 1147h-426l45 219h1104l-45 -219h-424l-227 -1147h-70l-20 -39q-29 -58 -29 -70q0 -18 14 -31.5t33.5 -24.5t39.5 -25t34 -40.5t14 -62.5q0 -75 -70 -133.5t-165 -58.5q-37 0 -72.5 6.5t-59.5 15.5t-43.5 18.5t-28.5 16.5l-9 6l47 115q7 -7 19 -17t50.5 -26.5
t77.5 -16.5q45 0 76 18.5t31 43.5q0 23 -21.5 42.5t-47 32t-47 35t-21.5 50.5q0 8 2 17t4 15t7.5 16.5t8 15t10.5 17.5t11 17l28 47h-57z" />
    <glyph glyph-name="tcommaaccent" unicode="&#x163;" horiz-adv-x="792" 
d="M209 -145q0 8 2 17t4 15t7.5 16.5t8 15t10.5 17.5t11 17l18 31q-151 30 -151 198q0 50 10 94l100 472h-133v133l180 57l41 195l252 57l-55 -258h281l-41 -184h-279l-86 -400q-10 -44 -10 -84q0 -78 61 -78q76 0 189 84l57 -180q-149 -102 -291 -113l-8 -16
q-29 -58 -29 -70q0 -18 14 -31.5t34 -24.5t40 -25t34 -40.5t14 -62.5q0 -75 -70.5 -133.5t-165.5 -58.5q-37 0 -72.5 6.5t-59.5 15.5t-43.5 18.5t-28.5 16.5l-9 6l47 115q7 -7 19.5 -17t51 -26.5t77.5 -16.5q45 0 75.5 18.5t30.5 43.5q0 23 -21.5 42.5t-47 32t-47 35
t-21.5 50.5z" />
    <glyph glyph-name="Tcaron" unicode="&#x164;" horiz-adv-x="1155" 
d="M338 0l227 1147h-426l45 219h1104l-45 -219h-424l-227 -1147h-254zM680 1470l-195 226l136 88l174 -180l254 180l116 -88l-293 -226h-192z" />
    <glyph glyph-name="tcaron" unicode="&#x165;" horiz-adv-x="784" 
d="M113 182q0 50 10 94l100 472h-133v133l180 57l41 195l252 57l-55 -258h280l-40 -184h-279l-86 -400q-10 -44 -10 -84q0 -78 61 -78q76 0 189 84l57 -180q-174 -115 -334 -115q-233 0 -233 207zM682 1110l131 403l250 21l-232 -424h-149z" />
    <glyph glyph-name="Tbar" unicode="&#x166;" horiz-adv-x="1157" 
d="M154 629l24 123h309l78 395h-426l45 219h1104l-45 -219h-424l-78 -395h310l-25 -123h-309l-125 -629h-254l125 629h-309z" />
    <glyph glyph-name="tbar" unicode="&#x167;" horiz-adv-x="786" 
d="M25 467l26 123h139l35 158h-133v133l180 57l41 195l252 57l-55 -258h281l-41 -184h-279l-35 -158h269l-27 -123h-268l-25 -119q-10 -44 -10 -84q0 -78 61 -78q76 0 189 84l57 -180q-174 -115 -334 -115q-233 0 -233 207q0 50 10 94l41 191h-141z" />
    <glyph glyph-name="Utilde" unicode="&#x168;" horiz-adv-x="1392" 
d="M131 408q0 63 16 151l160 807h254l-166 -834q-12 -62 -12 -110q0 -120 63 -176t172 -56q139 0 236 87.5t129 250.5l166 838h254l-170 -856q-52 -257 -215.5 -396t-405.5 -139q-78 0 -148 15.5t-131.5 49.5t-106 83.5t-70 122.5t-25.5 162zM508 1509q1 5 2 14.5t8 36.5
t17 51t30 54t45 51.5t63.5 36t84.5 14.5q49 0 90 -14t67.5 -33.5t49.5 -39.5t46.5 -34t47.5 -14q35 0 57.5 33t27.5 65l5 33l151 -20q-1 -5 -2.5 -14.5t-8.5 -37t-17.5 -52t-31 -55t-45.5 -52t-64.5 -36.5t-86.5 -15q-49 0 -88 14t-63.5 33.5t-45 39.5t-44 34t-49.5 14
q-36 0 -60 -32t-30 -64l-5 -31z" />
    <glyph glyph-name="utilde" unicode="&#x169;" horiz-adv-x="1050" 
d="M55 209q0 30 4 66t8 57.5t14 68.5t13 64l99 467h245l-100 -471q-33 -168 -33 -201q0 -82 64 -82q45 0 97.5 40.5t94.5 100t74 124t43 114.5l80 375h246l-134 -631q-20 -104 -15 -159t30 -105l-228 -62q-47 77 -36 193h-7q-135 -193 -338 -193q-221 0 -221 234zM293 1130
q1 6 2 16t8 39t17 55.5t29 58.5t42.5 55t60.5 39t80 16q44 0 79 -16t57 -39t40 -46t37 -39t39 -16q33 0 55.5 38t28.5 76l6 38l150 -21q-1 -6 -2.5 -16t-8.5 -39.5t-17 -56t-29.5 -59t-43.5 -56t-61 -39.5t-80 -16q-44 0 -79 16t-56 39t-38 45.5t-35.5 38.5t-38.5 16
q-33 0 -56 -36.5t-30 -73.5l-7 -37z" />
    <glyph glyph-name="Umacron" unicode="&#x16a;" horiz-adv-x="1392" 
d="M131 408q0 63 16 151l160 807h254l-166 -834q-12 -62 -12 -110q0 -120 63 -176t172 -56q139 0 236 87.5t129 250.5l166 838h254l-170 -856q-52 -257 -215.5 -396t-405.5 -139q-78 0 -148 15.5t-131.5 49.5t-106 83.5t-70 122.5t-25.5 162zM610 1550l33 152h561l-33 -152
h-561z" />
    <glyph glyph-name="umacron" unicode="&#x16b;" horiz-adv-x="1048" 
d="M53 209q0 30 4 66t8 57.5t14 68.5t13 64l98 467h246l-100 -471q-33 -168 -33 -201q0 -82 64 -82q45 0 97.5 40.5t94.5 100t74 124t43 114.5l80 375h245l-133 -631q-20 -104 -15 -159t30 -105l-228 -62q-47 78 -37 193h-6q-135 -193 -338 -193q-221 0 -221 234zM385 1186
l33 151h528l-33 -151h-528z" />
    <glyph glyph-name="Ubreve" unicode="&#x16c;" horiz-adv-x="1392" 
d="M131 408q0 63 16 151l160 807h254l-166 -834q-12 -62 -12 -110q0 -120 63 -176t172 -56q139 0 236 87.5t129 250.5l166 838h254l-170 -856q-52 -257 -215.5 -396t-405.5 -139q-78 0 -148 15.5t-131.5 49.5t-106 83.5t-70 122.5t-25.5 162zM901 1464q-124 0 -192 59.5
t-68 157.5q0 51 18 107h134q-9 -52 -9 -64q0 -63 31.5 -88.5t89.5 -25.5q75 0 130 41.5t69 136.5h133q-8 -150 -97.5 -237t-238.5 -87z" />
    <glyph glyph-name="ubreve" unicode="&#x16d;" horiz-adv-x="1050" 
d="M55 209q0 30 4 66t8 57.5t14 68.5t13 64l99 467h245l-100 -471q-33 -168 -33 -201q0 -82 64 -82q45 0 97.5 40.5t94.5 100t74 124t43 114.5l80 375h246l-134 -631q-20 -104 -15 -159t30 -105l-228 -62q-47 77 -36 193h-7q-135 -193 -338 -193q-221 0 -221 234zM655 1110
q-119 0 -184 62.5t-65 162.5q0 53 18 109h133q-10 -52 -10 -78q0 -117 112 -117q64 0 115 44t74 151h133q-9 -152 -97.5 -243t-228.5 -91z" />
    <glyph glyph-name="Uring" unicode="&#x16e;" horiz-adv-x="1392" 
d="M131 408q0 63 16 151l160 807h254l-166 -834q-12 -62 -12 -110q0 -120 63 -176t172 -56q139 0 236 87.5t129 250.5l166 838h254l-170 -856q-52 -257 -215.5 -396t-405.5 -139q-78 0 -148 15.5t-131.5 49.5t-106 83.5t-70 122.5t-25.5 162zM874 1403q-92 0 -138 48
t-46 114q0 74 63 139t173 65q93 0 138.5 -46t45.5 -111q0 -45 -25 -91.5t-81 -82t-130 -35.5zM881 1491q48 0 82 35.5t34 81.5q0 33 -19 53t-58 20q-53 0 -83 -35.5t-30 -82.5q0 -32 18.5 -52t55.5 -20z" />
    <glyph glyph-name="uring" unicode="&#x16f;" horiz-adv-x="1050" 
d="M55 209q0 30 4 66t8 57.5t14 68.5t13 64l99 467h245l-100 -471q-33 -168 -33 -201q0 -82 64 -82q45 0 97.5 40.5t94.5 100t74 124t43 114.5l80 375h246l-134 -631q-20 -104 -15 -159t30 -105l-228 -62q-47 77 -36 193h-7q-135 -193 -338 -193q-221 0 -221 234zM643 1096
q-93 0 -138.5 47.5t-45.5 113.5q0 75 62.5 140t172.5 65q93 0 139 -46t46 -111q0 -45 -25 -91.5t-81 -82t-130 -35.5zM649 1184q48 0 82.5 35.5t34.5 80.5q0 33 -19.5 53.5t-58.5 20.5q-53 0 -83 -36t-30 -83q0 -32 18.5 -51.5t55.5 -19.5z" />
    <glyph glyph-name="Uhungarumlaut" unicode="&#x170;" horiz-adv-x="1392" 
d="M131 408q0 63 16 151l160 807h254l-166 -834q-12 -62 -12 -110q0 -120 63 -176t172 -56q139 0 236 87.5t129 250.5l166 838h254l-170 -856q-52 -257 -215.5 -396t-405.5 -139q-78 0 -148 15.5t-131.5 49.5t-106 83.5t-70 122.5t-25.5 162zM954 1534l211 252h238
l-301 -326zM713 1460l-142 74l193 252h233z" />
    <glyph glyph-name="uhungarumlaut" unicode="&#x171;" horiz-adv-x="1050" 
d="M55 209q0 30 4 66t8 57.5t14 68.5t13 64l99 467h245l-100 -471q-33 -168 -33 -201q0 -82 64 -82q45 0 97.5 40.5t94.5 100t74 124t43 114.5l80 375h246l-134 -631q-20 -104 -15 -159t30 -105l-228 -62q-47 77 -36 193h-7q-135 -193 -338 -193q-221 0 -221 234zM836 1040
l-117 74l270 334h225zM469 1040l-113 74l256 334h219z" />
    <glyph glyph-name="Uogonek" unicode="&#x172;" horiz-adv-x="1394" 
d="M133 408q0 58 17 151l159 807h254l-166 -834q-12 -62 -12 -110q0 -120 63.5 -176t172.5 -56q139 0 235.5 87.5t128.5 250.5l166 838h254l-170 -856q-35 -170 -119.5 -289.5t-210.5 -181.5q-36 -28 -60.5 -47t-69 -59t-72.5 -71t-50 -69.5t-22 -68.5q0 -52 65 -52
q41 0 88 21v-150q-81 -28 -155 -28q-86 0 -135.5 42t-49.5 117q0 35 11.5 71t25 62t42.5 60.5t46.5 53t53.5 54.5h-9q-78 0 -148 15.5t-131.5 49.5t-106 83.5t-70 122.5t-25.5 162z" />
    <glyph glyph-name="uogonek" unicode="&#x173;" horiz-adv-x="1054" 
d="M53 209q0 30 4 66t8 57.5t14 68.5t13 64l98 467h246l-100 -471q-33 -168 -33 -201q0 -82 64 -82q45 0 97.5 40.5t94.5 100t74 124t43 114.5l80 375h245l-133 -631q-20 -104 -15 -159t30 -105l-4 -2q-37 -27 -59 -44.5t-67.5 -57t-72.5 -70t-49.5 -69.5t-22.5 -70
q0 -52 66 -52q41 0 88 21v-150q-82 -28 -156 -28q-86 0 -135 42t-49 117q0 29 5.5 56t21.5 56t25.5 46.5t38 49.5t37.5 41.5t45.5 45.5t41.5 41q-27 62 -19 158h-6q-135 -193 -338 -193q-221 0 -221 234z" />
    <glyph glyph-name="Wcircumflex" unicode="&#x174;" horiz-adv-x="1894" 
d="M315 -10l-106 1376h246l63 -1006l483 1006h195l82 -1008l465 1008h264l-653 -1376h-254l-84 923l-449 -923h-252zM915 1470l-116 89l293 225h192l195 -225l-136 -89l-176 181z" />
    <glyph glyph-name="wcircumflex" unicode="&#x175;" horiz-adv-x="1458" 
d="M219 -6q-87 467 -104 938h243q0 -340 33 -651q176 316 299 651h213q0 -288 45 -656q174 321 297 656h250q-153 -388 -494 -938h-200q-48 246 -74 551q-126 -272 -299 -551h-209zM651 1038l-129 60l299 350h150l147 -352l-137 -58l-113 244z" />
    <glyph glyph-name="Ycircumflex" unicode="&#x176;" horiz-adv-x="1175" 
d="M338 0l113 569l-312 797h285l190 -532l414 532h301l-624 -795l-113 -571h-254zM543 1470l-117 89l293 225h192l195 -225l-135 -89l-176 181z" />
    <glyph glyph-name="ycircumflex" unicode="&#x177;" horiz-adv-x="940" 
d="M-268 -301q116 8 237 89.5t187 164.5q24 30 33 63.5t6 102.5q-5 133 -35 396t-74 417h242q39 -166 56 -353t7 -335q231 386 338 688h252q-56 -144 -174 -363t-256 -428q-186 -283 -371 -440q-217 -183 -405 -186zM391 1038l-129 60l299 350h150l147 -352l-137 -58
l-113 244z" />
    <glyph glyph-name="Ydieresis" unicode="&#x178;" horiz-adv-x="1175" 
d="M338 0l113 569l-312 797h285l190 -532l414 532h301l-624 -795l-113 -571h-254zM1030 1489q-55 0 -89 30t-34 78q0 71 41 118.5t107 47.5q57 0 90 -31.5t33 -82.5q0 -68 -43 -114t-105 -46zM535 1489q-57 0 -91 30t-32 78q0 71 40.5 118.5t106.5 47.5q57 0 90 -31.5
t33 -82.5q0 -69 -42.5 -114.5t-104.5 -45.5z" />
    <glyph glyph-name="Zacute" unicode="&#x179;" horiz-adv-x="1126" 
d="M-23 0l13 162l811 985h-590l45 219h926l-23 -162l-813 -985h641l-45 -219h-965zM592 1450l-51 137l444 195l72 -189z" />
    <glyph glyph-name="zacute" unicode="&#x17a;" horiz-adv-x="892" 
d="M-25 0l17 162l534 577h-413l28 193h731l-22 -172l-524 -567h432l-41 -193h-742zM530 1040l-137 74l283 334h262z" />
    <glyph glyph-name="Zdotaccent" unicode="&#x17b;" horiz-adv-x="1126" 
d="M-23 0l13 162l811 985h-590l45 219h926l-23 -162l-813 -985h641l-45 -219h-965zM750 1483q-60 0 -96 31.5t-36 82.5q0 74 43 124.5t115 50.5q61 0 96 -33t35 -88q0 -73 -44.5 -120.5t-112.5 -47.5z" />
    <glyph glyph-name="zdotaccent" unicode="&#x17c;" horiz-adv-x="892" 
d="M-25 0l17 162l534 577h-413l28 193h731l-22 -172l-524 -567h432l-41 -193h-742zM551 1135q-60 0 -95.5 31.5t-35.5 82.5q0 74 43 124t115 50q61 0 96 -32.5t35 -87.5q0 -73 -45 -120.5t-113 -47.5z" />
    <glyph glyph-name="Zcaron" unicode="&#x17d;" horiz-adv-x="1126" 
d="M-23 0l13 162l811 985h-590l45 219h926l-23 -162l-813 -985h641l-45 -219h-965zM641 1470l-195 226l136 88l174 -180l254 180l116 -88l-292 -226h-193z" />
    <glyph glyph-name="zcaron" unicode="&#x17e;" horiz-adv-x="892" 
d="M-25 0l17 162l534 577h-413l28 193h731l-22 -172l-524 -567h432l-41 -193h-742zM436 1067l-147 352l137 58l113 -244l217 244l129 -60l-299 -350h-150z" />
    <glyph glyph-name="longs" unicode="&#x17f;" horiz-adv-x="557" 
d="M76 748v133l176 57l6 37q74 532 473 532q71 0 137 -15.5t96 -31.5l31 -16l-86 -187q-8 6 -22.5 14.5t-58 23t-85.5 14.5q-56 0 -98.5 -26t-67.5 -64.5t-44 -100.5t-29 -115.5t-21 -128.5q-1 -11 -2 -16q-7 -48 -21 -150q-15 -108 -23 -165.5t-26.5 -165t-34 -171.5
t-43 -159t-55.5 -154.5t-69 -130.5t-87 -115t-106 -81t-129 -53l-98 170q64 19 117.5 62t91 92.5t70 132t52 146.5t39.5 172t29 172t25 181l14 107h-151z" />
    <glyph glyph-name="florin" unicode="&#x192;" horiz-adv-x="862" 
d="M45 569l12 144h269l34 166q51 251 181 381.5t305 130.5q94 0 178 -25l-49 -192q-77 18 -129 18q-82 0 -144.5 -70.5t-93.5 -224.5l-37 -184h277l-12 -144h-293l-92 -465q-49 -250 -180 -381t-306 -131q-94 0 -174 25l57 193q67 -19 119 -19q80 0 142 70.5t92 224.5
l96 483h-252z" />
    <glyph glyph-name="Aringacute" unicode="&#x1fa;" horiz-adv-x="1222" 
d="M-94 0l721 1311q-33 36 -33 92q0 73 59.5 130.5t171.5 57.5q95 0 142 -40.5t47 -102.5q0 -47 -25 -89.5t-71 -68.5l202 -1290h-250l-43 305h-501l-164 -305h-256zM723 1038l-279 -514h351zM690 1624l-51 137l444 195l72 -189zM786 1339q39 0 76 28t37 73q0 29 -19.5 49
t-58.5 20q-56 0 -83 -32.5t-27 -71.5q0 -66 75 -66z" />
    <glyph glyph-name="aringacute" unicode="&#x1fb;" horiz-adv-x="1019" 
d="M20 285q0 82 32 177.5t89 187.5t148.5 168t199.5 110q-63 38 -63 119q0 73 59.5 130.5t171.5 57.5q95 0 142 -40.5t47 -102.5q0 -87 -76 -144q110 -16 203 -16l-133 -631q-17 -87 -17 -131q0 -69 31 -133l-225 -62q-39 64 -39 146q0 42 4 67h-6q-47 -96 -137.5 -154.5
t-190.5 -58.5q-107 0 -173.5 78.5t-66.5 231.5zM268 311q0 -133 74 -133q55 0 121.5 61t117.5 149t68 169l45 217q-32 10 -69 10q-87 0 -170 -67t-135 -177.5t-52 -228.5zM532 1260l-51 137l445 194l71 -188zM618 983q39 0 76 27.5t37 72.5q0 29 -19.5 49.5t-58.5 20.5
q-56 0 -83 -32.5t-27 -71.5q0 -66 75 -66z" />
    <glyph glyph-name="AEacute" unicode="&#x1fc;" horiz-adv-x="1783" 
d="M-121 0l1004 1366h972l-43 -217h-567l-67 -346h446l-43 -217h-446l-74 -369h579l-43 -217h-833l74 379h-396l-274 -379h-289zM600 598h281l106 535zM1237 1450l-51 137l444 195l72 -189z" />
    <glyph glyph-name="aeacute" unicode="&#x1fd;" horiz-adv-x="1411" 
d="M-20 199q0 54 20 99.5t53 78t82.5 58t100 41t114 27.5t117 17.5t115.5 9.5q24 105 24 152q0 40 -22 61t-76 21q-62 0 -134.5 -28t-114.5 -56l-42 -27l-59 183q7 5 20.5 13t56.5 28.5t87.5 36.5t110.5 29t130 13q197 0 232 -129q135 129 305 129q51 0 96 -12t83 -37.5
t60.5 -71t22.5 -106.5q0 -77 -36 -135.5t-89.5 -93t-133 -58t-149.5 -33t-155 -14.5q-6 -26 -6 -53q0 -92 33.5 -138t109.5 -46q39 0 84 12.5t81.5 30.5t67.5 35.5t49 29.5l17 13l39 -185q-7 -5 -19 -13t-50.5 -28.5t-78.5 -36t-99 -28.5t-116 -13q-123 0 -203.5 53.5
t-115.5 145.5q-49 -78 -142.5 -138.5t-216.5 -60.5q-116 0 -184.5 59.5t-68.5 164.5zM309 158q85 0 153 61t91 166q-326 -22 -326 -158q0 -69 82 -69zM1055 782q-65 0 -132.5 -61.5t-101.5 -175.5q64 6 114 15.5t97 27t72.5 46.5t25.5 68q0 33 -18 56.5t-57 23.5zM874 1040
l-137 74l283 334h262z" />
    <glyph glyph-name="Oslashacute" unicode="&#x1fe;" horiz-adv-x="1546" 
d="M90 571q0 102 28 203t78.5 191.5t124.5 169t163 135t197.5 89t223.5 32.5q166 0 299 -68l80 104h158l-131 -174q94 -79 145 -193t51 -251q0 -153 -63 -303t-170.5 -267.5t-262.5 -190.5t-325 -73q-164 0 -297 68l-80 -104h-159l135 176q-94 83 -144.5 201.5t-50.5 254.5z
M1241 805q0 151 -80 254l-631 -830q70 -39 166 -39q92 0 178 36t151.5 98t114.5 140.5t75 166.5t26 174zM356 580q0 -167 78 -269l629 828q-72 37 -166 37q-109 0 -210 -50t-173 -132t-115 -191t-43 -223zM811 1450l-51 137l444 195l72 -189z" />
    <glyph glyph-name="oslashacute" unicode="&#x1ff;" horiz-adv-x="1073" 
d="M37 381q0 109 41 212.5t113 184t179 129.5t230 49q106 0 186 -36l56 73h139l-100 -133q125 -113 125 -295q0 -73 -21 -152t-67 -157.5t-111 -140.5t-160.5 -101t-206.5 -39q-105 0 -190 37l-53 -73h-142l101 135q-119 107 -119 307zM752 551q0 57 -17 113l-362 -486
q36 -20 86 -20q66 0 123 37.5t93 95.5t56.5 126.5t20.5 133.5zM289 387q0 -69 14 -115l361 482q-38 20 -80 20q-119 0 -207 -112.5t-88 -274.5zM655 1040l-137 74l283 334h262z" />
    <glyph glyph-name="Scommaaccent" unicode="&#x218;" horiz-adv-x="1009" 
d="M8 90l74 225q6 -5 16 -12.5t43 -27t67 -34.5t84.5 -27.5t98.5 -12.5q101 0 175.5 47t74.5 127q0 45 -26 84.5t-67 70.5t-90.5 62.5t-99.5 68t-91 78.5t-67 103t-26 133q0 83 35.5 158t99 132.5t160 91.5t211.5 34q81 0 167 -15.5t131 -31.5l46 -15l-53 -229
q-16 7 -43.5 18t-104.5 29t-145 18q-111 0 -178.5 -43.5t-67.5 -120.5q0 -46 26 -85t67 -68.5t90.5 -59.5t99.5 -66t91 -79.5t67 -108t26 -143.5q0 -95 -41.5 -174.5t-111.5 -131.5t-160 -81t-189 -29q-98 0 -195.5 29t-145.5 58zM238 -100h206q21 -32 21 -93
q0 -108 -77 -192t-185 -125l-72 107q63 31 101 82.5t38 115.5q0 62 -32 105z" />
    <glyph glyph-name="scommaaccent" unicode="&#x219;" horiz-adv-x="763" 
d="M-31 53l56 185q11 -9 31.5 -21.5t81 -33.5t118.5 -21q63 0 100 23t37 69q0 38 -29.5 70t-71.5 60.5t-84.5 61.5t-72 88t-29.5 125q0 138 104.5 217.5t270.5 79.5q73 0 138.5 -15t94.5 -31l29 -15l-55 -180q-9 6 -25 15t-67 24.5t-102 15.5q-68 0 -105 -24t-37 -66
q0 -31 21.5 -58t53 -47t69 -48t69 -58t53 -79.5t21.5 -110.5q0 -75 -31 -134.5t-84 -95.5t-119 -55t-141 -19q-78 0 -152 19.5t-108 39.5zM111 -100h206q21 -32 21 -93q0 -108 -77 -192t-185 -125l-72 107q63 31 101 82.5t38 115.5q0 62 -32 105z" />
    <glyph glyph-name="uni021A" unicode="&#x21a;" horiz-adv-x="1153" 
d="M336 0l227 1147h-426l45 219h1104l-45 -219h-424l-227 -1147h-254zM319 -100h207q21 -32 21 -93q0 -108 -77 -192t-185 -125l-72 107q63 31 101 82.5t38 115.5q0 61 -33 105z" />
    <glyph glyph-name="uni021B" unicode="&#x21b;" horiz-adv-x="782" 
d="M113 182q0 50 10 94l100 472h-133v133l180 57l41 195l252 57l-55 -258h280l-40 -184h-279l-86 -400q-10 -44 -10 -84q0 -78 61 -78q76 0 189 84l57 -180q-174 -115 -334 -115q-233 0 -233 207zM201 -100h207q20 -32 20 -93q0 -108 -77 -192t-185 -125l-72 107
q63 31 101 82.5t38 115.5q0 62 -32 105z" />
    <glyph glyph-name="circumflex" unicode="&#x2c6;" horiz-adv-x="1024" 
d="M401 1038l-129 60l299 350h150l147 -352l-137 -58l-113 244z" />
    <glyph glyph-name="caron" unicode="&#x2c7;" horiz-adv-x="1024" 
d="M492 1067l-148 352l137 58l113 -244l217 244l129 -60l-299 -350h-149z" />
    <glyph glyph-name="breve" unicode="&#x2d8;" horiz-adv-x="1024" 
d="M547 1110q-119 0 -184.5 62.5t-65.5 162.5q0 53 18 109h134q-11 -57 -11 -78q0 -117 113 -117q63 0 114 44t74 151h133q-9 -152 -97.5 -243t-227.5 -91z" />
    <glyph glyph-name="dotaccent" unicode="&#x2d9;" horiz-adv-x="1024" 
d="M606 1135q-60 0 -95.5 31.5t-35.5 82.5q0 74 43 124t115 50q61 0 96 -32.5t35 -87.5q0 -73 -45 -120.5t-113 -47.5z" />
    <glyph glyph-name="ring" unicode="&#x2da;" horiz-adv-x="1024" 
d="M594 1096q-93 0 -138.5 47.5t-45.5 113.5q0 75 62.5 140t172.5 65q93 0 138.5 -46t45.5 -111q0 -33 -15 -68.5t-43 -67.5t-74.5 -52.5t-102.5 -20.5zM600 1184q48 0 82.5 35.5t34.5 80.5q0 33 -19.5 53.5t-58.5 20.5q-53 0 -83 -36t-30 -83q0 -32 18.5 -51.5t55.5 -19.5z
" />
    <glyph glyph-name="ogonek" unicode="&#x2db;" horiz-adv-x="1024" 
d="M324 -326q0 42 13 81t42.5 79.5t51 65.5t66.5 70t62 63l223 33l11 -21q-135 -105 -191 -162q-92 -96 -92 -159q0 -52 65 -52q42 0 89 21v-150q-82 -28 -156 -28q-86 0 -135 42t-49 117z" />
    <glyph glyph-name="tilde" unicode="&#x2dc;" horiz-adv-x="1024" 
d="M244 1130q1 6 2 16t8 39t17 55.5t29 58.5t42.5 55t60.5 39t80 16q44 0 79 -16t57 -39t40 -46t37 -39t39 -16q33 0 55.5 38t28.5 76l6 38l150 -21q-1 -6 -2.5 -16t-8.5 -39.5t-17 -56t-29.5 -59t-43.5 -56t-61 -39.5t-80 -16q-44 0 -79 16t-56 39t-38.5 45.5t-36 38.5
t-38.5 16q-33 0 -56 -36.5t-29 -73.5l-7 -37z" />
    <glyph glyph-name="hungarumlaut" unicode="&#x2dd;" horiz-adv-x="1024" 
d="M680 1040l-117 74l271 334h225zM313 1040l-112 74l256 334h219z" />
    <glyph glyph-name="Delta" unicode="&#x394;" horiz-adv-x="1230" 
d="M-47 0l14 70l799 1296h86l221 -1296l-14 -70h-1106zM717 1032l-522 -878h665z" />
    <glyph glyph-name="Delta" unicode="&#x2206;" horiz-adv-x="1230" 
d="M-47 0l14 70l799 1296h86l221 -1296l-14 -70h-1106zM717 1032l-522 -878h665z" />
    <glyph glyph-name="Omega" unicode="&#x3a9;" horiz-adv-x="1546" 
d="M-16 0l22 203h299q-48 78 -88.5 199.5t-40.5 248.5q0 144 59 280t157 237t233.5 162t281.5 61q247 0 401 -143t154 -367q0 -322 -340 -678h279l-62 -203h-497l-17 98q114 141 166 218q199 295 199 534q0 148 -80.5 231.5t-226.5 83.5q-124 0 -227.5 -74t-165.5 -213
t-62 -317q0 -210 102 -463l-61 -98h-485z" />
    <glyph glyph-name="Omega" unicode="&#x2126;" horiz-adv-x="1546" 
d="M-16 0l22 203h299q-48 78 -88.5 199.5t-40.5 248.5q0 144 59 280t157 237t233.5 162t281.5 61q247 0 401 -143t154 -367q0 -322 -340 -678h279l-62 -203h-497l-17 98q114 141 166 218q199 295 199 534q0 148 -80.5 231.5t-226.5 83.5q-124 0 -227.5 -74t-165.5 -213
t-62 -317q0 -210 102 -463l-61 -98h-485z" />
    <glyph glyph-name="pi" unicode="&#x3c0;" horiz-adv-x="1157" 
d="M111 733l39 199h1011l-39 -199h-190l-98 -495q-11 -53 -11 -68q0 -35 23.5 -45t89.5 -10l-27 -129q-79 -11 -112 -11q-103 0 -144 40t-41 110q0 34 17 121l96 487h-221l-10 -61q-18 -95 -38 -172t-55 -167.5t-77.5 -156.5t-107 -121.5t-142.5 -79.5l-74 160
q49 24 87.5 55.5t67.5 72.5t50.5 83t39 100.5t29 110t25.5 125.5l8 51h-196z" />
    <glyph glyph-name="Wgrave" unicode="&#x1e80;" horiz-adv-x="1894" 
d="M315 -10l-106 1376h246l63 -1006l483 1006h195l82 -1008l465 1008h264l-653 -1376h-254l-84 923l-449 -923h-252zM842 1593l71 189l447 -195l-55 -135z" />
    <glyph glyph-name="wgrave" unicode="&#x1e81;" horiz-adv-x="1458" 
d="M219 -6q-87 467 -104 938h243q0 -340 33 -651q176 316 299 651h213q0 -288 45 -656q174 321 297 656h250q-153 -388 -494 -938h-200q-48 246 -74 551q-126 -272 -299 -551h-209zM807 1040l-232 408h238l139 -334z" />
    <glyph glyph-name="Wacute" unicode="&#x1e82;" horiz-adv-x="1894" 
d="M315 -10l-106 1376h246l63 -1006l483 1006h195l82 -1008l465 1008h264l-653 -1376h-254l-84 923l-449 -923h-252zM995 1450l-51 137l445 195l71 -189z" />
    <glyph glyph-name="wacute" unicode="&#x1e83;" horiz-adv-x="1458" 
d="M219 -6q-87 467 -104 938h243q0 -340 33 -651q176 316 299 651h213q0 -288 45 -656q174 321 297 656h250q-153 -388 -494 -938h-200q-48 246 -74 551q-126 -272 -299 -551h-209zM836 1040l-138 74l283 334h262z" />
    <glyph glyph-name="Wdieresis" unicode="&#x1e84;" horiz-adv-x="1894" 
d="M315 -10l-106 1376h246l63 -1006l483 1006h195l82 -1008l465 1008h264l-653 -1376h-254l-84 923l-449 -923h-252zM1401 1489q-55 0 -89 30t-34 78q0 71 40.5 118.5t106.5 47.5q57 0 90 -31.5t33 -82.5q0 -69 -42.5 -114.5t-104.5 -45.5zM905 1489q-57 0 -91 30t-32 78
q0 71 41 118.5t107 47.5q57 0 90 -31.5t33 -82.5q0 -68 -43 -114t-105 -46z" />
    <glyph glyph-name="wdieresis" unicode="&#x1e85;" horiz-adv-x="1458" 
d="M219 -6q-87 467 -104 938h243q0 -340 33 -651q176 316 299 651h213q0 -288 45 -656q174 321 297 656h250q-153 -388 -494 -938h-200q-48 246 -74 551q-126 -272 -299 -551h-209zM1061 1143q-55 0 -85 33t-30 86q0 67 45.5 110t108.5 43q54 0 84 -32.5t30 -86.5
q0 -66 -44.5 -109.5t-108.5 -43.5zM637 1143q-55 0 -85 33t-30 86q0 67 45.5 110t108.5 43q54 0 84.5 -32.5t30.5 -86.5q0 -66 -45 -109.5t-109 -43.5z" />
    <glyph glyph-name="uni1E9E" unicode="&#x1e9e;" horiz-adv-x="1349" 
d="M31 0l153 723q68 348 250.5 508t466.5 160q61 0 134.5 -6.5t157 -17t112.5 -13.5l-19 -185l-346 -346q136 -70 222.5 -170.5t86.5 -232.5q0 -83 -36 -163.5t-97.5 -143t-152.5 -100.5t-193 -38q-76 0 -150 20.5t-110 40.5l-35 21l55 226q4 -3 12 -8.5t33 -19.5t51 -24.5
t63 -19t71 -8.5q100 0 162.5 63.5t62.5 143.5q0 51 -28.5 96t-75.5 76t-100 52t-109 32v170l319 329q-76 13 -121 13q-177 0 -281 -110t-155 -351l-151 -717h-252z" />
    <glyph glyph-name="Ygrave" unicode="&#x1ef2;" horiz-adv-x="1175" 
d="M338 0l113 569l-312 797h285l190 -532l414 532h301l-624 -795l-113 -571h-254zM469 1593l72 189l446 -195l-55 -135z" />
    <glyph glyph-name="ygrave" unicode="&#x1ef3;" horiz-adv-x="940" 
d="M-268 -301q116 8 237 89.5t187 164.5q24 30 33 63.5t6 102.5q-5 133 -35 396t-74 417h242q39 -166 56 -353t7 -335q231 386 338 688h252q-56 -144 -174 -363t-256 -428q-186 -283 -371 -440q-217 -183 -405 -186zM547 1040l-232 408h238l139 -334z" />
    <glyph glyph-name="thinspace" unicode="&#x2009;" horiz-adv-x="30" 
 />
    <glyph glyph-name="endash" unicode="&#x2013;" horiz-adv-x="1067" 
d="M106 444v162h840v-162h-840z" />
    <glyph glyph-name="emdash" unicode="&#x2014;" horiz-adv-x="1865" 
d="M106 444v162h1639v-162h-1639z" />
    <glyph glyph-name="quoteleft" unicode="&#x2018;" horiz-adv-x="446" 
d="M260 868q-72 123 -72 238q0 237 295 424l82 -90q-178 -122 -178 -258q0 -87 94 -205z" />
    <glyph glyph-name="quoteright" unicode="&#x2019;" horiz-adv-x="446" 
d="M213 868l-82 90q178 122 178 259q0 86 -94 204l221 109q72 -123 72 -238q0 -237 -295 -424z" />
    <glyph glyph-name="quotesinglbase" unicode="&#x201a;" horiz-adv-x="477" 
d="M98 -2q0 87 -94 205l221 108q72 -123 72 -237q0 -237 -295 -424l-82 90q178 122 178 258z" />
    <glyph glyph-name="quotedblleft" unicode="&#x201c;" horiz-adv-x="831" 
d="M645 868q-72 123 -72 238q0 237 295 424l82 -90q-178 -122 -178 -258q0 -87 94 -205zM260 868q-72 123 -72 238q0 237 295 424l82 -90q-178 -122 -178 -258q0 -87 94 -205z" />
    <glyph glyph-name="quotedblright" unicode="&#x201d;" horiz-adv-x="831" 
d="M598 868l-82 90q178 122 178 259q0 86 -94 204l221 109q72 -123 72 -238q0 -237 -295 -424zM213 868l-82 90q178 122 178 259q0 86 -94 204l221 109q72 -123 72 -238q0 -237 -295 -424z" />
    <glyph glyph-name="quotedblbase" unicode="&#x201e;" horiz-adv-x="862" 
d="M305 -260q178 122 178 258q0 87 -94 205l221 108q72 -123 72 -237q0 -237 -295 -424zM98 -2q0 87 -94 205l221 108q72 -123 72 -237q0 -237 -295 -424l-82 90q178 122 178 258z" />
    <glyph glyph-name="dagger" unicode="&#x2020;" horiz-adv-x="962" 
d="M217 -285l240 1061l-357 -41l43 215l340 -43l54 459h202l-125 -459l357 43l-43 -215l-340 41l-182 -1061h-189z" />
    <glyph glyph-name="daggerdbl" unicode="&#x2021;" horiz-adv-x="991" 
d="M0 131l43 215l340 -41l92 471l-356 -41l43 215l340 -43l55 459h203l-127 -459l356 43l-43 -215l-340 41l-92 -471l356 41l-43 -215l-340 43l-57 -459h-203l129 459z" />
    <glyph glyph-name="bullet" unicode="&#x2022;" horiz-adv-x="839" 
d="M414 213q-132 0 -222 89.5t-90 221.5t90 222t222 90t221.5 -90t89.5 -222t-89.5 -221.5t-221.5 -89.5z" />
    <glyph glyph-name="ellipsis" unicode="&#x2026;" horiz-adv-x="1480" 
d="M1063 63q0 61 37 109.5t104 48.5q45 0 67.5 -24t22.5 -62q0 -60 -37.5 -110t-105.5 -50q-45 0 -66.5 25t-21.5 63zM541 63q0 61 37 109.5t104 48.5q45 0 67.5 -24t22.5 -62q0 -60 -37.5 -110t-105.5 -50q-45 0 -66.5 25t-21.5 63zM14 63q0 61 37.5 109.5t104.5 48.5
q45 0 67.5 -24t22.5 -62q0 -60 -38 -110t-106 -50q-45 0 -66.5 25t-21.5 63z" />
    <glyph glyph-name="perthousand" unicode="&#x2030;" horiz-adv-x="2306" 
d="M141 0l1200 1397l99 -74l-1133 -1323h-166zM451 721q-129 0 -206 77t-77 197q0 91 49.5 176.5t136.5 140t185 54.5q129 0 205.5 -77t76.5 -199q0 -146 -112 -257.5t-258 -111.5zM461 868q81 0 141 66.5t60 142.5q0 61 -36 102.5t-98 41.5q-79 0 -139.5 -63.5
t-60.5 -149.5q0 -60 35 -100t98 -40zM1542 250q0 91 49.5 176.5t136.5 140t185 54.5q129 0 205.5 -77.5t76.5 -199.5q0 -146 -112 -257.5t-258 -111.5q-129 0 -206 77.5t-77 197.5zM788 250q0 91 49.5 176.5t136.5 140t185 54.5q129 0 206 -77.5t77 -199.5
q0 -146 -112.5 -257.5t-258.5 -111.5q-129 0 -206 77.5t-77 197.5zM1702 262q0 -60 35 -99.5t98 -39.5q81 0 141 66.5t60 142.5q0 61 -35.5 102t-97.5 41q-79 0 -140 -64t-61 -149zM948 262q0 -60 35 -99.5t98 -39.5q81 0 141 66.5t60 142.5q0 61 -35.5 102t-97.5 41
q-79 0 -140 -64t-61 -149z" />
    <glyph glyph-name="guilsinglleft" unicode="&#x2039;" horiz-adv-x="612" 
d="M307 82q-48 73 -91 138.5t-68 103.5t-46.5 71.5t-32.5 49.5t-20.5 30t-15.5 21t-13 14l3 8q9 6 16 11.5t15.5 13t24 22t34 32t53 51t73.5 70.5t103.5 99t134.5 129l133 -41l-362 -399l196 -383z" />
    <glyph glyph-name="guilsinglright" unicode="&#x203a;" horiz-adv-x="612" 
d="M-14 123l362 399l-196 383l137 41q65 -98 120 -182.5t78.5 -120.5t42.5 -65.5t27 -39.5t18 -20l-2 -8q-9 -6 -16 -11.5t-15.5 -13t-24 -22t-34 -32t-53 -51t-73.5 -70.5t-103.5 -99t-134.5 -129z" />
    <glyph glyph-name="fraction" unicode="&#x2044;" horiz-adv-x="282" 
d="M-272 0h-179l1098 1417l133 -57z" />
    <glyph glyph-name="zerosuperior" unicode="&#x2070;" horiz-adv-x="770" 
d="M426 756q-123 0 -184.5 83.5t-61.5 221.5q0 72 15.5 147t49 147.5t80 129.5t114.5 92t147 35q125 0 186.5 -83t61.5 -220q0 -71 -16 -147t-50 -148.5t-81 -130t-115 -92.5t-146 -35zM453 909q46 0 84 45t60 112t34 136.5t12 126.5q0 62 -18 95.5t-64 33.5
q-48 0 -86.5 -45t-60.5 -112t-33.5 -134t-11.5 -120q0 -138 84 -138z" />
    <glyph glyph-name="foursuperior" unicode="&#x2074;" horiz-adv-x="720" 
d="M424 770l37 182h-340l8 129l426 521h213l-100 -508h104l-27 -142h-106l-37 -182h-178zM295 1094h194l62 309z" />
    <glyph glyph-name="fivesuperior" unicode="&#x2075;" horiz-adv-x="645" 
d="M346 756q-62 0 -120 18t-86 36l-27 17l82 140q7 -6 20 -15t51.5 -24t75.5 -15q66 0 105.5 36.5t39.5 82.5q0 36 -25 64t-70 45.5t-82.5 26.5t-88.5 18l82 411h434l-28 -151h-277l-29 -146q122 -33 197.5 -97.5t75.5 -166.5q0 -86 -48 -151t-122 -97t-160 -32z" />
    <glyph glyph-name="sixsuperior" unicode="&#x2076;" horiz-adv-x="722" 
d="M430 756q-130 0 -200 78.5t-70 205.5q0 80 24 159t74.5 152t121 130t170 93t214.5 40l12 -152q-135 -3 -236 -59t-155 -152q78 62 172 62q100 0 157.5 -67t57.5 -165q0 -80 -41 -154t-121 -122.5t-180 -48.5zM479 1167q-68 0 -139 -57q-2 -16 -2 -51q0 -150 100 -150
q59 0 103.5 46t44.5 122q0 90 -107 90z" />
    <glyph glyph-name="sevensuperior" unicode="&#x2077;" horiz-adv-x="630" 
d="M301 748l-182 45q257 360 428 645h-326l19 159h567l-12 -90q-136 -229 -494 -759z" />
    <glyph glyph-name="eightsuperior" unicode="&#x2078;" horiz-adv-x="731" 
d="M430 756q-128 0 -205.5 59.5t-77.5 149.5q0 29 8 55t28.5 50t36 40t49.5 37.5t49 30.5t53 30q-54 42 -82.5 85t-28.5 98q0 95 81.5 158t207.5 63q115 0 183.5 -55.5t68.5 -143.5q0 -68 -43 -115.5t-131 -97.5q121 -97 121 -201q0 -99 -86 -171t-232 -72zM438 903
q46 0 80.5 29t34.5 80q0 32 -17 57t-55 57q-76 -43 -100 -65q-37 -36 -37 -78q0 -40 28 -60t66 -20zM434 1382q0 -9 2 -17t7.5 -16.5t9 -14t13.5 -14t14 -12t16.5 -12.5t15.5 -12q111 58 111 115q0 30 -23.5 47.5t-62.5 17.5q-44 0 -73.5 -23.5t-29.5 -58.5z" />
    <glyph glyph-name="ninesuperior" unicode="&#x2079;" horiz-adv-x="718" 
d="M199 754l-13 151q138 3 242 61.5t154 157.5q-79 -63 -176 -63q-96 0 -152.5 65.5t-56.5 159.5q0 80 40.5 154t119 123t175.5 49q130 0 200.5 -79t70.5 -206q0 -80 -24 -159t-74.5 -152t-121 -130t-170 -92.5t-214.5 -39.5zM483 1206q67 0 140 58q0 7 1 22t1 23
q0 149 -101 149q-57 0 -99 -46t-42 -122q0 -36 23.5 -60t76.5 -24z" />
    <glyph glyph-name="n.sups" unicode="&#x207f;" horiz-adv-x="757" 
d="M92 608l139 654h187l-27 -127q39 58 106.5 100.5t147.5 42.5q75 0 107 -38.5t32 -98.5q0 -26 -4.5 -56.5t-15.5 -81t-14 -67.5l-68 -328h-195l72 330q23 99 23 133q0 45 -31 45q-44 0 -117 -72t-82 -120l-67 -316h-193z" />
    <glyph glyph-name="zeroinferior" unicode="&#x2080;" horiz-adv-x="768" 
d="M231 -246q-123 0 -184 83.5t-61 221.5q0 72 15.5 147t48.5 147.5t79.5 129.5t114.5 92t147 35q125 0 186.5 -83t61.5 -220q0 -71 -16 -147t-50 -148.5t-81 -130t-115 -92.5t-146 -35zM258 -92q46 0 84 45t60.5 112t34.5 136.5t12 126.5q0 62 -18 95.5t-64 33.5
q-39 0 -72 -30.5t-54.5 -77t-37 -103t-22.5 -108t-7 -93.5q0 -137 84 -137z" />
    <glyph glyph-name="oneinferior" unicode="&#x2081;" horiz-adv-x="612" 
d="M-92 -231l29 143h178l108 541h-164l19 143h358l-137 -684h164l-29 -143h-526z" />
    <glyph glyph-name="twoinferior" unicode="&#x2082;" horiz-adv-x="700" 
d="M-76 -231v114l234 195q104 86 157.5 147.5t53.5 120.5q0 39 -26 61.5t-71 22.5q-35 0 -69 -13t-51 -27l-17 -13l-98 127q4 4 12.5 11.5t37 25.5t59 32t77 25.5t94.5 11.5q112 0 180 -59.5t68 -165.5q0 -101 -61.5 -187t-179.5 -184l-113 -94h309l-20 -151h-576z" />
    <glyph glyph-name="threeinferior" unicode="&#x2083;" horiz-adv-x="647" 
d="M-92 -188l63 147q8 -5 22 -13t56.5 -21t85.5 -13q69 0 104 31t35 73q0 45 -37 65.5t-90 20.5h-63l18 150q74 2 142.5 43.5t68.5 95.5q0 55 -71 55q-28 0 -58.5 -9t-47.5 -18l-17 -9l-72 125q12 8 34.5 20.5t87 33.5t124.5 21q104 0 165.5 -52.5t61.5 -127.5
q0 -77 -64 -141t-139 -92q158 -57 158 -183q0 -102 -98.5 -181t-245.5 -79q-63 0 -118.5 14.5t-80.5 29.5z" />
    <glyph glyph-name="fourinferior" unicode="&#x2084;" horiz-adv-x="724" 
d="M231 -231l37 182h-340l9 129l425 520h213l-100 -508h105l-27 -141h-107l-36 -182h-179zM102 92h195l61 309z" />
    <glyph glyph-name="fiveinferior" unicode="&#x2085;" horiz-adv-x="643" 
d="M150 -246q-62 0 -120.5 18t-85.5 36l-28 18l82 139q7 -6 20 -15t51.5 -23.5t75.5 -14.5q67 0 106.5 36.5t39.5 82.5q0 36 -24.5 63.5t-70.5 45t-83 26.5t-88 18l81 412h435l-29 -152h-276l-29 -145q58 -15 104.5 -37.5t85.5 -54t60.5 -75.5t21.5 -97q0 -128 -98 -204.5
t-231 -76.5z" />
    <glyph glyph-name="sixinferior" unicode="&#x2086;" horiz-adv-x="722" 
d="M236 -246q-130 0 -200.5 79t-70.5 206q0 80 24 159t74.5 152t121 130t170 92.5t214.5 39.5l13 -151q-135 -3 -236.5 -59t-155.5 -152q77 61 172 61q100 0 158 -66.5t58 -164.5q0 -80 -41 -154t-121 -123t-180 -49zM285 166q-69 0 -140 -57q-2 -16 -2 -52q0 -149 101 -149
q59 0 103 46t44 122q0 90 -106 90z" />
    <glyph glyph-name="seveninferior" unicode="&#x2087;" horiz-adv-x="632" 
d="M106 -254l-182 45q257 360 428 645h-325l18 160h567l-12 -90q-141 -237 -494 -760z" />
    <glyph glyph-name="eightinferior" unicode="&#x2088;" horiz-adv-x="731" 
d="M236 -246q-128 0 -205.5 59.5t-77.5 149.5q0 25 8 49t18 42t30.5 38t35 32.5t43.5 30.5t43 26.5t45 25.5q-54 42 -82 84.5t-28 97.5q0 95 81 158t207 63q115 0 183.5 -55t68.5 -143q0 -68 -43 -115.5t-131 -97.5q121 -97 121 -201q0 -99 -86 -171.5t-231 -72.5zM244 -98
q46 0 80 28.5t34 79.5q0 32 -17 58t-54 57q-76 -43 -100 -65q-37 -36 -37 -78q0 -40 28 -60t66 -20zM240 381q0 -8 2 -15.5t4.5 -13.5t8.5 -13.5t9.5 -11.5t12 -11.5t12.5 -10.5t14.5 -11.5t13.5 -10.5q111 59 111 114q0 30 -23.5 48t-62.5 18q-44 0 -73 -23.5t-29 -58.5z
" />
    <glyph glyph-name="nineinferior" unicode="&#x2089;" horiz-adv-x="718" 
d="M4 -248l-12 152q138 3 241 61.5t154 157.5q-80 -64 -176 -64t-152.5 66t-56.5 160q0 59 24.5 117.5t67 104.5t106.5 74.5t138 28.5q130 0 200 -78.5t70 -205.5q0 -80 -24 -159t-74.5 -152t-121 -130t-170 -93t-214.5 -40zM289 205q68 0 139 57q0 7 1 22t1 23
q0 150 -100 150q-57 0 -99.5 -46t-42.5 -122q0 -36 24 -60t77 -24z" />
    <glyph glyph-name="Euro" unicode="&#x20ac;" horiz-adv-x="1116" 
d="M98 641l25 119h113q84 180 241 293.5t344 113.5q76 0 153.5 -20t116.5 -40l39 -20l-92 -182q-11 8 -30 19t-76 30t-113 19q-201 0 -321 -213h471l-58 -119h-462q-22 -74 -29 -158h420l-60 -118h-354q15 -93 70.5 -144t150.5 -51q52 0 111 15t92 31l33 15l37 -180
q-15 -9 -42 -21.5t-109 -33.5t-163 -21q-190 0 -304.5 104t-135.5 286h-127l27 118h98q3 73 26 158h-92z" />
    <glyph glyph-name="trademark" unicode="&#x2122;" horiz-adv-x="1525" 
d="M801 821l20 545h197l117 -340l118 340h193l20 -545h-133l-16 396l-139 -396h-91l-139 398l-12 -398h-135zM397 821v436h-178v109h494v-109h-178v-436h-138z" />
    <glyph glyph-name="arrowleft" unicode="&#x2190;" horiz-adv-x="1280" 
d="M637 160q-334 366 -399.5 436.5t-102.5 103.5v9q39 31 111 108t391 432l174 -41q-218 -284 -338 -422h690v-161h-694q120 -139 342 -424z" />
    <glyph glyph-name="arrowup" unicode="&#x2191;" horiz-adv-x="1280" 
d="M586 164v741q-164 -142 -424 -342l-41 174q474 433 511 470q15 15 30 32h8q31 -39 108 -111t432 -391l-41 -174q-289 220 -421 338v-737h-162z" />
    <glyph glyph-name="arrowright" unicode="&#x2192;" horiz-adv-x="1280" 
d="M174 625v161h690q-119 133 -338 422l174 41q319 -355 391 -432t111 -108v-9q-37 -33 -102.5 -103.5t-399.5 -436.5l-174 41q228 293 342 424h-694z" />
    <glyph glyph-name="arrowdown" unicode="&#x2193;" horiz-adv-x="1280" 
d="M670 184q-30 38 -105 108t-436 394l41 174q262 -203 422 -338v738h162v-742q110 99 424 342l41 -174q-474 -433 -511 -470q-15 -15 -30 -32h-8z" />
    <glyph glyph-name="partialdiff" unicode="&#x2202;" horiz-adv-x="1079" 
d="M37 348q0 88 33.5 179.5t93.5 169t154.5 126.5t205.5 49q81 0 146.5 -28t87.5 -88q12 85 12 166q0 192 -80.5 303.5t-251.5 111.5v195q144 0 257.5 -53.5t184.5 -147t107.5 -215t36.5 -262.5q0 -136 -32 -268t-90 -241t-135 -193t-172.5 -130.5t-195.5 -46.5
q-159 0 -260.5 106t-101.5 267zM403 158q87 0 172 104.5t140 294.5q-17 56 -59 93.5t-107 37.5q-62 0 -114.5 -39t-84 -97.5t-48.5 -120.5t-17 -114q0 -71 31 -115t87 -44z" />
    <glyph glyph-name="product" unicode="&#x220f;" horiz-adv-x="1529" 
d="M195 1143l47 223h1376l-47 -223h-203l-283 -1327h-251l282 1327h-467l-282 -1327h-254l282 1327h-200z" />
    <glyph glyph-name="summation" unicode="&#x2211;" horiz-adv-x="1163" 
d="M-31 -23l545 625l-287 602l35 162h959l-47 -223h-637l258 -551l-478 -553h674l-47 -223h-1010z" />
    <glyph glyph-name="minus" unicode="&#x2212;" 
d="M63 440v158h918v-158h-918z" />
    <glyph glyph-name="radical" unicode="&#x221a;" horiz-adv-x="1155" 
d="M446 -74l-116 842h-273l35 164h395l70 -572l643 1174h191l-891 -1608h-54z" />
    <glyph glyph-name="infinity" unicode="&#x221e;" horiz-adv-x="1675" 
d="M432 156q-145 0 -245.5 103.5t-100.5 252.5t100.5 252.5t245.5 103.5q62 0 119.5 -21t107.5 -60t89 -79.5t81 -95.5q41 51 74 86t86.5 79t116.5 67.5t131 23.5q140 0 238 -101t98 -245q0 -154 -100.5 -260t-245.5 -106q-62 0 -120.5 21t-108.5 59.5t-89 79t-80 94.5
q-31 -39 -53.5 -65t-64.5 -65.5t-80.5 -63.5t-91.5 -42t-107 -18zM922 512q6 -9 17 -24t45 -53.5t68.5 -68t82.5 -53.5t92 -24q76 0 135 61.5t59 161.5q0 99 -58.5 161t-135.5 62q-44 0 -91.5 -23t-84 -55.5t-66.5 -65.5t-47 -56zM432 289q44 0 91.5 23t84 55.5t66.5 65.5
t46 56l17 23q-6 9 -17 24t-45 53.5t-68.5 68t-82.5 53.5t-92 24q-76 0 -135 -61.5t-59 -161.5q0 -99 58.5 -161t135.5 -62z" />
    <glyph glyph-name="integral" unicode="&#x222b;" horiz-adv-x="858" 
d="M213 8l203 1014q51 251 179.5 381.5t303.5 130.5q96 0 176 -25l-67 -192q-70 18 -119 18q-164 0 -223 -295l-203 -1013q-48 -251 -177.5 -381.5t-305.5 -130.5q-98 0 -175 24l66 193q74 -19 119 -19q165 0 223 295z" />
    <glyph glyph-name="approxequal" unicode="&#x2248;" 
d="M115 586l-90 125q59 59 143.5 103t167.5 44q59 0 112.5 -22.5t87 -49t77.5 -49t87 -22.5q125 0 222 108l92 -125q-57 -58 -143 -102.5t-171 -44.5q-59 0 -112.5 22.5t-87 49t-77.5 49t-87 22.5q-117 0 -221 -108zM115 199l-90 125q59 59 143.5 103t167.5 44
q59 0 112.5 -22.5t87 -49t77.5 -49t87 -22.5q125 0 222 108l92 -125q-57 -58 -143 -102.5t-171 -44.5q-59 0 -112.5 22.5t-87 49t-77.5 49t-87 22.5q-117 0 -221 -108z" />
    <glyph glyph-name="notequal" unicode="&#x2260;" 
d="M74 623v139h540l150 252l102 -62l-112 -190h217v-139h-301l-129 -220h430v-139h-512l-156 -262l-102 61l118 201h-245v139h327l131 220h-458z" />
    <glyph glyph-name="lessequal" unicode="&#x2264;" 
d="M45 657v95l873 397l40 -162l-655 -282l655 -304l-40 -159zM45 0v162h918v-162h-918z" />
    <glyph glyph-name="greaterequal" unicode="&#x2265;" 
d="M119 242l-41 159l655 304l-655 282l41 162l872 -397v-95zM74 0v162h917v-162h-917z" />
    <glyph glyph-name="triagup" unicode="&#x25b2;" horiz-adv-x="1280" 
d="M92 301l-24 74q196 236 329.5 416.5t168.5 243.5l36 63h10q4 -8 13 -24t48.5 -78t93.5 -137.5t155 -205.5t225 -278l-25 -74q-116 38 -515 38t-515 -38z" />
    <glyph glyph-name="triagrt" unicode="&#x25ba;" horiz-adv-x="1280" 
d="M344 188q38 116 38 516t-38 515l74 24q236 -196 416.5 -329.5t243.5 -169.5l63 -35v-11q-8 -4 -24 -12.5t-78 -48.5t-137.5 -93.5t-205.5 -154.5t-278 -225z" />
    <glyph glyph-name="triagdn" unicode="&#x25bc;" horiz-adv-x="1280" 
d="M719 301q-4 8 -13 24t-48.5 78t-93.5 137.5t-155 205.5t-225 278l25 74q116 -38 515 -38t515 38l25 -74q-124 -148 -224.5 -277.5t-155.5 -207.5t-93 -135t-50 -80l-12 -23h-10z" />
    <glyph glyph-name="triaglf" unicode="&#x25c4;" horiz-adv-x="1280" 
d="M195 698v11q8 4 24 12.5t78 48.5t137.5 93.5t205.5 154.5t278 225l73 -24q-38 -115 -38 -515t38 -516l-73 -24q-236 196 -416.5 329.5t-243.5 168.5z" />
    <glyph glyph-name="lozenge" unicode="&#x25ca;" horiz-adv-x="1048" 
d="M346 -78l-246 821l592 799h78l250 -799l-596 -821h-78zM274 727l156 -547l414 586l-158 520z" />
    <glyph glyph-name="Euro.uc" unicode="&#xe012;" 
d="M78 743l24 129h115q86 230 260 374.5t391 144.5q77 0 153.5 -18.5t114.5 -36.5l38 -19l-111 -213q-9 7 -26.5 18t-73 29t-111.5 18q-120 0 -211.5 -82t-148.5 -215h458l-63 -129h-441q-21 -92 -26 -157h387l-66 -129h-321q19 -260 235 -260q53 0 109 15t86 30l29 16
l45 -207q-5 -3 -15 -8t-42.5 -18.5t-67 -23.5t-87 -18t-104.5 -8q-211 0 -326.5 126.5t-127.5 355.5h-134l25 129h109q7 93 22 157h-98z" />
    <glyph glyph-name="cent.uc" unicode="&#xe028;" 
d="M406 0l55 233q-149 24 -231.5 127t-82.5 254q0 98 36.5 192.5t103 170t168.5 123t223 49.5l53 217h100l-53 -223q73 -11 133 -39.5t83 -51.5l24 -22l-135 -166q-7 6 -19 16.5t-52 30t-83 25.5l-119 -500q52 4 107 25.5t83 40.5l29 20l60 -180q-5 -5 -14.5 -12.5
t-41.5 -26.5t-67.5 -34t-91 -28t-113.5 -14l-53 -227h-102zM406 635q0 -149 106 -189l115 486q-97 -22 -159 -102.5t-62 -194.5z" />
    <glyph glyph-name="dollar.uc" unicode="&#xe02c;" 
d="M43 121l55 223q5 -4 15 -11.5t43 -26.5t67.5 -33.5t86 -28t102.5 -15.5l77 359q-34 18 -46.5 24.5t-44.5 25.5t-46 29.5t-40.5 31t-39 36.5t-30.5 40.5t-26 48.5t-14.5 54t-6.5 62q0 76 33 149t91.5 131t148 95.5t194.5 42.5l47 211h102l-47 -213q68 -5 140.5 -20.5
t110.5 -28.5l38 -13l-68 -223q-14 6 -39 15.5t-96 27t-135 21.5l-78 -349q39 -20 59 -30.5t56.5 -32.5t56 -39.5t45.5 -46t39 -57.5t23 -68.5t10 -83.5q0 -177 -135.5 -292t-325.5 -128l-47 -211h-103l47 211q-50 5 -101.5 18.5t-89 29t-67.5 30.5t-46 25zM444 979
q0 -46 25.5 -79t75.5 -64l65 294q-76 -12 -121 -51.5t-45 -99.5zM678 395q0 72 -96 140l-66 -297q72 16 117 57.5t45 99.5z" />
    <glyph glyph-name="dotlessi.smcp" unicode="&#xe033;" horiz-adv-x="540" 
d="M37 0l196 997h248l-196 -997h-248z" />
    <glyph glyph-name="florin.uc" unicode="&#xe039;" 
d="M129 645l10 154h264l31 166q46 250 178.5 381t313.5 131q89 0 166 -25l-45 -203q-11 2 -30.5 6t-31.5 6.5t-30 4.5t-35 2q-175 0 -228 -285l-35 -184h279l-10 -154h-297l-82 -455q-46 -251 -177 -381.5t-315 -130.5q-87 0 -164 25l43 203q82 -19 129 -19q173 0 226 285
l86 473h-246z" />
    <glyph glyph-name="sterling.uc" unicode="&#xe03f;" 
d="M74 586l20 129h168l74 270q55 202 163.5 304t282.5 102q52 0 99.5 -9t79 -22t56 -26t35.5 -22l11 -9l-105 -181q-9 7 -25 17t-64 26.5t-95 16.5q-78 0 -123 -47.5t-73 -155.5l-68 -264h311l-39 -129h-305l-24 -94q-20 -76 -48.5 -149.5t-46.5 -108.5l-18 -35
q11 -5 30.5 -12.5t81 -20t123.5 -12.5q40 0 68.5 6t57.5 24t49 57t30 99h191q-66 -391 -379 -391q-73 0 -146.5 22t-137.5 44t-115 22q-66 0 -179 -37l-41 127q6 2 15.5 6t36 19.5t48.5 34t44.5 50.5t32.5 68l75 281h-151z" />
    <glyph glyph-name="orn.001" unicode="&#xe04e;" horiz-adv-x="1470" 
d="M764 811q-23 27 -33 66l-92 358q-9 39 35 62.5t90 23.5q44 0 87 -24t34 -62l-92 -358q-4 -17 -11.5 -33.5t-12.5 -24.5zM639 156l92 358q4 17 12.5 33.5t14.5 24.5l6 8q19 -27 29 -66l92 -358q9 -38 -34 -62t-87 -24q-46 0 -90 23.5t-35 62.5zM864 754q8 28 39 57
l264 258q22 23 50 14t51 -29.5t37 -43.5q14 -24 20.5 -56t0 -60.5t-31.5 -35.5l-360 -98q-17 -4 -34.5 -5.5t-26.5 -0.5h-9zM236 858q-40 11 -40 61t23 91q14 23 36.5 43.5t50.5 30t50 -12.5l265 -260q14 -13 23.5 -27t11.5 -22l3 -8q-30 -4 -69 6zM903 580q-14 13 -23.5 27
t-12.5 22l-3 8q31 4 70 -6l354 -99q40 -11 40 -60.5t-23 -90.5q-24 -39 -66.5 -64.5t-71.5 2.5zM219 381q-14 25 -21 55.5t1 59.5t34 36l357 99q17 4 34.5 5.5t25.5 1.5l9 -1q-7 -28 -38 -57l-265 -258q-22 -23 -50 -14t-50.5 29.5t-36.5 43.5z" />
    <glyph glyph-name="orn.002" unicode="&#xe04f;" horiz-adv-x="1458" 
d="M229 858q-27 7 -35 36t-1.5 60t20.5 56q14 23 36.5 43.5t50.5 30t50 -12.5l256 -252q46 56 115 68l-88 348q-9 39 35 62.5t90 23.5q44 0 87 -24t34 -62l-91 -348q71 -12 119 -66l254 248q22 23 50 14t50.5 -29.5t36.5 -43.5q14 -25 21 -56.5t0.5 -60t-31.5 -35.5
l-348 -96q12 -40 12 -66q0 -34 -12 -69l342 -95q27 -7 35 -36t1.5 -59.5t-20.5 -55.5q-24 -39 -66 -64.5t-71 2.5l-256 250q-46 -56 -117 -65l91 -348q9 -38 -34 -62t-87 -24q-46 0 -90 23.5t-35 62.5l90 348q-72 12 -117 67l-256 -249q-22 -23 -50 -14t-50.5 29.5
t-36.5 43.5q-14 25 -21 55.5t1 59.5t34 36l348 97q-12 30 -12 67q0 33 10 66zM643 694q0 -47 34 -80.5t81 -33.5t80.5 33.5t33.5 80.5t-33.5 81t-80.5 34t-81 -34t-34 -81z" />
    <glyph glyph-name="orn.003" unicode="&#xe050;" horiz-adv-x="1812" 
d="M258 442q-102 0 -102 138q0 68 28.5 139.5t78 132t126 99t164.5 38.5q62 0 117 -17.5t113 -62.5t82.5 -67.5t86.5 -87.5l21 -21q99 -103 140 -137q105 -86 198 -86q87 0 158 58.5t71 158.5q0 38 -14.5 83t-14.5 64q0 43 30 69t73 26q53 0 77.5 -38.5t24.5 -99.5
q0 -67 -28.5 -138.5t-78 -132t-126 -99.5t-164.5 -39q-51 0 -101 15.5t-86.5 35.5t-82.5 59.5t-71 65t-71 74.5q-54 59 -80.5 85.5t-75.5 67.5t-94 58.5t-94 17.5q-90 0 -160.5 -58t-70.5 -159q0 -38 14 -83t14 -64q0 -43 -29.5 -69t-72.5 -26z" />
    <glyph glyph-name="orn.004" unicode="&#xe051;" horiz-adv-x="1724" 
d="M721 1202q-38 0 -63 29t-25 67q0 47 37.5 70t97.5 23q65 0 135.5 -28t131 -76.5t100 -123t39.5 -159.5q0 -23 -13.5 -36.5t-32.5 -13.5t-31 13.5t-12 36.5q-3 86 -61.5 156.5t-155.5 70.5q-38 0 -83 -14.5t-64 -14.5zM213 449q-47 0 -69.5 37t-22.5 96q0 53 17.5 110
t52 109.5t80.5 94.5t108.5 67.5t130.5 25.5q51 0 101.5 -16.5t87.5 -37t84.5 -61t73.5 -66.5t73 -75q54 -57 83.5 -85.5t76 -66.5t89 -54.5t87.5 -16.5q87 0 161 58.5t74 158.5q0 38 -14 83t-14 64q0 38 29 63.5t67 25.5q47 0 69.5 -38t22.5 -98q0 -65 -28.5 -136
t-77.5 -131t-124.5 -99t-160.5 -39q-50 0 -99.5 15.5t-87 36t-81.5 58t-72 66t-70 74.5q-46 50 -65 69.5t-61 58.5t-69.5 55.5t-67.5 31t-79 14.5q-91 0 -164 -58.5t-73 -158.5q0 -38 14 -83t14 -64q0 -38 -29 -63t-67 -25zM606 412q0 19 12 32t31 13t32 -13t13 -32
q0 -87 58.5 -160.5t158.5 -73.5q38 0 83.5 14.5t64.5 14.5q38 0 63 -29t25 -67q0 -47 -37.5 -70t-95.5 -23q-67 0 -138 28.5t-131.5 78t-99.5 125.5t-39 162z" />
    <glyph glyph-name="orn.005" unicode="&#xe052;" horiz-adv-x="1320" 
d="M420 1083q-38 0 -63 29.5t-25 67.5q0 47 37 69.5t96 22.5q67 0 138 -28.5t131.5 -77.5t99 -125t38.5 -162q0 -19 -12 -32t-31 -13t-32 13t-13 32q0 87 -58.5 160t-158.5 73q-38 0 -83 -14.5t-64 -14.5zM817 563q0 19 13 32t32 13q87 0 160.5 58.5t73.5 158.5
q0 38 -14.5 83.5t-14.5 64.5q0 38 29 63t67 25q47 0 69.5 -37t22.5 -96q0 -67 -28.5 -138t-77.5 -131.5t-125 -99.5t-162 -39q-19 0 -32 12t-13 31zM213 348q-47 0 -69.5 37t-22.5 96q0 67 28.5 138t77.5 131.5t125 99.5t162 39q19 0 32 -12t13 -31t-13 -32t-32 -13
q-87 0 -160 -58.5t-73 -158.5q0 -38 14 -83.5t14 -64.5q0 -38 -29 -63t-67 -25zM504 530q0 19 12 32t31 13t32 -13t13 -32q0 -87 58.5 -160t158.5 -73q38 0 83 14.5t64 14.5q38 0 63 -29.5t25 -67.5q0 -47 -37 -69.5t-96 -22.5q-67 0 -138 28.5t-131.5 77.5t-99 125
t-38.5 162z" />
    <glyph glyph-name="orn.006" unicode="&#xe053;" horiz-adv-x="1693" 
d="M164 682q0 143 56 274t150.5 226t225.5 151t274 56q191 0 354 -95t258 -258t95 -354t-95 -354t-258 -258t-354 -95q-143 0 -274 56t-225.5 151t-150.5 226t-56 274zM258 682q0 -170 80.5 -313t221.5 -226.5t310 -83.5t310 83.5t222 226.5t81 313t-81 313t-222 226.5
t-310 83.5t-310 -83.5t-221.5 -226.5t-80.5 -313zM602 948q-38 0 -63 29t-25 67q0 47 37.5 70t95.5 23q67 0 138 -28.5t131.5 -78t99.5 -125.5t39 -162q0 -19 -12 -32t-31 -13t-32 13t-13 32q0 87 -58.5 160.5t-158.5 73.5q-38 0 -83.5 -14.5t-64.5 -14.5zM887 541
q0 19 13 32t32 13q87 0 160 58.5t73 158.5q0 38 -14 83t-14 64q0 38 29 63t67 25q47 0 69.5 -37t22.5 -96q0 -67 -28.5 -138t-77.5 -131.5t-125 -99t-162 -38.5q-19 0 -32 12t-13 31zM508 326q-47 0 -69.5 37t-22.5 96q0 67 28.5 138t77.5 131.5t125 99t162 38.5
q19 0 32 -12t13 -31t-13 -32t-32 -13q-87 0 -160.5 -58.5t-73.5 -158.5q0 -38 14.5 -83t14.5 -64q0 -38 -29 -63t-67 -25zM686 621q0 19 12 32t31 13t32 -13t13 -32q0 -87 58.5 -160.5t158.5 -73.5q38 0 83.5 14.5t64.5 14.5q38 0 63 -29.5t25 -67.5q0 -47 -37 -69.5
t-96 -22.5q-67 0 -138 28.5t-131.5 78t-99.5 125.5t-39 162z" />
    <glyph glyph-name="orn.007" unicode="&#xe054;" horiz-adv-x="1693" 
d="M164 682q0 143 56 274t150.5 226t225.5 151t274 56q191 0 354 -95t258 -258t95 -354t-95 -354t-258 -258t-354 -95q-143 0 -274 56t-225.5 151t-150.5 226t-56 274zM258 682q0 -170 80.5 -313t221.5 -226.5t310 -83.5t310 83.5t222 226.5t81 313t-81 313t-222 226.5
t-310 83.5t-310 -83.5t-221.5 -226.5t-80.5 -313zM868 768q-16 18 -22 47l-68 264q-8 28 24 45t66 17t65.5 -17t24.5 -45l-67 -264q-3 -13 -8.5 -24.5t-10.5 -16.5zM481 801q-20 6 -26 27.5t-1 43.5t15 39q10 18 27 34t38 23t37 -10l193 -190q10 -9 18 -19.5t10 -16.5l3 -7
q-23 -4 -54 4zM942 725q8 23 31 43l192 188q17 17 38 10.5t38 -22t27 -33.5q9 -18 13.5 -40t-0.5 -43t-24 -27l-262 -72q-14 -4 -27 -5t-20 0zM942 639q22 4 53 -4l260 -72q20 -6 25.5 -27t1 -43t-13.5 -40q-10 -18 -27.5 -34t-38 -22.5t-37.5 9.5l-192 190q-10 9 -18 19.5
t-11 16.5zM469 453q-10 17 -15 39.5t0.5 43.5t24.5 27l262 72q14 4 27.5 5t19.5 0l7 -1q-8 -23 -31 -43l-193 -188q-17 -17 -38 -10.5t-37.5 22t-26.5 33.5zM778 285l68 264q3 13 8.5 24.5t9.5 16.5l4 6q17 -18 23 -47l67 -264q7 -29 -24 -45.5t-66 -16.5q-34 0 -64.5 16.5
t-25.5 45.5z" />
    <glyph glyph-name="yen.uc" unicode="&#xe06a;" 
d="M127 600l25 129h227l-201 637h262l135 -506l345 506h270l-459 -637h246l-25 -129h-293l-26 -137h291l-25 -129h-293l-65 -334h-258l65 334h-274l24 129h275l26 137h-272z" />
    <glyph glyph-name="ct" unicode="&#xe087;" horiz-adv-x="1673" 
d="M37 387q0 106 39 207.5t108 182t173.5 130t226.5 49.5q36 0 71 -6q-2 10 -2 45q0 78 34.5 151.5t93.5 130t145 90.5t182 34q144 0 235 -69.5t91 -190.5q0 -30 -17 -117l-20 -92h280l-41 -184h-278l-86 -400q-10 -44 -10 -84q0 -42 16.5 -60t48.5 -18q71 0 184 84l58 -180
q-174 -115 -332 -115q-236 0 -236 207q0 46 11 94l100 472h-133v133l182 57q4 3 10.5 9.5t23 26.5t29 41.5t23 53.5t10.5 64q0 71 -48.5 106t-125.5 35q-120 0 -208.5 -80.5t-88.5 -212.5q0 -42 7 -70q24 -11 44 -24t29 -20l8 -7l-86 -178q-4 3 -10.5 9t-29 21t-45.5 26
t-58.5 20.5t-69.5 9.5q-108 0 -193 -107t-85 -268q0 -114 45.5 -171.5t128.5 -57.5q54 0 113.5 23.5t91.5 46.5l33 24l77 -164q-5 -5 -15.5 -13t-44.5 -28.5t-71.5 -36t-94.5 -28.5t-116 -13q-186 0 -296.5 116t-110.5 296z" />
    <glyph glyph-name="germandbls.smcp" unicode="&#xe308;" horiz-adv-x="1724" 
d="M4 59l59 205q5 -3 13 -8.5t35 -20t55 -25t69 -19.5t80 -9q71 0 118.5 27t47.5 72q0 27 -20 51t-51.5 44t-70 41t-77 47t-70 56.5t-51.5 76t-20 99.5q0 136 112.5 231t298.5 95q62 0 133 -11t111 -23l41 -11l-49 -209q-12 5 -33 13t-81.5 21t-116.5 13q-77 0 -122.5 -22.5
t-45.5 -69.5q0 -29 20 -53t51.5 -42.5t70 -38t77 -44.5t70 -56t51.5 -79t20 -107q0 -101 -54.5 -176.5t-144.5 -113.5t-202 -38q-82 0 -163 21t-121 42zM866 59l60 205q5 -3 13 -8.5t35 -20t55 -25t69 -19.5t80 -9q71 0 118 27t47 72q0 27 -20 51t-51.5 44t-70 41t-77 47
t-70 56.5t-51.5 76t-20 99.5q0 136 113 231t299 95q62 0 133 -11t111 -23l40 -11l-49 -209q-12 5 -33 13t-81.5 21t-116.5 13q-77 0 -122.5 -22.5t-45.5 -69.5q0 -29 20 -53t51.5 -42.5t70 -38t77 -44.5t70 -56t51.5 -79t20 -107q0 -101 -54.5 -176.5t-144.5 -113.5
t-202 -38q-82 0 -163 21t-121 42z" />
    <glyph glyph-name="uni021B.smcp" unicode="&#xe30b;" horiz-adv-x="950" 
d="M244 0l157 793h-319l39 204h880l-38 -204h-314l-157 -793h-248zM229 -100h207q21 -32 21 -93q0 -108 -77 -192t-185 -125l-72 107q63 31 101 82.5t38 115.5q0 61 -33 105z" />
    <glyph glyph-name="ordfeminine.smcp" unicode="&#xe351;" horiz-adv-x="946" 
d="M98 606l426 746h217l129 -746h-192l-23 148h-280l-80 -148h-197zM596 1155l-139 -254h178z" />
    <glyph glyph-name="ordmasculine.smcp" unicode="&#xe352;" horiz-adv-x="954" 
d="M492 592q-166 0 -259.5 93t-93.5 235q0 78 34 155.5t93.5 140.5t151 102.5t196.5 39.5q168 0 262.5 -89t94.5 -229q0 -82 -37 -163t-100 -144t-153 -102t-189 -39zM506 750q112 0 185 86.5t73 189.5q0 73 -41.5 122.5t-122.5 49.5q-78 0 -137.5 -43.5t-88 -105.5
t-28.5 -127q0 -72 40 -122t120 -50z" />
    <glyph glyph-name="a.sups" unicode="&#xe361;" horiz-adv-x="739" 
d="M281 592q-78 0 -129.5 53t-51.5 150q0 76 32 159.5t88.5 156.5t146.5 121t194 48q33 0 101.5 -9t125.5 -9l-92 -443q-24 -119 11 -184l-170 -43q-35 59 -25 149h-4q-32 -68 -95 -108.5t-132 -40.5zM336 739q55 0 122 87t85 173l30 146q-16 8 -43 8q-87 0 -161 -104
t-74 -232q0 -78 41 -78z" />
    <glyph glyph-name="b.sups" unicode="&#xe362;" horiz-adv-x="757" 
d="M92 608l203 957h192l-88 -410h7q32 49 90 87t114 38q82 0 135.5 -63t53.5 -170q0 -76 -30 -155t-83.5 -146.5t-138.5 -110.5t-185 -43q-34 0 -121 8t-149 8zM309 723q28 -4 47 -4q68 0 124.5 45.5t87 115t30.5 142.5q0 94 -53 94q-47 0 -114 -66t-79 -122z" />
    <glyph glyph-name="c.sups" unicode="&#xe363;" horiz-adv-x="647" 
d="M408 592q-134 0 -214.5 79t-80.5 206q0 75 29 147t80 129t127 92t163 35q45 0 83.5 -9.5t62 -23t40.5 -27t24 -22.5l7 -10l-88 -115q-2 3 -5.5 7.5t-15.5 16t-26 20.5t-35.5 16.5t-44.5 7.5q-79 0 -139 -73.5t-60 -182.5q0 -75 30.5 -115.5t86.5 -40.5q39 0 82 19t66 38
l24 19l55 -125q-4 -4 -11 -9.5t-31.5 -21t-52 -27t-70 -21t-86.5 -9.5z" />
    <glyph glyph-name="d.sups" unicode="&#xe364;" horiz-adv-x="763" 
d="M303 592q-86 0 -141.5 63t-55.5 168q0 77 31.5 158t85 147.5t134.5 109t171 42.5q41 0 95 -14l63 299h193l-158 -746q-14 -72 -11 -111t21 -73l-170 -43q-34 55 -24 143h-7q-33 -65 -97 -104t-130 -39zM360 739q53 0 120 87.5t85 172.5l19 86q14 68 -47 68
q-89 0 -158.5 -96.5t-69.5 -218.5q0 -99 51 -99z" />
    <glyph glyph-name="e.sups" unicode="&#xe365;" horiz-adv-x="655" 
d="M369 592q-127 0 -193.5 71t-66.5 179q0 99 50 199t143.5 169.5t203.5 69.5q82 0 139 -38.5t57 -115.5q0 -52 -30 -98t-73 -76.5t-101 -56t-102.5 -38.5t-90.5 -23q3 -105 90 -105q44 0 98 22.5t87 44.5l32 23l29 -139q-5 -4 -14 -9.5t-37.5 -21t-58.5 -27t-74.5 -21
t-87.5 -9.5zM475 1147q-45 0 -93.5 -52t-68.5 -143q82 25 143.5 64t61.5 86q0 18 -10 31.5t-33 13.5z" />
    <glyph glyph-name="f.sups" unicode="&#xe366;" horiz-adv-x="497" 
d="M137 1126v101l129 39l8 53q9 59 31 108.5t58.5 90.5t93 64.5t127.5 23.5q53 0 103.5 -13t74.5 -26l24 -13l-65 -139q-63 45 -133 45q-35 0 -61 -15.5t-41.5 -45.5t-24.5 -61t-17 -76h179l-33 -136h-164l-15 -105t-17 -107t-21.5 -110.5t-26 -105t-33 -103t-39.5 -92
t-48.5 -84t-58 -68t-70 -53.5t-81.5 -32l-77 129q64 19 113.5 74t81 138.5t50 161.5t33.5 179l27 178h-107z" />
    <glyph glyph-name="g.sups" unicode="&#xe367;" horiz-adv-x="737" 
d="M309 268q-112 0 -174.5 40.5t-62.5 94.5q0 58 47 115h164q-35 -45 -35 -80q0 -51 74 -51q31 0 56 9t41.5 22.5t30 37.5t21 44.5t13.5 54t8.5 56.5t6.5 60.5t7 57.5h-10q-32 -63 -90 -100t-121 -37q-82 0 -133.5 52.5t-51.5 150.5q0 76 32 159.5t88.5 156.5t146.5 121
t194 48q33 0 101.5 -9t125.5 -9l-81 -396q-8 -39 -17 -98.5t-15 -103.5t-19 -99t-28 -94.5t-43 -80t-64 -65.5t-90 -41t-122 -16zM334 739q61 0 125.5 88t83.5 172l32 146q-17 8 -40 8q-92 0 -166 -104t-74 -236q0 -74 39 -74z" />
    <glyph glyph-name="h.sups" unicode="&#xe368;" horiz-adv-x="759" 
d="M92 608l203 957h192l-90 -420q35 54 102.5 93.5t145.5 39.5q139 0 139 -135q0 -43 -32 -207l-70 -328h-193l70 328q23 104 23 139q0 39 -33 39q-40 0 -115 -73.5t-82 -108.5l-67 -324h-193z" />
    <glyph glyph-name="i.sups" unicode="&#xe369;" horiz-adv-x="370" 
d="M365 1421q-44 0 -66.5 24.5t-22.5 61.5q0 49 34.5 90t95.5 41q45 0 66.5 -23.5t21.5 -60.5q0 -49 -34.5 -91t-94.5 -42zM92 608l139 654h193l-137 -654h-195z" />
    <glyph glyph-name="j.sups" unicode="&#xe36a;" horiz-adv-x="370" 
d="M356 1421q-44 0 -65 24.5t-21 65.5q0 45 34.5 86t94.5 41q88 0 88 -88q0 -44 -35 -86.5t-96 -42.5zM-76 268l-61 154q195 29 235 211l133 629h193l-133 -623q-36 -166 -137 -258t-230 -113z" />
    <glyph glyph-name="k.sups" unicode="&#xe36b;" horiz-adv-x="727" 
d="M92 608l203 957h192l-110 -523h22l213 220h242l-315 -306l190 -348h-213l-147 293h-23l-61 -293h-193z" />
    <glyph glyph-name="l.sups" unicode="&#xe36c;" horiz-adv-x="370" 
d="M92 608l203 957h192l-202 -957h-193z" />
    <glyph glyph-name="m.sups" unicode="&#xe36d;" horiz-adv-x="1140" 
d="M92 608l139 654h187l-27 -121q34 54 101 96.5t147 42.5q139 0 139 -143q32 55 99.5 99t148.5 44q76 0 108.5 -40t32.5 -101q0 -41 -34 -203l-70 -328h-193l70 330q23 118 23 139q0 39 -31 39q-43 0 -112 -71.5t-79 -116.5l-67 -320h-193l72 330q22 110 22 139
q0 17 -8.5 28t-23.5 11q-42 0 -111.5 -70t-77.5 -110l-69 -328h-193z" />
    <glyph glyph-name="o.sups" unicode="&#xe36e;" horiz-adv-x="778" 
d="M408 592q-144 0 -219.5 80t-75.5 202q0 102 50 194t144.5 151t212.5 59q142 0 218.5 -80t76.5 -192q0 -65 -25.5 -135t-73.5 -133.5t-129 -104.5t-179 -41zM420 727q84 0 137 84.5t53 183.5q0 64 -25.5 106t-76.5 42q-75 0 -134 -78t-59 -186q0 -70 26 -111t79 -41z" />
    <glyph glyph-name="p.sups" unicode="&#xe36f;" horiz-adv-x="755" 
d="M23 285l208 977h185l-27 -121h4q33 63 91.5 100t121.5 37q83 0 137 -62.5t54 -166.5q0 -76 -31 -157t-83.5 -147.5t-131 -109.5t-164.5 -43q-56 0 -102 20l-70 -327h-192zM383 719q85 0 149 96t64 215q0 98 -49 98q-52 0 -121 -90.5t-88 -181.5l-12 -55q-16 -82 57 -82z
" />
    <glyph glyph-name="q.sups" unicode="&#xe370;" horiz-adv-x="759" 
d="M414 285l90 424h-8q-34 -48 -89 -82.5t-112 -34.5q-82 0 -135.5 62t-53.5 169q0 77 30 156.5t83.5 147t139 110.5t186.5 43q33 0 120.5 -9t149.5 -9l-207 -977h-194zM360 754q50 0 117.5 74.5t81.5 138.5l39 182q-28 4 -45 4q-102 0 -173 -95t-71 -210q0 -94 51 -94z" />
    <glyph glyph-name="r.sups" unicode="&#xe371;" horiz-adv-x="546" 
d="M92 608l141 654h185l-31 -144h6q57 85 100 121.5t101 36.5q18 0 37 -3.5t29 -6.5l10 -4l-43 -179q-25 15 -58 15q-72 0 -143 -84.5t-88 -165.5l-51 -240h-195z" />
    <glyph glyph-name="s.sups" unicode="&#xe372;" horiz-adv-x="573" 
d="M289 592q-57 0 -112.5 15t-82.5 29l-26 15l47 142q8 -7 22.5 -17.5t58 -27.5t85.5 -17q41 0 64.5 14.5t23.5 40.5q0 22 -15 41t-37 32t-48.5 31.5t-48.5 38.5t-37 55t-15 79q0 100 75.5 158.5t196.5 58.5q55 0 104.5 -12t71.5 -24l23 -13l-47 -141q-6 5 -17.5 13.5
t-48 22t-73.5 13.5q-45 0 -69 -15.5t-24 -38.5q0 -24 21 -43.5t50.5 -37t59.5 -39t51 -61t21 -93.5q0 -104 -79 -161.5t-195 -57.5z" />
    <glyph glyph-name="t.sups" unicode="&#xe373;" horiz-adv-x="583" 
d="M334 592q-172 0 -172 145q0 33 8 66l70 323h-93v101l125 41l29 135l199 41l-39 -182h196l-28 -136h-199l-57 -274q-6 -30 -6 -51q0 -51 39 -51q46 0 139 73l41 -143q-43 -27 -73 -42.5t-80 -30.5t-99 -15z" />
    <glyph glyph-name="u.sups" unicode="&#xe374;" horiz-adv-x="761" 
d="M293 592q-164 0 -164 170q0 53 25 172l69 328h193l-70 -330q-22 -108 -22 -135q0 -58 36 -58q53 0 119.5 92t83.5 168l55 263h195l-94 -443q-12 -56 -12 -94q0 -48 22 -90l-176 -43q-27 49 -27 100v27h-4q-90 -127 -229 -127z" />
    <glyph glyph-name="v.sups" unicode="&#xe375;" horiz-adv-x="665" 
d="M242 604q-70 373 -80 658h194q0 -222 21 -443q143 254 211 443h198q-40 -100 -99 -213t-111.5 -201.5t-125.5 -205.5q-16 -25 -24 -38h-184z" />
    <glyph glyph-name="w.sups" unicode="&#xe376;" horiz-adv-x="1038" 
d="M236 604q-60 321 -72 658h190q0 -222 21 -439q115 208 200 439h154q0 -173 29 -439q115 213 198 439h197q-109 -275 -346 -658h-154q-33 162 -53 381q-90 -197 -205 -381h-159z" />
    <glyph glyph-name="x.sups" unicode="&#xe377;" horiz-adv-x="681" 
d="M14 608l303 344l-149 310h201l75 -181l148 181h221l-301 -338l150 -316h-197l-78 187l-151 -187h-222z" />
    <glyph glyph-name="y.sups" unicode="&#xe378;" horiz-adv-x="671" 
d="M-76 268l-35 148q96 12 176 63.5t130 108.5q24 30 24 121q0 108 -23 273t-53 280h191q43 -211 43 -422v-39q136 228 219 461h197q-114 -290 -301 -557q-284 -404 -568 -437z" />
    <glyph glyph-name="z.sups" unicode="&#xe379;" horiz-adv-x="655" 
d="M72 608l12 113l371 399h-289l22 142h535l-16 -121l-365 -391h303l-31 -142h-542z" />
    <glyph glyph-name="egrave.sups" unicode="&#xe37a;" horiz-adv-x="655" 
d="M369 592q-127 0 -193.5 71t-66.5 179q0 99 50 199t143.5 169.5t203.5 69.5q82 0 139 -38.5t57 -115.5q0 -52 -30 -98t-73 -76.5t-101 -56t-102.5 -38.5t-90.5 -23q3 -105 90 -105q44 0 98 22.5t87 44.5l32 23l29 -139q-5 -4 -14 -9.5t-37.5 -21t-58.5 -27t-74.5 -21
t-87.5 -9.5zM475 1147q-45 0 -93.5 -52t-68.5 -143q82 25 143.5 64t61.5 86q0 18 -10 31.5t-33 13.5zM350 1444l58 151l356 -155l-45 -109z" />
    <glyph glyph-name="ampersand.001" unicode="&#xe37b;" horiz-adv-x="1210" 
d="M715 600q122 -251 321.5 -465.5t421.5 -343.5l-123 -182q-245 116 -466.5 348t-364.5 510q-35 67 -41 82q-100 -51 -153.5 -104t-53.5 -123q0 -72 57 -111t148 -39q43 0 82 8l43 -192q-76 -13 -142 -13q-65 0 -124.5 11t-114.5 35.5t-95 61.5t-63.5 93t-23.5 125
q0 64 21 119.5t53 97t83 80.5t99.5 66t113.5 57q-45 137 -45 244q0 61 15.5 121t49 115t80.5 97.5t115.5 67.5t149.5 25q143 0 226 -77t83 -216q0 -68 -21.5 -127.5t-55 -103.5t-85.5 -85t-101 -69.5t-114 -59.5zM602 987q0 -74 25 -160q109 57 167 116.5t58 141.5
q0 56 -27.5 84.5t-76.5 28.5q-52 0 -86.5 -34t-47 -79t-12.5 -98z" />
    <glyph glyph-name="exclamdown.uc" unicode="&#xe441;" horiz-adv-x="565" 
d="M444 903l-149 -903h-283l238 903h194zM569 1278q0 -79 -47.5 -142t-134.5 -63q-58 0 -87.5 31.5t-29.5 79.5q0 78 49 142.5t138 64.5q56 0 84 -32.5t28 -80.5z" />
    <glyph glyph-name="questiondown.uc" unicode="&#xe444;" horiz-adv-x="729" 
d="M610 903q6 -88 -25 -162.5t-79 -125t-96.5 -93t-83.5 -87t-35 -87.5q0 -32 29 -67.5t70.5 -62.5t83 -50t70.5 -35l29 -12l-100 -213q-10 4 -26 10.5t-63.5 29.5t-91 48t-96 64t-90.5 79t-64 91.5t-26 103.5q0 65 37.5 122.5t92 103.5t110 93.5t99 111.5t51.5 138h204z
M717 1274q0 -76 -48 -138.5t-134 -62.5q-59 0 -88 31.5t-29 83.5q0 45 18.5 89.5t62.5 79t103 34.5t87 -31.5t28 -85.5z" />
    <glyph glyph-name="guillemotleft.uc" unicode="&#xe451;" horiz-adv-x="1026" 
d="M449 674l2 8q9 6 16 11.5t15.5 13t24 22t34 32t53 51t73.5 70.5t103.5 99t134.5 129l133 -41l-362 -399l196 -383l-137 -41q-65 98 -120 182.5t-78.5 120.5t-42.5 65.5t-27 39.5t-18 20zM336 246q-48 73 -91 138.5t-68 103.5t-46.5 71.5t-32.5 49.5t-20.5 30t-15.5 21
t-13 14l2 8q9 6 16 11.5t16 13t24.5 22t33.5 32t53 51t73.5 70.5t103.5 99t135 129l133 -41l-363 -399l197 -383z" />
    <glyph glyph-name="guillemotright.uc" unicode="&#xe452;" horiz-adv-x="1026" 
d="M434 291l363 399l-197 383l137 41q48 -73 91 -138.5t68 -103.5t46.5 -71.5t32.5 -49.5t20.5 -30t15.5 -21t13 -14l-2 -8q-9 -6 -16 -11.5t-16 -13t-24.5 -22t-33.5 -32t-53 -51t-73.5 -70.5t-103.5 -99t-135 -129zM35 291l362 399l-196 383l137 41q48 -73 91 -138.5
t68 -103.5t46.5 -71.5t32.5 -49.5t20.5 -30t15.5 -21t13 -14l-2 -8q-9 -6 -16 -11.5t-16 -13t-24.5 -22t-33.5 -32t-53 -51t-73.5 -70.5t-103.5 -99t-135 -129z" />
    <glyph glyph-name="guilsinglleft.uc" unicode="&#xe453;" horiz-adv-x="628" 
d="M338 250q-48 73 -91 138.5t-68 103.5t-46.5 71.5t-32.5 49.5t-20.5 30t-15.5 21t-13 14l2 8q9 6 16 11.5t16 13t24.5 22t33.5 32t53 51t73.5 70.5t103.5 99t135 129l133 -41l-362 -399l196 -383z" />
    <glyph glyph-name="guilsinglright.uc" unicode="&#xe454;" horiz-adv-x="626" 
d="M35 291l362 399l-196 383l137 41q48 -73 91 -138.5t68 -103.5t46.5 -71.5t32.5 -49.5t20.5 -30t15.5 -21t13 -14l-2 -8q-9 -6 -16 -11.5t-16 -13t-24.5 -22t-33.5 -32t-53 -51t-73.5 -70.5t-103.5 -99t-135 -129z" />
    <glyph glyph-name="braceleft.uc" unicode="&#xe459;" horiz-adv-x="688" 
d="M225 289q0 337 -180 342l10 125q192 5 246 368q11 68 23 222q10 112 71.5 187t155.5 107.5t217 32.5l-8 -135q-57 -5 -97 -13.5t-69 -26t-46 -37t-28.5 -56t-17 -72.5t-10.5 -96q-40 -457 -252 -541v-4q71 -29 115 -128.5t44 -284.5q0 -39 -6 -133t-6 -128q0 -98 45 -138
t178 -52l-14 -135q-389 0 -389 284q0 47 9 149.5t9 162.5z" />
    <glyph glyph-name="slash.uc" unicode="&#xe461;" horiz-adv-x="606" 
d="M23 -201h-162l772 1768h162z" />
    <glyph glyph-name="backslash.uc" unicode="&#xe462;" horiz-adv-x="856" 
d="M668 -201l-588 1768h153l590 -1768h-155z" />
    <glyph glyph-name="bar.uc" unicode="&#xe463;" horiz-adv-x="641" 
d="M258 -315v1994h174v-1994h-174z" />
    <glyph glyph-name="slash.smcp" unicode="&#xe467;" horiz-adv-x="659" 
d="M47 -328h-178l727 1602h178z" />
    <glyph glyph-name="backslash.smcp" unicode="&#xe468;" horiz-adv-x="755" 
d="M557 -328l-442 1602h168l444 -1602h-170z" />
    <glyph glyph-name="bar.smcp" unicode="&#xe469;" horiz-adv-x="600" 
d="M190 -307v1603h172v-1603h-172z" />
    <glyph glyph-name="hyphen.uc" unicode="&#xe482;" horiz-adv-x="825" 
d="M162 610v160h545v-160h-545z" />
    <glyph glyph-name="endash.uc" unicode="&#xe484;" horiz-adv-x="1124" 
d="M160 602v162h839v-162h-839z" />
    <glyph glyph-name="emdash.uc" unicode="&#xe486;" horiz-adv-x="1923" 
d="M160 602v162h1638v-162h-1638z" />
    <glyph glyph-name="parenleft.uc" unicode="&#xe491;" horiz-adv-x="618" 
d="M115 590q0 124 20 246.5t52 219t71 184.5t78 151.5t71 110.5t52 70l20 23l164 -59q-7 -8 -19.5 -23.5t-47.5 -66.5t-67 -107t-71.5 -142.5t-67.5 -175t-47.5 -202.5t-19.5 -227q0 -131 24.5 -257t60 -212t71 -154t59.5 -101l25 -32l-174 -67q-10 13 -27.5 37t-61 105.5
t-77 170.5t-61 227.5t-27.5 280.5z" />
    <glyph glyph-name="parenright.uc" unicode="&#xe492;" horiz-adv-x="620" 
d="M-14 -164l20 23q21 23 56 69.5t75.5 108.5t82.5 149t76 183t55.5 217.5t21.5 244.5q0 119 -20.5 235t-49.5 197.5t-57.5 145.5t-49.5 95l-20 32l178 59q8 -12 22.5 -34.5t50.5 -98t63.5 -158t50 -210t22.5 -258.5q0 -132 -23 -262.5t-60 -233.5t-81.5 -196t-89 -160
t-81.5 -116.5t-60 -73.5l-23 -25z" />
    <glyph glyph-name="bracketleft.uc" unicode="&#xe493;" horiz-adv-x="626" 
d="M139 -174l150 1698h393l-12 -146h-219l-125 -1407h219l-13 -145h-393z" />
    <glyph glyph-name="bracketright.uc" unicode="&#xe494;" horiz-adv-x="636" 
d="M12 -29h219l125 1407h-219l13 146h393l-150 -1698h-393z" />
    <glyph glyph-name="braceright.uc" unicode="&#xe496;" horiz-adv-x="688" 
d="M246 129q23 259 92.5 393t159.5 170v4q-160 68 -160 394q0 37 6 129.5t6 128.5q0 98 -45.5 139t-175.5 51l12 135q178 0 283.5 -72t105.5 -219q0 -32 -9 -133.5t-9 -161.5q0 -54 4.5 -99t16.5 -88.5t32 -74t52.5 -49.5t76.5 -20l-10 -125q-40 -1 -74 -16.5t-59.5 -51
t-44.5 -65t-33.5 -88.5t-23 -90t-16.5 -101t-10 -90t-7 -86q-1 -16 -2 -23q-31 -327 -443 -327l11 135q57 5 96 14t67.5 26.5t45.5 37t28 56t16.5 72t10.5 95.5z" />
    <glyph glyph-name="zero.zero" unicode="&#xe515;" horiz-adv-x="1110" 
d="M59 393q0 109 42 217t115 194t181 139.5t230 53.5q126 0 218.5 -57t136.5 -147.5t44 -200.5q0 -102 -39.5 -209.5t-109.5 -199t-179.5 -150t-236.5 -58.5q-128 0 -221 59t-137 152.5t-44 206.5zM293 381q0 -205 180 -205q77 0 140 38.5t100.5 99.5t57.5 131t20 139
q0 98 -43.5 155.5t-137.5 57.5q-77 0 -140 -40.5t-100.5 -104t-57 -134t-19.5 -137.5zM438 451q0 52 33.5 95.5t95.5 43.5q82 0 82 -80q0 -52 -33.5 -96.5t-95.5 -44.5q-82 0 -82 82z" />
    <glyph glyph-name="four.pnum" unicode="&#xe529;" horiz-adv-x="1075" 
d="M4 334l12 170l717 868h279l-166 -835h151l-39 -203h-153l-66 -334h-250l66 334h-551zM281 537h315l100 501z" />
    <glyph glyph-name="zero.tnum_zero" unicode="&#xe530;" 
d="M428 -25q-91 0 -160.5 36.5t-112 102t-64 152t-21.5 191.5q0 114 23.5 239t73.5 249.5t120.5 223t173.5 160.5t223 62t202 -62.5t119 -166.5t37 -244q0 -114 -23.5 -239.5t-74 -251t-121 -226t-173.5 -163.5t-222 -63zM459 190q73 0 137.5 78t104.5 194.5t62.5 241
t22.5 226.5q0 246 -133 246q-75 0 -139.5 -76t-104 -190t-61.5 -237.5t-22 -228.5q0 -254 133 -254zM532 571q-81 0 -81 82q0 52 33.5 96t95.5 44q82 0 82 -80q0 -52 -34 -97t-96 -45z" />
    <glyph glyph-name="at.uc" unicode="&#xe531;" horiz-adv-x="1662" 
d="M61 483q0 119 34 239t95 226.5t150 199t195 159.5t234 105t263 38q285 0 459 -158.5t174 -400.5q0 -70 -15.5 -145.5t-49 -158.5t-99.5 -157.5t-155 -120.5q-49 -25 -104.5 -41.5t-154.5 -38t-141 -32.5l2 211q-36 -91 -115 -151t-167 -60q-99 0 -160.5 79t-61.5 222
q0 136 58.5 256t152 200t210 126t233.5 46q36 0 83 -4t76 -8l29 -4l-115 -532q-9 -42 -14 -85t-5 -65l-1 -22q105 15 181.5 85.5t111.5 166t35 202.5q0 194 -121 316t-338 122q-129 0 -249.5 -46.5t-212.5 -127t-161.5 -184t-106 -221t-36.5 -234.5q0 -110 33.5 -199.5
t90 -147t128 -89.5t151.5 -37l-45 -162q-112 8 -211.5 55.5t-175 127.5t-120 196.5t-44.5 253.5zM754 381q83 0 186 188l84 387q-86 -5 -165.5 -72t-128 -169.5t-48.5 -208.5q0 -125 72 -125z" />
    <glyph glyph-name="zero.pnum" unicode="&#xe534;" horiz-adv-x="1103" 
d="M449 -25q-120 0 -202.5 64.5t-119.5 170.5t-37 247q0 94 17 197.5t49.5 208.5t85.5 199.5t118.5 168t155 117t189.5 43.5q120 0 202 -62.5t119 -166.5t37 -244q0 -114 -23.5 -239.5t-74 -251t-121 -226t-173.5 -163.5t-222 -63zM479 190q73 0 137.5 78t104.5 194.5
t63 241t23 226.5q0 246 -133 246q-75 0 -139.5 -76t-104 -190t-62 -237.5t-22.5 -228.5q0 -254 133 -254z" />
    <glyph glyph-name="zero.pnum_zero" unicode="&#xe535;" horiz-adv-x="1105" 
d="M451 -25q-120 0 -202.5 64.5t-119.5 170.5t-37 247q0 94 17 197.5t49.5 208.5t85.5 199.5t118.5 168t155 117t189.5 43.5q120 0 202 -62.5t119 -166.5t37 -244q0 -114 -23.5 -239.5t-74 -251t-121 -226t-173.5 -163.5t-222 -63zM481 190q73 0 137.5 78t104.5 194.5
t63 241t23 226.5q0 246 -133 246q-75 0 -139.5 -76t-104 -190t-62 -237.5t-22.5 -228.5q0 -254 133 -254zM555 571q-82 0 -82 82q0 52 33.5 96t95.5 44q82 0 82 -80q0 -52 -33.5 -97t-95.5 -45z" />
    <glyph glyph-name="one.pnum" unicode="&#xe536;" horiz-adv-x="878" 
d="M-31 0l41 211h266l187 936h-244l29 219h516l-232 -1155h256l-40 -211h-779z" />
    <glyph glyph-name="two.pnum" unicode="&#xe537;" horiz-adv-x="1036" 
d="M12 0l-10 158l375 319q182 154 268 266t86 224q0 95 -56 142.5t-132 47.5q-57 0 -119.5 -27t-96.5 -54l-34 -27l-119 178q7 7 19.5 18t54.5 39t87 50t113 39.5t136 17.5q59 0 115 -12.5t108.5 -41.5t91.5 -71.5t62.5 -106.5t23.5 -143q0 -92 -30 -177.5t-90 -165
t-121.5 -141t-151.5 -139.5l-201 -174h498l-33 -219h-844z" />
    <glyph glyph-name="three.pnum" unicode="&#xe538;" horiz-adv-x="966" 
d="M-29 80l107 192q4 -3 12 -8.5t34 -20t54 -25t70.5 -19.5t85.5 -9q115 0 184.5 61t69.5 155q0 87 -63.5 128t-159.5 41l-93 -6l25 222q59 1 125.5 22.5t123 56.5t93.5 86t37 105q0 55 -34 84t-99 29q-58 0 -121 -24t-97 -48l-34 -23l-98 183q7 5 19 14t51.5 31t82 39
t106 31t126.5 14q162 0 260 -81.5t98 -215.5q0 -67 -26.5 -128t-73 -107.5t-97 -80.5t-108.5 -61q103 -37 161 -117t58 -184q0 -115 -66.5 -216t-185.5 -163t-262 -62q-61 0 -121 11t-102 26t-75.5 30.5t-49.5 26.5z" />
    <glyph glyph-name="five.pnum" unicode="&#xe53a;" horiz-adv-x="942" 
d="M-23 76l97 198q11 -9 31.5 -22t85.5 -35t133 -22q115 0 186.5 74.5t71.5 176.5q0 96 -101 162t-311 107l131 651h639l-31 -219h-415l-52 -270q404 -129 404 -412q0 -109 -46 -203t-121 -155.5t-168 -96.5t-189 -35q-59 0 -116.5 10.5t-97 25t-70.5 29.5t-46 26z" />
    <glyph glyph-name="six.pnum" unicode="&#xe53b;" horiz-adv-x="1091" 
d="M70 434q0 110 31 222t87 216.5t141 196.5t187 161.5t230.5 112t267.5 48.5l18 -222q-435 -30 -616 -370q108 104 252 104q107 0 185.5 -53.5t115.5 -137.5t37 -186q0 -101 -39.5 -200t-108 -177t-170.5 -126t-219 -48q-194 0 -296.5 127t-102.5 332zM324 422
q0 -110 42 -171t121 -61q105 0 178.5 99t73.5 231q0 75 -33 117.5t-118 42.5q-55 0 -115 -19t-89 -35t-40 -24q-20 -94 -20 -180z" />
    <glyph glyph-name="seven.pnum" unicode="&#xe53c;" horiz-adv-x="927" 
d="M-18 31q397 549 723 1104h-525l25 231h842l-9 -149q-345 -584 -805 -1242z" />
    <glyph glyph-name="eight.pnum" unicode="&#xe53d;" horiz-adv-x="1058" 
d="M434 -25q-78 0 -148 21.5t-125.5 61.5t-88.5 104.5t-33 144.5q0 59 19.5 112.5t49.5 94t77.5 80.5t92 68.5t103.5 60.5q-131 131 -131 274q0 159 129 276.5t317 117.5q149 0 245.5 -79t96.5 -222q0 -64 -21 -121t-60.5 -103.5t-85.5 -83t-107 -73.5q85 -71 133.5 -142
t48.5 -159q0 -108 -68 -207.5t-187.5 -162.5t-256.5 -63zM684 385q0 50 -36 95.5t-109 107.5q-52 -28 -84.5 -47t-71.5 -46.5t-61 -51.5t-37 -54.5t-15 -62.5q0 -63 46.5 -105.5t121.5 -42.5q96 0 171 65t75 142zM510 1020q0 -89 94 -180q97 56 149 110.5t52 122.5
q0 53 -33 85t-92 32q-78 0 -124 -50.5t-46 -119.5z" />
    <glyph glyph-name="nine.pnum" unicode="&#xe53e;" horiz-adv-x="1085" 
d="M119 -25l-19 222q124 7 228 41.5t179 89t128 118.5t90 140q-109 -113 -260 -113q-155 0 -241.5 106t-86.5 261q0 81 24 161t71 150t110.5 124t147.5 85t176 31q192 0 294.5 -127.5t102.5 -331.5q0 -110 -31 -222t-87 -216.5t-141 -196.5t-187 -161.5t-230.5 -112
t-267.5 -48.5zM547 696q111 0 244 76q18 88 18 164q0 116 -41.5 178t-118.5 62q-104 0 -175 -99t-71 -229q0 -72 31 -112t113 -40z" />
    <glyph glyph-name="zero.tnum" unicode="&#xe53f;" 
d="M428 -25q-91 0 -160.5 36.5t-112 102t-64 152t-21.5 191.5q0 114 23.5 239t73.5 249.5t120.5 223t173.5 160.5t223 62t202 -62.5t119 -166.5t37 -244q0 -114 -23.5 -239.5t-74 -251t-121 -226t-173.5 -163.5t-222 -63zM459 190q73 0 137.5 78t104.5 194.5t62.5 241
t22.5 226.5q0 246 -133 246q-75 0 -139.5 -76t-104 -190t-61.5 -237.5t-22 -228.5q0 -254 133 -254z" />
    <glyph glyph-name="one.tnum" unicode="&#xe541;" 
d="M55 0l41 211h266l187 936h-244l29 219h516l-232 -1155h256l-40 -211h-779z" />
    <glyph glyph-name="two.tnum" unicode="&#xe542;" 
d="M31 0l-11 158l375 319q89 76 149 134t109.5 119.5t73 119.5t23.5 117q0 95 -56 142.5t-133 47.5q-57 0 -119.5 -27t-96.5 -54l-34 -27l-118 178q7 7 19.5 18t54.5 39t86.5 50t112.5 39.5t136 17.5q59 0 115 -12.5t108.5 -41.5t92 -71.5t63 -106.5t23.5 -143
q0 -74 -22 -146.5t-55.5 -131t-88.5 -123t-106 -112.5t-122 -110l-200 -174h497l-33 -219h-843z" />
    <glyph glyph-name="three.tnum" unicode="&#xe543;" 
d="M18 80l107 192q4 -3 12 -8.5t34 -20t54 -25t70.5 -19.5t85.5 -9q115 0 184.5 61t69.5 155q0 87 -63.5 128t-159.5 41l-93 -6l25 222q59 1 125.5 22.5t123 56.5t93.5 86t37 105q0 55 -34 84t-99 29q-58 0 -121 -24t-97 -48l-34 -23l-98 183q7 5 19 14t51.5 31t82 39
t106 31t126.5 14q162 0 260 -81.5t98 -215.5q0 -67 -26.5 -128t-73 -107.5t-97 -80.5t-108.5 -61q103 -37 161 -117t58 -184q0 -115 -66.5 -216t-185.5 -163t-262 -62q-61 0 -121 11t-102 26t-75.5 30.5t-50.5 26.5z" />
    <glyph glyph-name="four.tnum" unicode="&#xe544;" 
d="M0 334l12 170l717 868h279l-166 -835h151l-39 -203h-153l-66 -334h-250l66 334h-551zM276 537h316l100 501z" />
    <glyph glyph-name="five.tnum" unicode="&#xe545;" 
d="M39 76l96 198q11 -9 31.5 -22t85.5 -35t133 -22q115 0 186.5 74.5t71.5 176.5q0 96 -101 162t-311 107l131 651h639l-30 -219h-416l-51 -270q403 -129 403 -412q0 -109 -46 -203t-121 -155.5t-168 -96.5t-189 -35q-59 0 -116 10.5t-96.5 25t-70.5 29.5t-46 26z" />
    <glyph glyph-name="six.tnum" unicode="&#xe546;" 
d="M57 434q0 110 31 222t87 216.5t141 196.5t187 161.5t230.5 112t267.5 48.5l19 -222q-121 -8 -222.5 -41t-175.5 -84.5t-127 -111.5t-92 -133q108 104 252 104q107 0 185.5 -53.5t115.5 -137.5t37 -186q0 -101 -39 -200t-107.5 -177t-170.5 -126t-219 -48q-194 0 -297 127
t-103 332zM311 422q0 -110 42.5 -171t121.5 -61q105 0 178.5 99t73.5 231q0 75 -33.5 117.5t-118.5 42.5q-55 0 -115 -19t-88.5 -34.5t-39.5 -24.5q-21 -99 -21 -180z" />
    <glyph glyph-name="seven.tnum" unicode="&#xe547;" 
d="M45 31q397 549 723 1104h-524l24 231h842l-8 -149q-345 -584 -805 -1242z" />
    <glyph glyph-name="eight.tnum" unicode="&#xe548;" 
d="M438 -25q-78 0 -148 21.5t-125.5 61.5t-88.5 104.5t-33 144.5q0 59 19.5 112.5t49.5 94t77.5 80.5t92 68.5t103.5 60.5q-131 131 -131 274q0 159 129 276.5t317 117.5q149 0 245.5 -79t96.5 -222q0 -64 -21 -121t-60.5 -103.5t-85.5 -83t-107 -73.5q85 -71 133.5 -142
t48.5 -159q0 -108 -68 -207.5t-187.5 -162.5t-256.5 -63zM688 385q0 50 -36 95.5t-109 107.5q-52 -28 -84.5 -47t-71.5 -46.5t-61 -51.5t-37 -54.5t-15 -62.5q0 -63 46.5 -105.5t121.5 -42.5q96 0 171 65t75 142zM514 1020q0 -89 94 -180q97 56 149 110.5t52 122.5
q0 53 -33 85t-92 32q-78 0 -124 -50.5t-46 -119.5z" />
    <glyph glyph-name="nine.tnum" unicode="&#xe549;" 
d="M106 -25l-18 222q124 7 228 41.5t179 89t128 118.5t90 140q-109 -113 -260 -113q-155 0 -241.5 106t-86.5 261q0 101 38.5 200t106 177t168 126t215.5 48q192 0 295 -127.5t103 -331.5q0 -132 -43 -266t-126.5 -254.5t-196 -216t-263 -154.5t-316.5 -66zM535 696
q110 0 243 76q19 93 19 164q0 116 -41.5 178t-118.5 62q-104 0 -175 -99t-71 -229q0 -72 31 -112t113 -40z" />
    <glyph glyph-name="zero.onum_tab" unicode="&#xe555;" 
d="M37 393q0 109 42 217t114.5 194t180.5 139.5t230 53.5q95 0 172.5 -33t126.5 -89t75 -128.5t26 -154.5q0 -81 -24.5 -167t-73.5 -166t-115.5 -143.5t-158.5 -102t-194 -38.5q-97 0 -174.5 34t-126 92.5t-74.5 133t-26 158.5zM270 381q0 -94 43 -149.5t138 -55.5
q77 0 139.5 38.5t100 99.5t57.5 131t20 139q0 98 -43 155.5t-137 57.5q-62 0 -116 -27t-90 -70.5t-62 -98.5t-38 -111t-12 -109z" />
    <glyph glyph-name="zero.onum_tab_zero" unicode="&#xe556;" 
d="M37 393q0 109 42 217t114.5 194t180.5 139.5t230 53.5q95 0 172.5 -33t126.5 -89t75 -128.5t26 -154.5q0 -81 -24.5 -167t-73.5 -166t-115.5 -143.5t-158.5 -102t-194 -38.5q-97 0 -174.5 34t-126 92.5t-74.5 133t-26 158.5zM270 381q0 -94 43 -149.5t138 -55.5
q77 0 139.5 38.5t100 99.5t57.5 131t20 139q0 98 -43 155.5t-137 57.5q-62 0 -116 -27t-90 -70.5t-62 -98.5t-38 -111t-12 -109zM416 451q0 52 33.5 95.5t95.5 43.5q82 0 82 -80q0 -52 -33.5 -96.5t-95.5 -44.5q-82 0 -82 82z" />
    <glyph glyph-name="one.onum_tab" unicode="&#xe557;" 
d="M106 0l29 197h238l123 571h-220l31 205h473l-166 -776h213l-41 -197h-680z" />
    <glyph glyph-name="two.onum_tab" unicode="&#xe558;" 
d="M76 0v145q11 7 30.5 20t75.5 52.5t106.5 78.5t113 93.5t107 103t75 100.5t30.5 93q0 48 -30 76.5t-86 28.5q-40 0 -89 -17.5t-77 -35.5l-29 -17l-100 162q6 5 18 12.5t49.5 27t76.5 34.5t96.5 27.5t113.5 12.5q145 0 231 -75t86 -195q0 -61 -26 -123.5t-62.5 -112.5
t-97.5 -108t-109.5 -96.5t-119.5 -91.5h395l-25 -195h-753z" />
    <glyph glyph-name="three.onum_tab" unicode="&#xe559;" 
d="M-8 -217q93 0 182 16.5t165.5 49.5t123.5 89.5t47 129.5q0 161 -238 161h-41l21 183q46 5 107.5 27.5t120.5 57t100 85.5t41 104q0 105 -129 105q-44 0 -96 -16.5t-82 -32.5l-29 -17l-74 174q19 11 51.5 27.5t121 43.5t163.5 27q90 0 161.5 -27.5t117.5 -89.5t46 -149
q0 -67 -29.5 -128.5t-78.5 -108.5t-99.5 -81t-105.5 -59q101 -31 155 -100.5t54 -175.5q0 -115 -64.5 -209t-173.5 -153.5t-247.5 -91.5t-290.5 -32v191z" />
    <glyph glyph-name="four.onum_tab" unicode="&#xe55a;" 
d="M-37 27l14 170l695 782h256l-164 -768h176l-39 -184h-176l-90 -422h-238l90 422h-524zM219 211h309l99 467z" />
    <glyph glyph-name="five.onum_tab" unicode="&#xe55b;" 
d="M27 -215q68 0 129.5 6t131 26t119 52t82.5 88t33 131q0 104 -76 158.5t-274 87.5l135 639h596l-22 -195h-379l-64 -295q76 -24 131.5 -51t106.5 -70.5t77.5 -107.5t26.5 -148q0 -126 -60 -225.5t-164.5 -161.5t-239 -94.5t-289.5 -32.5v193z" />
    <glyph glyph-name="six.onum_tab" unicode="&#xe55c;" 
d="M78 434q0 110 30 222t85 216.5t138 196.5t183 161.5t225.5 112t261.5 48.5l19 -201q-121 -8 -223 -44.5t-176.5 -93.5t-127.5 -124t-90 -146q111 111 254 111q149 0 232.5 -106.5t83.5 -260.5q0 -101 -38 -200t-103.5 -177t-164 -126t-210.5 -48q-124 0 -211 61
t-127.5 162.5t-40.5 235.5zM580 690q-55 0 -114.5 -22t-91.5 -44l-32 -22q-20 -96 -20 -180q0 -250 153 -250q99 0 171.5 104t72.5 244q0 79 -30.5 124.5t-108.5 45.5z" />
    <glyph glyph-name="seven.onum_tab" unicode="&#xe55d;" 
d="M-37 -365q407 565 735 1119h-532l22 219h834l-8 -150q-341 -578 -805 -1241z" />
    <glyph glyph-name="eight.onum_tab" unicode="&#xe55e;" 
d="M428 -25q-98 0 -179.5 35.5t-134.5 112t-53 180.5q0 74 26 137t76.5 114t102.5 88.5t125 78.5q-123 137 -123 276q0 160 126 277t302 117q141 0 233.5 -79.5t92.5 -219.5q0 -66 -21.5 -123.5t-63 -105t-87.5 -84t-109 -74.5q78 -73 121 -141.5t43 -157.5
q0 -82 -38.5 -160.5t-102 -138t-152.5 -96t-184 -36.5zM657 383q0 52 -32 99.5t-93 105.5q-58 -33 -97.5 -60t-77 -61t-56 -71t-18.5 -79q0 -66 44 -105.5t109 -39.5q88 0 154.5 65.5t66.5 145.5zM514 1018q0 -91 84 -182q98 58 149.5 114.5t51.5 128.5q0 55 -32 85t-89 30
q-78 0 -121 -51.5t-43 -124.5z" />
    <glyph glyph-name="nine.onum_tab" unicode="&#xe55f;" 
d="M29 -227q123 9 226.5 46.5t177.5 96t127 127t89 150.5q-113 -117 -256 -117q-149 0 -232 106t-83 258q0 99 38 197t103.5 175.5t163.5 126t209 48.5q94 0 167 -35t119 -97t69.5 -144.5t23.5 -180.5q0 -133 -42 -267.5t-123.5 -255t-192 -216t-257.5 -154t-309 -65.5z
M473 279q53 0 111.5 21.5t90.5 43.5l32 21q20 90 20 180q0 118 -38.5 182t-113.5 64q-99 0 -171 -103.5t-72 -243.5q0 -77 30.5 -121t110.5 -44z" />
    <glyph glyph-name="braceleft.smcp" unicode="&#xf60c;" horiz-adv-x="694" 
d="M190 -20q0 27 4.5 86t4.5 94q0 274 -191 280l12 142q18 1 33 2.5t40 9t44.5 20t42 36.5t39 57t30 83.5t19.5 112.5q18 212 123.5 297.5t325.5 85.5l-10 -135q-60 -5 -100.5 -13.5t-68.5 -24t-44.5 -36.5t-27 -52t-16.5 -69.5t-12 -91.5v-4q-11 -89 -31 -150.5t-52 -99.5
t-66 -58.5t-84 -37.5v-4q44 -22 71 -42.5t51 -56t35 -90t11 -133.5q0 -28 -3 -95.5t-3 -92.5q0 -68 16 -103t64 -56.5t143 -30.5l-15 -136q-147 0 -232 34.5t-119 99t-34 172.5z" />
    <glyph glyph-name="braceright.smcp" unicode="&#xf60d;" horiz-adv-x="739" 
d="M14 -190q71 7 115.5 20t72 31.5t42 54t22 74.5t15.5 106v4q10 85 25.5 148t34.5 104.5t48.5 72t58 48.5t72.5 37v4q-43 15 -71 33t-53.5 49.5t-37.5 81t-12 119.5q0 28 3 88t3 80q0 67 -16.5 102t-64 55.5t-142.5 28.5l14 135q201 0 293 -71t92 -244q0 -21 -3 -68t-3 -67
q0 -49 8 -88.5t20 -65.5t30 -45t34.5 -29t37.5 -16t34.5 -7.5t30.5 -2.5l-12 -142q-113 -3 -175 -95t-77 -275q-10 -106 -34 -176t-74 -122t-133 -75t-208 -23z" />
    <glyph glyph-name="bracketleft.smcp" unicode="&#xf60e;" horiz-adv-x="651" 
d="M109 -319l141 1603h389l-12 -135h-219l-117 -1333h219l-12 -135h-389z" />
    <glyph glyph-name="bracketright.smcp" unicode="&#xf60f;" horiz-adv-x="684" 
d="M16 -184h220l116 1333h-219l12 135h390l-142 -1603h-387z" />
    <glyph glyph-name="parenleft.smcp" unicode="&#xf618;" horiz-adv-x="645" 
d="M94 379q0 118 19 232.5t48.5 204t66 169.5t73 137t66 98.5t48.5 61.5l19 21l162 -46q-7 -7 -18 -20.5t-44 -59t-63 -95.5t-66.5 -129t-63 -160.5t-44.5 -188.5t-18 -215q0 -114 19 -227t46.5 -192t55 -142t46.5 -94l19 -31l-156 -53q-9 11 -23.5 33t-51.5 94.5
t-65.5 151.5t-51.5 201.5t-23 248.5z" />
    <glyph glyph-name="parenright.smcp" unicode="&#xf619;" horiz-adv-x="612" 
d="M-20 -297q13 16 35 45t78 124t99 195.5t78 251.5t35 299q0 111 -19 218t-46 179.5t-54 129.5t-46 85l-19 27l158 46q9 -10 23 -29.5t50 -86t64 -140t50.5 -189.5t22.5 -237q0 -118 -19.5 -235.5t-50.5 -211t-68.5 -178.5t-75 -147t-68.5 -107.5t-51 -68.5l-19 -23z" />
    <glyph glyph-name="aringacute.smcp" unicode="&#xf625;" horiz-adv-x="1042" 
d="M-82 0l547 956q-39 36 -39 99q0 73 59.5 130.5t171.5 57.5q95 0 142 -40.5t47 -102.5q0 -49 -26.5 -92t-76.5 -70l168 -938h-233l-31 197h-375l-106 -197h-248zM520 1272l-51 137l444 195l72 -189zM565 731l-190 -346h243zM618 991q39 0 76 28t37 73q0 29 -19.5 49
t-58.5 20q-56 0 -83 -32.5t-27 -71.5q0 -66 75 -66z" />
    <glyph glyph-name="zero.dnom" unicode="&#xf655;" horiz-adv-x="770" 
d="M276 -14q-123 0 -184 83.5t-61 221.5q0 72 15.5 147t48.5 147.5t79.5 129.5t114.5 92t147 35q125 0 186.5 -83t61.5 -220q0 -71 -16 -147t-50 -148.5t-81 -130t-115 -92.5t-146 -35zM303 139q46 0 84 45t60.5 112t34.5 136.5t12 126.5q0 62 -18 95.5t-64 33.5
q-39 0 -72 -30.5t-54.5 -77t-37 -103t-22.5 -108t-7 -93.5q0 -137 84 -137z" />
    <glyph glyph-name="one.dnom" unicode="&#xf656;" horiz-adv-x="608" 
d="M-49 0l29 143h178l108 541h-164l19 143h358l-137 -684h164l-29 -143h-526z" />
    <glyph glyph-name="two.dnom" unicode="&#xf657;" horiz-adv-x="698" 
d="M-35 -25v115l234 195q104 86 157.5 147.5t53.5 120.5q0 39 -26 61.5t-71 22.5q-35 0 -69 -13.5t-51 -26.5l-17 -13l-98 127q4 4 12.5 11.5t37 25.5t59 32t77 25.5t94.5 11.5q112 0 180 -59.5t68 -165.5q0 -101 -61.5 -187t-179.5 -184l-113 -94h309l-20 -152h-576z" />
    <glyph glyph-name="three.dnom" unicode="&#xf658;" horiz-adv-x="647" 
d="M-47 43l63 147q8 -5 22 -13t56.5 -21t85.5 -13q69 0 104 31.5t35 73.5q0 45 -36.5 65.5t-89.5 20.5h-64l18 149q74 2 142.5 44t68.5 96q0 55 -71 55q-28 0 -58.5 -9t-47.5 -19l-17 -9l-72 125q12 9 34.5 21.5t87 33.5t124.5 21q104 0 165.5 -52.5t61.5 -127.5
q0 -77 -64 -141.5t-139 -92.5q158 -57 158 -182q0 -102 -98.5 -181t-245.5 -79q-63 0 -118.5 14t-79.5 28z" />
    <glyph glyph-name="four.dnom" unicode="&#xf659;" horiz-adv-x="722" 
d="M274 0l37 182h-340l9 129l426 520h212l-100 -507h105l-27 -142h-107l-36 -182h-179zM145 324h195l61 309z" />
    <glyph glyph-name="five.dnom" unicode="&#xf65a;" horiz-adv-x="643" 
d="M197 -14q-39 0 -77.5 7.5t-65.5 17.5t-48.5 20.5t-31.5 18.5l-11 7l82 140q7 -6 20 -15t52 -24t76 -15q66 0 105.5 36.5t39.5 82.5q0 36 -25 64t-70 45.5t-82.5 26.5t-88.5 18l82 411h434l-29 -151h-276l-29 -146q58 -15 104.5 -37.5t85.5 -54t60.5 -75.5t21.5 -97
q0 -86 -47.5 -151t-121.5 -97t-160 -32z" />
    <glyph glyph-name="six.dnom" unicode="&#xf65b;" horiz-adv-x="724" 
d="M281 -14q-130 0 -200.5 78.5t-70.5 205.5q0 80 24 159t74.5 152t121 130t170 93t214.5 40l13 -152q-135 -3 -236 -59t-155 -152q78 62 172 62q100 0 157.5 -67t57.5 -165q0 -80 -41 -154t-121 -122.5t-180 -48.5zM330 397q-69 0 -140 -57q-2 -16 -2 -51q0 -150 101 -150
q59 0 103 46t44 122q0 90 -106 90z" />
    <glyph glyph-name="seven.dnom" unicode="&#xf65c;" horiz-adv-x="632" 
d="M152 -23l-183 46q257 360 428 645h-325l18 159h567l-12 -90q-149 -250 -493 -760z" />
    <glyph glyph-name="eight.dnom" unicode="&#xf65d;" horiz-adv-x="731" 
d="M281 -14q-128 0 -205.5 59.5t-77.5 149.5q0 35 15 67t32.5 53.5t54.5 48t57 38t64 36.5q-54 42 -82 85t-28 98q0 95 81 158t207 63q115 0 183.5 -55.5t68.5 -143.5q0 -68 -43 -115.5t-131 -97.5q121 -97 121 -201q0 -99 -85.5 -171t-231.5 -72zM289 133q46 0 80 29t34 80
q0 32 -16.5 57.5t-54.5 56.5q-76 -43 -100 -65q-37 -36 -37 -78q0 -40 28 -60t66 -20zM285 612q0 -8 2 -15.5t4.5 -13.5t8.5 -13.5t9.5 -11.5t12 -11.5t12.5 -10.5t14.5 -11.5t13.5 -10.5q111 58 111 115q0 30 -23.5 47.5t-62.5 17.5q-44 0 -73 -23.5t-29 -58.5z" />
    <glyph glyph-name="nine.dnom" unicode="&#xf65e;" horiz-adv-x="718" 
d="M49 -16l-12 151q138 3 241 61.5t154 157.5q-79 -63 -176 -63q-96 0 -152.5 65.5t-56.5 159.5q0 80 40.5 154t119.5 123t176 49q130 0 200 -79t70 -206q0 -80 -24 -159t-74.5 -152t-121 -130t-170 -92.5t-214.5 -39.5zM334 436q66 0 139 58q0 7 1 22t1 23q0 149 -100 149
q-57 0 -99.5 -46t-42.5 -122q0 -36 24 -60t77 -24z" />
    <glyph glyph-name="zero.numr" unicode="&#xf661;" horiz-adv-x="770" 
d="M381 524q-123 0 -184.5 83.5t-61.5 221.5q0 72 15.5 147t49 147.5t80 129.5t114.5 92t147 35q125 0 186 -83t61 -220q0 -71 -16 -146.5t-50 -148.5t-81 -130.5t-114.5 -92.5t-145.5 -35zM408 678q46 0 84 45t60 112t34 136.5t12 126.5q0 62 -18 95.5t-64 33.5
q-48 0 -86.5 -45t-60.5 -112.5t-33.5 -134.5t-11.5 -120q0 -137 84 -137z" />
    <glyph glyph-name="one.numr" unicode="&#xf662;" horiz-adv-x="612" 
d="M57 539l29 143h178l109 541h-164l18 143h359l-137 -684h163l-28 -143h-527z" />
    <glyph glyph-name="two.numr" unicode="&#xf663;" horiz-adv-x="700" 
d="M74 539v114l233 195q104 86 157.5 147.5t53.5 120.5q0 40 -25.5 62t-70.5 22q-35 0 -69 -13t-51 -27l-17 -13l-99 127q5 4 13.5 11.5t36.5 25.5t58.5 32t77.5 25.5t95 11.5q112 0 180 -59.5t68 -165.5q0 -101 -61.5 -187t-180.5 -184l-113 -94h310l-21 -151h-575z" />
    <glyph glyph-name="three.numr" unicode="&#xf664;" horiz-adv-x="647" 
d="M57 582l64 147q8 -5 22 -13t56.5 -21t85.5 -13q69 0 104 31t35 73q0 45 -37 65.5t-90 20.5h-64l19 150q74 2 142.5 43.5t68.5 95.5q0 28 -19.5 42t-52.5 14q-28 0 -58.5 -9.5t-47.5 -18.5l-17 -9l-71 125q12 8 34 20.5t86.5 33.5t124.5 21q104 0 166 -52.5t62 -127.5
q0 -77 -64 -141t-139 -92q158 -57 158 -183q0 -102 -98.5 -181t-245.5 -79q-63 0 -119 14.5t-80 29.5z" />
    <glyph glyph-name="four.numr" unicode="&#xf665;" horiz-adv-x="724" 
d="M381 539l37 182h-340l8 129l426 520h213l-100 -508h104l-27 -141h-106l-37 -182h-178zM252 862h194l62 309z" />
    <glyph glyph-name="five.numr" unicode="&#xf666;" horiz-adv-x="645" 
d="M301 524q-62 0 -120 18t-85 36l-28 18l82 139q7 -6 20 -15t51.5 -23.5t75.5 -14.5q66 0 105.5 36.5t39.5 82.5q0 36 -24.5 63.5t-70.5 45t-83 26.5t-88 18l82 412h434l-28 -152h-277l-29 -145q122 -33 197.5 -97.5t75.5 -166.5q0 -86 -48 -151t-122 -97.5t-160 -32.5z
" />
    <glyph glyph-name="six.numr" unicode="&#xf667;" horiz-adv-x="722" 
d="M385 524q-130 0 -200 79t-70 206q0 80 24 159t74.5 152t121 130t170 92.5t214.5 39.5l12 -151q-135 -3 -236 -59t-155 -152q77 61 172 61q100 0 157.5 -66.5t57.5 -164.5q0 -80 -41 -154t-121 -123t-180 -49zM434 936q-68 0 -139 -57q-2 -16 -2 -52q0 -149 100 -149
q59 0 103.5 46t44.5 122q0 90 -107 90z" />
    <glyph glyph-name="seven.numr" unicode="&#xf668;" horiz-adv-x="634" 
d="M258 516l-182 45q257 360 428 645h-326l19 160h567l-12 -90q-141 -237 -494 -760z" />
    <glyph glyph-name="eight.numr" unicode="&#xf669;" horiz-adv-x="731" 
d="M385 524q-128 0 -205.5 59.5t-77.5 149.5q0 35 15 67t33 54t55 48.5t57 38.5t64 36q-55 42 -83 84.5t-28 97.5q0 95 81.5 158t207.5 63q115 0 183.5 -55t68.5 -143q0 -68 -43 -115.5t-131 -97.5q120 -96 120 -201q0 -99 -86 -171.5t-231 -72.5zM393 672q46 0 80.5 28.5
t34.5 79.5q0 32 -17 58t-55 57q-76 -43 -100 -65q-37 -36 -37 -78q0 -40 28 -60t66 -20zM389 1151q0 -9 2 -17t7.5 -16.5t9 -14t13.5 -14t14 -12t16.5 -12.5t15.5 -12q111 59 111 114q0 30 -23.5 48t-62.5 18q-44 0 -73.5 -23.5t-29.5 -58.5z" />
    <glyph glyph-name="nine.numr" unicode="&#xf66a;" horiz-adv-x="718" 
d="M154 522l-13 152q138 3 242 61.5t154 157.5q-80 -64 -177 -64q-96 0 -152 66t-56 160q0 80 40.5 154t119 122.5t175.5 48.5q130 0 200.5 -78.5t70.5 -205.5q0 -80 -24 -159t-74.5 -152t-121 -130t-170 -93t-214.5 -40zM438 975q69 0 140 57q0 7 1 22t1 23q0 150 -101 150
q-57 0 -99 -46t-42 -122q0 -36 23.5 -60t76.5 -24z" />
    <glyph glyph-name="abreve.smcp" unicode="&#xf66d;" horiz-adv-x="1036" 
d="M-84 0l576 1006h239l178 -1006h-233l-31 197h-375l-106 -197h-248zM563 731l-190 -346h243zM655 1120q-124 0 -192 57t-68 150q0 48 19 107h133q-8 -46 -8 -64q0 -58 31 -81t89 -23q76 0 132 39.5t67 128.5h133q-8 -145 -97.5 -229.5t-238.5 -84.5z" />
    <glyph glyph-name="amacron.smcp" unicode="&#xf66e;" horiz-adv-x="1036" 
d="M-84 0l576 1006h239l178 -1006h-233l-31 197h-375l-106 -197h-248zM563 731l-190 -346h243zM377 1200l33 152h561l-33 -152h-561z" />
    <glyph glyph-name="aogonek.smcp" unicode="&#xf66f;" horiz-adv-x="1036" 
d="M-84 0l576 1006h239l178 -1006q-225 -181 -225 -276q0 -52 66 -52q41 0 88 21v-150q-82 -28 -156 -28q-86 0 -135 42t-49 117q0 36 11.5 72.5t26 63t44.5 62.5t47.5 54.5t55.5 56.5l17 17h-24l-31 197h-375l-106 -197h-248zM563 731l-190 -346h243z" />
    <glyph glyph-name="aeacute.smcp" unicode="&#xf670;" horiz-adv-x="1445" 
d="M-117 0l776 997h785l-41 -211h-428l-35 -178h336l-43 -209h-336l-37 -188h447l-41 -211h-688l43 225h-318l-168 -225h-252zM461 436h203l71 365zM864 1122l-51 138l444 194l72 -188z" />
    </font>
</defs>
</svg>
